<svg xmlns="http://www.w3.org/2000/svg" xmlns:xlink="http://www.w3.org/1999/xlink" width="566.566" height="130.615" viewBox="0 0 566.566 130.615">
  <defs>
    <radialGradient id="radial-gradient" cx="0.077" cy="0.019" r="1.465" gradientTransform="matrix(1, 0, 0, -1, -0.001, 9.666)" gradientUnits="objectBoundingBox">
      <stop offset="0" stop-color="#f4f4f5"/>
      <stop offset="0.477" stop-color="#f7f8fa"/>
      <stop offset="0.715" stop-color="#fff"/>
    </radialGradient>
    <radialGradient id="radial-gradient-2" cx="0.077" cy="0.019" r="1.465" gradientTransform="matrix(1, 0, 0, -1, 0, 9.666)" xlink:href="#radial-gradient"/>
    <radialGradient id="radial-gradient-3" cx="0.077" cy="0.019" r="1.465" gradientTransform="matrix(1, 0, 0, -1, 0, 9.666)" xlink:href="#radial-gradient"/>
    <radialGradient id="radial-gradient-4" cx="0.077" cy="0.019" r="1.465" gradientTransform="matrix(1, 0, 0, -1, 0, 9.666)" xlink:href="#radial-gradient"/>
  </defs>
  <g id="Grupo_91638" data-name="Grupo 91638" transform="translate(-775.008 -723.675)">
    <g id="Grupo_90881" data-name="Grupo 90881" transform="translate(-522.146 476.392)">
      <g id="Grupo_90882" data-name="Grupo 90882" transform="translate(1297.153 247.283)">
        <g id="Al_acercarse" data-name="Al acercarse" transform="translate(464.535 96.461)" style="isolation: isolate">
          <path id="Trazado_150624" data-name="Trazado 150624" d="M-22.939-2.6h-1.167V0h-1.465V-7.109h2.642a2.986,2.986,0,0,1,1.943.562A1.938,1.938,0,0,1-20.3-4.961a2.187,2.187,0,0,1-.315,1.213,2.148,2.148,0,0,1-.955.774l1.538,2.905V0h-1.572Zm-1.167-1.187h1.182a1.21,1.21,0,0,0,.854-.281,1,1,0,0,0,.3-.774,1.074,1.074,0,0,0-.286-.791,1.187,1.187,0,0,0-.876-.288h-1.177ZM-16.221,0a1.567,1.567,0,0,1-.142-.474A1.707,1.707,0,0,1-17.7.1a1.876,1.876,0,0,1-1.287-.449,1.445,1.445,0,0,1-.51-1.133,1.493,1.493,0,0,1,.623-1.289,3.072,3.072,0,0,1,1.8-.454h.649v-.3a.871.871,0,0,0-.188-.586.74.74,0,0,0-.593-.22.841.841,0,0,0-.559.171.581.581,0,0,0-.2.469h-1.411a1.417,1.417,0,0,1,.283-.85,1.872,1.872,0,0,1,.8-.613,2.918,2.918,0,0,1,1.162-.222,2.306,2.306,0,0,1,1.55.491A1.717,1.717,0,0,1-15-3.511v2.29a2.526,2.526,0,0,0,.21,1.138V0Zm-1.167-.981a1.215,1.215,0,0,0,.576-.139.914.914,0,0,0,.391-.374V-2.4h-.527q-1.06,0-1.128.732l0,.083a.565.565,0,0,0,.186.435A.721.721,0,0,0-17.388-.981Zm3.247-1.7a3.184,3.184,0,0,1,.554-1.968,1.8,1.8,0,0,1,1.516-.732A1.618,1.618,0,0,1-10.8-4.8V-7.5H-9.38V0h-1.274l-.068-.562A1.661,1.661,0,0,1-12.08.1a1.793,1.793,0,0,1-1.5-.735A3.286,3.286,0,0,1-14.141-2.681Zm1.411.105a2.086,2.086,0,0,0,.259,1.139.843.843,0,0,0,.752.4.944.944,0,0,0,.923-.553V-3.681a.931.931,0,0,0-.913-.553Q-12.729-4.233-12.729-2.576ZM-6.8,0H-8.213V-5.283H-6.8ZM-8.3-6.65a.7.7,0,0,1,.212-.522A.8.8,0,0,1-7.5-7.378a.8.8,0,0,1,.576.205.691.691,0,0,1,.215.522.693.693,0,0,1-.217.527.8.8,0,0,1-.574.205.8.8,0,0,1-.574-.205A.693.693,0,0,1-8.3-6.65ZM-2.573,0a1.567,1.567,0,0,1-.142-.474A1.707,1.707,0,0,1-4.048.1,1.876,1.876,0,0,1-5.334-.352a1.445,1.445,0,0,1-.51-1.133,1.493,1.493,0,0,1,.623-1.289,3.072,3.072,0,0,1,1.8-.454h.649v-.3a.871.871,0,0,0-.188-.586.74.74,0,0,0-.593-.22.841.841,0,0,0-.559.171.581.581,0,0,0-.2.469H-5.728a1.417,1.417,0,0,1,.283-.85,1.872,1.872,0,0,1,.8-.613,2.918,2.918,0,0,1,1.162-.222,2.306,2.306,0,0,1,1.55.491,1.717,1.717,0,0,1,.574,1.379v2.29a2.526,2.526,0,0,0,.21,1.138V0ZM-3.74-.981a1.215,1.215,0,0,0,.576-.139.914.914,0,0,0,.391-.374V-2.4H-3.3q-1.06,0-1.128.732l0,.083a.565.565,0,0,0,.186.435A.721.721,0,0,0-3.74-.981ZM1.924-1.04a.926.926,0,0,0,.635-.215.753.753,0,0,0,.254-.571H4.136a1.81,1.81,0,0,1-.293.984,1.933,1.933,0,0,1-.789.693A2.468,2.468,0,0,1,1.948.1,2.294,2.294,0,0,1,.161-.623a2.85,2.85,0,0,1-.654-1.99v-.093A2.817,2.817,0,0,1,.156-4.653a2.267,2.267,0,0,1,1.782-.728,2.222,2.222,0,0,1,1.589.564,2,2,0,0,1,.608,1.5H2.813a.97.97,0,0,0-.254-.67.847.847,0,0,0-.645-.258.85.85,0,0,0-.745.359A2.083,2.083,0,0,0,.918-2.717v.147A2.109,2.109,0,0,0,1.167-1.4.861.861,0,0,0,1.924-1.04ZM6.631-6.582v1.3h.9v1.035h-.9v2.637a.63.63,0,0,0,.112.42.564.564,0,0,0,.43.127A2.25,2.25,0,0,0,7.588-1.1V-.029A2.905,2.905,0,0,1,6.733.1,1.347,1.347,0,0,1,5.22-1.4V-4.248H4.448V-5.283H5.22v-1.3ZM9.81,0H8.394V-5.283H9.81Zm-1.5-6.65a.7.7,0,0,1,.212-.522A.8.8,0,0,1,9.1-7.378a.8.8,0,0,1,.576.205.691.691,0,0,1,.215.522.693.693,0,0,1-.217.527.8.8,0,0,1-.574.205.8.8,0,0,1-.574-.205A.693.693,0,0,1,8.311-6.65Zm4.639,4.927.981-3.56h1.475L13.623,0H12.275L10.493-5.283h1.475Zm2.783-.967a3.133,3.133,0,0,1,.3-1.4,2.216,2.216,0,0,1,.872-.952,2.543,2.543,0,0,1,1.321-.337,2.406,2.406,0,0,1,1.746.654,2.626,2.626,0,0,1,.754,1.777l.01.361a2.761,2.761,0,0,1-.679,1.951A2.359,2.359,0,0,1,18.237.1a2.371,2.371,0,0,1-1.824-.732,2.81,2.81,0,0,1-.681-1.992Zm1.411.1a1.975,1.975,0,0,0,.283,1.152.934.934,0,0,0,.811.4.936.936,0,0,0,.8-.394,2.161,2.161,0,0,0,.288-1.259,1.955,1.955,0,0,0-.288-1.144.936.936,0,0,0-.811-.406.921.921,0,0,0-.8.4A2.2,2.2,0,0,0,17.144-2.59Zm7.324,1.13a.455.455,0,0,0-.256-.408,2.912,2.912,0,0,0-.823-.266q-1.885-.4-1.885-1.6a1.452,1.452,0,0,1,.583-1.174,2.354,2.354,0,0,1,1.526-.471,2.533,2.533,0,0,1,1.609.474,1.493,1.493,0,0,1,.6,1.23H24.414a.683.683,0,0,0-.2-.5.827.827,0,0,0-.61-.2.845.845,0,0,0-.552.161.509.509,0,0,0-.2.41.435.435,0,0,0,.222.378,2.286,2.286,0,0,0,.75.249,6.122,6.122,0,0,1,.889.237A1.46,1.46,0,0,1,25.84-1.519a1.378,1.378,0,0,1-.62,1.169,2.675,2.675,0,0,1-1.6.447,2.794,2.794,0,0,1-1.179-.237,1.979,1.979,0,0,1-.808-.649,1.509,1.509,0,0,1-.293-.891h1.338a.737.737,0,0,0,.278.576,1.1,1.1,0,0,0,.693.2,1.022,1.022,0,0,0,.613-.154A.479.479,0,0,0,24.468-1.46Z" transform="translate(34 7)" fill="#091c30"/>
        </g>
        <rect id="Rectangle_32727" data-name="Rectangle 32727" width="140.635" height="54.476" transform="translate(425.931 0)" fill="#71c6c1" opacity="0.6"/>
        <rect id="Rectangle_32731" data-name="Rectangle 32731" width="140.635" height="12.919" transform="translate(425.931 117.696)" fill="#71c6c1" opacity="0.6"/>
        <g id="Group_87331" data-name="Group 87331" transform="translate(454.679 8.951)">
          <g id="Group_18531" data-name="Group 18531">
            <g id="Group_18423" data-name="Group 18423">
              <g id="Group_18421" data-name="Group 18421">
                <g id="Group_18420" data-name="Group 18420">
                  <g id="Group_18419" data-name="Group 18419">
                    <path id="Path_40936" data-name="Path 40936" d="M405.761,554.407a39.577,39.577,0,1,1-39.578-39.575h0A39.577,39.577,0,0,1,405.761,554.407Z" transform="translate(-326.607 -514.832)" fill="#fff"/>
                  </g>
                </g>
              </g>
              <path id="Path_40937" data-name="Path 40937" d="M405.76,554.407a39.42,39.42,0,1,0,0,.312Z" transform="translate(-326.607 -514.832)" fill="url(#radial-gradient)"/>
              <path id="Path_40938" data-name="Path 40938" d="M393.834,551.858a30.209,30.209,0,1,0-30.209,30.209h0a30.1,30.1,0,0,0,30.209-29.984Z" transform="translate(-323.929 -512.151)" fill="none" stroke="#1d272b" stroke-miterlimit="10" stroke-width="2"/>
              <g id="Group_18422" data-name="Group 18422" transform="translate(7.011 22.22)">
                <path id="Path_40939" data-name="Path 40939" d="M399.779,530.78a39.581,39.581,0,0,1-68.14,39.411,39.456,39.456,0,0,0,68.14-39.411Z" transform="translate(-331.639 -530.78)" fill="#e7e9eb"/>
              </g>
            </g>
          </g>
          <g id="_1K8T22.tif" data-name="1K8T22.tif" transform="translate(1734.202 -1230.116)">
            <g id="Grupo_90886" data-name="Grupo 90886" transform="translate(-1718.198 1246.652)">
              <path id="Trazado_149964" data-name="Trazado 149964" d="M-1466.254,1336.1q-3,0-6.007,0c-.855,0-1.18-.251-1.356-1.086a6.641,6.641,0,0,0-2.177-3.737,1.176,1.176,0,0,1-.268-1.776q3.01-5.224,6.027-10.443a1.158,1.158,0,0,1,1.877-.476,20.927,20.927,0,0,1,9.243,15.328c.183,1.516.257,2.285-1.945,2.2C-1462.656,1336.043-1464.456,1336.1-1466.254,1336.1Zm4.983-2.211a18.778,18.778,0,0,0-7.358-12.786l-5.116,8.865c.674,1.231,1.309,2.294,1.836,3.407a.729.729,0,0,0,.79.522c3.025-.015,6.051-.008,9.076-.008Z" transform="translate(1503.786 -1313.333)" fill="#1d272b"/>
              <path id="Trazado_149965" data-name="Trazado 149965" d="M-1668.355,1336.045q-3.035,0-6.069,0c-.946,0-1.379-.428-1.309-1.347a20.817,20.817,0,0,1,9.358-16.209,1.093,1.093,0,0,1,1.723.371q3.127,5.369,6.218,10.759a1.079,1.079,0,0,1-.241,1.489,6.739,6.739,0,0,0-2.337,4.047,1.071,1.071,0,0,1-1.212.889C-1664.268,1336.048-1666.312,1336.045-1668.355,1336.045Zm7.527-6.106-5.144-8.9a18.768,18.768,0,0,0-7.337,12.771h10.233Z" transform="translate(1678.651 -1313.283)" fill="#1d272b"/>
              <path id="Trazado_149966" data-name="Trazado 149966" d="M-1577.113,1525.641a21.39,21.39,0,0,1-9.312-2.229,1.127,1.127,0,0,1-.533-1.732q3.063-5.336,6.151-10.658a1.1,1.1,0,0,1,1.494-.575,6.37,6.37,0,0,0,4.489.007,1.115,1.115,0,0,1,1.538.6q3.07,5.3,6.122,10.606a1.138,1.138,0,0,1-.554,1.77A21.328,21.328,0,0,1-1577.113,1525.641Zm-7.3-3.881a17.587,17.587,0,0,0,14.671.016,1.537,1.537,0,0,0-.087-.259c-1.63-2.827-3.257-5.656-4.911-8.468a.852.852,0,0,0-.634-.239c-1.093-.015-2.189.053-3.279-.007-.4-.022-.613,0-.823.367-1.3,2.289-2.623,4.562-3.938,6.842C-1583.736,1520.573-1584.057,1521.138-1584.412,1521.76Z" transform="translate(1600.977 -1481.776)" fill="#1d272b"/>
              <path id="Trazado_149967" data-name="Trazado 149967" d="M-1540.949,1431.585a4.4,4.4,0,0,1,4.429-4.43,4.405,4.405,0,0,1,4.431,4.428,4.405,4.405,0,0,1-4.429,4.431A4.409,4.409,0,0,1-1540.949,1431.585Zm2.219-.025a2.217,2.217,0,0,0,2.2,2.237,2.214,2.214,0,0,0,2.22-2.219,2.214,2.214,0,0,0-2.172-2.205A2.215,2.215,0,0,0-1538.73,1431.56Z" transform="translate(1560.44 -1408.82)" fill="#1d272b"/>
            </g>
          </g>
        </g>
      </g>
    </g>
    <g id="Grupo_91480" data-name="Grupo 91480">
      <rect id="Rectangle_32727-2" data-name="Rectangle 32727" width="140.635" height="54.476" transform="translate(775.008 723.675)" fill="#eaeaee"/>
      <rect id="Rectangle_32731-2" data-name="Rectangle 32731" width="140.635" height="12.919" transform="translate(775.008 841.37)" fill="#eaeaee"/>
      <g id="Group_87331-2" data-name="Group 87331" transform="translate(803.755 732.625)">
        <g id="Group_18531-2" data-name="Group 18531">
          <g id="Group_18423-2" data-name="Group 18423">
            <g id="Group_18421-2" data-name="Group 18421">
              <g id="Group_18420-2" data-name="Group 18420">
                <g id="Group_18419-2" data-name="Group 18419">
                  <path id="Path_40936-2" data-name="Path 40936" d="M100.051,554.407a39.577,39.577,0,1,1-39.578-39.575h0A39.576,39.576,0,0,1,100.051,554.407Z" transform="translate(-20.897 -514.832)" fill="#fff"/>
                </g>
              </g>
            </g>
            <path id="Path_40937-2" data-name="Path 40937" d="M100.05,554.407a39.42,39.42,0,1,0,0,.312Z" transform="translate(-20.896 -514.832)" fill="url(#radial-gradient-2)"/>
            <path id="Path_40938-2" data-name="Path 40938" d="M88.125,551.858a30.209,30.209,0,1,0-30.21,30.209h0a30.1,30.1,0,0,0,30.21-29.984Z" transform="translate(-18.219 -512.151)" fill="none" stroke="#1d272b" stroke-miterlimit="10" stroke-width="2"/>
            <g id="Group_18422-2" data-name="Group 18422" transform="translate(7.012 22.22)">
              <path id="Path_40939-2" data-name="Path 40939" d="M94.07,530.78a39.581,39.581,0,0,1-68.14,39.411A39.456,39.456,0,0,0,94.07,530.78Z" transform="translate(-25.93 -530.78)" fill="#e7e9eb"/>
            </g>
          </g>
        </g>
        <g id="Grupo_90883" data-name="Grupo 90883" transform="translate(20.193 16.509)">
          <path id="Trazado_149945" data-name="Trazado 149945" d="M-341.245,991.4h.913c.017-.336.034-.645.052-1h2.1v4.244h-2.084l-.066-.972c-1.033-.159-.97-.137-1.283.769-.4,1.157-.912,2.274-1.422,3.522l.67.6.739-.665,1.341,1.408-2.983,2.975-1.193-1.448-.2.1.644-.728-.805-.767a10.12,10.12,0,0,1-3.828,1.66c-.2.041-.285.66-.46,1.109l1.192.072v2.082h-4.246v-2.087l.939-.046c.237-1.014.2-.976-.709-1.283-1.159-.392-2.278-.9-3.5-1.4l-.588.7.575.643-1.467,1.409-2.9-2.953,1.444-1.391.7.638.614-.644-1.787-4.312h-.9c-.021.324-.043.649-.066,1h-2.082v-4.255h2.082v.947c1.094.224,1.027.2,1.337-.717.391-1.159.9-2.278,1.4-3.493l-.689-.6-.669.6-1.4-1.442,2.989-2.981,1.375,1.465-.653.716.631.635,4.329-1.806v-.9l-.984-.055V980.66h4.232v2.082l-.958.057c-.2,1.043-.181.978.734,1.286,1.16.39,2.279.9,3.416,1.357l.01.224.634-.9-.581-.646,1.446-1.406,2.958,2.932-1.458,1.418-.693-.63-.612.683Zm-2.3,1.133a6.55,6.55,0,0,0-6.481-6.51,6.547,6.547,0,0,0-6.494,6.428A6.554,6.554,0,0,0-350.08,999,6.566,6.566,0,0,0-343.549,992.534Z" transform="translate(379.288 -964.761)" fill="#1d272b"/>
          <path id="Trazado_149946" data-name="Trazado 149946" d="M-488.178,1003.5c.709.274,1.232.516,1.779.681,1.417.429,2.857.787,4.262,1.25a6.04,6.04,0,0,1,1.78.923,1.992,1.992,0,0,1-.108,3.407,11.024,11.024,0,0,1-2.633,1.159c-1.571.513-3.174.929-4.829,1.405l-1.107-1.9,7.232-2.229.012-.226a7.734,7.734,0,0,0-.918-.413c-1.652-.507-3.322-.959-4.961-1.5a6.306,6.306,0,0,1-1.835-.963,1.937,1.937,0,0,1-.031-3.188,9.432,9.432,0,0,1,2.521-1.22c1.227-.428,2.5-.713,3.751-1.085.49-.146.961-.359,1.44-.541l.032-.192a11.677,11.677,0,0,0-1.177-.5c-1.547-.468-3.116-.866-4.646-1.38a6.413,6.413,0,0,1-1.942-1.039,1.916,1.916,0,0,1-.012-3.1,6.418,6.418,0,0,1,2-1.067c1.851-.608,3.734-1.117,5.679-1.687l1.127,1.891-7.267,2.246q0,.146,0,.291c.883.293,1.761.6,2.65.873,1.094.335,2.209.6,3.292.969a6.488,6.488,0,0,1,1.619.807,2.011,2.011,0,0,1,.011,3.489,12.436,12.436,0,0,1-2.762,1.2c-1.336.455-2.708.806-4.06,1.216A8.234,8.234,0,0,0-488.178,1003.5Z" transform="translate(490.355 -972.922)" fill="#1d272b"/>
          <path id="Trazado_149947" data-name="Trazado 149947" d="M-393.375,867.44a8.377,8.377,0,0,1-1.153,3.838,12.392,12.392,0,0,1-7.827,6.272,6.049,6.049,0,0,1-2.655.017,3.847,3.847,0,0,1-2.872-4.427,10.252,10.252,0,0,1,2.514-5.5,11.573,11.573,0,0,1,6.427-4.206,6.783,6.783,0,0,1,2.6-.037A3.8,3.8,0,0,1-393.375,867.44Zm-2.091.082c-.1-1.467-.757-2.121-2.182-2.073a3.043,3.043,0,0,0-.8.088,10.184,10.184,0,0,0-7.142,7.167c-.616,2.119.656,3.265,2.812,2.729.022-.005.042-.016.064-.023a10.489,10.489,0,0,0,6.414-5.5A16.774,16.774,0,0,0-395.466,867.522Z" transform="translate(419.082 -863.29)" fill="#1d272b"/>
          <path id="Trazado_149948" data-name="Trazado 149948" d="M-393.039,1148.027a1.05,1.05,0,0,1,1.056,1.068,1.067,1.067,0,0,1-1.105,1.093,1.052,1.052,0,0,1-1.054-1.07A1.057,1.057,0,0,1-393.039,1148.027Z" transform="translate(407.175 -1109.457)" fill="#1d272b"/>
          <path id="Trazado_149949" data-name="Trazado 149949" d="M-423.924,1173.1a1.07,1.07,0,0,1-1.165,1.028,1.069,1.069,0,0,1-.994-1.131,1.062,1.062,0,0,1,1.164-1.026A1.066,1.066,0,0,1-423.924,1173.1Z" transform="translate(434.791 -1130.158)" fill="#1d272b"/>
          <path id="Trazado_149950" data-name="Trazado 149950" d="M-386.163,1188.973a1.059,1.059,0,0,1,1.112-1.025,1.058,1.058,0,0,1,1.042,1.1,1.062,1.062,0,0,1-1.147,1.058A1.062,1.062,0,0,1-386.163,1188.973Z" transform="translate(400.277 -1143.971)" fill="#1d272b"/>
          <path id="Trazado_149951" data-name="Trazado 149951" d="M-296.167,1045.307a1.065,1.065,0,0,1-1.112,1.084,1.061,1.061,0,0,1-1.048-1.078,1.058,1.058,0,0,1,1.11-1.082A1.062,1.062,0,0,1-296.167,1045.307Z" transform="translate(324.339 -1019.72)" fill="#1d272b"/>
          <path id="Trazado_149952" data-name="Trazado 149952" d="M-256.258,1061.263a1.059,1.059,0,0,1-1.044,1.094,1.059,1.059,0,0,1-1.11-1.028,1.059,1.059,0,0,1,1.077-1.127A1.057,1.057,0,0,1-256.258,1061.263Z" transform="translate(289.831 -1033.529)" fill="#1d272b"/>
          <path id="Trazado_149953" data-name="Trazado 149953" d="M-289.266,1084.155a1.057,1.057,0,0,1,1.076,1.062,1.061,1.061,0,0,1-1.113,1.093,1.058,1.058,0,0,1-1.041-1.1A1.056,1.056,0,0,1-289.266,1084.155Z" transform="translate(317.437 -1054.237)" fill="#1d272b"/>
          <path id="Trazado_149954" data-name="Trazado 149954" d="M-360.053,909.563a1.058,1.058,0,0,1-1.049,1.089,1.059,1.059,0,0,1-1.106-1.1,1.057,1.057,0,0,1,1.082-1.055A1.057,1.057,0,0,1-360.053,909.563Z" transform="translate(379.566 -902.374)" fill="#1d272b"/>
        </g>
      </g>
      <g id="Al_acercarse-2" data-name="Al acercarse" transform="translate(795.967 820.135)" style="isolation: isolate">
        <path id="Trazado_150621" data-name="Trazado 150621" d="M-39.048-1.465h-2.568L-42.1,0h-1.558l2.646-7.109h1.357L-37,0h-1.558Zm-2.173-1.187h1.777l-.894-2.661Zm4.59-.029a3.1,3.1,0,0,1,.579-1.958,1.875,1.875,0,0,1,1.56-.742,1.644,1.644,0,0,1,1.353.6l.059-.5H-31.8V-.176a2.258,2.258,0,0,1-.315,1.206A2.023,2.023,0,0,1-33,1.812a3.116,3.116,0,0,1-1.338.269,2.9,2.9,0,0,1-1.133-.232,2.011,2.011,0,0,1-.835-.6l.625-.859A1.653,1.653,0,0,0-34.4.981a1.21,1.21,0,0,0,.874-.3,1.126,1.126,0,0,0,.313-.852V-.454A1.632,1.632,0,0,1-34.5.1a1.87,1.87,0,0,1-1.541-.745,3.1,3.1,0,0,1-.588-1.975Zm1.411.105a1.928,1.928,0,0,0,.288,1.127.916.916,0,0,0,.791.408.98.98,0,0,0,.923-.484V-3.749a.978.978,0,0,0-.913-.484.922.922,0,0,0-.8.416A2.173,2.173,0,0,0-35.22-2.576ZM-28.286.1a2.594,2.594,0,0,1-1.892-.713,2.534,2.534,0,0,1-.73-1.9v-.137A3.192,3.192,0,0,1-30.6-4.075a2.258,2.258,0,0,1,.872-.967,2.446,2.446,0,0,1,1.287-.339,2.193,2.193,0,0,1,1.707.684,2.778,2.778,0,0,1,.623,1.938v.576h-3.364a1.311,1.311,0,0,0,.413.83,1.247,1.247,0,0,0,.872.313,1.523,1.523,0,0,0,1.274-.591l.693.776a2.118,2.118,0,0,1-.859.7A2.819,2.819,0,0,1-28.286.1Zm-.161-4.341a.882.882,0,0,0-.681.284,1.473,1.473,0,0,0-.334.814H-27.5v-.113a1.051,1.051,0,0,0-.254-.728A.91.91,0,0,0-28.447-4.243Zm4.434-1.04.044.61a1.845,1.845,0,0,1,1.519-.708,1.533,1.533,0,0,1,1.25.493,2.3,2.3,0,0,1,.42,1.475V0h-1.411V-3.379a.915.915,0,0,0-.2-.652.874.874,0,0,0-.649-.2.971.971,0,0,0-.894.508V0h-1.411V-5.283Zm5.991-1.3v1.3h.9v1.035h-.9v2.637a.63.63,0,0,0,.112.42.564.564,0,0,0,.43.127,2.25,2.25,0,0,0,.415-.034V-.029A2.905,2.905,0,0,1-17.92.1a1.347,1.347,0,0,1-1.514-1.5V-4.248h-.771V-5.283h.771v-1.3ZM-13.9.1a2.594,2.594,0,0,1-1.892-.713,2.534,2.534,0,0,1-.73-1.9v-.137a3.192,3.192,0,0,1,.308-1.423,2.258,2.258,0,0,1,.872-.967,2.446,2.446,0,0,1,1.287-.339,2.193,2.193,0,0,1,1.707.684,2.778,2.778,0,0,1,.623,1.938v.576h-3.364a1.311,1.311,0,0,0,.413.83,1.247,1.247,0,0,0,.872.313,1.523,1.523,0,0,0,1.274-.591l.693.776a2.118,2.118,0,0,1-.859.7A2.819,2.819,0,0,1-13.9.1Zm-.161-4.341a.882.882,0,0,0-.681.284,1.473,1.473,0,0,0-.334.814h1.963v-.113a1.051,1.051,0,0,0-.254-.728A.91.91,0,0,0-14.062-4.243Zm6,2.783a.455.455,0,0,0-.256-.408,2.912,2.912,0,0,0-.823-.266q-1.885-.4-1.885-1.6a1.452,1.452,0,0,1,.583-1.174,2.354,2.354,0,0,1,1.526-.471,2.533,2.533,0,0,1,1.609.474,1.493,1.493,0,0,1,.6,1.23H-8.12a.683.683,0,0,0-.2-.5.827.827,0,0,0-.61-.2.845.845,0,0,0-.552.161.509.509,0,0,0-.2.41.435.435,0,0,0,.222.378,2.286,2.286,0,0,0,.75.249,6.122,6.122,0,0,1,.889.237A1.46,1.46,0,0,1-6.694-1.519a1.378,1.378,0,0,1-.62,1.169A2.675,2.675,0,0,1-8.916.1,2.794,2.794,0,0,1-10.1-.139,1.979,1.979,0,0,1-10.9-.789,1.509,1.509,0,0,1-11.2-1.68h1.338A.737.737,0,0,0-9.58-1.1a1.1,1.1,0,0,0,.693.2,1.022,1.022,0,0,0,.613-.154A.479.479,0,0,0-8.066-1.46ZM1.46-2.593A3.169,3.169,0,0,1,.906-.637,1.777,1.777,0,0,1-.591.1,1.646,1.646,0,0,1-1.885-.459v2.49H-3.3V-5.283h1.309l.049.518A1.659,1.659,0,0,1-.6-5.381a1.789,1.789,0,0,1,1.519.723A3.254,3.254,0,0,1,1.46-2.666ZM.049-2.7A2.079,2.079,0,0,0-.212-3.833a.851.851,0,0,0-.759-.4.924.924,0,0,0-.913.508v2.163a.94.94,0,0,0,.923.522Q.049-1.04.049-2.7ZM5.4,0a1.567,1.567,0,0,1-.142-.474A1.707,1.707,0,0,1,3.921.1,1.876,1.876,0,0,1,2.634-.352a1.445,1.445,0,0,1-.51-1.133,1.493,1.493,0,0,1,.623-1.289,3.072,3.072,0,0,1,1.8-.454H5.2v-.3a.871.871,0,0,0-.188-.586.74.74,0,0,0-.593-.22.841.841,0,0,0-.559.171.581.581,0,0,0-.2.469H2.241a1.417,1.417,0,0,1,.283-.85,1.872,1.872,0,0,1,.8-.613,2.918,2.918,0,0,1,1.162-.222,2.306,2.306,0,0,1,1.55.491,1.717,1.717,0,0,1,.574,1.379v2.29a2.526,2.526,0,0,0,.21,1.138V0ZM4.229-.981A1.215,1.215,0,0,0,4.8-1.121.914.914,0,0,0,5.2-1.494V-2.4H4.668q-1.06,0-1.128.732l0,.083a.565.565,0,0,0,.186.435A.721.721,0,0,0,4.229-.981Zm5.156-5.6v1.3h.9v1.035h-.9v2.637a.63.63,0,0,0,.112.42.564.564,0,0,0,.43.127,2.25,2.25,0,0,0,.415-.034V-.029A2.905,2.905,0,0,1,9.487.1,1.347,1.347,0,0,1,7.974-1.4V-4.248H7.2V-5.283h.771v-1.3Zm1.47,3.892a3.133,3.133,0,0,1,.3-1.4,2.216,2.216,0,0,1,.872-.952,2.543,2.543,0,0,1,1.321-.337,2.406,2.406,0,0,1,1.746.654,2.626,2.626,0,0,1,.754,1.777l.01.361a2.761,2.761,0,0,1-.679,1.951A2.359,2.359,0,0,1,13.359.1a2.371,2.371,0,0,1-1.824-.732,2.81,2.81,0,0,1-.681-1.992Zm1.411.1a1.975,1.975,0,0,0,.283,1.152.934.934,0,0,0,.811.4.936.936,0,0,0,.8-.394,2.161,2.161,0,0,0,.288-1.259,1.955,1.955,0,0,0-.288-1.144.936.936,0,0,0-.811-.406.921.921,0,0,0-.8.4A2.2,2.2,0,0,0,12.266-2.59ZM13.628-7.5h1.538L13.813-5.986H12.666Zm2.9,4.819A3.1,3.1,0,0,1,17.1-4.639a1.875,1.875,0,0,1,1.56-.742,1.644,1.644,0,0,1,1.353.6l.059-.5h1.279V-.176a2.258,2.258,0,0,1-.315,1.206,2.023,2.023,0,0,1-.886.781,3.116,3.116,0,0,1-1.338.269,2.9,2.9,0,0,1-1.133-.232,2.011,2.011,0,0,1-.835-.6l.625-.859A1.653,1.653,0,0,0,18.75.981a1.21,1.21,0,0,0,.874-.3,1.126,1.126,0,0,0,.313-.852V-.454A1.632,1.632,0,0,1,18.652.1a1.87,1.87,0,0,1-1.541-.745,3.1,3.1,0,0,1-.588-1.975Zm1.411.105a1.928,1.928,0,0,0,.288,1.127.916.916,0,0,0,.791.408.98.98,0,0,0,.923-.484V-3.749a.978.978,0,0,0-.913-.484.922.922,0,0,0-.8.416A2.173,2.173,0,0,0,17.935-2.576ZM24.868.1a2.594,2.594,0,0,1-1.892-.713,2.534,2.534,0,0,1-.73-1.9v-.137a3.192,3.192,0,0,1,.308-1.423,2.258,2.258,0,0,1,.872-.967,2.446,2.446,0,0,1,1.287-.339,2.193,2.193,0,0,1,1.707.684,2.778,2.778,0,0,1,.623,1.938v.576H23.677a1.311,1.311,0,0,0,.413.83,1.247,1.247,0,0,0,.872.313,1.523,1.523,0,0,0,1.274-.591l.693.776a2.118,2.118,0,0,1-.859.7A2.819,2.819,0,0,1,24.868.1Zm-.161-4.341a.882.882,0,0,0-.681.284,1.473,1.473,0,0,0-.334.814h1.963v-.113a1.051,1.051,0,0,0-.254-.728A.91.91,0,0,0,24.707-4.243Zm4.434-1.04.044.61A1.845,1.845,0,0,1,30.7-5.381a1.533,1.533,0,0,1,1.25.493,2.3,2.3,0,0,1,.42,1.475V0H30.962V-3.379a.915.915,0,0,0-.2-.652.874.874,0,0,0-.649-.2.971.971,0,0,0-.894.508V0H27.813V-5.283ZM33.223-2.69a3.133,3.133,0,0,1,.3-1.4,2.216,2.216,0,0,1,.872-.952,2.543,2.543,0,0,1,1.321-.337,2.406,2.406,0,0,1,1.746.654,2.626,2.626,0,0,1,.754,1.777l.01.361a2.761,2.761,0,0,1-.679,1.951A2.359,2.359,0,0,1,35.728.1,2.371,2.371,0,0,1,33.9-.635a2.81,2.81,0,0,1-.681-1.992Zm1.411.1a1.975,1.975,0,0,0,.283,1.152.934.934,0,0,0,.811.4.936.936,0,0,0,.8-.394,2.161,2.161,0,0,0,.288-1.259,1.955,1.955,0,0,0-.288-1.144.936.936,0,0,0-.811-.406.921.921,0,0,0-.8.4A2.2,2.2,0,0,0,34.634-2.59Zm7.324,1.13a.455.455,0,0,0-.256-.408,2.912,2.912,0,0,0-.823-.266q-1.885-.4-1.885-1.6a1.452,1.452,0,0,1,.583-1.174A2.354,2.354,0,0,1,41.1-5.381a2.533,2.533,0,0,1,1.609.474,1.493,1.493,0,0,1,.6,1.23H41.9a.683.683,0,0,0-.2-.5.827.827,0,0,0-.61-.2.845.845,0,0,0-.552.161.509.509,0,0,0-.2.41.435.435,0,0,0,.222.378,2.286,2.286,0,0,0,.75.249,6.122,6.122,0,0,1,.889.237A1.46,1.46,0,0,1,43.33-1.519a1.378,1.378,0,0,1-.62,1.169,2.675,2.675,0,0,1-1.6.447,2.794,2.794,0,0,1-1.179-.237,1.978,1.978,0,0,1-.808-.649,1.509,1.509,0,0,1-.293-.891h1.338a.737.737,0,0,0,.278.576,1.1,1.1,0,0,0,.693.2,1.022,1.022,0,0,0,.613-.154A.479.479,0,0,0,41.958-1.46Z" transform="translate(47 7)" fill="#091c30"/>
      </g>
    </g>
    <g id="Grupo_91479" data-name="Grupo 91479">
      <g id="Al_acercarse-3" data-name="Al acercarse" transform="translate(969.032 820.135)" style="isolation: isolate">
        <path id="Trazado_150622" data-name="Trazado 150622" d="M-11.1-2.905h-2.812V0h-1.465V-7.109h4.629v1.187h-3.164v1.836H-11.1ZM-8.467,0H-9.878V-5.283h1.411Zm-.415-7.427h1.538L-8.7-5.913H-9.844ZM-4.39-1.46a.455.455,0,0,0-.256-.408,2.912,2.912,0,0,0-.823-.266q-1.885-.4-1.885-1.6A1.452,1.452,0,0,1-6.77-4.91a2.354,2.354,0,0,1,1.526-.471,2.533,2.533,0,0,1,1.609.474,1.493,1.493,0,0,1,.6,1.23H-4.443a.683.683,0,0,0-.2-.5.827.827,0,0,0-.61-.2.845.845,0,0,0-.552.161A.509.509,0,0,0-6-3.8a.435.435,0,0,0,.222.378,2.286,2.286,0,0,0,.75.249,6.122,6.122,0,0,1,.889.237A1.46,1.46,0,0,1-3.018-1.519a1.378,1.378,0,0,1-.62,1.169A2.675,2.675,0,0,1-5.239.1,2.794,2.794,0,0,1-6.418-.139a1.979,1.979,0,0,1-.808-.649A1.509,1.509,0,0,1-7.52-1.68h1.338A.737.737,0,0,0-5.9-1.1a1.1,1.1,0,0,0,.693.2A1.022,1.022,0,0,0-4.6-1.057.479.479,0,0,0-4.39-1.46ZM-.62,0H-2.036V-5.283H-.62Zm-1.5-6.65a.7.7,0,0,1,.212-.522.8.8,0,0,1,.579-.205.8.8,0,0,1,.576.205.691.691,0,0,1,.215.522.693.693,0,0,1-.217.527.8.8,0,0,1-.574.205A.8.8,0,0,1-1.9-6.123.693.693,0,0,1-2.119-6.65ZM2.739-1.04a.926.926,0,0,0,.635-.215.753.753,0,0,0,.254-.571H4.951a1.81,1.81,0,0,1-.293.984,1.933,1.933,0,0,1-.789.693A2.468,2.468,0,0,1,2.764.1,2.294,2.294,0,0,1,.977-.623a2.85,2.85,0,0,1-.654-1.99v-.093A2.817,2.817,0,0,1,.972-4.653a2.267,2.267,0,0,1,1.782-.728,2.222,2.222,0,0,1,1.589.564,2,2,0,0,1,.608,1.5H3.628a.97.97,0,0,0-.254-.67.847.847,0,0,0-.645-.258.85.85,0,0,0-.745.359,2.083,2.083,0,0,0-.251,1.166v.147A2.109,2.109,0,0,0,1.982-1.4.861.861,0,0,0,2.739-1.04Zm2.8-1.65a3.133,3.133,0,0,1,.3-1.4,2.216,2.216,0,0,1,.872-.952,2.543,2.543,0,0,1,1.321-.337,2.406,2.406,0,0,1,1.746.654,2.626,2.626,0,0,1,.754,1.777l.01.361A2.761,2.761,0,0,1,9.863-.637,2.359,2.359,0,0,1,8.042.1,2.371,2.371,0,0,1,6.218-.635a2.81,2.81,0,0,1-.681-1.992Zm1.411.1a1.975,1.975,0,0,0,.283,1.152.934.934,0,0,0,.811.4.936.936,0,0,0,.8-.394,2.161,2.161,0,0,0,.288-1.259,1.955,1.955,0,0,0-.288-1.144.936.936,0,0,0-.811-.406.921.921,0,0,0-.8.4A2.2,2.2,0,0,0,6.948-2.59Zm7.324,1.13a.455.455,0,0,0-.256-.408,2.912,2.912,0,0,0-.823-.266q-1.885-.4-1.885-1.6a1.452,1.452,0,0,1,.583-1.174,2.354,2.354,0,0,1,1.526-.471,2.533,2.533,0,0,1,1.609.474,1.493,1.493,0,0,1,.6,1.23H14.219a.683.683,0,0,0-.2-.5.827.827,0,0,0-.61-.2.845.845,0,0,0-.552.161.509.509,0,0,0-.2.41.435.435,0,0,0,.222.378,2.286,2.286,0,0,0,.75.249,6.122,6.122,0,0,1,.889.237,1.46,1.46,0,0,1,1.118,1.421,1.378,1.378,0,0,1-.62,1.169,2.675,2.675,0,0,1-1.6.447,2.794,2.794,0,0,1-1.179-.237,1.979,1.979,0,0,1-.808-.649,1.509,1.509,0,0,1-.293-.891H12.48a.737.737,0,0,0,.278.576,1.1,1.1,0,0,0,.693.2,1.022,1.022,0,0,0,.613-.154A.479.479,0,0,0,14.272-1.46Z" transform="translate(18 7)" fill="#091c30"/>
      </g>
      <rect id="Rectangle_32727-3" data-name="Rectangle 32727" width="140.635" height="54.476" transform="translate(916.985 723.675)" fill="#71c6c1" opacity="0.6"/>
      <rect id="Rectangle_32731-3" data-name="Rectangle 32731" width="140.635" height="12.919" transform="translate(916.985 841.37)" fill="#71c6c1" opacity="0.6"/>
      <g id="Group_87331-3" data-name="Group 87331" transform="translate(945.731 732.625)">
        <g id="Group_18531-3" data-name="Group 18531">
          <g id="Group_18423-3" data-name="Group 18423">
            <g id="Group_18421-3" data-name="Group 18421">
              <g id="Group_18420-3" data-name="Group 18420">
                <g id="Group_18419-3" data-name="Group 18419">
                  <path id="Path_40936-3" data-name="Path 40936" d="M201.954,554.407a39.577,39.577,0,1,1-39.578-39.575h0A39.576,39.576,0,0,1,201.954,554.407Z" transform="translate(-122.8 -514.832)" fill="#fff"/>
                </g>
              </g>
            </g>
            <path id="Path_40937-3" data-name="Path 40937" d="M201.953,554.407a39.42,39.42,0,1,0,0,.312Z" transform="translate(-122.799 -514.832)" fill="url(#radial-gradient-3)"/>
            <path id="Path_40938-3" data-name="Path 40938" d="M190.028,551.858a30.209,30.209,0,1,0-30.209,30.209h0a30.1,30.1,0,0,0,30.209-29.984Z" transform="translate(-120.122 -512.151)" fill="none" stroke="#1d272b" stroke-miterlimit="10" stroke-width="2"/>
            <g id="Group_18422-3" data-name="Group 18422" transform="translate(7.012 22.22)">
              <path id="Path_40939-3" data-name="Path 40939" d="M195.973,530.78a39.581,39.581,0,0,1-68.14,39.411,39.456,39.456,0,0,0,68.14-39.411Z" transform="translate(-127.833 -530.78)" fill="#e7e9eb"/>
            </g>
          </g>
        </g>
        <g id="mfzsyN" transform="translate(19.867 20.857)">
          <g id="Grupo_90884" data-name="Grupo 90884" transform="translate(0)">
            <path id="Trazado_149955" data-name="Trazado 149955" d="M-502.5,962.981h18.167a3.709,3.709,0,0,1,3.549,2.419,3.779,3.779,0,0,1-1.056,4.146,3.547,3.547,0,0,1-2.407.91q-3.234.007-6.469,0h-.4a3.751,3.751,0,0,1,.1,3.93,3.621,3.621,0,0,1-3.417,1.886,3.753,3.753,0,0,1,.1,3.916,3.649,3.649,0,0,1-3.327,1.914,13.081,13.081,0,0,1,.454,1.578,3.675,3.675,0,0,1-3.536,4.2c-3.879.024-7.759.047-11.638-.006a10.023,10.023,0,0,1-9.546-8.315,11.436,11.436,0,0,1-.143-1.745c-.014-3.088-.009-6.176-.006-9.265a8.207,8.207,0,0,1,7.248-8.239c.965-.128,1.926-.291,2.887-.446a4.233,4.233,0,0,0,2.09-.982q3.758-3.18,7.517-6.361a3.8,3.8,0,0,1,6.246,2.133,3.631,3.631,0,0,1-1.247,3.6q-2.347,2.1-4.7,4.2c-.167.149-.332.3-.5.452Zm13.62,1.666h-.48l-15.311,0a.86.86,0,0,1-.908-.542.859.859,0,0,1,.31-.983c.41-.371.823-.737,1.235-1.106q2.811-2.513,5.62-5.027a2.084,2.084,0,0,0,.569-2.421,2.147,2.147,0,0,0-3.438-.745q-3.763,3.175-7.52,6.357a5.748,5.748,0,0,1-2.815,1.324q-1.57.258-3.142.5a6.551,6.551,0,0,0-5.666,6.574c0,3.1-.018,6.2.012,9.3a8.553,8.553,0,0,0,.285,2.115,8.382,8.382,0,0,0,8.167,6.26c2.5.011,5.006,0,7.509,0,1.181,0,2.362.011,3.543,0a2.037,2.037,0,0,0,2.071-2.086,2.038,2.038,0,0,0-2.09-2.064c-.672,0-1.344.007-2.015,0a.822.822,0,0,1-.851-.983.844.844,0,0,1,.927-.686q2.633-.005,5.266,0a2.031,2.031,0,0,0,1.195-.352,2.065,2.065,0,0,0,.8-2.353,2.047,2.047,0,0,0-2.018-1.444c-1.69-.007-3.381,0-5.071,0-.119,0-.239,0-.357-.008a.8.8,0,0,1-.75-.823.82.82,0,0,1,.92-.822c2.882,0,5.765,0,8.647,0a2.048,2.048,0,0,0,2.052-2.044,2.053,2.053,0,0,0-2.055-2.106c-1.7-.008-3.4,0-5.1,0-1.191,0-2.382,0-3.573,0a.826.826,0,0,1-.88-.985.844.844,0,0,1,.932-.679q2.907-.007,5.815-.005l7.832,0h.335Zm2.01,4.134c.974,0,1.873.029,2.769-.008a2.02,2.02,0,0,0,1.887-1.933,2.123,2.123,0,0,0-1.62-2.156.375.375,0,0,0-.451.2c-.59.907-1.2,1.805-1.8,2.706Zm-.307-3.907v1.359l.9-1.359Z" transform="translate(522.078 -951.583)" fill="#1d272b"/>
            <path id="Trazado_149956" data-name="Trazado 149956" d="M-163.479,1243.21a4.11,4.11,0,0,1,.667-2.176,18.88,18.88,0,0,1,1.19-1.737.8.8,0,0,1,1.231-.041,7.7,7.7,0,0,1,1.839,3.386,2.893,2.893,0,0,1-.138,1.629,2.222,2.222,0,0,1-2.355,1.365,2.173,2.173,0,0,1-2.087-1.06,8.119,8.119,0,0,1-.429-1.34Zm2.492-2a4.854,4.854,0,0,0-.825,1.794c-.116.7.117.964.823.962a2.639,2.639,0,0,0,.323-.011.5.5,0,0,0,.482-.474A3.566,3.566,0,0,0-160.987,1241.213Z" transform="translate(196.702 -1212.419)" fill="#1d272b"/>
            <path id="Trazado_149957" data-name="Trazado 149957" d="M-143.16,1178.207c0,.4,0,.8,0,1.2a.848.848,0,0,1-.837.889.84.84,0,0,1-.834-.889q-.01-1.2,0-2.4a.827.827,0,0,1,.85-.866.832.832,0,0,1,.82.866c0,.011,0,.022,0,.032Q-143.16,1177.623-143.16,1178.207Z" transform="translate(179.709 -1155.384)" fill="#1d272b"/>
          </g>
        </g>
      </g>
    </g>
    <g id="Grupo_91478" data-name="Grupo 91478">
      <g id="Al_acercarse-4" data-name="Al acercarse" transform="translate(1103.979 820.135)" style="isolation: isolate">
        <path id="Trazado_150623" data-name="Trazado 150623" d="M-14.814-3.394a4.283,4.283,0,0,1-.322,1.731A2.971,2.971,0,0,1-16.03-.483l1.182.928-.933.825L-17.295.054A3.2,3.2,0,0,1-17.832.1a2.958,2.958,0,0,1-1.577-.425,2.822,2.822,0,0,1-1.074-1.213,4.169,4.169,0,0,1-.386-1.814v-.352a4.269,4.269,0,0,1,.378-1.848A2.818,2.818,0,0,1-19.421-6.78a2.941,2.941,0,0,1,1.58-.427,2.941,2.941,0,0,1,1.58.427,2.818,2.818,0,0,1,1.069,1.226,4.257,4.257,0,0,1,.378,1.843ZM-16.3-3.716a2.992,2.992,0,0,0-.4-1.7A1.3,1.3,0,0,0-17.842-6a1.305,1.305,0,0,0-1.138.574,2.958,2.958,0,0,0-.405,1.682v.347a3.029,3.029,0,0,0,.4,1.689,1.3,1.3,0,0,0,1.152.6A1.29,1.29,0,0,0-16.7-1.682a3.012,3.012,0,0,0,.4-1.687Zm5.63,3.179A1.77,1.77,0,0,1-12.114.1a1.669,1.669,0,0,1-1.3-.488,2.084,2.084,0,0,1-.457-1.431V-5.283h1.411v3.417q0,.826.752.826a1.019,1.019,0,0,0,.986-.5V-5.283H-9.3V0H-10.63ZM-6.714,0H-8.125V-5.283h1.411Zm-.415-7.427h1.538L-6.943-5.913H-8.091Zm2.954,2.144.044.591a1.857,1.857,0,0,1,1.519-.688,1.409,1.409,0,0,1,1.4.806A1.814,1.814,0,0,1,.376-5.381a1.576,1.576,0,0,1,1.279.5,2.3,2.3,0,0,1,.42,1.506V0H.659V-3.369a1.006,1.006,0,0,0-.176-.657.779.779,0,0,0-.62-.208.881.881,0,0,0-.879.605l0,3.628H-2.422V-3.364A.994.994,0,0,0-2.6-4.028a.787.787,0,0,0-.615-.205.914.914,0,0,0-.869.5V0H-5.5V-5.283ZM4.648,0H3.232V-5.283H4.648Zm-1.5-6.65a.7.7,0,0,1,.212-.522.8.8,0,0,1,.579-.205.8.8,0,0,1,.576.205.691.691,0,0,1,.215.522.693.693,0,0,1-.217.527.8.8,0,0,1-.574.205.8.8,0,0,1-.574-.205A.693.693,0,0,1,3.149-6.65ZM8.008-1.04a.926.926,0,0,0,.635-.215A.753.753,0,0,0,8.9-1.826H10.22a1.81,1.81,0,0,1-.293.984,1.933,1.933,0,0,1-.789.693A2.468,2.468,0,0,1,8.032.1a2.294,2.294,0,0,1-1.787-.72,2.85,2.85,0,0,1-.654-1.99v-.093A2.817,2.817,0,0,1,6.24-4.653a2.267,2.267,0,0,1,1.782-.728,2.222,2.222,0,0,1,1.589.564,2,2,0,0,1,.608,1.5H8.9a.97.97,0,0,0-.254-.67A.847.847,0,0,0,8-4.243a.85.85,0,0,0-.745.359A2.083,2.083,0,0,0,7-2.717v.147A2.109,2.109,0,0,0,7.251-1.4.861.861,0,0,0,8.008-1.04Zm2.8-1.65a3.133,3.133,0,0,1,.3-1.4,2.216,2.216,0,0,1,.872-.952A2.543,2.543,0,0,1,13.3-5.381a2.406,2.406,0,0,1,1.746.654A2.626,2.626,0,0,1,15.8-2.949l.01.361a2.761,2.761,0,0,1-.679,1.951A2.359,2.359,0,0,1,13.311.1a2.371,2.371,0,0,1-1.824-.732,2.81,2.81,0,0,1-.681-1.992Zm1.411.1A1.975,1.975,0,0,0,12.5-1.439a.934.934,0,0,0,.811.4.936.936,0,0,0,.8-.394A2.161,2.161,0,0,0,14.4-2.693a1.955,1.955,0,0,0-.288-1.144.936.936,0,0,0-.811-.406.921.921,0,0,0-.8.4A2.2,2.2,0,0,0,12.217-2.59Zm7.324,1.13a.455.455,0,0,0-.256-.408,2.912,2.912,0,0,0-.823-.266q-1.885-.4-1.885-1.6a1.452,1.452,0,0,1,.583-1.174,2.354,2.354,0,0,1,1.526-.471,2.533,2.533,0,0,1,1.609.474,1.493,1.493,0,0,1,.6,1.23H19.487a.683.683,0,0,0-.2-.5.827.827,0,0,0-.61-.2.845.845,0,0,0-.552.161.509.509,0,0,0-.2.41.435.435,0,0,0,.222.378,2.286,2.286,0,0,0,.75.249,6.122,6.122,0,0,1,.889.237,1.46,1.46,0,0,1,1.118,1.421,1.378,1.378,0,0,1-.62,1.169,2.675,2.675,0,0,1-1.6.447,2.794,2.794,0,0,1-1.179-.237A1.979,1.979,0,0,1,16.7-.789a1.509,1.509,0,0,1-.293-.891h1.338a.737.737,0,0,0,.278.576,1.1,1.1,0,0,0,.693.2,1.022,1.022,0,0,0,.613-.154A.479.479,0,0,0,19.541-1.46Z" transform="translate(27 7)" fill="#091c30"/>
      </g>
      <rect id="Rectangle_32727-4" data-name="Rectangle 32727" width="140.635" height="54.476" transform="translate(1058.962 723.675)" fill="#eaeaee"/>
      <rect id="Rectangle_32731-4" data-name="Rectangle 32731" width="140.635" height="12.919" transform="translate(1058.962 841.37)" fill="#eaeaee"/>
      <g id="Group_87331-4" data-name="Group 87331" transform="translate(1087.708 732.625)">
        <g id="Group_18531-4" data-name="Group 18531">
          <g id="Group_18423-4" data-name="Group 18423">
            <g id="Group_18421-4" data-name="Group 18421">
              <g id="Group_18420-4" data-name="Group 18420">
                <g id="Group_18419-4" data-name="Group 18419">
                  <path id="Path_40936-4" data-name="Path 40936" d="M303.857,554.407a39.577,39.577,0,1,1-39.578-39.575h0A39.575,39.575,0,0,1,303.857,554.407Z" transform="translate(-224.703 -514.832)" fill="#fff"/>
                </g>
              </g>
            </g>
            <path id="Path_40937-4" data-name="Path 40937" d="M303.856,554.407a39.42,39.42,0,1,0,0,.312C303.857,554.615,303.857,554.512,303.856,554.407Z" transform="translate(-224.702 -514.832)" fill="url(#radial-gradient-4)"/>
            <path id="Path_40938-4" data-name="Path 40938" d="M291.931,551.858a30.209,30.209,0,1,0-30.208,30.209h0a30.1,30.1,0,0,0,30.208-29.984Z" transform="translate(-222.025 -512.151)" fill="none" stroke="#1d272b" stroke-miterlimit="10" stroke-width="2"/>
            <g id="Group_18422-4" data-name="Group 18422" transform="translate(7.012 22.22)">
              <path id="Path_40939-4" data-name="Path 40939" d="M297.876,530.78a39.581,39.581,0,0,1-68.14,39.411,39.456,39.456,0,0,0,68.14-39.411Z" transform="translate(-229.736 -530.78)" fill="#e7e9eb"/>
            </g>
          </g>
        </g>
        <g id="Z1XAaS.tif" transform="translate(23.846 23.321)">
          <g id="Grupo_90885" data-name="Grupo 90885" transform="translate(0 0)">
            <path id="Trazado_149958" data-name="Trazado 149958" d="M-1074.932,994.455c.014.016.026.038.043.046a1.334,1.334,0,0,1,.931,1.471,1.369,1.369,0,0,1-1.3,1.125v.382c0,2.828.011,5.656-.008,8.485a1.642,1.642,0,0,0,.971,1.616,10.449,10.449,0,0,1,5.748,7.791,10.343,10.343,0,0,1-4.77,10.875,10.833,10.833,0,0,1-16.472-6.553,10.859,10.859,0,0,1,5.568-12.179,1.519,1.519,0,0,0,.907-1.487c-.011-2.861,0-5.722,0-8.583v-.353c-.083-.01-.155-.015-.225-.028a1.33,1.33,0,0,1-1.081-1.126,1.312,1.312,0,0,1,.782-1.379c.067-.031.13-.07.195-.1Zm-5.77,2.635v.415q0,4.324,0,8.648a3.844,3.844,0,0,1-2.2,3.628,8.058,8.058,0,0,0-4.314,5.465c-.155.647-.2,1.321-.3,2.018.674,0,1.251,0,1.828,0a1.3,1.3,0,0,1,1.375,1.3,1.3,1.3,0,0,1-1.367,1.313c-.42,0-.841,0-1.273,0a8.143,8.143,0,0,0,8.068,5.494,8,8,0,0,0,5.375-2.315,7.859,7.859,0,0,0,2.028-3.179h-5.714a1.313,1.313,0,0,1-1.477-1.3,1.314,1.314,0,0,1,1.492-1.318h6.216c-.07-.569-.094-1.1-.207-1.619a8.263,8.263,0,0,0-4.419-5.775,3.986,3.986,0,0,1-2.3-3.8c.011-2.861,0-5.722,0-8.583v-.4Z" transform="translate(1090.09 -994.455)" fill="#1d272b"/>
            <path id="Trazado_149959" data-name="Trazado 149959" d="M-728.973,1075.955a1.429,1.429,0,0,1-1.312.991v.367q0,2.785,0,5.571a1.3,1.3,0,0,1-1.32,1.394,1.3,1.3,0,0,1-1.3-1.381q0-2.785,0-5.571v-.37h-2.664v10.536h.338q1.786,0,3.572,0a1.3,1.3,0,0,1,1.372,1.373q0,4.932,0,9.863a3.979,3.979,0,0,1-3.584,3.894,3.981,3.981,0,0,1-4.277-3.239,4.917,4.917,0,0,1-.064-.813q-.005-10.6,0-21.2v-.4c-.139-.032-.265-.054-.386-.091a1.311,1.311,0,0,1-.915-1.476,1.3,1.3,0,0,1,1.291-1.084q3.966-.005,7.931,0a1.27,1.27,0,0,1,1.216.787c.032.066.07.13.1.195Zm-6.622,14.171v2.869c0,1.867-.005,3.734,0,5.6a1.345,1.345,0,0,0,1.752,1.343,1.37,1.37,0,0,0,.935-1.39q0-4.094,0-8.189v-.234Z" transform="translate(762.551 -1069.073)" fill="#1d272b"/>
            <path id="Trazado_149960" data-name="Trazado 149960" d="M-976.393,1266.833a1.3,1.3,0,0,0-1.308-1.3,1.293,1.293,0,0,0-1.311,1.3,1.3,1.3,0,0,0,1.324,1.32A1.3,1.3,0,0,0-976.393,1266.833Zm1.85-2.224a1.318,1.318,0,0,0,1.335-1.319,1.316,1.316,0,0,0-1.288-1.3,1.322,1.322,0,0,0-1.353,1.3A1.323,1.323,0,0,0-974.543,1264.61Z" transform="translate(986.306 -1244.425)" fill="#1d272b"/>
            <path id="Trazado_149961" data-name="Trazado 149961" d="M-976.393,1317.194a1.3,1.3,0,0,1-1.3,1.316,1.3,1.3,0,0,1-1.324-1.32,1.293,1.293,0,0,1,1.311-1.3A1.3,1.3,0,0,1-976.393,1317.194Z" transform="translate(986.306 -1294.785)" fill="#1d272b"/>
            <path id="Trazado_149962" data-name="Trazado 149962" d="M-929.542,1264.61a1.323,1.323,0,0,1-1.307-1.316,1.322,1.322,0,0,1,1.353-1.3,1.316,1.316,0,0,1,1.288,1.3A1.318,1.318,0,0,1-929.542,1264.61Z" transform="translate(941.305 -1244.425)" fill="#1d272b"/>
          </g>
        </g>
      </g>
    </g>
  </g>
</svg>
