<svg id="Grupo_90887" data-name="Grupo 90887" xmlns="http://www.w3.org/2000/svg" width="497.229" height="291.608" viewBox="0 0 497.229 291.608">
  <path id="Trazado_149847" data-name="Trazado 149847" d="M1201.354,349.372l-392.194.978s-57.751-137.285-21.309-222.779c10.4-24.4,28.473-44.585,57.754-56.153a152.5,152.5,0,0,1,16.452-5.475c119.384-32.13,163.979,125.913,214.458,95.925C1127.63,131.5,1221.06,122.511,1201.354,349.372Z" transform="translate(-745.201 -61.609)" fill="#9d9fa9" opacity="0.232"/>
  <path id="Rectángulo_33176" data-name="Rectángulo 33176" d="M.917,0H496.312a.918.918,0,0,1,.918.918v.312a.917.917,0,0,1-.917.917H.917A.917.917,0,0,1,0,1.23V.917A.917.917,0,0,1,.917,0Z" transform="translate(0 287.686)" fill="#212121"/>
  <g id="Grupo_90849" data-name="Grupo 90849" transform="translate(40.811 93.349)" opacity="0.4">
    <g id="Grupo_90848" data-name="Grupo 90848">
      <g id="Grupo_90806" data-name="Grupo 90806" transform="translate(303.197 144.264)">
        <ellipse id="Elipse_4237" data-name="Elipse 4237" cx="26.901" cy="25.424" rx="26.901" ry="25.424" fill="#292c4a"/>
      </g>
      <g id="Grupo_90812" data-name="Grupo 90812" transform="translate(0 44.148)">
        <path id="Trazado_149852" data-name="Trazado 149852" d="M811.481,214.65h-21.57a5.2,5.2,0,0,1-5.336-5.759l2.862-20.375a10.953,10.953,0,0,1,10.88-9.387H812.34Z" transform="translate(-784.527 -179.13)" fill="#292c4a"/>
      </g>
      <g id="Grupo_90813" data-name="Grupo 90813" transform="translate(155.391)">
        <path id="Trazado_149853" data-name="Trazado 149853" d="M1104.7,141.4H917.342V291.328h209.917Z" transform="translate(-917.342 -141.396)" fill="#292c4a"/>
      </g>
      <g id="Grupo_90814" data-name="Grupo 90814" transform="translate(122.206)">
        <path id="Trazado_149854" data-name="Trazado 149854" d="M1076.333,141.4H888.979V291.328H1098.9Z" transform="translate(-888.979 -141.396)" fill="#292c4a"/>
      </g>
      <g id="Grupo_90816" data-name="Grupo 90816" transform="translate(40.004 5.687)">
        <path id="Trazado_149856" data-name="Trazado 149856" d="M1026.384,284.815H818.719l9.263-138.558H1014.11l9.948,112.312Z" transform="translate(-818.719 -146.257)" fill="#292c4a"/>
      </g>
      <g id="Grupo_90819" data-name="Grupo 90819" transform="translate(247.669 7.065)">
        <g id="Grupo_90818" data-name="Grupo 90818">
          <path id="Trazado_149858" data-name="Trazado 149858" d="M998.212,228.169l-2-27.765,23.441-52.969,5.155,2.037Z" transform="translate(-996.214 -147.435)" fill="#292c4a"/>
        </g>
      </g>
      <g id="Grupo_90820" data-name="Grupo 90820" transform="translate(199.428 160.398)">
        <path id="Trazado_149859" data-name="Trazado 149859" d="M1018.961,300.267H996.369a19.191,19.191,0,0,0-2.83-6.875c-6.83-10.346-22.8-13.509-31.9-14.475-3.987-.424-6.656-.426-6.656-.426h38.835a28.74,28.74,0,0,1,20.114,11.549A30.519,30.519,0,0,1,1018.961,300.267Z" transform="translate(-954.982 -278.491)" fill="#292c4a"/>
      </g>
      <g id="Grupo_90821" data-name="Grupo 90821" transform="translate(301.329 160.398)">
        <path id="Trazado_149860" data-name="Trazado 149860" d="M1106.057,300.267h-22.592a19.272,19.272,0,0,0-3.4-7.693c-10.318-14.064-37.988-14.083-37.988-14.083h38.839a28.826,28.826,0,0,1,18.076,9.087A31.053,31.053,0,0,1,1106.057,300.267Z" transform="translate(-1042.078 -278.491)" fill="#292c4a"/>
      </g>
      <g id="Grupo_90825" data-name="Grupo 90825" transform="translate(205.536 160.398)">
        <path id="Trazado_149863" data-name="Trazado 149863" d="M1013.044,290.04s-14.869-2.965-20.393,3.352c-6.83-10.346-22.8-13.509-31.9-14.475l-.549-.426H992.93A28.74,28.74,0,0,1,1013.044,290.04Z" transform="translate(-960.202 -278.491)" fill="#292c4a"/>
      </g>
      <g id="Grupo_90826" data-name="Grupo 90826" transform="translate(301.329 160.398)">
        <path id="Trazado_149864" data-name="Trazado 149864" d="M1098.993,287.578v0s-12.436-.263-18.927,4.993c-10.318-14.064-37.988-14.083-37.988-14.083h38.839A28.826,28.826,0,0,1,1098.993,287.578Z" transform="translate(-1042.078 -278.491)" fill="#292c4a"/>
      </g>
      <g id="Grupo_90830" data-name="Grupo 90830" transform="translate(40.005 5.687)">
        <path id="Trazado_149866" data-name="Trazado 149866" d="M1026.384,284.815H818.72l9.263-138.558h36.27c11.356,31.651,49.765,106.69,159.8,112.312Z" transform="translate(-818.72 -146.257)" fill="#292c4a"/>
      </g>
      <g id="Grupo_90840" data-name="Grupo 90840" transform="translate(116.17 39.565)">
        <g id="Grupo_90833" data-name="Grupo 90833" transform="translate(12.539)">
          <g id="Grupo_90831" data-name="Grupo 90831">
            <path id="Trazado_149867" data-name="Trazado 149867" d="M894.537,188.9l13.109,6.931,14.3-20.62H904.255Z" transform="translate(-894.537 -175.213)" fill="#292c4a"/>
          </g>
          <g id="Grupo_90832" data-name="Grupo 90832" transform="translate(20.351 0.563)">
            <path id="Trazado_149868" data-name="Trazado 149868" d="M917.134,194.754l-5.2,2.772,16.684.673,6.37-12.108-4.858,2.427-8.251-12.823s-8.8,12.389-8.892,12.65c0,0,4.148,6.41,4.446,6.606Z" transform="translate(-911.932 -175.694)" fill="#292c4a"/>
          </g>
        </g>
        <g id="Grupo_90836" data-name="Grupo 90836" transform="translate(32.008 25.808)">
          <g id="Grupo_90834" data-name="Grupo 90834" transform="translate(14.392)">
            <path id="Trazado_149869" data-name="Trazado 149869" d="M936.458,197.271l-12.979,7.147L935,226.538l8.993-14.4Z" transform="translate(-923.479 -197.271)" fill="#292c4a"/>
          </g>
          <g id="Grupo_90835" data-name="Grupo 90835" transform="translate(0 12.138)">
            <path id="Trazado_149870" data-name="Trazado 149870" d="M920.187,211.652l.084-4.006-9.093,13.238,7.794,11.339-.112-5.343,16.25-.042s-7.943-14.98-8.134-15.186Z" transform="translate(-911.178 -207.646)" fill="#292c4a"/>
          </g>
        </g>
        <g id="Grupo_90839" data-name="Grupo 90839" transform="translate(0 20.62)">
          <g id="Grupo_90837" data-name="Grupo 90837" transform="translate(0.511 21.332)">
            <path id="Trazado_149871" data-name="Trazado 149871" d="M908.646,226.3l-.141-14.686-24.248-.543,7.958,15.229Z" transform="translate(-884.256 -211.07)" fill="#292c4a"/>
          </g>
          <g id="Grupo_90838" data-name="Grupo 90838">
            <path id="Trazado_149872" data-name="Trazado 149872" d="M902.369,204.472l4.855,3.285-6.4-14.576-14.3-.345,4.378,3.138-7.077,15.576s14.918.236,15.206.2c0,0,3.343-7.283,3.4-7.621Z" transform="translate(-883.82 -192.837)" fill="#292c4a"/>
          </g>
        </g>
      </g>
      <g id="Grupo_90847" data-name="Grupo 90847" transform="translate(18.048 88.3)">
        <path id="Trazado_149875" data-name="Trazado 149875" d="M808.246,220.049h-6.61a1.643,1.643,0,0,1-1.682-1.591h0a1.643,1.643,0,0,1,1.682-1.59h6.61a1.644,1.644,0,0,1,1.684,1.59h0A1.645,1.645,0,0,1,808.246,220.049Z" transform="translate(-799.953 -216.868)" fill="#292c4a"/>
      </g>
    </g>
  </g>
  <g id="Grupo_90858" data-name="Grupo 90858" transform="translate(22.908 23.908)">
    <path id="Rectángulo_33182" data-name="Rectángulo 33182" d="M10.033,0H57.074A10.034,10.034,0,0,1,67.108,10.034v9.7A10.033,10.033,0,0,1,57.075,29.766H10.033A10.033,10.033,0,0,1,0,19.733v-9.7A10.033,10.033,0,0,1,10.033,0Z" transform="translate(8.05 197.96)" fill="#a7431a"/>
    <circle id="Elipse_4239" data-name="Elipse 4239" cx="26.901" cy="26.901" r="26.901" transform="translate(232.083 263.74) rotate(-88.489)" fill="#212121"/>
    <circle id="Elipse_4240" data-name="Elipse 4240" cx="26.901" cy="26.901" r="26.901" transform="matrix(0.129, -0.992, 0.992, 0.129, 332.475, 260.768)" fill="#212d31"/>
    <circle id="Elipse_4241" data-name="Elipse 4241" cx="26.901" cy="26.901" r="26.901" transform="matrix(0.071, -0.997, 0.997, 0.071, 15.376, 262.484)" fill="#212d31"/>
    <path id="Trazado_149876" data-name="Trazado 149876" d="M849.268,289a26.9,26.9,0,1,1,26.9,26.9A26.9,26.9,0,0,1,849.268,289Z" transform="translate(-755.62 -51.438)" fill="#212d31"/>
    <path id="Trazado_149877" data-name="Trazado 149877" d="M806.677,164.161s14.6-22.018,31.471-22.2l-1.5,23.822Z" transform="translate(-762.859 -71.858)" fill="#212d31"/>
    <path id="Trazado_149878" data-name="Trazado 149878" d="M897.147,261.639H780.318l9.724-78.915a25.593,25.593,0,0,1,25.4-22.462h81.7Z" transform="translate(-767.339 -68.748)" fill="#212d31"/>
    <path id="Trazado_149879" data-name="Trazado 149879" d="M826.887,211.832h-32.76l4.339-31.16a12.984,12.984,0,0,1,12.859-11.192H827.9Z" transform="translate(-764.992 -67.181)" fill="#212d31"/>
    <path id="Trazado_149880" data-name="Trazado 149880" d="M823.974,209.136H802.4a5.385,5.385,0,0,1-5.337-6.093l2.863-21.559a11.17,11.17,0,0,1,10.879-9.932h14.025Z" transform="translate(-764.501 -66.829)" fill="#e0e1e5"/>
    <path id="Trazado_149881" data-name="Trazado 149881" d="M1117.189,131.626H929.835V290.267h209.917Z" transform="translate(-741.925 -73.615)" fill="#212d31"/>
    <path id="Trazado_149882" data-name="Trazado 149882" d="M1088.825,131.626H901.471V290.267h209.917Z" transform="translate(-746.746 -73.615)"/>
    <path id="Trazado_149883" data-name="Trazado 149883" d="M1048.638,290.267H823.927l10.024-158.642h201.407Z" transform="translate(-759.927 -73.615)" fill="#212d31"/>
    <path id="Trazado_149884" data-name="Trazado 149884" d="M1038.876,283.377H831.212l9.263-146.608H1026.6l9.948,118.836Z" transform="translate(-758.689 -72.741)" fill="#e4e5e7"/>
    <path id="Trazado_149885" data-name="Trazado 149885" d="M853.49,246.911H782.2c-6.277.417-6.884,3.52-6.884,3.52l-6.095,29.482a1.96,1.96,0,0,0,2.057,1.832h17.924a2.793,2.793,0,0,0,2.431-1.879,29.735,29.735,0,0,1,4.607-4.627,29,29,0,0,1,17.1-5.058c9.136,0,17.209,2.906,22.071,7.349H853.49c2.182,0,3.967-1.138,3.967-2.531V249.44C857.458,248.049,855.672,246.911,853.49,246.911Z" transform="translate(-769.225 -54.019)" fill="#2e3c42"/>
    <g id="Grupo_90850" data-name="Grupo 90850" transform="translate(280.188 65.487)">
      <path id="Trazado_149886" data-name="Trazado 149886" d="M1010.7,223.44l-2-29.378,23.441-56.047,5.155,2.156Z" transform="translate(-1008.707 -138.016)" fill="#e4e5e7"/>
    </g>
    <path id="Trazado_149887" data-name="Trazado 149887" d="M1031.453,299.725h-22.591a20.989,20.989,0,0,0-2.831-7.274c-6.83-10.948-22.8-14.292-31.9-15.315a66.341,66.341,0,0,0-6.655-.452h38.835a28.508,28.508,0,0,1,20.113,12.22A33.165,33.165,0,0,1,1031.453,299.725Z" transform="translate(-735.527 -48.958)" fill="#2e3c42"/>
    <path id="Trazado_149888" data-name="Trazado 149888" d="M1118.55,299.725h-22.592a20.976,20.976,0,0,0-3.4-8.138c-10.318-14.882-37.988-14.9-37.988-14.9h38.837a28.341,28.341,0,0,1,18.077,9.616A33.585,33.585,0,0,1,1118.55,299.725Z" transform="translate(-720.723 -48.958)" fill="#2e3c42"/>
    <g id="Grupo_90851" data-name="Grupo 90851" transform="translate(383.529 65.487)">
      <path id="Trazado_149889" data-name="Trazado 149889" d="M1099.032,223.44l-2-29.378,23.441-56.047,5.155,2.156Z" transform="translate(-1097.034 -138.016)" fill="#212d31"/>
    </g>
    <path id="Trazado_149890" data-name="Trazado 149890" d="M1158.23,187.156l-56.463-17.433-96.1-29.669,12.073-26.915,88.983-31.1,51.5,17.492C1184.466,129.173,1158.23,187.156,1158.23,187.156Z" transform="translate(-729.034 -82.043)" fill="#2e3c42"/>
    <path id="Trazado_149891" data-name="Trazado 149891" d="M1025.536,288.905s-14.868-3.138-20.393,3.546c-6.83-10.948-22.8-14.292-31.9-15.315-.185-.152-.367-.3-.548-.452h32.728A28.508,28.508,0,0,1,1025.536,288.905Z" transform="translate(-734.64 -48.958)" fill="#373b61"/>
    <path id="Trazado_149892" data-name="Trazado 149892" d="M1111.486,286.3v0s-12.436-.28-18.927,5.284c-10.318-14.882-37.988-14.9-37.988-14.9h38.837A28.341,28.341,0,0,1,1111.486,286.3Z" transform="translate(-720.723 -48.958)" fill="#212d31"/>
    <path id="Trazado_149893" data-name="Trazado 149893" d="M1101.767,169.723l-96.1-29.669,12.073-26.915,88.983-31.1S1120.718,121.7,1101.767,169.723Z" transform="translate(-729.034 -82.043)" fill="#e4e5e7"/>
    <path id="Rectángulo_33183" data-name="Rectángulo 33183" d="M6.576,0H330.765a6.575,6.575,0,0,1,6.575,6.575V8.812a6.574,6.574,0,0,1-6.574,6.574H6.575A6.575,6.575,0,0,1,0,8.811V6.576A6.576,6.576,0,0,1,6.576,0Z" transform="translate(66.068 216.652)" fill="#2e3c42"/>
    <path id="Rectángulo_33184" data-name="Rectángulo 33184" d="M10.734,0H56.373A10.735,10.735,0,0,1,67.108,10.735V23.343A10.735,10.735,0,0,1,56.373,34.078H10.736A10.736,10.736,0,0,1,0,23.342V10.734A10.734,10.734,0,0,1,10.734,0Z" transform="translate(80.342 220.518)" fill="#2e3c42"/>
    <g id="Grupo_90857" data-name="Grupo 90857" transform="translate(14.987 117.746)">
      <path id="Rectángulo_33185" data-name="Rectángulo 33185" d="M4.646,0h1.58a4.647,4.647,0,0,1,4.647,4.647V18.724a4.646,4.646,0,0,1-4.646,4.646H4.646A4.646,4.646,0,0,1,0,18.725V4.646A4.646,4.646,0,0,1,4.646,0Z" transform="translate(0 10.324)" fill="#212d31"/>
      <path id="Rectángulo_33186" data-name="Rectángulo 33186" d="M3.779,0H5.064A3.779,3.779,0,0,1,8.843,3.779V17.146a3.779,3.779,0,0,1-3.779,3.779H3.778A3.778,3.778,0,0,1,0,17.147V3.779A3.779,3.779,0,0,1,3.779,0Z" transform="translate(1.208 11.634)" fill="#e0e1e5"/>
      <g id="Grupo_90856" data-name="Grupo 90856" transform="translate(5.074)">
        <path id="Trazado_149902" data-name="Trazado 149902" d="M786.734,193.433a.4.4,0,0,1-.363-.426v-6.6c0-.018,0-.035,0-.053a4.173,4.173,0,0,1,4.4-3.671c3.615.111,5.171,0,5.188,0a.388.388,0,0,1,.384.4.409.409,0,0,1-.339.453c-.063,0-1.6.113-5.251,0a3.338,3.338,0,0,0-3.663,2.9v6.568A.4.4,0,0,1,786.734,193.433Z" transform="translate(-786.371 -182.682)" fill="#212d31"/>
      </g>
    </g>
    <path id="Trazado_149903" data-name="Trazado 149903" d="M820.739,214.848h-6.61a1.688,1.688,0,0,1-1.684-1.682h0a1.689,1.689,0,0,1,1.684-1.684h6.61a1.687,1.687,0,0,1,1.682,1.684h0A1.687,1.687,0,0,1,820.739,214.848Z" transform="translate(-761.879 -60.041)" fill="#212d31"/>
    <g id="Grupo_91495" data-name="Grupo 91495" transform="translate(134.647 87.682)">
      <g id="Grupo_90944" data-name="Grupo 90944">
        <path id="Trazado_150122" data-name="Trazado 150122" d="M-2260.951,2446.074c7.973-12.021-4.575-26.5-4.575-26.5,10.572,18.83-8.8,30.677-16.092,34.321a4.571,4.571,0,0,1,3.549,4.454,4.547,4.547,0,0,1-.167,1.21c7.043-4.378,27.035-14.469,37.531,4.228C-2240.706,2463.781-2246.538,2445.525-2260.951,2446.074Z" transform="translate(2324.579 -2419.569)" fill="#213748"/>
        <path id="Trazado_150123" data-name="Trazado 150123" d="M-2339.8,2557.649a4.557,4.557,0,0,1-3.287,1.4,4.556,4.556,0,0,1-3.287-1.4c.353,8.39-.739,30.519-22.064,30.519,0,0,18.774,3.852,25.352-8.985,6.578,12.836,25.352,8.985,25.352,8.985C-2339.058,2588.168-2340.15,2566.039-2339.8,2557.649Z" transform="translate(2385.021 -2515.699)" fill="#213748"/>
        <path id="Trazado_150124" data-name="Trazado 150124" d="M-2385.662,2458.344a4.571,4.571,0,0,1,3.548-4.454c-7.289-3.644-26.665-15.491-16.092-34.321,0,0-12.547,14.483-4.574,26.5-14.413-.549-20.246,17.708-20.246,17.708,10.5-18.7,30.488-8.606,37.53-4.228A4.607,4.607,0,0,1-2385.662,2458.344Z" transform="translate(2423.026 -2419.569)" fill="#213748"/>
      </g>
      <g id="Grupo_90945" data-name="Grupo 90945" transform="translate(19.313 16.151)">
        <path id="Trazado_150125" data-name="Trazado 150125" d="M-2354.162,2538.249a17.383,17.383,0,0,1,.249-2.915,29.933,29.933,0,0,0-5.208-.989,22.815,22.815,0,0,0-.336,3.9,22.633,22.633,0,0,0,14.991,21.3,28.944,28.944,0,0,0,1.729-5.006A17.334,17.334,0,0,1-2354.162,2538.249Z" transform="translate(2359.457 -2515.626)" fill="#213748"/>
        <path id="Trazado_150126" data-name="Trazado 150126" d="M-2248.838,2538.249a22.717,22.717,0,0,0-.338-3.9,29.931,29.931,0,0,0-5.207.989,17.383,17.383,0,0,1,.25,2.915,17.336,17.336,0,0,1-11.426,16.3,28.944,28.944,0,0,0,1.729,5.006A22.633,22.633,0,0,0-2248.838,2538.249Z" transform="translate(2294.086 -2515.626)" fill="#213748"/>
        <path id="Trazado_150127" data-name="Trazado 150127" d="M-2330.242,2482.2a17.25,17.25,0,0,1,11.27-4.172,17.251,17.251,0,0,1,11.27,4.172,29.817,29.817,0,0,0,3.559-3.928,22.535,22.535,0,0,0-14.829-5.539,22.536,22.536,0,0,0-14.829,5.539A29.888,29.888,0,0,0-2330.242,2482.2Z" transform="translate(2341.596 -2472.732)" fill="#213748"/>
      </g>
    </g>
  </g>
  <path id="Trazado_149904" data-name="Trazado 149904" d="M932.207,309.873c-1.19-1.868-4.771-6.72-9.54-6.078-5.2.7,5.739,4.126,9.087,6.093a5.6,5.6,0,0,1-1.852-.216c-2.239-.8-6.072.731-7.3,1.268h21.31a3.381,3.381,0,0,0-1.523-1.949,3.823,3.823,0,0,0-1.962-.174c1.267-1.493,2.147-6.265-1.38-5.037-2.576.9-2.569,3.813-2.317,5.538-.548.085-1.1.172-1.653.252-1.061-5.406-4.813-21.254-12.419-21.676-7.71-.428,6.539,16.435,11.283,21.827C933.334,309.793,932.749,309.848,932.207,309.873Z" transform="translate(-720.618 -23.147)" fill="#6ab669"/>
  <g id="Grupo_90865" data-name="Grupo 90865" transform="translate(332.015 193.39)">
    <g id="Grupo_90863" data-name="Grupo 90863">
      <path id="Trazado_149905" data-name="Trazado 149905" d="M1101.065,232.665l-.507,11-3.544,76.663H1042.23l-4.713-77.4-.624-10.262Z" transform="translate(-1032.834 -225.923)" fill="#f9a825"/>
      <path id="Trazado_149912" data-name="Trazado 149912" d="M1101.065,232.665l-.508,11c-5.451-1.842-19.92-7.087-30.607-7.087-11.158,0-27.388,4.778-32.433,6.351l-.625-10.262Z" transform="translate(-1032.834 -225.923)" fill="#fbc02d"/>
      <rect id="Rectángulo_33187" data-name="Rectángulo 33187" width="72.288" height="10.653" rx="4.553" fill="#f9a825"/>
      <g id="Grupo_91494" data-name="Grupo 91494" transform="translate(15.583 25.646)">
        <g id="Grupo_90944-2" data-name="Grupo 90944">
          <path id="Trazado_150122-2" data-name="Trazado 150122" d="M-2270.828,2433.407c4.163-6.276-2.388-13.838-2.388-13.838,5.519,9.831-4.6,16.016-8.4,17.918a2.387,2.387,0,0,1,1.853,2.325,2.378,2.378,0,0,1-.087.632c3.677-2.286,14.115-7.554,19.594,2.208C-2260.258,2442.652-2263.3,2433.12-2270.828,2433.407Z" transform="translate(2304.048 -2419.569)" fill="#213748"/>
          <path id="Trazado_150123-2" data-name="Trazado 150123" d="M-2353.484,2557.649a2.379,2.379,0,0,1-1.716.73,2.378,2.378,0,0,1-1.716-.73c.184,4.38-.386,15.934-11.52,15.934,0,0,9.8,2.011,13.236-4.691,3.434,6.7,13.236,4.691,13.236,4.691C-2353.1,2573.583-2353.668,2562.03-2353.484,2557.649Z" transform="translate(2377.095 -2535.748)" fill="#213748"/>
          <path id="Trazado_150124-2" data-name="Trazado 150124" d="M-2403.519,2439.813a2.386,2.386,0,0,1,1.853-2.325c-3.805-1.9-13.921-8.087-8.4-17.918,0,0-6.551,7.562-2.388,13.838-7.525-.287-10.57,9.245-10.57,9.245,5.479-9.761,15.917-4.493,19.594-2.208A2.408,2.408,0,0,1-2403.519,2439.813Z" transform="translate(2423.026 -2419.569)" fill="#213748"/>
        </g>
        <g id="Grupo_90945-2" data-name="Grupo 90945" transform="translate(10.083 8.432)">
          <path id="Trazado_150125-2" data-name="Trazado 150125" d="M-2356.693,2536.384a9.091,9.091,0,0,1,.13-1.522,15.631,15.631,0,0,0-2.719-.516,11.906,11.906,0,0,0-.176,2.038,11.816,11.816,0,0,0,7.827,11.122,15.116,15.116,0,0,0,.9-2.614A9.05,9.05,0,0,1-2356.693,2536.384Z" transform="translate(2359.457 -2524.572)" fill="#213748"/>
          <path id="Trazado_150126-2" data-name="Trazado 150126" d="M-2256.83,2536.384a11.857,11.857,0,0,0-.176-2.038,15.63,15.63,0,0,0-2.718.516,9.091,9.091,0,0,1,.13,1.522,9.051,9.051,0,0,1-5.965,8.508,15.1,15.1,0,0,0,.9,2.614A11.816,11.816,0,0,0-2256.83,2536.384Z" transform="translate(2280.453 -2524.572)" fill="#213748"/>
          <path id="Trazado_150127-2" data-name="Trazado 150127" d="M-2331.944,2477.675a9.007,9.007,0,0,1,5.884-2.178,9.008,9.008,0,0,1,5.884,2.178,15.592,15.592,0,0,0,1.858-2.051,11.766,11.766,0,0,0-7.742-2.892,11.767,11.767,0,0,0-7.742,2.892A15.628,15.628,0,0,0-2331.944,2477.675Z" transform="translate(2337.871 -2472.732)" fill="#213748"/>
        </g>
      </g>
    </g>
  </g>
  <g id="Grupo_90872" data-name="Grupo 90872" transform="translate(163.439 193.39)">
    <g id="Grupo_90870" data-name="Grupo 90870">
      <path id="Trazado_149918" data-name="Trazado 149918" d="M956.98,232.665l-.507,11-3.543,76.663H898.146l-4.713-77.4-.624-10.262Z" transform="translate(-888.75 -225.923)" fill="#b42218"/>
      <path id="Trazado_149925" data-name="Trazado 149925" d="M956.981,232.665l-.508,11c-5.451-1.842-19.921-7.087-30.608-7.087-11.157,0-27.388,4.778-32.433,6.351l-.623-10.262Z" transform="translate(-888.75 -225.923)" fill="#d93328"/>
      <path id="Rectángulo_33188" data-name="Rectángulo 33188" d="M4.553,0H67.735a4.553,4.553,0,0,1,4.553,4.553V6.1a4.552,4.552,0,0,1-4.552,4.552H4.552A4.552,4.552,0,0,1,0,6.1V4.553A4.553,4.553,0,0,1,4.553,0Z" fill="#b42218"/>
      <g id="Grupo_91492" data-name="Grupo 91492" transform="translate(15.158 25.646)">
        <g id="Grupo_90944-3" data-name="Grupo 90944">
          <path id="Trazado_150122-3" data-name="Trazado 150122" d="M-2270.828,2433.407c4.163-6.276-2.388-13.838-2.388-13.838,5.519,9.831-4.6,16.016-8.4,17.918a2.387,2.387,0,0,1,1.853,2.325,2.378,2.378,0,0,1-.087.632c3.677-2.286,14.115-7.554,19.594,2.208C-2260.258,2442.652-2263.3,2433.12-2270.828,2433.407Z" transform="translate(2304.048 -2419.569)" fill="#f9f9f9"/>
          <path id="Trazado_150123-3" data-name="Trazado 150123" d="M-2353.484,2557.649a2.379,2.379,0,0,1-1.716.73,2.378,2.378,0,0,1-1.716-.73c.184,4.38-.386,15.934-11.52,15.934,0,0,9.8,2.011,13.236-4.691,3.434,6.7,13.236,4.691,13.236,4.691C-2353.1,2573.583-2353.668,2562.03-2353.484,2557.649Z" transform="translate(2377.095 -2535.748)" fill="#f9f9f9"/>
          <path id="Trazado_150124-3" data-name="Trazado 150124" d="M-2403.519,2439.813a2.386,2.386,0,0,1,1.853-2.325c-3.805-1.9-13.921-8.087-8.4-17.918,0,0-6.551,7.562-2.388,13.838-7.525-.287-10.57,9.245-10.57,9.245,5.479-9.761,15.917-4.493,19.594-2.208A2.408,2.408,0,0,1-2403.519,2439.813Z" transform="translate(2423.026 -2419.569)" fill="#f9f9f9"/>
        </g>
        <g id="Grupo_90945-3" data-name="Grupo 90945" transform="translate(10.083 8.432)">
          <path id="Trazado_150125-3" data-name="Trazado 150125" d="M-2356.693,2536.384a9.091,9.091,0,0,1,.13-1.522,15.631,15.631,0,0,0-2.719-.516,11.906,11.906,0,0,0-.176,2.038,11.816,11.816,0,0,0,7.827,11.122,15.116,15.116,0,0,0,.9-2.614A9.05,9.05,0,0,1-2356.693,2536.384Z" transform="translate(2359.457 -2524.572)" fill="#f9f9f9"/>
          <path id="Trazado_150126-3" data-name="Trazado 150126" d="M-2256.83,2536.384a11.857,11.857,0,0,0-.176-2.038,15.63,15.63,0,0,0-2.718.516,9.091,9.091,0,0,1,.13,1.522,9.051,9.051,0,0,1-5.965,8.508,15.1,15.1,0,0,0,.9,2.614A11.816,11.816,0,0,0-2256.83,2536.384Z" transform="translate(2280.453 -2524.572)" fill="#f9f9f9"/>
          <path id="Trazado_150127-3" data-name="Trazado 150127" d="M-2331.944,2477.675a9.007,9.007,0,0,1,5.884-2.178,9.008,9.008,0,0,1,5.884,2.178,15.592,15.592,0,0,0,1.858-2.051,11.766,11.766,0,0,0-7.742-2.892,11.767,11.767,0,0,0-7.742,2.892A15.628,15.628,0,0,0-2331.944,2477.675Z" transform="translate(2337.871 -2472.732)" fill="#f9f9f9"/>
        </g>
      </g>
    </g>
  </g>
  <g id="Grupo_90879" data-name="Grupo 90879" transform="translate(246.406 193.39)">
    <g id="Grupo_90877" data-name="Grupo 90877">
      <path id="Trazado_149931" data-name="Trazado 149931" d="M1027.893,232.665l-.507,11-3.544,76.663H969.058l-4.713-77.4-.623-10.262Z" transform="translate(-959.662 -225.923)" fill="#00978e"/>
      <path id="Trazado_149938" data-name="Trazado 149938" d="M1027.893,232.665l-.508,11c-5.45-1.842-19.92-7.087-30.606-7.087-11.157,0-27.388,4.778-32.433,6.351l-.624-10.262Z" transform="translate(-959.662 -225.923)" fill="#06b4a9"/>
      <path id="Rectángulo_33189" data-name="Rectángulo 33189" d="M4.553,0H67.735a4.553,4.553,0,0,1,4.553,4.553V6.1a4.553,4.553,0,0,1-4.553,4.553H4.552A4.552,4.552,0,0,1,0,6.1V4.553A4.553,4.553,0,0,1,4.553,0Z" fill="#00978e"/>
      <g id="Grupo_91493" data-name="Grupo 91493" transform="translate(14.192 25.646)">
        <g id="Grupo_90944-4" data-name="Grupo 90944">
          <path id="Trazado_150122-4" data-name="Trazado 150122" d="M-2270.828,2433.407c4.163-6.276-2.388-13.838-2.388-13.838,5.519,9.831-4.6,16.016-8.4,17.918a2.387,2.387,0,0,1,1.853,2.325,2.378,2.378,0,0,1-.087.632c3.677-2.286,14.115-7.554,19.594,2.208C-2260.258,2442.652-2263.3,2433.12-2270.828,2433.407Z" transform="translate(2304.048 -2419.569)" fill="#213748"/>
          <path id="Trazado_150123-4" data-name="Trazado 150123" d="M-2353.484,2557.649a2.379,2.379,0,0,1-1.716.73,2.378,2.378,0,0,1-1.716-.73c.184,4.38-.386,15.934-11.52,15.934,0,0,9.8,2.011,13.236-4.691,3.434,6.7,13.236,4.691,13.236,4.691C-2353.1,2573.583-2353.668,2562.03-2353.484,2557.649Z" transform="translate(2377.095 -2535.748)" fill="#213748"/>
          <path id="Trazado_150124-4" data-name="Trazado 150124" d="M-2403.519,2439.813a2.386,2.386,0,0,1,1.853-2.325c-3.805-1.9-13.921-8.087-8.4-17.918,0,0-6.551,7.562-2.388,13.838-7.525-.287-10.57,9.245-10.57,9.245,5.479-9.761,15.917-4.493,19.594-2.208A2.408,2.408,0,0,1-2403.519,2439.813Z" transform="translate(2423.026 -2419.569)" fill="#213748"/>
        </g>
        <g id="Grupo_90945-4" data-name="Grupo 90945" transform="translate(10.083 8.432)">
          <path id="Trazado_150125-4" data-name="Trazado 150125" d="M-2356.693,2536.384a9.091,9.091,0,0,1,.13-1.522,15.631,15.631,0,0,0-2.719-.516,11.906,11.906,0,0,0-.176,2.038,11.816,11.816,0,0,0,7.827,11.122,15.116,15.116,0,0,0,.9-2.614A9.05,9.05,0,0,1-2356.693,2536.384Z" transform="translate(2359.457 -2524.572)" fill="#213748"/>
          <path id="Trazado_150126-4" data-name="Trazado 150126" d="M-2256.83,2536.384a11.857,11.857,0,0,0-.176-2.038,15.63,15.63,0,0,0-2.718.516,9.091,9.091,0,0,1,.13,1.522,9.051,9.051,0,0,1-5.965,8.508,15.1,15.1,0,0,0,.9,2.614A11.816,11.816,0,0,0-2256.83,2536.384Z" transform="translate(2280.453 -2524.572)" fill="#213748"/>
          <path id="Trazado_150127-4" data-name="Trazado 150127" d="M-2331.944,2477.675a9.007,9.007,0,0,1,5.884-2.178,9.008,9.008,0,0,1,5.884,2.178,15.592,15.592,0,0,0,1.858-2.051,11.766,11.766,0,0,0-7.742-2.892,11.767,11.767,0,0,0-7.742,2.892A15.628,15.628,0,0,0-2331.944,2477.675Z" transform="translate(2337.871 -2472.732)" fill="#213748"/>
        </g>
      </g>
    </g>
  </g>
</svg>
