<svg xmlns="http://www.w3.org/2000/svg" xmlns:xlink="http://www.w3.org/1999/xlink" width="222.94" height="222.945" viewBox="0 0 222.94 222.945">
  <defs>
    <radialGradient id="radial-gradient" cx="0.076" cy="0.019" r="1.465" gradientTransform="translate(0)" gradientUnits="objectBoundingBox">
      <stop offset="0" stop-color="#f6f6f7"/>
      <stop offset="0.477" stop-color="#f9f9fa"/>
      <stop offset="0.715" stop-color="#fff"/>
    </radialGradient>
  </defs>
  <g id="Grupo_91482" data-name="Grupo 91482" transform="translate(-701.749 -761.795)">
    <g id="Grupo_91009" data-name="Grupo 91009" transform="translate(701.749 761.795)">
      <g id="Grupo_42274" data-name="Grupo 42274" transform="translate(0 0)">
        <g id="Grupo_18423" data-name="Grupo 18423" transform="translate(0 0)">
          <g id="Grupo_18421" data-name="Grupo 18421">
            <g id="Grupo_18420" data-name="Grupo 18420">
              <g id="Grupo_18419" data-name="Grupo 18419">
                <path id="Trazado_40936" data-name="Trazado 40936" d="M417.562,2257.189a111.47,111.47,0,1,1-111.468-111.468A111.468,111.468,0,0,1,417.562,2257.189Z" transform="translate(-194.623 -2145.721)" fill="#fff"/>
              </g>
            </g>
          </g>
          <path id="Trazado_40937" data-name="Trazado 40937" d="M415.569,2255.017A111.467,111.467,0,1,0,304.1,2366.492,111.031,111.031,0,0,0,415.569,2255.017Z" transform="translate(-192.629 -2143.547)" fill="url(#radial-gradient)"/>
          <path id="Trazado_40938" data-name="Trazado 40938" d="M389.579,2246.181a94.349,94.349,0,1,0-94.349,94.35A94.011,94.011,0,0,0,389.579,2246.181Z" transform="translate(-183.54 -2134.468)" fill="none" stroke="#1d272b" stroke-miterlimit="10" stroke-width="5"/>
          <g id="Grupo_18422" data-name="Grupo 18422" transform="translate(19.748 62.583)">
            <path id="Trazado_40939" data-name="Trazado 40939" d="M392.465,2164.488A111.483,111.483,0,0,1,200.545,2275.5a111.8,111.8,0,0,0,11.094,14.849,111.485,111.485,0,0,0,180.826-125.859Z" transform="translate(-200.545 -2164.488)" fill="#eceef0"/>
          </g>
          <g id="ihebxY" transform="translate(342.538 -1739.253)">
            <g id="Grupo_90663" data-name="Grupo 90663" transform="translate(-273.773 1795.355)">
              <path id="Trazado_145259" data-name="Trazado 145259" d="M-203.5,1845.262c-5.072-1.2-5.07-1.2-5.07-5.772,0-7.722,0-15.444,0-23.694-3.995,0-7.81-.121-11.613.042-2.651.113-3.7-.865-3.605-3.526.132-3.831.034-7.67.034-11.894h-3.8c-12.342,0-24.685.065-37.027-.049-3-.028-4.185.85-4.171,4.04q.159,35.746,0,71.493c-.016,3.21,1.194,4.11,4.171,4.042,6.115-.141,12.234-.043,18.351-.042,4.366,0,4.366,0,5.872,4.922h-7.66c-7.3,0-14.6-.117-21.893.055-3.025.071-3.874-1.071-3.865-3.958q.114-40.9,0-81.8c-.007-2.819,1.02-3.782,3.774-3.768,14.6.077,29.192-.012,43.787.114a6.677,6.677,0,0,1,4.151,1.769c5.717,5.511,11.289,11.175,16.843,16.852a5.066,5.066,0,0,1,1.642,2.911C-203.45,1826.329-203.5,1835.661-203.5,1845.262Z" transform="translate(273.773 -1795.354)" fill="#008f85"/>
              <path id="Trazado_145260" data-name="Trazado 145260" d="M-174.6,1912.315c7.238,4.858,14.353,9.633,21.466,14.408,3.706,2.488,4.664,6.025,2.423,8.929-2.284,2.958-5.953,2.973-9.225-.027-6.325-5.8-12.625-11.621-19.163-17.644-6.636,5.489-14.15,7.784-22.679,5.713a23.532,23.532,0,0,1-13.617-9.115,24.363,24.363,0,0,1,1.67-30.836,24.273,24.273,0,0,1,30.837-4.057C-172.169,1886.489-169.031,1898.5-174.6,1912.315Zm-21.164,6.174a18.409,18.409,0,0,0,18.245-18.244,18.5,18.5,0,0,0-18.44-18.407,18.375,18.375,0,0,0-18.193,18.282A18.3,18.3,0,0,0-195.769,1918.489Z" transform="translate(254.676 -1824.026)" fill="#008f85"/>
              <path id="Trazado_145261" data-name="Trazado 145261" d="M-231.435,1845.875q-9.663,0-19.325,0c-1.443,0-3.166.083-2.684-2a3.352,3.352,0,0,1,2.625-1.708q19.485-.168,38.97,0c.872.008,1.735,1.164,2.6,1.786-.848.64-1.682,1.816-2.545,1.836C-218.336,1845.948-224.886,1845.877-231.435,1845.875Z" transform="translate(266.567 -1811.986)" fill="#008f85"/>
              <path id="Trazado_145262" data-name="Trazado 145262" d="M-231.822,1864.976c-6.334,0-12.67.07-19-.077-.933-.021-2.475-.934-2.642-1.68-.457-2.035,1.224-2.029,2.692-2.028q19.324.012,38.649.007c1.367,0,2.9-.289,2.9,1.941-.005,2.323-1.658,1.818-2.95,1.824C-218.724,1864.994-225.273,1864.976-231.822,1864.976Z" transform="translate(266.573 -1818.783)" fill="#008f85"/>
              <path id="Trazado_145263" data-name="Trazado 145263" d="M-219.7,1822.977c1,2.923.212,3.856-2.5,3.824-9.523-.11-19.048-.047-28.572-.04-1.425,0-3.155.131-2.7-1.963a3.27,3.27,0,0,1,2.54-1.742C-240.552,1822.933-230.18,1822.977-219.7,1822.977Z" transform="translate(266.571 -1805.182)" fill="#008f85"/>
              <path id="Trazado_145264" data-name="Trazado 145264" d="M-227.022,1880.388c-1.54,3.061-3.575,3.882-6.466,3.781-5.981-.212-11.975-.008-17.959-.138-.73-.016-1.437-1.04-2.155-1.6.718-.681,1.423-1.939,2.154-1.954,7.054-.15,14.112-.091,21.169-.091Z" transform="translate(266.594 -1825.613)" fill="#008f85"/>
              <path id="Trazado_145265" data-name="Trazado 145265" d="M-235.152,1899.581c.343,2.769-.542,3.826-3.137,3.726-4.269-.164-8.551.045-12.819-.119-.846-.033-1.655-1.042-2.48-1.6.832-.669,1.646-1.888,2.5-1.917C-245.779,1899.492-240.46,1899.581-235.152,1899.581Z" transform="translate(266.589 -1832.44)" fill="#008f85"/>
              <path id="Trazado_145266" data-name="Trazado 145266" d="M-195.657,1911.195c4.18-3.709,8.11-7.182,12.021-10.676,1.434-1.28,2.982-2.547,4.694-.695,1.857,2.011.325,3.479-1.193,4.823-4.41,3.907-8.846,7.784-13.205,11.747-2.019,1.835-3.708,1.792-5.4-.38-1.712-2.2-3.493-4.339-5.269-6.484-1.241-1.5-1.793-3.143-.07-4.488,1.745-1.362,3.175-.3,4.355,1.182C-198.464,1907.811-197.159,1909.365-195.657,1911.195Z" transform="translate(249.358 -1832.202)" fill="#1d272b"/>
            </g>
          </g>
        </g>
      </g>
    </g>
  </g>
</svg>
