<svg xmlns="http://www.w3.org/2000/svg" xmlns:xlink="http://www.w3.org/1999/xlink" width="222.94" height="222.945" viewBox="0 0 222.94 222.945">
  <defs>
    <radialGradient id="radial-gradient" cx="0.076" cy="0.019" r="1.465" gradientTransform="translate(0)" gradientUnits="objectBoundingBox">
      <stop offset="0" stop-color="#f6f6f7"/>
      <stop offset="0.477" stop-color="#f9f9fa"/>
      <stop offset="0.715" stop-color="#fff"/>
    </radialGradient>
  </defs>
  <g id="Grupo_91644" data-name="Grupo 91644" transform="translate(-390.109 -1535.742)">
    <g id="Grupo_91481" data-name="Grupo 91481" transform="translate(-311.64 773.947)">
      <g id="Grupo_91009" data-name="Grupo 91009" transform="translate(701.749 761.795)">
        <g id="Grupo_42274" data-name="Grupo 42274" transform="translate(0 0)">
          <g id="Grupo_18423" data-name="Grupo 18423" transform="translate(0 0)">
            <g id="Grupo_18421" data-name="Grupo 18421">
              <g id="Grupo_18420" data-name="Grupo 18420">
                <g id="Grupo_18419" data-name="Grupo 18419">
                  <path id="Trazado_40936" data-name="Trazado 40936" d="M417.562,2257.189a111.47,111.47,0,1,1-111.468-111.468A111.468,111.468,0,0,1,417.562,2257.189Z" transform="translate(-194.623 -2145.721)" fill="#fff"/>
                </g>
              </g>
            </g>
            <path id="Trazado_40937" data-name="Trazado 40937" d="M415.569,2255.017A111.467,111.467,0,1,0,304.1,2366.492,111.031,111.031,0,0,0,415.569,2255.017Z" transform="translate(-192.629 -2143.547)" fill="url(#radial-gradient)"/>
            <path id="Trazado_40938" data-name="Trazado 40938" d="M389.579,2246.181a94.349,94.349,0,1,0-94.349,94.35A94.011,94.011,0,0,0,389.579,2246.181Z" transform="translate(-183.54 -2134.468)" fill="none" stroke="#008f85" stroke-miterlimit="10" stroke-width="5"/>
            <g id="Grupo_18422" data-name="Grupo 18422" transform="translate(19.748 62.583)">
              <path id="Trazado_40939" data-name="Trazado 40939" d="M392.465,2164.488A111.483,111.483,0,0,1,200.545,2275.5a111.8,111.8,0,0,0,11.094,14.849,111.485,111.485,0,0,0,180.826-125.859Z" transform="translate(-200.545 -2164.488)" fill="#eceef0"/>
            </g>
          </g>
        </g>
      </g>
    </g>
    <g id="Grupo_52998" data-name="Grupo 52998" transform="translate(454.104 1589.811)">
      <path id="Trazado_114962" data-name="Trazado 114962" d="M-998.6,1440.951a26.775,26.775,0,0,1-2.849.326q-34.383.028-68.766.019c-.4,0-.8,0-1.192-.028a1.9,1.9,0,0,1-2.015-2.117c-.032-1.943-.059-3.888.01-5.829.038-1.067-.365-1.393-1.387-1.356-1.632.06-3.268.03-4.9,0-1.574-.033-2.25-.712-2.271-2.283-.026-1.943-.01-3.886-.009-5.829q0-44.254,0-88.508c0-2.759.484-3.24,3.221-3.24l68.634,0c2.621,0,3.138.526,3.139,3.191,0,1.678.023,3.357-.012,5.034-.016.777.225,1.107,1.059,1.079,1.588-.053,3.179-.015,4.769,0,2.046.015,2.7.668,2.7,2.688,0,6.58.014,13.161-.017,19.742a2.183,2.183,0,0,0,.911,1.893c7.067,5.822,12.685,12.734,15.992,21.381,2.126,5.559,2.272,11.269,1.528,17.086-.469,3.669-1,7.35-1.137,11.039a23.048,23.048,0,0,0,2.461,11.142,37.216,37.216,0,0,0,2.484,3.895c1.507,2.283,3.041,4.55,4.541,6.837,1.12,1.708.918,2.629-.8,3.733q-7.907,5.084-15.824,10.152c-2.028,1.3-2.821,1.137-4.127-.827-1.784-2.682-3.55-5.376-5.329-8.062C-998.076,1441.667-998.392,1441.247-998.6,1440.951Zm-15.1-32.606a6.95,6.95,0,0,0-.909-1.112c-.794-.647-1.616-1.23-.777-2.175l-1.3-.322a5.66,5.66,0,0,1,1.052-.923,6.9,6.9,0,0,1,1.448-.4l-.1-.454-3.154.688a4.081,4.081,0,0,1-.486-.932c-.383-1.693-1.524-1.856-3.045-1.849-11.307.059-22.613.033-33.921.033-2.285,0-3.209-.587-3.2-2.025.006-1.363.942-1.938,3.134-1.937q17.225,0,34.451.017c.991,0,1.6-.18,1.957-1.251a4.166,4.166,0,0,1,3.6-2.93,32.247,32.247,0,0,1,3.808-.029v-56.483h-66.835v1.937q0,44.057,0,88.114c0,1.712,0,1.709,1.747,1.709q31.4,0,62.806,0c2.847,0,2.352.258,2.387-2.383a59.65,59.65,0,0,1,.122-7.8c.513-3.5.36-6.622-2.465-9.13a5.193,5.193,0,0,1-.356-.384c.639-.7,1.318-1.43.724-2.429a6.543,6.543,0,0,0-1.268-1.221l-.419.288C-1012.826,1405.716-1013.487,1407.083-1013.7,1408.344Zm15.785-37.893-.464.262c-.024.333-.069.666-.07,1-.009,2.738-.076,5.479.028,8.212a4.01,4.01,0,0,0,.893,2.328,15.748,15.748,0,0,1,3.645,6.961,41.3,41.3,0,0,1,1.1,6.771c.3,5.324-.357,10.488-3.444,15.063a3.044,3.044,0,0,1-2.764,1.478,4.35,4.35,0,0,1-3.511-2.075c-1.561-2.289-2.957-4.691-4.379-7.072-.813-1.361-1.461-2.827-2.333-4.148a5.258,5.258,0,0,0-4.359-2.62c-.948-.028-1.443.416-1.47,1.3-.08,2.651,1.517,4.57,3.011,6.486,1.477,1.9,3.106,3.671,4.605,5.55.14.175-.173.71-.3,1.151l1.3.211c0,2.825-.109,5.642.027,8.446.175,3.59.486,7.323,2.993,10.086,2.387,2.629,5.3,4.781,8.191,7.328,3.729-2.382,8.153-5.2,12.546-8.057a1.141,1.141,0,0,0,.205-1.062c-3.146-7-3.257-14.254-1.972-21.663a37.539,37.539,0,0,0,.51-12.51c-1.006-6.171-3.891-11.505-7.684-16.352C-993.556,1375.045-995.807,1372.8-997.919,1370.452Zm-9.395,61.216a29.713,29.713,0,0,1-2.959.3q-27.75.027-55.5.015c-3.755,0-3.7,0-3.737,3.762-.012,1.3.436,1.595,1.665,1.593q31.922-.051,63.844-.026h1.386l.219-.411Zm4.492-29.284.272-.089v-56.751h-4.433v1.77c0,15.05.029,30.1-.035,45.149a7.9,7.9,0,0,0,1.564,5.241A35.131,35.131,0,0,1-1002.823,1402.383Zm27,35.8-3.918-5.888-13.961,8.678,4.042,6.087Zm-22.587-32c2.417-3.68,1.941-14.988,0-16.942Z" transform="translate(1081.987 -1332.103)" fill="#1d272b"/>
      <path id="Trazado_114969" data-name="Trazado 114969" d="M-827.173,1609.515l.041.034c.217-1.262.878-2.629-1-3.4l.419-.288a6.516,6.516,0,0,1,1.268,1.221C-825.854,1608.086-826.533,1608.82-827.173,1609.515Z" transform="translate(895.415 -1533.308)" fill="#12263f"/>
      <path id="Trazado_114971" data-name="Trazado 114971" d="M-1009.563,1503.158q-11.854,0-23.707,0a7.8,7.8,0,0,1-1.319-.05,2.066,2.066,0,0,1-1.8-2.111,2.111,2.111,0,0,1,2.043-1.881c.307-.024.618-.009.927-.009q23.706,0,47.413,0c2.162,0,3.1.611,3.105,2.005s-1,2.048-3.084,2.047Q-997.777,1503.156-1009.563,1503.158Z" transform="translate(1048.48 -1454.84)" fill="#1d272b"/>
      <path id="Trazado_114973" data-name="Trazado 114973" d="M-1009.669,1657.972h-23.314c-.177,0-.354,0-.53,0-1.924-.016-2.85-.665-2.837-1.987s.947-1.994,2.888-1.991c8.515.012,17.03.057,25.544.06q11.247,0,22.5-.062c1.153-.005,2.138.224,2.468,1.489.388,1.486-.613,2.562-2.344,2.556q-9.271-.027-18.543-.064C-1005.783,1657.967-1007.726,1657.972-1009.669,1657.972Z" transform="translate(1048.446 -1568.679)" fill="#1d272b"/>
      <path id="Trazado_114981" data-name="Trazado 114981" d="M-1009.669,1657.972h-23.314c-.177,0-.354,0-.53,0-1.924-.016-2.85-.665-2.837-1.987s.947-1.994,2.888-1.991c8.515.012,17.03.057,25.544.06q11.247,0,22.5-.062c1.153-.005,2.138.224,2.468,1.489.388,1.486-.613,2.562-2.344,2.556q-9.271-.027-18.543-.064C-1005.783,1657.967-1007.726,1657.972-1009.669,1657.972Z" transform="translate(1048.446 -1576.906)" fill="#1d272b"/>
      <path id="Trazado_114974" data-name="Trazado 114974" d="M-971.1,1541.877h-17.486c-.486,0-.974.018-1.456-.024a1.931,1.931,0,0,1-1.883-1.991,1.916,1.916,0,0,1,1.828-1.921,10.47,10.47,0,0,1,1.455-.022q17.884,0,35.768,0a7.781,7.781,0,0,1,.794.018,1.9,1.9,0,0,1,1.85,2.007,1.816,1.816,0,0,1-1.927,1.908c-2.6.048-5.21.029-7.815.031Q-965.535,1541.882-971.1,1541.877Z" transform="translate(1015.796 -1483.358)" fill="#1d272b"/>
      <path id="Trazado_114975" data-name="Trazado 114975" d="M-910.845,1383.073q4.565,0,9.13,0c1.653,0,2.6.729,2.6,1.978,0,1.275-.879,2.048-2.562,2.05q-9.327.014-18.655-.058c-1.469-.01-2.263-.785-2.244-2.033.018-1.2.854-1.922,2.34-1.93C-917.108,1383.063-913.976,1383.075-910.845,1383.073Z" transform="translate(964.828 -1369.562)" fill="#1d272b"/>
      <path id="Trazado_114976" data-name="Trazado 114976" d="M-910.9,1464.506c-3.087,0-6.174.008-9.261,0-1.562-.006-2.386-.727-2.375-2.026.011-1.236.8-1.954,2.309-1.958q9.393-.03,18.787,0a2.1,2.1,0,0,1,2.361,1.956c0,1.214-.936,2.025-2.428,2.032C-904.639,1464.517-907.77,1464.507-910.9,1464.506Z" transform="translate(964.797 -1426.471)" fill="#1d272b"/>
      <path id="Trazado_114977" data-name="Trazado 114977" d="M-910.9,1425.815c-3.086,0-6.172.005-9.258-.005-1.587-.005-2.428-.7-2.438-1.963-.01-1.244.861-1.978,2.426-1.98q9.258-.011,18.516,0c1.589,0,2.495.7,2.524,1.9.032,1.288-.873,2.037-2.513,2.042C-904.725,1425.824-907.811,1425.817-910.9,1425.815Z" transform="translate(964.839 -1398.072)" fill="#1d272b"/>
      <path id="Trazado_114978" data-name="Trazado 114978" d="M-1024.948,1542.328a2.038,2.038,0,0,1-2.13-2.052,2.073,2.073,0,0,1,2.2-1.99,2.006,2.006,0,0,1,2.111,2.059A2.013,2.013,0,0,1-1024.948,1542.328Z" transform="translate(1041.631 -1483.64)" fill="#1d272b"/>
      <path id="Trazado_114979" data-name="Trazado 114979" d="M-1022.862,1578.294a1.986,1.986,0,0,1-2.086,2.068,2.113,2.113,0,0,1-2.25-1.96,2.183,2.183,0,0,1,2.142-2.1A2.047,2.047,0,0,1-1022.862,1578.294Z" transform="translate(1041.721 -1511.582)" fill="#1d272b"/>
      <path id="Trazado_114980" data-name="Trazado 114980" d="M-925.661,1628.536l2.448-.112.015.333c-1.308.386-2.045.307-2.428-.261Z" transform="translate(967.093 -1549.888)" fill="#12263f"/>
      <g id="Grupo_91485" data-name="Grupo 91485" transform="translate(8.122 10.193)">
        <g id="Grupo_90944" data-name="Grupo 90944">
          <path id="Trazado_150122" data-name="Trazado 150122" d="M-2273.514,2429.962c3.127-4.714-1.794-10.394-1.794-10.394,4.146,7.384-3.452,12.03-6.31,13.458a1.792,1.792,0,0,1,1.392,1.746,1.8,1.8,0,0,1-.066.474c2.762-1.717,10.6-5.674,14.717,1.658C-2265.575,2436.906-2267.862,2429.747-2273.514,2429.962Z" transform="translate(2298.464 -2419.569)" fill="#00978e"/>
          <path id="Trazado_150123" data-name="Trazado 150123" d="M-2357.206,2557.649a1.787,1.787,0,0,1-1.289.549,1.786,1.786,0,0,1-1.29-.549c.138,3.29-.289,11.968-8.652,11.968,0,0,7.362,1.51,9.941-3.523,2.58,5.033,9.94,3.523,9.94,3.523C-2356.916,2569.617-2357.344,2560.939-2357.206,2557.649Z" transform="translate(2374.94 -2541.199)" fill="#00978e"/>
          <path id="Trazado_150124" data-name="Trazado 150124" d="M-2408.374,2434.773a1.793,1.793,0,0,1,1.391-1.746c-2.858-1.429-10.456-6.075-6.31-13.458,0,0-4.92,5.68-1.794,10.394-5.652-.216-7.938,6.944-7.938,6.944,4.115-7.332,11.955-3.375,14.717-1.658A1.79,1.79,0,0,1-2408.374,2434.773Z" transform="translate(2423.025 -2419.569)" fill="#00978e"/>
        </g>
        <g id="Grupo_90945" data-name="Grupo 90945" transform="translate(7.573 6.333)">
          <path id="Trazado_150125" data-name="Trazado 150125" d="M-2357.381,2535.876a6.763,6.763,0,0,1,.1-1.143,11.715,11.715,0,0,0-2.042-.388,8.96,8.96,0,0,0-.132,1.531,8.875,8.875,0,0,0,5.878,8.354,11.407,11.407,0,0,0,.678-1.964A6.8,6.8,0,0,1-2357.381,2535.876Z" transform="translate(2359.457 -2527.005)" fill="#00978e"/>
          <path id="Trazado_150126" data-name="Trazado 150126" d="M-2259,2535.876a8.862,8.862,0,0,0-.133-1.531,11.7,11.7,0,0,0-2.042.388,6.813,6.813,0,0,1,.1,1.143,6.8,6.8,0,0,1-4.48,6.39,11.384,11.384,0,0,0,.678,1.964A8.875,8.875,0,0,0-2259,2535.876Z" transform="translate(2276.746 -2527.005)" fill="#00978e"/>
          <path id="Trazado_150127" data-name="Trazado 150127" d="M-2332.406,2476.445a6.764,6.764,0,0,1,4.419-1.636,6.765,6.765,0,0,1,4.419,1.636,11.787,11.787,0,0,0,1.4-1.541,8.837,8.837,0,0,0-5.815-2.172,8.834,8.834,0,0,0-5.815,2.172A11.751,11.751,0,0,0-2332.406,2476.445Z" transform="translate(2336.858 -2472.732)" fill="#00978e"/>
        </g>
      </g>
    </g>
  </g>
</svg>
