<svg xmlns="http://www.w3.org/2000/svg" xmlns:xlink="http://www.w3.org/1999/xlink" width="222.94" height="222.945" viewBox="0 0 222.94 222.945">
  <defs>
    <radialGradient id="radial-gradient" cx="0.076" cy="0.019" r="1.465" gradientTransform="translate(0)" gradientUnits="objectBoundingBox">
      <stop offset="0" stop-color="#f6f6f7"/>
      <stop offset="0.477" stop-color="#f9f9fa"/>
      <stop offset="0.715" stop-color="#fff"/>
    </radialGradient>
  </defs>
  <g id="Grupo_91482" data-name="Grupo 91482" transform="translate(-701.749 -761.795)">
    <g id="Grupo_91009" data-name="Grupo 91009" transform="translate(701.749 761.795)">
      <g id="Grupo_42274" data-name="Grupo 42274" transform="translate(0 0)">
        <g id="Grupo_18423" data-name="Grupo 18423" transform="translate(0 0)">
          <g id="Grupo_18421" data-name="Grupo 18421">
            <g id="Grupo_18420" data-name="Grupo 18420">
              <g id="Grupo_18419" data-name="Grupo 18419">
                <path id="Trazado_40936" data-name="Trazado 40936" d="M417.562,2257.189a111.47,111.47,0,1,1-111.468-111.468A111.468,111.468,0,0,1,417.562,2257.189Z" transform="translate(-194.623 -2145.721)" fill="#fff"/>
              </g>
            </g>
          </g>
          <path id="Trazado_40937" data-name="Trazado 40937" d="M415.569,2255.017A111.467,111.467,0,1,0,304.1,2366.492,111.031,111.031,0,0,0,415.569,2255.017Z" transform="translate(-192.629 -2143.547)" fill="url(#radial-gradient)"/>
          <path id="Trazado_40938" data-name="Trazado 40938" d="M389.579,2246.181a94.349,94.349,0,1,0-94.349,94.35A94.011,94.011,0,0,0,389.579,2246.181Z" transform="translate(-183.54 -2134.468)" fill="none" stroke="#1d272b" stroke-miterlimit="10" stroke-width="5"/>
          <g id="Grupo_18422" data-name="Grupo 18422" transform="translate(19.748 62.583)">
            <path id="Trazado_40939" data-name="Trazado 40939" d="M392.465,2164.488A111.483,111.483,0,0,1,200.545,2275.5a111.8,111.8,0,0,0,11.094,14.849,111.485,111.485,0,0,0,180.826-125.859Z" transform="translate(-200.545 -2164.488)" fill="#eceef0"/>
          </g>
          <g id="EUGog4" transform="translate(4156.912 -3308.48)">
            <g id="Grupo_91483" data-name="Grupo 91483" transform="translate(-4091.393 3367.272)">
              <path id="Trazado_150272" data-name="Trazado 150272" d="M-4081.67,3494.692c-3.677-1.442-4.963-4.129-4.895-8.047.178-10.216.111-20.437.032-30.655a11.876,11.876,0,0,1,3.407-8.892,3.433,3.433,0,0,0,.787-2.036c.114-1.621.036-3.254.036-5.034h3.945l.247,4.021h4.452q.9-6.579,1.8-13.126c.58-4.248,1.246-8.487,1.7-12.748.32-2.98,1.8-5.153,4.528-5.952a68.406,68.406,0,0,1,12.916-2.9c11.458-1.035,22.91-.819,34.169,2a32.6,32.6,0,0,1,3.527,1.223,6.911,6.911,0,0,1,4.852,6.208c.865,7.588,1.977,15.148,3,22.719.113.836.271,1.666.423,2.593h4.405c.081-1.351.157-2.647.242-4.067h4.1c-1.02,4.14,1.488,7.084,2.774,10.529,1.557,4.168,3.854,7.819,5.681,11.763a47.585,47.585,0,0,1,2.014,6.641v5.151c-.953,4.8-2.625,9.258-6.01,12.931a1.607,1.607,0,0,0-.391,1.038c.113,3.484-1.929,5.37-4.839,6.636h-14.519a3.959,3.959,0,0,0-.859-.339,23.169,23.169,0,0,1-15.106-8.9,3.928,3.928,0,0,0-2.653-1.313c-10.446-.09-20.893-.061-31.339-.051-.68,0-1.359.088-2.331.156.279,4.415.2,8.672-4.847,10.445Zm69.357-60.745c-.647-4.751-1.45-9.119-1.766-13.521-.192-2.67-1.385-4.044-3.781-4.525a130.858,130.858,0,0,0-13.3-2.409c-9.564-.906-19.158-1.045-28.622,1.049-5.625,1.246-5.894,1.61-6.712,7.216-.58,3.979-1.056,7.972-1.611,12.213A219.327,219.327,0,0,0-4012.313,3433.947Zm1.559,56.529a18.907,18.907,0,0,0,19-18.989,18.851,18.851,0,0,0-19.034-18.946,18.893,18.893,0,0,0-18.9,18.871A18.889,18.889,0,0,0-4010.754,3490.476Zm-22.276-25.372h-2.617c-5.15,0-10.3.038-15.451-.014-3.687-.037-5.784-2.178-5.817-5.84-.029-3.121-.033-6.242,0-9.363.039-3.348,2.118-5.653,5.5-5.7,7.412-.11,14.827-.1,22.239-.011,3.51.043,5.557,2.3,5.649,5.808.016.6.058,1.2.09,1.848a67.291,67.291,0,0,1,6.572-2.554,61.076,61.076,0,0,1,6.553-1.151c-.518-3.271-1.056-6.664-1.595-10.068a217.2,217.2,0,0,1-56.722.006c-.229,1.659-.42,3.125-.637,4.587-.775,5.252.479,5.86-6.478,5.723-3.155-.063-6.109,1.952-6.3,4.842-.346,5.324-.1,10.688-.1,16.1h48.315C-4033.566,3467.966-4033.326,3466.684-4033.031,3465.1Zm-.838,8.632h-48.58a32.139,32.139,0,0,1-.023,3.556c-.238,2.068.4,2.8,2.648,2.78,14.976-.106,29.952-.053,44.928-.061.8,0,1.595-.091,2.457-.144C-4032.955,3477.654-4033.393,3475.775-4033.869,3473.736Zm-6.4-25.42c-3.507,0-7.015.05-10.521-.022-1.624-.033-2.253.637-2.227,2.211.045,2.727.055,5.456,0,8.182-.036,1.667.61,2.4,2.335,2.391,6-.05,12,0,18-.043a2.23,2.23,0,0,0,1.617-.561c2.046-2.954,4.49-5.721,3.7-9.845-.3-1.583-.628-2.385-2.384-2.34C-4033.257,3448.379-4036.766,3448.315-4040.273,3448.315Zm-42.176,35.915c0,1.084-.012,2,0,2.911.041,2.714.625,3.313,3.264,3.333,1.713.013,3.427,0,5.141,0,4.171,0,4.457-.295,4.358-4.543-.013-.525-.094-1.049-.156-1.7Zm75.382-35.784,7.688,2.566C-4001.69,3448.338-4004.307,3448.089-4007.068,3448.447Z" transform="translate(4088.827 -3389.332)" fill="#008f85"/>
              <path id="Trazado_150273" data-name="Trazado 150273" d="M-3998.678,3367.272c3.838,1.419,5.5,4.116,5.361,8.253-.185,5.589-.046,11.188-.046,16.923h-4.073v-5.411c0-3.976.026-7.952-.01-11.926-.026-2.857-.8-3.61-3.62-3.621-3.976-.016-7.951,0-11.927,0q-28.3,0-56.6,0c-3.111,0-3.835.718-3.849,3.858-.021,4.833-.006,9.666-.006,14.5v2.622h-4.074v-3.382c0-4.521.146-9.048-.042-13.562-.172-4.14,1.525-6.83,5.357-8.251Z" transform="translate(4084.046 -3367.272)" fill="#008f85"/>
              <path id="Trazado_150274" data-name="Trazado 150274" d="M-4091.379,3435.935c0-1.789-.023-3.578.009-5.366a6.939,6.939,0,0,1,.246-2.067c.916-2.713,4.19-3.935,8.409-3.2a4.85,4.85,0,0,1,4.192,5.072c.05,3.732.058,7.466,0,11.2a4.922,4.922,0,0,1-4.921,5.13,21.232,21.232,0,0,1-3.032,0,4.985,4.985,0,0,1-4.892-5.164C-4091.417,3439.669-4091.379,3437.8-4091.379,3435.935Zm4.58-5.986v11.986h3.685v-11.986Z" transform="translate(4091.393 -3398.016)" fill="#008f85"/>
              <path id="Trazado_150275" data-name="Trazado 150275" d="M-3898.469,3435.956c0,1.945.032,3.89-.009,5.833a4.345,4.345,0,0,1-3.569,4.558,15.374,15.374,0,0,1-5.508.077,4.418,4.418,0,0,1-3.75-4.658c-.065-3.888-.031-7.777,0-11.666a5.125,5.125,0,0,1,.333-1.815c1.037-2.613,4.156-3.717,8.3-2.993a4.895,4.895,0,0,1,4.2,5.066c.045,1.866.008,3.733.008,5.6Zm-8.278,5.955h3.7v-11.96h-3.7Z" transform="translate(3995.654 -3398.007)" fill="#008f85"/>
              <path id="Trazado_150276" data-name="Trazado 150276" d="M-4060.057,3514.844c-1.633,0-3.272.079-4.9-.019a3.415,3.415,0,0,1-3.511-3.581c-.082-1.785-.082-3.58,0-5.364a3.456,3.456,0,0,1,3.7-3.638c3.11-.079,6.224-.086,9.333,0,2.267.064,3.543,1.4,3.652,3.7.081,1.708.075,3.424-.006,5.131-.116,2.441-1.375,3.66-3.835,3.761-1.475.061-2.956.011-4.433.011Zm4.031-4.3v-3.975h-8.208v3.975Z" transform="translate(4079.236 -3439.007)" fill="#008f85"/>
            </g>
          </g>
          <g id="Grupo_91484" data-name="Grupo 91484" transform="translate(127.117 125.262)">
            <g id="Grupo_90944" data-name="Grupo 90944">
              <path id="Trazado_150122" data-name="Trazado 150122" d="M-2273.514,2429.962c3.127-4.714-1.794-10.394-1.794-10.394,4.146,7.384-3.452,12.03-6.31,13.458a1.792,1.792,0,0,1,1.392,1.746,1.8,1.8,0,0,1-.066.474c2.762-1.717,10.6-5.674,14.717,1.658C-2265.575,2436.906-2267.862,2429.747-2273.514,2429.962Z" transform="translate(2298.464 -2419.569)" fill="#12263f"/>
              <path id="Trazado_150123" data-name="Trazado 150123" d="M-2357.206,2557.649a1.787,1.787,0,0,1-1.289.549,1.786,1.786,0,0,1-1.29-.549c.138,3.29-.289,11.968-8.652,11.968,0,0,7.362,1.51,9.941-3.523,2.58,5.033,9.94,3.523,9.94,3.523C-2356.916,2569.617-2357.344,2560.939-2357.206,2557.649Z" transform="translate(2374.94 -2541.199)" fill="#12263f"/>
              <path id="Trazado_150124" data-name="Trazado 150124" d="M-2408.374,2434.773a1.793,1.793,0,0,1,1.391-1.746c-2.858-1.429-10.456-6.075-6.31-13.458,0,0-4.92,5.68-1.794,10.394-5.652-.216-7.938,6.944-7.938,6.944,4.115-7.332,11.955-3.375,14.717-1.658A1.79,1.79,0,0,1-2408.374,2434.773Z" transform="translate(2423.025 -2419.569)" fill="#12263f"/>
            </g>
            <g id="Grupo_90945" data-name="Grupo 90945" transform="translate(7.573 6.333)">
              <path id="Trazado_150125" data-name="Trazado 150125" d="M-2357.381,2535.876a6.763,6.763,0,0,1,.1-1.143,11.715,11.715,0,0,0-2.042-.388,8.96,8.96,0,0,0-.132,1.531,8.875,8.875,0,0,0,5.878,8.354,11.407,11.407,0,0,0,.678-1.964A6.8,6.8,0,0,1-2357.381,2535.876Z" transform="translate(2359.457 -2527.005)" fill="#12263f"/>
              <path id="Trazado_150126" data-name="Trazado 150126" d="M-2259,2535.876a8.862,8.862,0,0,0-.133-1.531,11.7,11.7,0,0,0-2.042.388,6.813,6.813,0,0,1,.1,1.143,6.8,6.8,0,0,1-4.48,6.39,11.384,11.384,0,0,0,.678,1.964A8.875,8.875,0,0,0-2259,2535.876Z" transform="translate(2276.746 -2527.005)" fill="#12263f"/>
              <path id="Trazado_150127" data-name="Trazado 150127" d="M-2332.406,2476.445a6.764,6.764,0,0,1,4.419-1.636,6.765,6.765,0,0,1,4.419,1.636,11.787,11.787,0,0,0,1.4-1.541,8.837,8.837,0,0,0-5.815-2.172,8.834,8.834,0,0,0-5.815,2.172A11.751,11.751,0,0,0-2332.406,2476.445Z" transform="translate(2336.858 -2472.732)" fill="#12263f"/>
            </g>
          </g>
        </g>
      </g>
    </g>
  </g>
</svg>
