<svg xmlns="http://www.w3.org/2000/svg" xmlns:xlink="http://www.w3.org/1999/xlink" width="222.94" height="222.945" viewBox="0 0 222.94 222.945">
  <defs>
    <radialGradient id="radial-gradient" cx="0.076" cy="0.019" r="1.465" gradientTransform="translate(0)" gradientUnits="objectBoundingBox">
      <stop offset="0" stop-color="#f6f6f7"/>
      <stop offset="0.477" stop-color="#f9f9fa"/>
      <stop offset="0.715" stop-color="#fff"/>
    </radialGradient>
  </defs>
  <g id="Grupo_91657" data-name="Grupo 91657" transform="translate(-390.109 -573.742)">
    <g id="Grupo_91481" data-name="Grupo 91481" transform="translate(-311.64 -188.053)">
      <g id="Grupo_91009" data-name="Grupo 91009" transform="translate(701.749 761.795)">
        <g id="Grupo_42274" data-name="Grupo 42274" transform="translate(0 0)">
          <g id="Grupo_18423" data-name="Grupo 18423" transform="translate(0 0)">
            <g id="Grupo_18421" data-name="Grupo 18421">
              <g id="Grupo_18420" data-name="Grupo 18420">
                <g id="Grupo_18419" data-name="Grupo 18419">
                  <path id="Trazado_40936" data-name="Trazado 40936" d="M417.562,2257.189a111.47,111.47,0,1,1-111.468-111.468A111.468,111.468,0,0,1,417.562,2257.189Z" transform="translate(-194.623 -2145.721)" fill="#fff"/>
                </g>
              </g>
            </g>
            <path id="Trazado_40937" data-name="Trazado 40937" d="M415.569,2255.017A111.467,111.467,0,1,0,304.1,2366.492,111.031,111.031,0,0,0,415.569,2255.017Z" transform="translate(-192.629 -2143.547)" fill="url(#radial-gradient)"/>
            <path id="Trazado_40938" data-name="Trazado 40938" d="M389.579,2246.181a94.349,94.349,0,1,0-94.349,94.35A94.011,94.011,0,0,0,389.579,2246.181Z" transform="translate(-183.54 -2134.468)" fill="none" stroke="#008f85" stroke-miterlimit="10" stroke-width="5"/>
            <g id="Grupo_18422" data-name="Grupo 18422" transform="translate(19.748 62.583)">
              <path id="Trazado_40939" data-name="Trazado 40939" d="M392.465,2164.488A111.483,111.483,0,0,1,200.545,2275.5a111.8,111.8,0,0,0,11.094,14.849,111.485,111.485,0,0,0,180.826-125.859Z" transform="translate(-200.545 -2164.488)" fill="#eceef0"/>
            </g>
          </g>
        </g>
      </g>
    </g>
    <g id="orc9hl" transform="translate(794.623 -1048.172)">
      <g id="Grupo_90664" data-name="Grupo 90664" transform="translate(-338.002 1682.829)">
        <path id="Trazado_145267" data-name="Trazado 145267" d="M-260.984,1782.921H-338V1682.875c.288-.015.593-.045.9-.045q30.508,0,61.016.021a2.163,2.163,0,0,1,1.365.537q6.711,6.432,13.353,12.936a1.416,1.416,0,0,1,.437.878c.026,4.364.016,8.729.011,13.093a1.5,1.5,0,0,1-.1.322c-.483-.264-.919-.543-1.386-.75-1.459-.648-2.914-1.307-4.4-1.881a1.008,1.008,0,0,1-.777-1.13c.038-2.207.015-4.415.015-6.739h-11.093v-10.529H-331.36v86.678c.338.016.648.045.958.045q30.9,0,61.8.021c.871,0,1.05-.277,1.038-1.088-.045-3.142,0-6.285-.03-9.427a1.022,1.022,0,0,1,.759-1.141c1.743-.716,3.438-1.55,5.151-2.339.2-.094.406-.2.7-.339Z" transform="translate(338.002 -1682.829)" fill="#1d272b"/>
        <path id="Trazado_145268" data-name="Trazado 145268" d="M-143,1858.092a27.509,27.509,0,0,1,27.716-27.266,27.476,27.476,0,0,1,27.3,27.844,27.792,27.792,0,0,1-27.759,27.228C-129.161,1885.979-143.177,1874.275-143,1858.092Zm27.314,20.824a20.68,20.68,0,0,0,20.805-20.489c.126-11.7-10.168-20.783-20.637-20.706a20.547,20.547,0,0,0-20.536,20.391A20.507,20.507,0,0,0-115.69,1878.916Z" transform="translate(177.051 -1804.986)" fill="#1d272b"/>
        <path id="Trazado_145269" data-name="Trazado 145269" d="M144.512,2125.841l-6.216,5.95-20.684-21.578,6.208-5.96Z" transform="translate(-38.065 -2030.675)" fill="#1d272b"/>
        <path id="Trazado_145270" data-name="Trazado 145270" d="M-237.122,2051.917c-.262.015-.486.038-.71.038q-9.163,0-18.326,0a2.552,2.552,0,0,1-2.578-1.269,3.113,3.113,0,0,1,.1-3.227,2.244,2.244,0,0,1,2.068-1.07q8.2-.018,16.406.006a.887.887,0,0,1,.683.352C-238.683,2048.424-237.933,2050.121-237.122,2051.917Z" transform="translate(272.907 -1982.909)" fill="#1d272b"/>
        <path id="Trazado_145271" data-name="Trazado 145271" d="M-245.165,1804.459c2.27,0,4.541.058,6.809-.015a2.832,2.832,0,0,1,2.488,4.366,2.306,2.306,0,0,1-2.084,1.207c-4.83.018-9.661.032-14.491,0a2.565,2.565,0,0,1-2.526-2.778,2.592,2.592,0,0,1,2.646-2.763c2.385-.038,4.772-.01,7.158-.01Z" transform="translate(269.466 -1783.209)" fill="#008f85"/>
        <path id="Trazado_145272" data-name="Trazado 145272" d="M-240.115,1937.871c-.34,1.679-.68,3.291-.985,4.909-.089.471-.317.595-.771.594-4.881-.014-9.762.009-14.643-.021a2.557,2.557,0,0,1-2.712-2.767,2.543,2.543,0,0,1,2.611-2.775c5.4-.028,10.808-.009,16.212-.005A1.49,1.49,0,0,1-240.115,1937.871Z" transform="translate(272.98 -1893.281)" fill="#1d272b"/>
        <path id="Trazado_145273" data-name="Trazado 145273" d="M-245.212,1861.527c-2.3,0-4.6.011-6.894,0a2.6,2.6,0,0,1-2.867-2.7,2.617,2.617,0,0,1,2.833-2.84q6.937-.036,13.874,0a2.582,2.582,0,0,1,2.82,2.76,2.6,2.6,0,0,1-2.873,2.781C-240.617,1861.538-242.914,1861.527-245.212,1861.527Z" transform="translate(269.47 -1825.736)" fill="#008f85"/>
        <path id="Trazado_145274" data-name="Trazado 145274" d="M-241.483,1989.382c.17,1.861.33,3.623.5,5.481-.246.024-.49.067-.733.068q-7.288.005-14.576,0a2.809,2.809,0,0,1-2.505-4.38,2.068,2.068,0,0,1,1.833-1.151C-251.821,1989.367-246.677,1989.382-241.483,1989.382Z" transform="translate(273 -1935.858)" fill="#1d272b"/>
        <path id="Trazado_145275" data-name="Trazado 145275" d="M-89.014,2134.262a8.351,8.351,0,0,1-.907.1c-4.559,0-9.117.015-13.676-.009a2.773,2.773,0,0,1-2.449-4.373,2.881,2.881,0,0,1,3.538-1A32.648,32.648,0,0,0-89.014,2134.262Z" transform="translate(146.946 -2050.85)" fill="#1d272b"/>
        <path id="Trazado_145276" data-name="Trazado 145276" d="M65.661,1929.631v-31.568A46.4,46.4,0,0,1,69.325,1901a28.187,28.187,0,0,1,2.695,3.3,1.887,1.887,0,0,1,.242,1.065c.015,5.323-.046,10.648.047,15.97a5.361,5.361,0,0,1-1.27,3.735,19.609,19.609,0,0,1-5.011,4.421A2.288,2.288,0,0,1,65.661,1929.631Z" transform="translate(4.815 -1860.485)" fill="#1d272b"/>
        <path id="Trazado_145277" data-name="Trazado 145277" d="M-89.216,1989.257c4.752,0,9.373-.026,13.993.015a2.507,2.507,0,0,1,2.486,2.789,2.53,2.53,0,0,1-2.455,2.74c-1.247.065-2.5.024-3.749.025-2.878,0-5.756-.022-8.634.018-.626.009-.905-.2-1-.779-.21-1.317-.436-2.631-.638-3.948A5.929,5.929,0,0,1-89.216,1989.257Z" transform="translate(132.664 -1935.75)" fill="#1d272b"/>
        <path id="Trazado_145278" data-name="Trazado 145278" d="M-87,1943.215a15.819,15.819,0,0,1,1.9-5.183.889.889,0,0,1,.67-.253c3.631-.014,7.262-.031,10.893,0a2.517,2.517,0,0,1,2.639,2.73,2.492,2.492,0,0,1-2.474,2.794c-4.443.054-8.888.021-13.332.019A1.11,1.11,0,0,1-87,1943.215Z" transform="translate(130.82 -1893.253)" fill="#1d272b"/>
        <path id="Trazado_145279" data-name="Trazado 145279" d="M-71.91,2046.359c3.8,0,7.4-.027,11,.013a2.514,2.514,0,0,1,2.482,2.708,2.543,2.543,0,0,1-2.376,2.807c-1.681.083-3.368.033-5.052.031a.823.823,0,0,1-.409-.113A18.1,18.1,0,0,1-71.91,2046.359Z" transform="translate(118.368 -1982.882)" fill="#1d272b"/>
      </g>
    </g>
  </g>
</svg>
