<svg id="img1" xmlns="http://www.w3.org/2000/svg" xmlns:xlink="http://www.w3.org/1999/xlink" width="222.94" height="222.945" viewBox="0 0 222.94 222.945">
  <defs>
    <radialGradient id="radial-gradient" cx="0.076" cy="0.019" r="1.465" gradientTransform="translate(0)" gradientUnits="objectBoundingBox">
      <stop offset="0" stop-color="#f6f6f7"/>
      <stop offset="0.477" stop-color="#f9f9fa"/>
      <stop offset="0.715" stop-color="#fff"/>
    </radialGradient>
  </defs>
  <g id="Grupo_42274" data-name="Grupo 42274" transform="translate(0 0)">
    <g id="Grupo_18423" data-name="Grupo 18423" transform="translate(0 0)">
      <g id="Grupo_18421" data-name="Grupo 18421">
        <g id="Grupo_18420" data-name="Grupo 18420">
          <g id="Grupo_18419" data-name="Grupo 18419">
            <path id="Trazado_40936" data-name="Trazado 40936" d="M417.562,2257.189a111.47,111.47,0,1,1-111.468-111.468A111.468,111.468,0,0,1,417.562,2257.189Z" transform="translate(-194.623 -2145.721)" fill="#fff"/>
          </g>
        </g>
      </g>
      <path id="Trazado_40937" data-name="Trazado 40937" d="M415.569,2255.017A111.467,111.467,0,1,0,304.1,2366.492,111.031,111.031,0,0,0,415.569,2255.017Z" transform="translate(-192.629 -2143.547)" fill="url(#radial-gradient)"/>
      <path id="Trazado_40938" data-name="Trazado 40938" d="M389.579,2246.181a94.349,94.349,0,1,0-94.349,94.35A94.011,94.011,0,0,0,389.579,2246.181Z" transform="translate(-183.54 -2134.468)" fill="none" stroke="#008f85" stroke-miterlimit="10" stroke-width="5"/>
      <g id="Grupo_18422" data-name="Grupo 18422" transform="translate(19.748 62.583)">
        <path id="Trazado_40939" data-name="Trazado 40939" d="M392.465,2164.488A111.483,111.483,0,0,1,200.545,2275.5a111.8,111.8,0,0,0,11.094,14.849,111.485,111.485,0,0,0,180.826-125.859Z" transform="translate(-200.545 -2164.488)" fill="#eceef0"/>
      </g>
      <g id="MZ5unM" transform="translate(-5613.615 -2068.211)">
        <g id="Grupo_91635" data-name="Grupo 91635" transform="translate(5666.581 2120.272)">
          <path id="Trazado_150607" data-name="Trazado 150607" d="M5666.582,2320.441a25.329,25.329,0,0,1,5.582-10.583c1.467-1.673,3.131-3.173,5.6-2.718a11.138,11.138,0,0,1,3.325,1.2,34.288,34.288,0,0,1,12.847,11.561c1.011,1.6,2.043,3.2,2.991,4.841,1.109,1.922,1.257,3.9-.382,5.584-1.976,2.036-4.087,3.942-6.332,6.089,3.633,10.554,11.888,16.775,22,21.3a17.963,17.963,0,0,1,1.123-2,39.069,39.069,0,0,1,3.092-3.89,4.877,4.877,0,0,1,5.277-1.151,8.181,8.181,0,0,1,1.555.575c7.426,4.078,13.435,9.456,16.5,17.649.906,2.423.656,4.252-1.354,6.024-3.351,2.956-6.928,5.4-11.387,6.3a10.732,10.732,0,0,1-6.384-.835c-10.372-4.344-20.313-9.458-29.163-16.5-10.29-8.186-18.235-18.134-22.764-30.581a73.439,73.439,0,0,1-1.934-7.8,5.4,5.4,0,0,0-.2-.544Zm24.6,10.436c-1.7-1.092-3.28-2.066-4.816-3.111a35.751,35.751,0,0,1-10.721-10.967,1.738,1.738,0,0,1,.4-2.594,1.756,1.756,0,0,1,2.521.731c3.531,5.691,8.622,9.635,14.358,12.859.292.164.618.267,1.246.533a4.863,4.863,0,0,0-.188-1.639c-1.245-2.1-2.46-4.236-3.878-6.222a31.417,31.417,0,0,0-11.746-9.6,2.063,2.063,0,0,0-2.853.567,57.277,57.277,0,0,0-4.277,6.369,11.359,11.359,0,0,0-1.083,4.425,22.228,22.228,0,0,0,1.57,9.3c4.413,12.25,12.2,21.994,22.355,29.972,8.288,6.511,17.557,11.283,27.2,15.391a10.974,10.974,0,0,0,11.992-2.406c-.01-.036-.01-.092-.035-.105-.241-.134-.486-.26-.73-.389a35.351,35.351,0,0,1-13.739-12.484,1.791,1.791,0,0,1,.381-2.694c.932-.575,1.812-.258,2.59.853.841,1.2,1.667,2.417,2.616,3.528a32.064,32.064,0,0,0,11.359,8.433c.255.115.759.206.83.1a1.625,1.625,0,0,0,.161-.946,3.077,3.077,0,0,0-.271-.778c-2.585-7.108-7.864-11.745-14.208-15.359-2.314-1.319-3.069-1.078-4.683,1.08a16.971,16.971,0,0,0-3.16,6.7,1.766,1.766,0,0,1-2.061,1.515,1.829,1.829,0,0,1-1.39-2.167c.036-.261.1-.52.1-.556-2.963-1.637-5.888-3.059-8.612-4.8-6.777-4.323-12.07-9.984-14.98-17.607-.434-1.135-.778-1.665-2.139-1.291a1.72,1.72,0,0,1-2.267-2.1,1.916,1.916,0,0,1,2.017-1.362C5687.593,2333.97,5689.313,2332.393,5691.182,2330.877Z" transform="translate(-5666.582 -2262.586)" fill="#1d272b"/>
          <path id="Trazado_150608" data-name="Trazado 150608" d="M5814.439,2179.317c-.311,2.189-.525,4.4-.948,6.565-3.272,16.759-12.378,29.437-27.058,38.04a88.711,88.711,0,0,1-10.368,4.652c-1.33.564-2.242.139-2.619-.948-.371-1.07.153-1.884,1.535-2.344a51.916,51.916,0,0,0,35.834-53.412,52.023,52.023,0,0,0-101.143-12.837c-.089.262-.161.53-.258.788a1.768,1.768,0,0,1-2.191,1.313,1.7,1.7,0,0,1-1.1-2.375,86.7,86.7,0,0,1,4.3-9.874c8.4-14.823,21.049-23.986,37.7-27.573,2-.432,4.076-.553,6.115-.827.387-.052.769-.143,1.153-.216h7.142c1.955.258,3.921.444,5.86.787a55.548,55.548,0,0,1,45.1,44.688c.4,2.207.63,4.443.938,6.666Z" transform="translate(-5696.589 -2120.272)" fill="#1d272b"/>
          <path id="Trazado_150609" data-name="Trazado 150609" d="M5854.656,2277.092v1.448c0,3.133.018,6.267-.008,9.4a4.6,4.6,0,0,1-4.854,4.846q-4.759.034-9.519,0c-3.116-.025-4.985-1.952-4.988-5.091q-.007-4.4,0-8.8v-1.405c-2.06,0-3.992,0-5.926,0-2.459,0-4.917.014-7.376-.016-3.031-.038-4.792-1.8-4.826-4.821-.044-3.924-.093-7.848-.087-11.772,0-3.31,1.861-5.124,5.181-5.135,3.41-.012,6.821-.008,10.232-.01h1.39c0-3.6-.011-7.08.008-10.559a8.065,8.065,0,0,1,.2-1.878,4.208,4.208,0,0,1,3.963-3.36c4.32-.087,8.645-.1,12.964.007a4.207,4.207,0,0,1,4.062,4.187c.083,3.21.037,6.424.045,9.636,0,.431,0,.863,0,1.432.473.029.888.075,1.3.076,3.371.007,6.742,0,10.113.006,3.479.007,5.251,1.792,5.257,5.284q.009,5.825.007,11.65a4.67,4.67,0,0,1-4.892,4.927c-3.331,0-6.661-.031-9.991-.047C5856.211,2277.089,5855.508,2277.092,5854.656,2277.092Zm-25.331-3.047v-.059c2.219,0,4.438.015,6.659,0,2.163-.019,2.813.585,2.812,2.681q0,5.415,0,10.83c0,1.6.157,1.757,1.794,1.759q4.344.005,8.688,0c1.724,0,1.931-.206,1.937-1.888q.02-5.771.047-11.542c.009-1.493.688-2.14,2.2-2.139.83,0,1.661.034,2.492.034,3.481,0,6.964-.04,10.445.008,1.588.022,1.989-.246,1.992-1.863,0-3.808-.015-7.615-.038-11.423-.007-1.308-.38-1.665-1.72-1.667-4.245-.006-8.489,0-12.735,0-1.652,0-2.212-.549-2.216-2.191-.009-3.808,0-7.617,0-11.425,0-1.475-.356-1.836-1.8-1.838q-5.3-.008-10.592,0c-1.64,0-1.879.233-1.88,1.832q-.006,5.772,0,11.544c0,2.02-.526,2.557-2.5,2.558q-6.368,0-12.734,0c-1.267,0-1.629.359-1.632,1.611q-.008,5.772.005,11.544c0,1.2.439,1.631,1.648,1.636C5824.568,2274.052,5826.947,2274.045,5829.325,2274.045Z" transform="translate(-5781.241 -2211.393)" fill="#1d272b"/>
          <path id="Trazado_150610" data-name="Trazado 150610" d="M5840.408,2285.071c-2.378,0-4.757.007-7.135,0-1.208-.005-1.645-.433-1.647-1.636q-.017-5.772-.005-11.544c0-1.252.365-1.609,1.631-1.611q6.367-.01,12.735,0c1.976,0,2.5-.538,2.5-2.558q0-5.772,0-11.545c0-1.6.24-1.83,1.88-1.832q5.3,0,10.592,0c1.447,0,1.8.363,1.8,1.838,0,3.808,0,7.617,0,11.425,0,1.642.563,2.19,2.216,2.191,4.245,0,8.49,0,12.735,0,1.339,0,1.712.359,1.72,1.667.022,3.808.043,7.615.038,11.423,0,1.617-.4,1.884-1.992,1.863-3.48-.048-6.963-.007-10.444-.008-.831,0-1.662-.034-2.492-.035-1.516,0-2.194.646-2.2,2.139-.024,3.847-.034,7.695-.047,11.542-.006,1.682-.212,1.887-1.937,1.888q-4.344,0-8.688,0c-1.637,0-1.793-.154-1.795-1.759q0-5.415,0-10.83c0-2.1-.649-2.7-2.812-2.681-2.22.02-4.439,0-6.659,0Z" transform="translate(-5792.324 -2222.419)" fill="#008f85"/>
        </g>
      </g>
    </g>
  </g>
</svg>
