<svg xmlns="http://www.w3.org/2000/svg" xmlns:xlink="http://www.w3.org/1999/xlink" width="331.662" height="305.632" viewBox="0 0 331.662 305.632">
  <defs>
    <linearGradient id="linear-gradient" x1="0.099" y1="1.06" x2="0.731" y2="-0.179" gradientUnits="objectBoundingBox">
      <stop offset="0" stop-color="#c6c6c6"/>
      <stop offset="1" stop-color="#fff"/>
    </linearGradient>
    <linearGradient id="linear-gradient-2" x1="-0.174" y1="0.972" x2="0.848" y2="-0.005" xlink:href="#linear-gradient"/>
    <linearGradient id="linear-gradient-3" x1="1.159" y1="0.978" x2="0.17" y2="-0.01" xlink:href="#linear-gradient"/>
  </defs>
  <g id="Grupo_91523" data-name="Grupo 91523" transform="translate(426.874 -119.973)">
    <g id="Grupo_91511" data-name="Grupo 91511">
      <g id="Grupo_91529" data-name="Grupo 91529" transform="translate(48.597 -27.391)">
        <path id="Trazado_150296" data-name="Trazado 150296" d="M-255.038,167.079l.263,83.315a6.826,6.826,0,0,1-.183,1.384c-4.4,22.228-60.626,21.146-61.329-2.08h0l-.258-82.343Z" fill="#2e3c42" fill-rule="evenodd"/>
        <path id="Trazado_150297" data-name="Trazado 150297" d="M-290.155,167.236V267.607c-7.421-.616-14.466-2.708-19.37-6.25V167.324Z" fill="#1d272b" fill-rule="evenodd"/>
        <path id="Trazado_150298" data-name="Trazado 150298" d="M-282.354,184.782v82.932c-1.487.082-2.983.107-4.476.072V184.861C-285.317,184.9-283.822,184.872-282.354,184.782Z" fill="#1d272b" fill-rule="evenodd"/>
        <g id="Grupo_91501" data-name="Grupo 91501">
          <path id="Trazado_150299" data-name="Trazado 150299" d="M-318.2,188.11a12.815,12.815,0,0,1,1.68-4.259v6.666h.021c.3,23.346,56.851,24.586,61.256,2.266a11.01,11.01,0,0,0,.207-2.266l.062-6.272a12.226,12.226,0,0,1,1.64,8.679C-258.329,219.739-323.294,215.211-318.2,188.11Z" fill="#afafaf" fill-rule="evenodd"/>
          <path id="Trazado_150300" data-name="Trazado 150300" d="M-318.124,186.7a12.83,12.83,0,0,1,1.681-4.259v6.666h.02c.3,23.346,56.852,24.586,61.257,2.265a11,11,0,0,0,.207-2.265l.062-6.272a12.229,12.229,0,0,1,1.64,8.679C-258.253,218.332-323.218,213.8-318.124,186.7Z" fill="#e8e8e8" fill-rule="evenodd"/>
        </g>
        <g id="Grupo_91502" data-name="Grupo 91502">
          <path id="Trazado_150301" data-name="Trazado 150301" d="M-318.2,222.6a12.8,12.8,0,0,1,1.68-4.259v6.666h.021c.3,23.346,56.851,24.586,61.256,2.265a11,11,0,0,0,.207-2.265l.062-6.272a12.224,12.224,0,0,1,1.64,8.679C-258.329,254.23-323.294,249.7-318.2,222.6Z" fill="#afafaf" fill-rule="evenodd"/>
          <path id="Trazado_150302" data-name="Trazado 150302" d="M-318.124,221.193a12.825,12.825,0,0,1,1.681-4.258V223.6h.02c.3,23.346,56.852,24.587,61.257,2.266a11.01,11.01,0,0,0,.207-2.266l.062-6.272a12.231,12.231,0,0,1,1.64,8.679C-258.253,252.822-323.218,248.294-318.124,221.193Z" fill="#e8e8e8" fill-rule="evenodd"/>
        </g>
        <path id="Trazado_150303" data-name="Trazado 150303" d="M-318.4,165.777c2.093-10.59,18.341-18.1,36.284-16.771s30.8,11,28.7,21.588-18.34,18.1-36.284,16.771S-320.493,176.368-318.4,165.777Z" fill="#afafaf" fill-rule="evenodd"/>
        <path id="Trazado_150304" data-name="Trazado 150304" d="M-318.3,164.287c2.094-10.59,18.341-18.1,36.284-16.771s30.8,11,28.7,21.587-18.34,18.1-36.284,16.772S-320.394,174.877-318.3,164.287Z" fill="#1d272b" fill-rule="evenodd"/>
        <path id="Trazado_150306" data-name="Trazado 150306" d="M-313.62,164.634c1.791-9.065,15.7-15.494,31.057-14.356s26.36,9.414,24.569,18.479-15.7,15.494-31.058,14.355S-315.412,173.7-313.62,164.634Z" fill="#2e3c42" fill-rule="evenodd"/>
        <path id="Trazado_150307" data-name="Trazado 150307" d="M-313.062,167.236c1.756-8.883,15.384-15.184,30.434-14.067,13.239.98,23.171,7.372,24.177,14.942-.028.21-.06.42-.1.63-1.756,8.883-15.384,15.183-30.434,14.067-13.239-.98-23.171-7.373-24.177-14.943C-313.135,167.655-313.1,167.446-313.062,167.236Z" fill="#afafaf" fill-rule="evenodd"/>
        <g id="Grupo_91503" data-name="Grupo 91503">
          <path id="Trazado_150308" data-name="Trazado 150308" d="M-303.719,157.274c.375-1.9,3.29-3.248,6.509-3.009s5.525,1.973,5.15,3.873-3.291,3.248-6.51,3.009S-304.1,159.174-303.719,157.274Z" fill="#afafaf" fill-rule="evenodd"/>
          <path id="Trazado_150309" data-name="Trazado 150309" d="M-292.027,157.578h0v0Zm.006.2.041,1.64a2.017,2.017,0,0,1,.009.381v0h0a1.978,1.978,0,0,1-.035.262c-.375,1.9-3.29,3.247-6.509,3.008-2.953-.218-5.137-1.7-5.189-3.4h0l-.049-1.835c.124,1.671,2.283,3.1,5.183,3.315,3.219.239,6.134-1.109,6.51-3.009A2.1,2.1,0,0,0-292.021,157.779Z" fill="#1d272b" fill-rule="evenodd"/>
          <path id="Trazado_150310" data-name="Trazado 150310" d="M-303.089,157.321c.334-1.695,2.934-2.9,5.806-2.684s4.927,1.76,4.593,3.455-2.935,2.9-5.806,2.683S-303.424,159.016-303.089,157.321Z" fill="#1d272b" fill-rule="evenodd"/>
          <path id="Trazado_150311" data-name="Trazado 150311" d="M-303.089,156.923c.334-1.7,2.934-2.9,5.806-2.684s4.927,1.759,4.593,3.455-2.935,2.9-5.806,2.683S-303.424,158.617-303.089,156.923Z" fill="#afafaf" fill-rule="evenodd"/>
        </g>
        <g id="Grupo_91504" data-name="Grupo 91504">
          <path id="Trazado_150312" data-name="Trazado 150312" d="M-318.2,247.129a12.807,12.807,0,0,1,1.68-4.259v6.666h.021c.3,23.346,56.851,24.586,61.256,2.266a11.016,11.016,0,0,0,.207-2.266l.062-6.272a12.225,12.225,0,0,1,1.64,8.679C-258.329,278.758-323.294,274.23-318.2,247.129Z" fill="#94adca" fill-rule="evenodd"/>
          <path id="Trazado_150313" data-name="Trazado 150313" d="M-318.124,245.721a12.825,12.825,0,0,1,1.681-4.258v6.665h.02c.3,23.347,56.852,24.587,61.257,2.266a11,11,0,0,0,.207-2.266l.062-6.271a12.229,12.229,0,0,1,1.64,8.679C-258.253,277.351-323.218,272.822-318.124,245.721Z" fill="#e8e8e8" fill-rule="evenodd"/>
        </g>
        <path id="Trazado_150314" data-name="Trazado 150314" d="M-281.114,238.954v-.014a5.883,5.883,0,0,0,2.067-.146,7.628,7.628,0,0,0,3.772-2.478,5.79,5.79,0,0,1-5.839,1.476,5.79,5.79,0,0,0,5.839-1.476,7.628,7.628,0,0,1-3.772,2.478,5.883,5.883,0,0,1-2.067.146v-1.148a5.351,5.351,0,0,0,5.839-1.476,7.628,7.628,0,0,1-3.772,2.478,5.823,5.823,0,0,1-2.067.16Zm0-5.214v-2.673a5.333,5.333,0,0,0,.529-2.268,5.9,5.9,0,0,1,.947-.444,5.718,5.718,0,0,1,.677-.205c.007.13.013-.354.013.4a9.483,9.483,0,0,1-1.109,3.843,7.311,7.311,0,0,1-1.057,1.352Zm0-5.326a6.834,6.834,0,0,1,1.32-.652,5.27,5.27,0,0,1,3.884-.151,4.311,4.311,0,0,1,2.617,4.681,6.267,6.267,0,0,0-.377-4.056,5,5,0,0,0-2.817-2.424,6.7,6.7,0,0,0-3.356-.3,7,7,0,0,0,.9-3.489,6.227,6.227,0,0,0-1.341-3.83,6.155,6.155,0,0,0-.829-.825h0a6.147,6.147,0,0,1,.829.824,6.214,6.214,0,0,1,1.341,3.827,7.008,7.008,0,0,1-.9,3.492,6.713,6.713,0,0,1,3.358.3,4.982,4.982,0,0,1,2.815,2.424,6.3,6.3,0,0,1,.377,4.056,4.311,4.311,0,0,0-2.614-4.681,5.253,5.253,0,0,0-3.885.151,6.888,6.888,0,0,0-1.322.654,6.888,6.888,0,0,1,1.322-.654,5.253,5.253,0,0,1,3.885-.151,4.311,4.311,0,0,1,2.614,4.681,6.3,6.3,0,0,0-.377-4.056,4.982,4.982,0,0,0-2.815-2.424,6.713,6.713,0,0,0-3.358-.3,7.008,7.008,0,0,0,.9-3.492,6.214,6.214,0,0,0-1.341-3.827,6.147,6.147,0,0,0-.829-.824v.555a4.93,4.93,0,0,1,.789,2.832,5.509,5.509,0,0,1-.789,2.735v4.919Zm0-4.919a5.509,5.509,0,0,0,.789-2.735,4.93,4.93,0,0,0-.789-2.832,4.93,4.93,0,0,1,.789,2.832A5.509,5.509,0,0,1-281.114,223.495Zm-2.387-.861a6.691,6.691,0,0,1,1.789.817,5.167,5.167,0,0,1-.512.7,4.895,4.895,0,0,1-.608.588,5.041,5.041,0,0,0-.669-.347v-1.758Zm2.387-5.262h0a6.5,6.5,0,0,0-2.387-1.239v.015a4.8,4.8,0,0,1,2.387,1.779v-.555a6.5,6.5,0,0,0-2.387-1.239,6.5,6.5,0,0,1,2.387,1.238Zm0,6.123a6.186,6.186,0,0,1-2.387,2.333v4.177l.5.261a6.186,6.186,0,0,1,1.891-1.85,6.186,6.186,0,0,0-1.891,1.85l-.5-.261h0c.165.089.33.175.5.261a6.181,6.181,0,0,1,1.891-1.852v-4.919Zm0,7.572v2.673a7.108,7.108,0,0,1-1.8,1.318,4.4,4.4,0,0,1-.164-.437,4.69,4.69,0,0,1-.2-1.178,5.6,5.6,0,0,0,2.166-2.376Zm0,6.725v1.148a5.786,5.786,0,0,1-2.09-.614c-.1-.054-.2-.109-.3-.166.1.057.194.112.3.166a5.786,5.786,0,0,0,2.09.614v.014a5.846,5.846,0,0,1-2.09-.628c-.1-.054-.2-.112-.3-.171v-2.794a3.965,3.965,0,0,0,2.255,2.372l.132.059-.132-.059a3.965,3.965,0,0,1-2.255-2.372v-.041a4.752,4.752,0,0,0,2.255,2.413l.132.059Zm-2.387-6.581v-.351l.125.067c-.046.094-.086.189-.125.284Zm0-5.384a6.183,6.183,0,0,0,2.387-2.332,6.183,6.183,0,0,1-2.387,2.332Zm2.387-7.9a4.8,4.8,0,0,0-2.387-1.779,4.8,4.8,0,0,1,2.387,1.779Zm-2.262,13c-.046.094-.086.189-.125.284.039-.1.079-.19.125-.284l-.125-.067Zm-2.285-8.594a7.731,7.731,0,0,1,2.16.3v1.758a5.493,5.493,0,0,0-2.16-.431,5.492,5.492,0,0,0-2.163.434v-1.758a7.686,7.686,0,0,1,2.163-.3Zm2.16-6.2v.015l-.18-.063.18.048Zm0,9.694v4.177c-.2-.109-.41-.222-.614-.334a.967.967,0,0,0,.138-.668,1.924,1.924,0,0,0-1.314-1.618v-1a4.905,4.905,0,0,0,1.79-.555,4.905,4.905,0,0,1-1.79.555v1A1.924,1.924,0,0,1-283.977,229a.967.967,0,0,1-.138.668c.2.112.409.225.614.334h0c-.206-.109-.413-.222-.617-.334.091-.206.141-.15.141-.668a1.918,1.918,0,0,0-1.314-1.615v-1a4.888,4.888,0,0,0,1.79-.556Zm0,5.032v.351a5.33,5.33,0,0,0-.185,3.6,4.892,4.892,0,0,0,.185.5v.041c-.066-.174-.127-.356-.185-.545a5.33,5.33,0,0,1,.185-3.6,5.33,5.33,0,0,0-.185,3.6c.058.189.119.371.185.545v2.794a6.325,6.325,0,0,1-2.16-2.226,6.341,6.341,0,0,1-2.163,2.226v-2.791c.066-.175.125-.358.184-.548a5.345,5.345,0,0,0-.184-3.61v-.348c.352-.187.7-.381,1.057-.576a1.667,1.667,0,0,0,1.106.423,1.625,1.625,0,0,0,1.1-.426q.527.3,1.057.581Zm-4.323,4.5v-.035a4.908,4.908,0,0,0,.186-.513,5.34,5.34,0,0,0-.186-3.61,5.345,5.345,0,0,1,.184,3.61c-.059.19-.118.373-.184.548Zm0-5.361v-4.176a4.889,4.889,0,0,0,1.791.557v1A1.92,1.92,0,0,0-287.347,229a.98.98,0,0,0,.138.67l-.615.33Zm0-13.852v-.013l.181-.05-.181.064.181-.064-.181.05h0l.178-.049-.178.063Zm4.143-.065.18.048-.18-.048.18.063-.18-.063Zm.18,22.074a5.855,5.855,0,0,1-2.16-2.231,5.85,5.85,0,0,1-2.163,2.232,5.85,5.85,0,0,0,2.163-2.232,5.855,5.855,0,0,0,2.16,2.231Zm-4.323-7.3c.352-.187.7-.381,1.057-.576a1.656,1.656,0,0,0,1.1.423,1.636,1.636,0,0,0,1.1-.426q.527.3,1.057.581-.529-.283-1.057-.581a1.636,1.636,0,0,1-1.1.426,1.656,1.656,0,0,1-1.1-.423c-.353.2-.7.389-1.057.576Zm0-5.032a4.887,4.887,0,0,0,1.791.556v1A1.926,1.926,0,0,0-287.347,229a.978.978,0,0,0,.138.67l-.615.33.615-.33a.978.978,0,0,1-.138-.67,1.926,1.926,0,0,1,1.314-1.618v-1A4.887,4.887,0,0,1-287.824,225.826Zm0-1.431a4.939,4.939,0,0,0-.667.344,5,5,0,0,1-.612-.588,5.38,5.38,0,0,1-.512-.7,6.719,6.719,0,0,1,1.791-.817V224.4Zm0-8.258h0a6.526,6.526,0,0,0-2.384,1.233h0a6.519,6.519,0,0,1,2.384-1.233Zm0,0a6.526,6.526,0,0,0-2.384,1.233v.557a4.812,4.812,0,0,1,2.384-1.777v-.013Zm0,9.689a6.191,6.191,0,0,1-2.384-2.33v4.92a6.179,6.179,0,0,1,1.886,1.846l.5-.26v-4.176Zm0,5.031v.348c-.038-.1-.081-.189-.126-.282l.126-.066Zm0,4.471v.035a3.965,3.965,0,0,1-2.254,2.367l-.13.058v1.152a5.778,5.778,0,0,0,2.086-.615c.1-.054.2-.109.3-.165-.1.056-.2.111-.3.165a5.778,5.778,0,0,1-2.086.615v.012a5.851,5.851,0,0,0,2.086-.627c.1-.055.2-.111.3-.171v-2.791a3.965,3.965,0,0,1-2.254,2.367l-.13.058.13-.058a4.761,4.761,0,0,0,2.254-2.4Zm-2.384-1.59v-2.675a5.583,5.583,0,0,0,2.164,2.377,4.547,4.547,0,0,1-.206,1.177,3.742,3.742,0,0,1-.161.44,7.187,7.187,0,0,1-1.8-1.319Zm2.384-2.533c-.038-.1-.081-.189-.126-.282l.126-.066-.126.066c.045.093.088.187.126.282Zm-.5-.943a6.185,6.185,0,0,0-1.888-1.846,6.185,6.185,0,0,1,1.888,1.846l.5-.26-.5.26Zm.5-14.111a4.811,4.811,0,0,0-2.384,1.776,4.811,4.811,0,0,1,2.384-1.776Zm-2.384,7.345a6.2,6.2,0,0,0,2.384,2.329A6.2,6.2,0,0,1-290.208,223.5Zm0-6.127h0a6.093,6.093,0,0,0-.835.826,6.208,6.208,0,0,0-1.338,3.83,7.007,7.007,0,0,0,.9,3.491,6.68,6.68,0,0,0-3.358.3,4.971,4.971,0,0,0-2.818,2.418,6.3,6.3,0,0,0-.374,4.059,4.31,4.31,0,0,1,2.614-4.683,5.249,5.249,0,0,1,3.882.153,7.021,7.021,0,0,1,1.327.655V223.5A5.509,5.509,0,0,1-291,220.76a4.932,4.932,0,0,1,.794-2.832v-.557a6.093,6.093,0,0,0-.835.826,6.208,6.208,0,0,0-1.338,3.83,7.007,7.007,0,0,0,.9,3.491,6.68,6.68,0,0,0-3.358.3,4.971,4.971,0,0,0-2.818,2.418,6.3,6.3,0,0,0-.374,4.059,4.31,4.31,0,0,1,2.614-4.683,5.249,5.249,0,0,1,3.882.153,7.021,7.021,0,0,1,1.327.655,7.021,7.021,0,0,0-1.327-.655,5.748,5.748,0,0,0-3.879-.151c-1.949.588-2.919,2.46-2.617,4.681a6.3,6.3,0,0,1,.374-4.059,4.675,4.675,0,0,1,2.818-2.418,6.784,6.784,0,0,1,3.358-.3,7,7,0,0,1-.9-3.489,6.218,6.218,0,0,1,1.338-3.832,6.1,6.1,0,0,1,.835-.827Zm0,13.694v2.675a7.364,7.364,0,0,1-1.062-1.351,9.462,9.462,0,0,1-1.1-3.843c0-.749,0-.265.01-.4a5.509,5.509,0,0,1,.674.205,6.16,6.16,0,0,1,.95.444,5.318,5.318,0,0,0,.531,2.265Zm0,6.725v1.152a5.882,5.882,0,0,1-2.071-.147,7.63,7.63,0,0,1-3.77-2.48,5.793,5.793,0,0,0,5.841,1.475Zm0,1.152v.012a5.822,5.822,0,0,1-2.071-.159,7.651,7.651,0,0,1-3.773-2.48,5.365,5.365,0,0,0,5.844,1.475,5.793,5.793,0,0,1-5.841-1.475,7.63,7.63,0,0,0,3.77,2.48,5.882,5.882,0,0,0,2.071.147Zm0-21.013A4.932,4.932,0,0,0-291,220.76a5.512,5.512,0,0,0,.794,2.737A5.512,5.512,0,0,1-291,220.76,4.932,4.932,0,0,1-290.208,217.928Z" fill="#b42218" fill-rule="evenodd"/>
      </g>
      <g id="Grupo_91505" data-name="Grupo 91505">
        <path id="Trazado_150296-2" data-name="Trazado 150296" d="M-255.038,167.079l.263,83.315a6.826,6.826,0,0,1-.183,1.384c-4.4,22.228-60.626,21.146-61.329-2.08h0l-.258-82.343Z" fill="#2e3c42" fill-rule="evenodd"/>
        <path id="Trazado_150297-2" data-name="Trazado 150297" d="M-290.155,167.236V267.607c-7.421-.616-14.466-2.708-19.37-6.25V167.324Z" fill="#1d272b" fill-rule="evenodd"/>
        <path id="Trazado_150298-2" data-name="Trazado 150298" d="M-282.354,184.782v82.932c-1.487.082-2.983.107-4.476.072V184.861C-285.317,184.9-283.822,184.872-282.354,184.782Z" fill="#1d272b" fill-rule="evenodd"/>
        <g id="Grupo_91501-2" data-name="Grupo 91501">
          <path id="Trazado_150299-2" data-name="Trazado 150299" d="M-318.2,188.11a12.815,12.815,0,0,1,1.68-4.259v6.666h.021c.3,23.346,56.851,24.586,61.256,2.266a11.01,11.01,0,0,0,.207-2.266l.062-6.272a12.226,12.226,0,0,1,1.64,8.679C-258.329,219.739-323.294,215.211-318.2,188.11Z" fill="#afafaf" fill-rule="evenodd"/>
          <path id="Trazado_150300-2" data-name="Trazado 150300" d="M-318.124,186.7a12.83,12.83,0,0,1,1.681-4.259v6.666h.02c.3,23.346,56.852,24.586,61.257,2.265a11,11,0,0,0,.207-2.265l.062-6.272a12.229,12.229,0,0,1,1.64,8.679C-258.253,218.332-323.218,213.8-318.124,186.7Z" fill="#e8e8e8" fill-rule="evenodd"/>
        </g>
        <g id="Grupo_91502-2" data-name="Grupo 91502">
          <path id="Trazado_150301-2" data-name="Trazado 150301" d="M-318.2,222.6a12.8,12.8,0,0,1,1.68-4.259v6.666h.021c.3,23.346,56.851,24.586,61.256,2.265a11,11,0,0,0,.207-2.265l.062-6.272a12.224,12.224,0,0,1,1.64,8.679C-258.329,254.23-323.294,249.7-318.2,222.6Z" fill="#afafaf" fill-rule="evenodd"/>
          <path id="Trazado_150302-2" data-name="Trazado 150302" d="M-318.124,221.193a12.825,12.825,0,0,1,1.681-4.258V223.6h.02c.3,23.346,56.852,24.587,61.257,2.266a11.01,11.01,0,0,0,.207-2.266l.062-6.272a12.231,12.231,0,0,1,1.64,8.679C-258.253,252.822-323.218,248.294-318.124,221.193Z" fill="#e8e8e8" fill-rule="evenodd"/>
        </g>
        <path id="Trazado_150303-2" data-name="Trazado 150303" d="M-318.4,165.777c2.093-10.59,18.341-18.1,36.284-16.771s30.8,11,28.7,21.588-18.34,18.1-36.284,16.771S-320.493,176.368-318.4,165.777Z" fill="#afafaf" fill-rule="evenodd"/>
        <path id="Trazado_150304-2" data-name="Trazado 150304" d="M-318.3,164.287c2.094-10.59,18.341-18.1,36.284-16.771s30.8,11,28.7,21.587-18.34,18.1-36.284,16.772S-320.394,174.877-318.3,164.287Z" fill="#1d272b" fill-rule="evenodd"/>
        <path id="Trazado_150306-2" data-name="Trazado 150306" d="M-313.62,164.634c1.791-9.065,15.7-15.494,31.057-14.356s26.36,9.414,24.569,18.479-15.7,15.494-31.058,14.355S-315.412,173.7-313.62,164.634Z" fill="#2e3c42" fill-rule="evenodd"/>
        <path id="Trazado_150307-2" data-name="Trazado 150307" d="M-313.062,167.236c1.756-8.883,15.384-15.184,30.434-14.067,13.239.98,23.171,7.372,24.177,14.942-.028.21-.06.42-.1.63-1.756,8.883-15.384,15.183-30.434,14.067-13.239-.98-23.171-7.373-24.177-14.943C-313.135,167.655-313.1,167.446-313.062,167.236Z" fill="#afafaf" fill-rule="evenodd"/>
        <g id="Grupo_91503-2" data-name="Grupo 91503">
          <path id="Trazado_150308-2" data-name="Trazado 150308" d="M-303.719,157.274c.375-1.9,3.29-3.248,6.509-3.009s5.525,1.973,5.15,3.873-3.291,3.248-6.51,3.009S-304.1,159.174-303.719,157.274Z" fill="#afafaf" fill-rule="evenodd"/>
          <path id="Trazado_150309-2" data-name="Trazado 150309" d="M-292.027,157.578h0v0Zm.006.2.041,1.64a2.017,2.017,0,0,1,.009.381v0h0a1.978,1.978,0,0,1-.035.262c-.375,1.9-3.29,3.247-6.509,3.008-2.953-.218-5.137-1.7-5.189-3.4h0l-.049-1.835c.124,1.671,2.283,3.1,5.183,3.315,3.219.239,6.134-1.109,6.51-3.009A2.1,2.1,0,0,0-292.021,157.779Z" fill="#1d272b" fill-rule="evenodd"/>
          <path id="Trazado_150310-2" data-name="Trazado 150310" d="M-303.089,157.321c.334-1.695,2.934-2.9,5.806-2.684s4.927,1.76,4.593,3.455-2.935,2.9-5.806,2.683S-303.424,159.016-303.089,157.321Z" fill="#1d272b" fill-rule="evenodd"/>
          <path id="Trazado_150311-2" data-name="Trazado 150311" d="M-303.089,156.923c.334-1.7,2.934-2.9,5.806-2.684s4.927,1.759,4.593,3.455-2.935,2.9-5.806,2.683S-303.424,158.617-303.089,156.923Z" fill="#afafaf" fill-rule="evenodd"/>
        </g>
        <g id="Grupo_91504-2" data-name="Grupo 91504">
          <path id="Trazado_150312-2" data-name="Trazado 150312" d="M-318.2,247.129a12.807,12.807,0,0,1,1.68-4.259v6.666h.021c.3,23.346,56.851,24.586,61.256,2.266a11.016,11.016,0,0,0,.207-2.266l.062-6.272a12.225,12.225,0,0,1,1.64,8.679C-258.329,278.758-323.294,274.23-318.2,247.129Z" fill="#94adca" fill-rule="evenodd"/>
          <path id="Trazado_150313-2" data-name="Trazado 150313" d="M-318.124,245.721a12.825,12.825,0,0,1,1.681-4.258v6.665h.02c.3,23.347,56.852,24.587,61.257,2.266a11,11,0,0,0,.207-2.266l.062-6.271a12.229,12.229,0,0,1,1.64,8.679C-258.253,277.351-323.218,272.822-318.124,245.721Z" fill="#e8e8e8" fill-rule="evenodd"/>
        </g>
        <path id="Trazado_150314-2" data-name="Trazado 150314" d="M-281.114,238.954v-.014a5.883,5.883,0,0,0,2.067-.146,7.628,7.628,0,0,0,3.772-2.478,5.79,5.79,0,0,1-5.839,1.476,5.79,5.79,0,0,0,5.839-1.476,7.628,7.628,0,0,1-3.772,2.478,5.883,5.883,0,0,1-2.067.146v-1.148a5.351,5.351,0,0,0,5.839-1.476,7.628,7.628,0,0,1-3.772,2.478,5.823,5.823,0,0,1-2.067.16Zm0-5.214v-2.673a5.333,5.333,0,0,0,.529-2.268,5.9,5.9,0,0,1,.947-.444,5.718,5.718,0,0,1,.677-.205c.007.13.013-.354.013.4a9.483,9.483,0,0,1-1.109,3.843,7.311,7.311,0,0,1-1.057,1.352Zm0-5.326a6.834,6.834,0,0,1,1.32-.652,5.27,5.27,0,0,1,3.884-.151,4.311,4.311,0,0,1,2.617,4.681,6.267,6.267,0,0,0-.377-4.056,5,5,0,0,0-2.817-2.424,6.7,6.7,0,0,0-3.356-.3,7,7,0,0,0,.9-3.489,6.227,6.227,0,0,0-1.341-3.83,6.155,6.155,0,0,0-.829-.825h0a6.147,6.147,0,0,1,.829.824,6.214,6.214,0,0,1,1.341,3.827,7.008,7.008,0,0,1-.9,3.492,6.713,6.713,0,0,1,3.358.3,4.982,4.982,0,0,1,2.815,2.424,6.3,6.3,0,0,1,.377,4.056,4.311,4.311,0,0,0-2.614-4.681,5.253,5.253,0,0,0-3.885.151,6.888,6.888,0,0,0-1.322.654,6.888,6.888,0,0,1,1.322-.654,5.253,5.253,0,0,1,3.885-.151,4.311,4.311,0,0,1,2.614,4.681,6.3,6.3,0,0,0-.377-4.056,4.982,4.982,0,0,0-2.815-2.424,6.713,6.713,0,0,0-3.358-.3,7.008,7.008,0,0,0,.9-3.492,6.214,6.214,0,0,0-1.341-3.827,6.147,6.147,0,0,0-.829-.824v.555a4.93,4.93,0,0,1,.789,2.832,5.509,5.509,0,0,1-.789,2.735v4.919Zm0-4.919a5.509,5.509,0,0,0,.789-2.735,4.93,4.93,0,0,0-.789-2.832,4.93,4.93,0,0,1,.789,2.832A5.509,5.509,0,0,1-281.114,223.495Zm-2.387-.861a6.691,6.691,0,0,1,1.789.817,5.167,5.167,0,0,1-.512.7,4.895,4.895,0,0,1-.608.588,5.041,5.041,0,0,0-.669-.347v-1.758Zm2.387-5.262h0a6.5,6.5,0,0,0-2.387-1.239v.015a4.8,4.8,0,0,1,2.387,1.779v-.555a6.5,6.5,0,0,0-2.387-1.239,6.5,6.5,0,0,1,2.387,1.238Zm0,6.123a6.186,6.186,0,0,1-2.387,2.333v4.177l.5.261a6.186,6.186,0,0,1,1.891-1.85,6.186,6.186,0,0,0-1.891,1.85l-.5-.261h0c.165.089.33.175.5.261a6.181,6.181,0,0,1,1.891-1.852v-4.919Zm0,7.572v2.673a7.108,7.108,0,0,1-1.8,1.318,4.4,4.4,0,0,1-.164-.437,4.69,4.69,0,0,1-.2-1.178,5.6,5.6,0,0,0,2.166-2.376Zm0,6.725v1.148a5.786,5.786,0,0,1-2.09-.614c-.1-.054-.2-.109-.3-.166.1.057.194.112.3.166a5.786,5.786,0,0,0,2.09.614v.014a5.846,5.846,0,0,1-2.09-.628c-.1-.054-.2-.112-.3-.171v-2.794a3.965,3.965,0,0,0,2.255,2.372l.132.059-.132-.059a3.965,3.965,0,0,1-2.255-2.372v-.041a4.752,4.752,0,0,0,2.255,2.413l.132.059Zm-2.387-6.581v-.351l.125.067c-.046.094-.086.189-.125.284Zm0-5.384a6.183,6.183,0,0,0,2.387-2.332,6.183,6.183,0,0,1-2.387,2.332Zm2.387-7.9a4.8,4.8,0,0,0-2.387-1.779,4.8,4.8,0,0,1,2.387,1.779Zm-2.262,13c-.046.094-.086.189-.125.284.039-.1.079-.19.125-.284l-.125-.067Zm-2.285-8.594a7.731,7.731,0,0,1,2.16.3v1.758a5.493,5.493,0,0,0-2.16-.431,5.492,5.492,0,0,0-2.163.434v-1.758a7.686,7.686,0,0,1,2.163-.3Zm2.16-6.2v.015l-.18-.063.18.048Zm0,9.694v4.177c-.2-.109-.41-.222-.614-.334a.967.967,0,0,0,.138-.668,1.924,1.924,0,0,0-1.314-1.618v-1a4.905,4.905,0,0,0,1.79-.555,4.905,4.905,0,0,1-1.79.555v1A1.924,1.924,0,0,1-283.977,229a.967.967,0,0,1-.138.668c.2.112.409.225.614.334h0c-.206-.109-.413-.222-.617-.334.091-.206.141-.15.141-.668a1.918,1.918,0,0,0-1.314-1.615v-1a4.888,4.888,0,0,0,1.79-.556Zm0,5.032v.351a5.33,5.33,0,0,0-.185,3.6,4.892,4.892,0,0,0,.185.5v.041c-.066-.174-.127-.356-.185-.545a5.33,5.33,0,0,1,.185-3.6,5.33,5.33,0,0,0-.185,3.6c.058.189.119.371.185.545v2.794a6.325,6.325,0,0,1-2.16-2.226,6.341,6.341,0,0,1-2.163,2.226v-2.791c.066-.175.125-.358.184-.548a5.345,5.345,0,0,0-.184-3.61v-.348c.352-.187.7-.381,1.057-.576a1.667,1.667,0,0,0,1.106.423,1.625,1.625,0,0,0,1.1-.426q.527.3,1.057.581Zm-4.323,4.5v-.035a4.908,4.908,0,0,0,.186-.513,5.34,5.34,0,0,0-.186-3.61,5.345,5.345,0,0,1,.184,3.61c-.059.19-.118.373-.184.548Zm0-5.361v-4.176a4.889,4.889,0,0,0,1.791.557v1A1.92,1.92,0,0,0-287.347,229a.98.98,0,0,0,.138.67l-.615.33Zm0-13.852v-.013l.181-.05-.181.064.181-.064-.181.05h0l.178-.049-.178.063Zm4.143-.065.18.048-.18-.048.18.063-.18-.063Zm.18,22.074a5.855,5.855,0,0,1-2.16-2.231,5.85,5.85,0,0,1-2.163,2.232,5.85,5.85,0,0,0,2.163-2.232,5.855,5.855,0,0,0,2.16,2.231Zm-4.323-7.3c.352-.187.7-.381,1.057-.576a1.656,1.656,0,0,0,1.1.423,1.636,1.636,0,0,0,1.1-.426q.527.3,1.057.581-.529-.283-1.057-.581a1.636,1.636,0,0,1-1.1.426,1.656,1.656,0,0,1-1.1-.423c-.353.2-.7.389-1.057.576Zm0-5.032a4.887,4.887,0,0,0,1.791.556v1A1.926,1.926,0,0,0-287.347,229a.978.978,0,0,0,.138.67l-.615.33.615-.33a.978.978,0,0,1-.138-.67,1.926,1.926,0,0,1,1.314-1.618v-1A4.887,4.887,0,0,1-287.824,225.826Zm0-1.431a4.939,4.939,0,0,0-.667.344,5,5,0,0,1-.612-.588,5.38,5.38,0,0,1-.512-.7,6.719,6.719,0,0,1,1.791-.817V224.4Zm0-8.258h0a6.526,6.526,0,0,0-2.384,1.233h0a6.519,6.519,0,0,1,2.384-1.233Zm0,0a6.526,6.526,0,0,0-2.384,1.233v.557a4.812,4.812,0,0,1,2.384-1.777v-.013Zm0,9.689a6.191,6.191,0,0,1-2.384-2.33v4.92a6.179,6.179,0,0,1,1.886,1.846l.5-.26v-4.176Zm0,5.031v.348c-.038-.1-.081-.189-.126-.282l.126-.066Zm0,4.471v.035a3.965,3.965,0,0,1-2.254,2.367l-.13.058v1.152a5.778,5.778,0,0,0,2.086-.615c.1-.054.2-.109.3-.165-.1.056-.2.111-.3.165a5.778,5.778,0,0,1-2.086.615v.012a5.851,5.851,0,0,0,2.086-.627c.1-.055.2-.111.3-.171v-2.791a3.965,3.965,0,0,1-2.254,2.367l-.13.058.13-.058a4.761,4.761,0,0,0,2.254-2.4Zm-2.384-1.59v-2.675a5.583,5.583,0,0,0,2.164,2.377,4.547,4.547,0,0,1-.206,1.177,3.742,3.742,0,0,1-.161.44,7.187,7.187,0,0,1-1.8-1.319Zm2.384-2.533c-.038-.1-.081-.189-.126-.282l.126-.066-.126.066c.045.093.088.187.126.282Zm-.5-.943a6.185,6.185,0,0,0-1.888-1.846,6.185,6.185,0,0,1,1.888,1.846l.5-.26-.5.26Zm.5-14.111a4.811,4.811,0,0,0-2.384,1.776,4.811,4.811,0,0,1,2.384-1.776Zm-2.384,7.345a6.2,6.2,0,0,0,2.384,2.329A6.2,6.2,0,0,1-290.208,223.5Zm0-6.127h0a6.093,6.093,0,0,0-.835.826,6.208,6.208,0,0,0-1.338,3.83,7.007,7.007,0,0,0,.9,3.491,6.68,6.68,0,0,0-3.358.3,4.971,4.971,0,0,0-2.818,2.418,6.3,6.3,0,0,0-.374,4.059,4.31,4.31,0,0,1,2.614-4.683,5.249,5.249,0,0,1,3.882.153,7.021,7.021,0,0,1,1.327.655V223.5A5.509,5.509,0,0,1-291,220.76a4.932,4.932,0,0,1,.794-2.832v-.557a6.093,6.093,0,0,0-.835.826,6.208,6.208,0,0,0-1.338,3.83,7.007,7.007,0,0,0,.9,3.491,6.68,6.68,0,0,0-3.358.3,4.971,4.971,0,0,0-2.818,2.418,6.3,6.3,0,0,0-.374,4.059,4.31,4.31,0,0,1,2.614-4.683,5.249,5.249,0,0,1,3.882.153,7.021,7.021,0,0,1,1.327.655,7.021,7.021,0,0,0-1.327-.655,5.748,5.748,0,0,0-3.879-.151c-1.949.588-2.919,2.46-2.617,4.681a6.3,6.3,0,0,1,.374-4.059,4.675,4.675,0,0,1,2.818-2.418,6.784,6.784,0,0,1,3.358-.3,7,7,0,0,1-.9-3.489,6.218,6.218,0,0,1,1.338-3.832,6.1,6.1,0,0,1,.835-.827Zm0,13.694v2.675a7.364,7.364,0,0,1-1.062-1.351,9.462,9.462,0,0,1-1.1-3.843c0-.749,0-.265.01-.4a5.509,5.509,0,0,1,.674.205,6.16,6.16,0,0,1,.95.444,5.318,5.318,0,0,0,.531,2.265Zm0,6.725v1.152a5.882,5.882,0,0,1-2.071-.147,7.63,7.63,0,0,1-3.77-2.48,5.793,5.793,0,0,0,5.841,1.475Zm0,1.152v.012a5.822,5.822,0,0,1-2.071-.159,7.651,7.651,0,0,1-3.773-2.48,5.365,5.365,0,0,0,5.844,1.475,5.793,5.793,0,0,1-5.841-1.475,7.63,7.63,0,0,0,3.77,2.48,5.882,5.882,0,0,0,2.071.147Zm0-21.013A4.932,4.932,0,0,0-291,220.76a5.512,5.512,0,0,0,.794,2.737A5.512,5.512,0,0,1-291,220.76,4.932,4.932,0,0,1-290.208,217.928Z" fill="#b42218" fill-rule="evenodd"/>
      </g>
      <g id="Grupo_91528" data-name="Grupo 91528" transform="translate(-48.598 27.391)">
        <path id="Trazado_150296-3" data-name="Trazado 150296" d="M-255.038,167.079l.263,83.315a6.826,6.826,0,0,1-.183,1.384c-4.4,22.228-60.626,21.146-61.329-2.08h0l-.258-82.343Z" fill="#2e3c42" fill-rule="evenodd"/>
        <path id="Trazado_150297-3" data-name="Trazado 150297" d="M-290.155,167.236V267.607c-7.421-.616-14.466-2.708-19.37-6.25V167.324Z" fill="#1d272b" fill-rule="evenodd"/>
        <path id="Trazado_150298-3" data-name="Trazado 150298" d="M-282.354,184.782v82.932c-1.487.082-2.983.107-4.476.072V184.861C-285.317,184.9-283.822,184.872-282.354,184.782Z" fill="#1d272b" fill-rule="evenodd"/>
        <g id="Grupo_91501-3" data-name="Grupo 91501">
          <path id="Trazado_150299-3" data-name="Trazado 150299" d="M-318.2,188.11a12.815,12.815,0,0,1,1.68-4.259v6.666h.021c.3,23.346,56.851,24.586,61.256,2.266a11.01,11.01,0,0,0,.207-2.266l.062-6.272a12.226,12.226,0,0,1,1.64,8.679C-258.329,219.739-323.294,215.211-318.2,188.11Z" fill="#afafaf" fill-rule="evenodd"/>
          <path id="Trazado_150300-3" data-name="Trazado 150300" d="M-318.124,186.7a12.83,12.83,0,0,1,1.681-4.259v6.666h.02c.3,23.346,56.852,24.586,61.257,2.265a11,11,0,0,0,.207-2.265l.062-6.272a12.229,12.229,0,0,1,1.64,8.679C-258.253,218.332-323.218,213.8-318.124,186.7Z" fill="#e8e8e8" fill-rule="evenodd"/>
        </g>
        <g id="Grupo_91502-3" data-name="Grupo 91502">
          <path id="Trazado_150301-3" data-name="Trazado 150301" d="M-318.2,222.6a12.8,12.8,0,0,1,1.68-4.259v6.666h.021c.3,23.346,56.851,24.586,61.256,2.265a11,11,0,0,0,.207-2.265l.062-6.272a12.224,12.224,0,0,1,1.64,8.679C-258.329,254.23-323.294,249.7-318.2,222.6Z" fill="#afafaf" fill-rule="evenodd"/>
          <path id="Trazado_150302-3" data-name="Trazado 150302" d="M-318.124,221.193a12.825,12.825,0,0,1,1.681-4.258V223.6h.02c.3,23.346,56.852,24.587,61.257,2.266a11.01,11.01,0,0,0,.207-2.266l.062-6.272a12.231,12.231,0,0,1,1.64,8.679C-258.253,252.822-323.218,248.294-318.124,221.193Z" fill="#e8e8e8" fill-rule="evenodd"/>
        </g>
        <path id="Trazado_150303-3" data-name="Trazado 150303" d="M-318.4,165.777c2.093-10.59,18.341-18.1,36.284-16.771s30.8,11,28.7,21.588-18.34,18.1-36.284,16.771S-320.493,176.368-318.4,165.777Z" fill="#afafaf" fill-rule="evenodd"/>
        <path id="Trazado_150304-3" data-name="Trazado 150304" d="M-318.3,164.287c2.094-10.59,18.341-18.1,36.284-16.771s30.8,11,28.7,21.587-18.34,18.1-36.284,16.772S-320.394,174.877-318.3,164.287Z" fill="#1d272b" fill-rule="evenodd"/>
        <path id="Trazado_150306-3" data-name="Trazado 150306" d="M-313.62,164.634c1.791-9.065,15.7-15.494,31.057-14.356s26.36,9.414,24.569,18.479-15.7,15.494-31.058,14.355S-315.412,173.7-313.62,164.634Z" fill="#2e3c42" fill-rule="evenodd"/>
        <path id="Trazado_150307-3" data-name="Trazado 150307" d="M-313.062,167.236c1.756-8.883,15.384-15.184,30.434-14.067,13.239.98,23.171,7.372,24.177,14.942-.028.21-.06.42-.1.63-1.756,8.883-15.384,15.183-30.434,14.067-13.239-.98-23.171-7.373-24.177-14.943C-313.135,167.655-313.1,167.446-313.062,167.236Z" fill="#afafaf" fill-rule="evenodd"/>
        <g id="Grupo_91503-3" data-name="Grupo 91503">
          <path id="Trazado_150308-3" data-name="Trazado 150308" d="M-303.719,157.274c.375-1.9,3.29-3.248,6.509-3.009s5.525,1.973,5.15,3.873-3.291,3.248-6.51,3.009S-304.1,159.174-303.719,157.274Z" fill="#afafaf" fill-rule="evenodd"/>
          <path id="Trazado_150309-3" data-name="Trazado 150309" d="M-292.027,157.578h0v0Zm.006.2.041,1.64a2.017,2.017,0,0,1,.009.381v0h0a1.978,1.978,0,0,1-.035.262c-.375,1.9-3.29,3.247-6.509,3.008-2.953-.218-5.137-1.7-5.189-3.4h0l-.049-1.835c.124,1.671,2.283,3.1,5.183,3.315,3.219.239,6.134-1.109,6.51-3.009A2.1,2.1,0,0,0-292.021,157.779Z" fill="#1d272b" fill-rule="evenodd"/>
          <path id="Trazado_150310-3" data-name="Trazado 150310" d="M-303.089,157.321c.334-1.695,2.934-2.9,5.806-2.684s4.927,1.76,4.593,3.455-2.935,2.9-5.806,2.683S-303.424,159.016-303.089,157.321Z" fill="#1d272b" fill-rule="evenodd"/>
          <path id="Trazado_150311-3" data-name="Trazado 150311" d="M-303.089,156.923c.334-1.7,2.934-2.9,5.806-2.684s4.927,1.759,4.593,3.455-2.935,2.9-5.806,2.683S-303.424,158.617-303.089,156.923Z" fill="#afafaf" fill-rule="evenodd"/>
        </g>
        <g id="Grupo_91504-3" data-name="Grupo 91504">
          <path id="Trazado_150312-3" data-name="Trazado 150312" d="M-318.2,247.129a12.807,12.807,0,0,1,1.68-4.259v6.666h.021c.3,23.346,56.851,24.586,61.256,2.266a11.016,11.016,0,0,0,.207-2.266l.062-6.272a12.225,12.225,0,0,1,1.64,8.679C-258.329,278.758-323.294,274.23-318.2,247.129Z" fill="#94adca" fill-rule="evenodd"/>
          <path id="Trazado_150313-3" data-name="Trazado 150313" d="M-318.124,245.721a12.825,12.825,0,0,1,1.681-4.258v6.665h.02c.3,23.347,56.852,24.587,61.257,2.266a11,11,0,0,0,.207-2.266l.062-6.271a12.229,12.229,0,0,1,1.64,8.679C-258.253,277.351-323.218,272.822-318.124,245.721Z" fill="#e8e8e8" fill-rule="evenodd"/>
        </g>
        <path id="Trazado_150314-3" data-name="Trazado 150314" d="M-281.114,238.954v-.014a5.883,5.883,0,0,0,2.067-.146,7.628,7.628,0,0,0,3.772-2.478,5.79,5.79,0,0,1-5.839,1.476,5.79,5.79,0,0,0,5.839-1.476,7.628,7.628,0,0,1-3.772,2.478,5.883,5.883,0,0,1-2.067.146v-1.148a5.351,5.351,0,0,0,5.839-1.476,7.628,7.628,0,0,1-3.772,2.478,5.823,5.823,0,0,1-2.067.16Zm0-5.214v-2.673a5.333,5.333,0,0,0,.529-2.268,5.9,5.9,0,0,1,.947-.444,5.718,5.718,0,0,1,.677-.205c.007.13.013-.354.013.4a9.483,9.483,0,0,1-1.109,3.843,7.311,7.311,0,0,1-1.057,1.352Zm0-5.326a6.834,6.834,0,0,1,1.32-.652,5.27,5.27,0,0,1,3.884-.151,4.311,4.311,0,0,1,2.617,4.681,6.267,6.267,0,0,0-.377-4.056,5,5,0,0,0-2.817-2.424,6.7,6.7,0,0,0-3.356-.3,7,7,0,0,0,.9-3.489,6.227,6.227,0,0,0-1.341-3.83,6.155,6.155,0,0,0-.829-.825h0a6.147,6.147,0,0,1,.829.824,6.214,6.214,0,0,1,1.341,3.827,7.008,7.008,0,0,1-.9,3.492,6.713,6.713,0,0,1,3.358.3,4.982,4.982,0,0,1,2.815,2.424,6.3,6.3,0,0,1,.377,4.056,4.311,4.311,0,0,0-2.614-4.681,5.253,5.253,0,0,0-3.885.151,6.888,6.888,0,0,0-1.322.654,6.888,6.888,0,0,1,1.322-.654,5.253,5.253,0,0,1,3.885-.151,4.311,4.311,0,0,1,2.614,4.681,6.3,6.3,0,0,0-.377-4.056,4.982,4.982,0,0,0-2.815-2.424,6.713,6.713,0,0,0-3.358-.3,7.008,7.008,0,0,0,.9-3.492,6.214,6.214,0,0,0-1.341-3.827,6.147,6.147,0,0,0-.829-.824v.555a4.93,4.93,0,0,1,.789,2.832,5.509,5.509,0,0,1-.789,2.735v4.919Zm0-4.919a5.509,5.509,0,0,0,.789-2.735,4.93,4.93,0,0,0-.789-2.832,4.93,4.93,0,0,1,.789,2.832A5.509,5.509,0,0,1-281.114,223.495Zm-2.387-.861a6.691,6.691,0,0,1,1.789.817,5.167,5.167,0,0,1-.512.7,4.895,4.895,0,0,1-.608.588,5.041,5.041,0,0,0-.669-.347v-1.758Zm2.387-5.262h0a6.5,6.5,0,0,0-2.387-1.239v.015a4.8,4.8,0,0,1,2.387,1.779v-.555a6.5,6.5,0,0,0-2.387-1.239,6.5,6.5,0,0,1,2.387,1.238Zm0,6.123a6.186,6.186,0,0,1-2.387,2.333v4.177l.5.261a6.186,6.186,0,0,1,1.891-1.85,6.186,6.186,0,0,0-1.891,1.85l-.5-.261h0c.165.089.33.175.5.261a6.181,6.181,0,0,1,1.891-1.852v-4.919Zm0,7.572v2.673a7.108,7.108,0,0,1-1.8,1.318,4.4,4.4,0,0,1-.164-.437,4.69,4.69,0,0,1-.2-1.178,5.6,5.6,0,0,0,2.166-2.376Zm0,6.725v1.148a5.786,5.786,0,0,1-2.09-.614c-.1-.054-.2-.109-.3-.166.1.057.194.112.3.166a5.786,5.786,0,0,0,2.09.614v.014a5.846,5.846,0,0,1-2.09-.628c-.1-.054-.2-.112-.3-.171v-2.794a3.965,3.965,0,0,0,2.255,2.372l.132.059-.132-.059a3.965,3.965,0,0,1-2.255-2.372v-.041a4.752,4.752,0,0,0,2.255,2.413l.132.059Zm-2.387-6.581v-.351l.125.067c-.046.094-.086.189-.125.284Zm0-5.384a6.183,6.183,0,0,0,2.387-2.332,6.183,6.183,0,0,1-2.387,2.332Zm2.387-7.9a4.8,4.8,0,0,0-2.387-1.779,4.8,4.8,0,0,1,2.387,1.779Zm-2.262,13c-.046.094-.086.189-.125.284.039-.1.079-.19.125-.284l-.125-.067Zm-2.285-8.594a7.731,7.731,0,0,1,2.16.3v1.758a5.493,5.493,0,0,0-2.16-.431,5.492,5.492,0,0,0-2.163.434v-1.758a7.686,7.686,0,0,1,2.163-.3Zm2.16-6.2v.015l-.18-.063.18.048Zm0,9.694v4.177c-.2-.109-.41-.222-.614-.334a.967.967,0,0,0,.138-.668,1.924,1.924,0,0,0-1.314-1.618v-1a4.905,4.905,0,0,0,1.79-.555,4.905,4.905,0,0,1-1.79.555v1A1.924,1.924,0,0,1-283.977,229a.967.967,0,0,1-.138.668c.2.112.409.225.614.334h0c-.206-.109-.413-.222-.617-.334.091-.206.141-.15.141-.668a1.918,1.918,0,0,0-1.314-1.615v-1a4.888,4.888,0,0,0,1.79-.556Zm0,5.032v.351a5.33,5.33,0,0,0-.185,3.6,4.892,4.892,0,0,0,.185.5v.041c-.066-.174-.127-.356-.185-.545a5.33,5.33,0,0,1,.185-3.6,5.33,5.33,0,0,0-.185,3.6c.058.189.119.371.185.545v2.794a6.325,6.325,0,0,1-2.16-2.226,6.341,6.341,0,0,1-2.163,2.226v-2.791c.066-.175.125-.358.184-.548a5.345,5.345,0,0,0-.184-3.61v-.348c.352-.187.7-.381,1.057-.576a1.667,1.667,0,0,0,1.106.423,1.625,1.625,0,0,0,1.1-.426q.527.3,1.057.581Zm-4.323,4.5v-.035a4.908,4.908,0,0,0,.186-.513,5.34,5.34,0,0,0-.186-3.61,5.345,5.345,0,0,1,.184,3.61c-.059.19-.118.373-.184.548Zm0-5.361v-4.176a4.889,4.889,0,0,0,1.791.557v1A1.92,1.92,0,0,0-287.347,229a.98.98,0,0,0,.138.67l-.615.33Zm0-13.852v-.013l.181-.05-.181.064.181-.064-.181.05h0l.178-.049-.178.063Zm4.143-.065.18.048-.18-.048.18.063-.18-.063Zm.18,22.074a5.855,5.855,0,0,1-2.16-2.231,5.85,5.85,0,0,1-2.163,2.232,5.85,5.85,0,0,0,2.163-2.232,5.855,5.855,0,0,0,2.16,2.231Zm-4.323-7.3c.352-.187.7-.381,1.057-.576a1.656,1.656,0,0,0,1.1.423,1.636,1.636,0,0,0,1.1-.426q.527.3,1.057.581-.529-.283-1.057-.581a1.636,1.636,0,0,1-1.1.426,1.656,1.656,0,0,1-1.1-.423c-.353.2-.7.389-1.057.576Zm0-5.032a4.887,4.887,0,0,0,1.791.556v1A1.926,1.926,0,0,0-287.347,229a.978.978,0,0,0,.138.67l-.615.33.615-.33a.978.978,0,0,1-.138-.67,1.926,1.926,0,0,1,1.314-1.618v-1A4.887,4.887,0,0,1-287.824,225.826Zm0-1.431a4.939,4.939,0,0,0-.667.344,5,5,0,0,1-.612-.588,5.38,5.38,0,0,1-.512-.7,6.719,6.719,0,0,1,1.791-.817V224.4Zm0-8.258h0a6.526,6.526,0,0,0-2.384,1.233h0a6.519,6.519,0,0,1,2.384-1.233Zm0,0a6.526,6.526,0,0,0-2.384,1.233v.557a4.812,4.812,0,0,1,2.384-1.777v-.013Zm0,9.689a6.191,6.191,0,0,1-2.384-2.33v4.92a6.179,6.179,0,0,1,1.886,1.846l.5-.26v-4.176Zm0,5.031v.348c-.038-.1-.081-.189-.126-.282l.126-.066Zm0,4.471v.035a3.965,3.965,0,0,1-2.254,2.367l-.13.058v1.152a5.778,5.778,0,0,0,2.086-.615c.1-.054.2-.109.3-.165-.1.056-.2.111-.3.165a5.778,5.778,0,0,1-2.086.615v.012a5.851,5.851,0,0,0,2.086-.627c.1-.055.2-.111.3-.171v-2.791a3.965,3.965,0,0,1-2.254,2.367l-.13.058.13-.058a4.761,4.761,0,0,0,2.254-2.4Zm-2.384-1.59v-2.675a5.583,5.583,0,0,0,2.164,2.377,4.547,4.547,0,0,1-.206,1.177,3.742,3.742,0,0,1-.161.44,7.187,7.187,0,0,1-1.8-1.319Zm2.384-2.533c-.038-.1-.081-.189-.126-.282l.126-.066-.126.066c.045.093.088.187.126.282Zm-.5-.943a6.185,6.185,0,0,0-1.888-1.846,6.185,6.185,0,0,1,1.888,1.846l.5-.26-.5.26Zm.5-14.111a4.811,4.811,0,0,0-2.384,1.776,4.811,4.811,0,0,1,2.384-1.776Zm-2.384,7.345a6.2,6.2,0,0,0,2.384,2.329A6.2,6.2,0,0,1-290.208,223.5Zm0-6.127h0a6.093,6.093,0,0,0-.835.826,6.208,6.208,0,0,0-1.338,3.83,7.007,7.007,0,0,0,.9,3.491,6.68,6.68,0,0,0-3.358.3,4.971,4.971,0,0,0-2.818,2.418,6.3,6.3,0,0,0-.374,4.059,4.31,4.31,0,0,1,2.614-4.683,5.249,5.249,0,0,1,3.882.153,7.021,7.021,0,0,1,1.327.655V223.5A5.509,5.509,0,0,1-291,220.76a4.932,4.932,0,0,1,.794-2.832v-.557a6.093,6.093,0,0,0-.835.826,6.208,6.208,0,0,0-1.338,3.83,7.007,7.007,0,0,0,.9,3.491,6.68,6.68,0,0,0-3.358.3,4.971,4.971,0,0,0-2.818,2.418,6.3,6.3,0,0,0-.374,4.059,4.31,4.31,0,0,1,2.614-4.683,5.249,5.249,0,0,1,3.882.153,7.021,7.021,0,0,1,1.327.655,7.021,7.021,0,0,0-1.327-.655,5.748,5.748,0,0,0-3.879-.151c-1.949.588-2.919,2.46-2.617,4.681a6.3,6.3,0,0,1,.374-4.059,4.675,4.675,0,0,1,2.818-2.418,6.784,6.784,0,0,1,3.358-.3,7,7,0,0,1-.9-3.489,6.218,6.218,0,0,1,1.338-3.832,6.1,6.1,0,0,1,.835-.827Zm0,13.694v2.675a7.364,7.364,0,0,1-1.062-1.351,9.462,9.462,0,0,1-1.1-3.843c0-.749,0-.265.01-.4a5.509,5.509,0,0,1,.674.205,6.16,6.16,0,0,1,.95.444,5.318,5.318,0,0,0,.531,2.265Zm0,6.725v1.152a5.882,5.882,0,0,1-2.071-.147,7.63,7.63,0,0,1-3.77-2.48,5.793,5.793,0,0,0,5.841,1.475Zm0,1.152v.012a5.822,5.822,0,0,1-2.071-.159,7.651,7.651,0,0,1-3.773-2.48,5.365,5.365,0,0,0,5.844,1.475,5.793,5.793,0,0,1-5.841-1.475,7.63,7.63,0,0,0,3.77,2.48,5.882,5.882,0,0,0,2.071.147Zm0-21.013A4.932,4.932,0,0,0-291,220.76a5.512,5.512,0,0,0,.794,2.737A5.512,5.512,0,0,1-291,220.76,4.932,4.932,0,0,1-290.208,217.928Z" fill="#b42218" fill-rule="evenodd"/>
      </g>
    </g>
    <g id="Grupo_91519" data-name="Grupo 91519" transform="translate(0 -10)">
      <g id="Grupo_91518" data-name="Grupo 91518">
        <path id="Trazado_150333" data-name="Trazado 150333" d="M-200.907,392.877c1.086,3.959,2.835,6.957,1.919,12.192-3.25,3.289-8.242,6.758-12.692,9.554v.029c-8.046,5.311-18.151,8.665-21.279,2.382-.529-1.675.81-4.117,2.053-5.376,3.759-3.81,10.034-5.264,11.1-11.094a20.1,20.1,0,0,0,.167-5.071Z" fill="#4d4948" fill-rule="evenodd"/>
        <path id="Trazado_150334" data-name="Trazado 150334" d="M-198.734,401.939c-2,4.769-4.7,3.916-6.867,5.69-6.64,5.43-7.962,10.243-17.881,12.149-4.007.77-8.878-.671-9.62-3.113l.388,2.608c.852,2.054,5.725,3.8,9.622,2.933,10.793-2.414,24.67-14.016,25.634-16.149C-196.583,404.117-198.309,403.312-198.734,401.939Z" fill="#3c3c3b" fill-rule="evenodd"/>
        <path id="Trazado_150335" data-name="Trazado 150335" d="M-248.426,301.58s-.337.245-.936.7a19.874,19.874,0,0,0-1.44-2.18l-.353-.218s-30.575,25.912-30.359,49.105c0,.091,0,.182,0,.273h0l.015.7h0l.015.686h0l.018.675h0l.018.663h0l.021.651h0l.022.641h0l.023.63h0l.024.62.028.608.028.6.031.589.032.579.034.57.036.561.039.551.039.544.043.533.045.526.046.518.049.511.051.5.054.5.056.488.058.482.061.475.064.469.065.462.069.457.071.451.073.446h0l.076.44h0l.078.436h0l.082.431h0l.085.426h0l.088.421h0l.091.42h0l.094.414h0l.1.411h0l.1.408h0l.1.4h0l.107.4h0l.11.4h0l.114.4h0l.116.4h0l.12.393h0l.123.392h0l.126.391h0l.13.39h0l.135.388h0l.137.388h0l.142.387.144.388.15.387.153.388.157.389.16.389.166.39.169.392.173.393.176.395.182.4.185.4.19.4.193.4c1.474,8.464,12.089,9.436,18.393,5.357-.1.015-.186.023-.279.036a6.566,6.566,0,0,0,3.187-4.5c-2.317-22.286,5.289-41.65,18.292-49.235-2.59,15.064,12.006,55.866,16.332,61.878.409,7.327,18.776,11.051,18.348-3.7,2.018-7.477-6.13-15.656-9.222-33.807-1.117-6.563,2.045-25.6,2.084-31.4.13-19.272-1.7-27.521-8.277-34.184-5.021,6.088-20.871,15.8-28.274,12.5Z" fill="#f9a825" fill-rule="evenodd"/>
        <path id="Trazado_150336" data-name="Trazado 150336" d="M-236.253,331.266l.021-.013-.021-.024v.037Zm0,.175v-.05l.021-.138A.463.463,0,0,1-236.253,331.441Zm-5.567-9.484c0,12.466-11.531-12.751-11.531,5.468,0,5.066-4.32,2.6-6.879,5.164-5.853,5.862-17.711,22.843-17.215,32.065.253,4.7.47,8.961.657,12.858l.037.084.176.395.182.4.185.4.19.4.193.4c1.474,8.464,12.089,9.436,18.393,5.357-.1.015-.186.023-.279.036a6.566,6.566,0,0,0,3.187-4.5c-2.316-22.274,5.281-41.628,18.271-49.222v-.037c-2.318-2.66-1.691-9.272-5.567-9.272Zm5.567,9.434v.05l-.021.091Z" fill="#de9318" fill-rule="evenodd"/>
        <path id="Trazado_150337" data-name="Trazado 150337" d="M-311.134,302.023l7.731,6.888c3.466-2.69,10.816-10.489,15.457-15.7,3.726-4.18,23.374-23.938,27.426-35.865-5.18-12.614,9.151-20.465,1.662-21.387-7.432-.915-11.275.706-16.425,6.846-4.106,7.371-16.345,33.7-22.071,40.748C-307.614,295.72-310.318,296.3-311.134,302.023Z" fill="#f9a825" fill-rule="evenodd"/>
        <path id="Trazado_150338" data-name="Trazado 150338" d="M-285.586,279.9c-12.535,4.562-.066,2.715-1.338,6.105-.634,1.691-2.566.065-5.406,2.182-5.225,3.894-.72,8.639-10.329,13.99-2.191,1.22-4.157,2.325-8.057.3-.091,3.915,2.01,6.3,7.313,6.433,8.541,1.056,18.506-14.1,23.144-19.3,4.544-5.1,21.464-33.969,23.6-39.452-11.161-1.672-17.368-.691-20.066,5.723C-279.788,263.146-278.889,276.269-285.586,279.9Z" fill="#de9318" fill-rule="evenodd"/>
        <path id="Trazado_150339" data-name="Trazado 150339" d="M-254.563,383.151c.067,4.1,1.014,7.443-1.176,12.286-3.966,2.376-9.664,4.494-14.669,6.1l-.006.028c-9.115,3.142-19.737,3.877-21.2-2.987-.1-1.754,1.809-3.787,3.326-4.7,4.589-2.755,11.028-2.6,13.515-7.982a20.086,20.086,0,0,0,1.423-4.87Z" fill="#4d4948" fill-rule="evenodd"/>
        <path id="Trazado_150340" data-name="Trazado 150340" d="M-254.714,392.469c-3.119,4.122-5.524,2.623-8.066,3.8-7.782,3.607-10.261,7.94-20.342,7.319-4.073-.251-8.433-2.86-8.543-5.409l-.273,2.623c.314,2.2,4.6,5.109,8.59,5.234,6.217.2,11.415-1.943,18.393-4.969,5.193-2.252,8.97-2.572,10.452-4.294C-253.172,395.113-254.643,393.9-254.714,392.469Z" fill="#3c3c3b" fill-rule="evenodd"/>
        <path id="Trazado_150341" data-name="Trazado 150341" d="M-228.1,411.256c5.8-5.679,8.892-3.073,10.6-9.083,4.446,2,13.172-.54,16.205-5.337h0c2.448,6.866-2.043,5.592-6.564,8.965-4.353,3.25-11.44,11.227-17.516,11.546C-230.223,417.6-230.611,413.712-228.1,411.256Z" fill="#666" fill-rule="evenodd"/>
        <path id="Trazado_150342" data-name="Trazado 150342" d="M-229.187,243.066s.333,9.745,1.2,14.72c.835,9.995,7.027,22.852,11.024,32.259-5.165,17.521-21.993,27.267-34.189,9.841-12.758-7.089-21.95-25.05-21.47-44.756,1.535-6,1.894-14.087,7.871-17.483C-254.1,231.594-229.02,242.735-229.187,243.066Z" fill="#f9a825" fill-rule="evenodd"/>
        <path id="Trazado_150343" data-name="Trazado 150343" d="M-236.232,331.253c-2.285,9.561-3.843,21.123-2.684,31.937.749,6.992,13.144,29.941,19.016,29.941.283,5.06,7.312,9.169,16.35,1.034-1.112-.36-6.7.4-8.327-.507-11.157-6.2-5.664-24.786-8.2-27.068-3.72-3.354-8.019-.5-9.045-5.243-2.979-13.752,3.777-36.418,7.011-49.666-2.169-.721-8.1,12.948-15.491,7.536-1.384-1.014-8.6-9.24-13.35-15.6C-254.85,308.361-238.823,328.873-236.232,331.253Z" fill="#de9318" fill-rule="evenodd"/>
        <path id="Trazado_150344" data-name="Trazado 150344" d="M-219.915,396.87a21.791,21.791,0,0,1,.016-3.739c1.747,7.577,19.321,4.823,18.092-4.152a18.5,18.5,0,0,1,1.656,5.273C-201.406,401.895-218.924,404.333-219.915,396.87Z" fill="#3c3c3b"/>
        <path id="Trazado_150345" data-name="Trazado 150345" d="M-307.333,307.891c.028-1.6-3.477-5.138-4.73-3.286-1.4,1.357-6.756,6.645-7.057,7.087a17.531,17.531,0,0,0-1.232,2.042,4.013,4.013,0,0,0-.512,2.92c.049,1.076.1,4.171.23,5.13a28.66,28.66,0,0,0,1.39,5.456.957.957,0,0,0,.9-.513c.254.572.443,1.626,1.2,1.42a1.878,1.878,0,0,0,1.206-1.762l.153.694c1.074.5,1.993-1.338,2.123-2.036.126-.682-.207-2.8-.1-3.5.259-1.7.829-5.626.54-1.581-.15,1.754-.005,4.179.862,3.732,1.788-.922.917-2.425,1.24-4.171.284-1.54,1.044-4.631,2.077-5.98C-306.823,310.637-307.372,310.1-307.333,307.891Z" fill="#3c3c3b" fill-rule="evenodd"/>
        <path id="Trazado_150346" data-name="Trazado 150346" d="M-311.134,302.024a30.188,30.188,0,0,0,7.731,6.888c-1.825,1.355-3.009,2.145-3.009,2.145-4.467-1.739-7.514-4.55-6.68-6.9C-312.529,303.564-311.864,302.847-311.134,302.024Z" fill="#575756" fill-rule="evenodd"/>
        <path id="Trazado_150347" data-name="Trazado 150347" d="M-273.967,382.288a22,22,0,0,1,.945-3.617c-.193,7.773,17.514,9.479,18.557.48a18.537,18.537,0,0,1,.292,5.519C-257.291,391.76-274.864,389.763-273.967,382.288Z" fill="#3c3c3b"/>
        <path id="Trazado_150348" data-name="Trazado 150348" d="M-285.459,394.884c7.036-4.056,9.376-.763,12.523-6.161,3.809,3.046,12.893,2.755,17.024-1.136h0c.662,7.26-3.371,4.909-8.589,7.051-5.025,2.063-13.874,8.027-19.838,6.823C-289.093,400.5-288.5,396.639-285.459,394.884Z" fill="#666" fill-rule="evenodd"/>
        <path id="Trazado_150369" data-name="Trazado 150369" d="M-272.6,258.9c3.312,8.087,9.159,14.553,18.036,14.553,7.712,0,8.262,8.819,11.734,0,1.149-2.92,16.5,10.609,18.409,12.961,4.032,4.97-.932,6.22-4.045,10.328-5.18,6.833,11.67-4.122,8.449.581-1.311,1.915-2.328,6.83-5.9,10.034-6.246,5.606-13.717,12.914-25.24-7.475C-263.1,293.252-271.909,277.1-272.6,258.9Z" fill="#de9318" fill-rule="evenodd"/>
        <path id="Trazado_150371" data-name="Trazado 150371" d="M-253.54,216.455c.889,2.4,5.277,16.948,9.867,21.3-7.813,2.788-6.81,23.408-16.847,19.591-3.2-1.217-6.4-5.836-6.52-13.735,2.518-3.663,4.742-2.975-1.841-11C-270.538,229.92-253.539,216.455-253.54,216.455Z" fill="#f9a825" fill-rule="evenodd"/>
        <path id="Trazado_150372" data-name="Trazado 150372" d="M-280.245,228.245c.583,1.218,2.138.777,2.418,6.643.177,3.623.711,3.446,4.326,8.248,2.046,2.719,9.114,6.962,11.777,3.519.834-1.077,2.572-8.759,7.229-3.687,1.379,1.5,2.094-2.419,1.515-7.489-.144-1.266-2.7-14.228.246-6.887,4.509,11.223.447-14.63-4.033-18.392-4.511-3.953-13.844-6.293-24.118,2.657-4.077,3.551-6.953,10.849-2.742,14.851C-282.431,228.845-280.821,226.2-280.245,228.245Z" fill="#de9318" fill-rule="evenodd"/>
        <path id="Trazado_150374" data-name="Trazado 150374" d="M-277.6,220.693c5.168,1.176,14.161,7.649,17.007,14.4s2.013,7.516,1.009,9.173c-.974,1.051-1.773,1.906-2.143,2.385-2.664,3.444-9.731-.8-11.777-3.519-3.615-4.8-4.149-4.625-4.326-8.248-.28-5.866-1.835-5.425-2.418-6.643-.576-2.045-2.186.6-3.382-.538a6.559,6.559,0,0,1-.94-1.116C-284.46,222.179-282.765,219.516-277.6,220.693Z" fill="#f9a825" fill-rule="evenodd"/>
        <path id="Trazado_150375" data-name="Trazado 150375" d="M-277.2,222.035c5.541,1.236,12.324,7.771,15.385,15.631s-.582,12.186-6.122,10.95-12.109-8.19-14.666-15.529S-282.745,220.8-277.2,222.035Z" fill="#333" fill-rule="evenodd"/>
        <path id="Trazado_150376" data-name="Trazado 150376" d="M-282.8,232.2l1.906,12.971,9.522,7.035c2.093-1.648,3.293-2.412,5.317-4.14l.049-.043c6.851-6.052-5.119-22.346-11.418-23.752C-281.865,223.282-284.057,226.743-282.8,232.2Z" fill="#7f7f7f" fill-rule="evenodd"/>
        <path id="Trazado_150377" data-name="Trazado 150377" d="M-272.629,251.281c5.922-3.308,4.8-14.89,1.561-22.592-2.2-2.325-4.519-4.006-6.359-4.417-4.438-.99-6.63,2.471-5.376,7.929l1.906,12.971Z" fill="#b2b2b2" fill-rule="evenodd"/>
        <path id="Trazado_150378" data-name="Trazado 150378" d="M-281.991,225.471l2.515,20.751,2.013-.177,1.574-21.28a9.5,9.5,0,0,0-1.538-.493C-279.457,223.819-281.016,224.3-281.991,225.471Z" fill-rule="evenodd" fill="url(#linear-gradient)"/>
        <path id="Trazado_150379" data-name="Trazado 150379" d="M-284.784,250.242l3.477-5.986a1.109,1.109,0,0,1,.174-.215c3.084-3.293,13.925,3.281,11.735,7.324h0l-3.38,5.82Z" fill="#4c4c4c" fill-rule="evenodd"/>
        <path id="Trazado_150380" data-name="Trazado 150380" d="M-275.938,251.074l3.16-5.349a8.812,8.812,0,0,1,2.854,2.964l-3.188,5.392A8.8,8.8,0,0,0-275.938,251.074Z" fill="#333" fill-rule="evenodd"/>
        <path id="Trazado_150381" data-name="Trazado 150381" d="M-273.105,257.664c-1.382,1.475-5.067.943-8.227-1.188s-4.6-5.056-3.223-6.532,5.066-.944,8.227,1.187S-271.724,256.188-273.105,257.664Z" fill="#333" fill-rule="evenodd"/>
        <path id="Trazado_150382" data-name="Trazado 150382" d="M-277.311,250.248l3.165-5.344c.27.14.537.29.8.45l-3.165,5.343Q-276.909,250.454-277.311,250.248Z" fill="#333" fill-rule="evenodd"/>
        <path id="Trazado_150383" data-name="Trazado 150383" d="M-285.039,251.809l.686-1.181a1.048,1.048,0,0,1,.162-.2c2.855-3.05,12.9,3.038,10.867,6.782h0l-.6,1.026Z" fill="#4c4c4c" fill-rule="evenodd"/>
        <path id="Trazado_150384" data-name="Trazado 150384" d="M-274.223,258.682c-1.279,1.366-4.691.874-7.619-1.1s-4.264-4.683-2.985-6.049,4.693-.875,7.62,1.1S-272.943,257.316-274.223,258.682Z" fill="#333" fill-rule="evenodd"/>
        <path id="Trazado_150385" data-name="Trazado 150385" d="M-279.839,243.456l-3.28,5.609a5.44,5.44,0,0,1,2.2-.036l3.454-5.555A5.3,5.3,0,0,0-279.839,243.456Z" fill="#999" fill-rule="evenodd"/>
        <g id="Grupo_91517" data-name="Grupo 91517">
          <path id="Trazado_150386" data-name="Trazado 150386" d="M-195.516,312.312c.76,1.642-.314,2.87-1.074,4.535-.859,1.881.814,5.242-.81,7.705-.829,1.257-1.812-.714-1.9-2.961s-1.361-3.673-1.374-5.5c-.008-1.085.272-4.83,1.688-5.323C-196.522,309.907-196.412,311.182-195.516,312.312Z" fill="#575756" fill-rule="evenodd"/>
          <path id="Trazado_150387" data-name="Trazado 150387" d="M-192.51,302.313c-1.312-1.2-7.082-.7-6.546,1.775,0,2.241-1.446,10.118-1.32,10.711.2,1,1.936,2.371,2.261,3.349a4.158,4.158,0,0,0,2.022,2.6c.937.75,3.559,2.979,4.462,3.572,1.739.9,5.1,3.46,5.668,2.782a1.931,1.931,0,0,0,.456-1.545c.637.319,1.454,1.153,1.988.353a2.038,2.038,0,0,0-.5-2.365l.7.375c1.291-.235.4-2.374-.076-3-.468-.614-2.412-2.251-2.913-2.859-1.209-1.479-4.023-4.873-.883-1.641,1.342,1.423,3.6,3.1,3.8,1.982.355-1.935-1.461-2.654-2.657-4.225-1.054-1.385-2.843-4.274-3.137-6.182C-189.81,303.882-190.7,303.97-192.51,302.313Z" fill="#3c3c3b" fill-rule="evenodd"/>
        </g>
        <path id="Trazado_150388" data-name="Trazado 150388" d="M-198.539,312.638a20.532,20.532,0,0,0,.994,6.086,2.237,2.237,0,0,0,3.526-.278c1.3.139,2.44-.582,2.516-1.5a2.08,2.08,0,0,0,2.03-1.958,3.6,3.6,0,0,0,1-1.858c-.283-1.563-1.25-2.61-1.892-4.387C-193.273,310.494-196.561,313.09-198.539,312.638Z" fill="#575756" fill-rule="evenodd"/>
        <path id="Trazado_150389" data-name="Trazado 150389" d="M-196.876,272.793c6.669,9.979,7.615,33.264,7.615,33.264l-11.578,1.165c-7.294-2.706-1.673-13.253-5.149-16.029-1.735-1.386-1.722-2.8-2.02-4.848-.17-1.164-2.831.143-3.277-1.9-1.569-7.2-9.2-11.14-15.286-11.688-19.557-7.5-12.988-31.055-9.257-30.478a22.706,22.706,0,0,1,7.864,1.327C-220.023,246.882-208.285,255.719-196.876,272.793Z" fill="#de9318" fill-rule="evenodd"/>
        <path id="Trazado_150390" data-name="Trazado 150390" d="M-196.876,272.793c6.668,9.979,11.487,27.35,7.71,30.793l-2.886,1.234c-2.655-.335-7.125-1.4-7.439-3.518-.64-4.3,4.777-7.46-.538-16.245-.923-1.526-2.624.748-6.182-3.822-.629-.808,3.289-1.63,2.662-2.259-.94-.941-6.971-1.555-8.446-2.685-9.322-7.14-23.133-8.592-25.864-13.457q-.123-.254-.239-.51c-.017-.046-.037-.09-.052-.135l-.008,0c-4.124-9.345,2.432-20.209,4.992-19.814a11.68,11.68,0,0,1,5.2,1.226C-220.024,246.882-208.285,255.72-196.876,272.793Z" fill="#f9a825" fill-rule="evenodd"/>
        <path id="Trazado_150391" data-name="Trazado 150391" d="M-200.838,307.222a42.407,42.407,0,0,0,11.672-3.636c.176,2.266.213,3.689.213,3.689-3.851,2.855-9.578,4.7-11.124,2.74C-200.278,309.224-200.53,308.279-200.838,307.222Z" fill="#575756" fill-rule="evenodd"/>
        <g id="Grupo_91530" data-name="Grupo 91530" transform="matrix(0.951, -0.309, 0.309, 0.951, -76.941, 80.492)">
          <path id="Trazado_150296-4" data-name="Trazado 150296" d="M-255.038,167.079l.263,83.315a6.826,6.826,0,0,1-.183,1.384c-4.4,22.228-60.626,21.146-61.329-2.08h0l-.258-82.343Z" fill="#2e3c42" fill-rule="evenodd"/>
          <path id="Trazado_150297-4" data-name="Trazado 150297" d="M-290.155,167.236V267.607c-7.421-.616-14.466-2.708-19.37-6.25V167.324Z" fill="#1d272b" fill-rule="evenodd"/>
          <path id="Trazado_150298-4" data-name="Trazado 150298" d="M-282.354,184.782v82.932c-1.487.082-2.983.107-4.476.072V184.861C-285.317,184.9-283.822,184.872-282.354,184.782Z" fill="#1d272b" fill-rule="evenodd"/>
          <g id="Grupo_91501-4" data-name="Grupo 91501">
            <path id="Trazado_150299-4" data-name="Trazado 150299" d="M-318.2,188.11a12.815,12.815,0,0,1,1.68-4.259v6.666h.021c.3,23.346,56.851,24.586,61.256,2.266a11.01,11.01,0,0,0,.207-2.266l.062-6.272a12.226,12.226,0,0,1,1.64,8.679C-258.329,219.739-323.294,215.211-318.2,188.11Z" fill="#afafaf" fill-rule="evenodd"/>
            <path id="Trazado_150300-4" data-name="Trazado 150300" d="M-318.124,186.7a12.83,12.83,0,0,1,1.681-4.259v6.666h.02c.3,23.346,56.852,24.586,61.257,2.265a11,11,0,0,0,.207-2.265l.062-6.272a12.229,12.229,0,0,1,1.64,8.679C-258.253,218.332-323.218,213.8-318.124,186.7Z" fill="#e8e8e8" fill-rule="evenodd"/>
          </g>
          <g id="Grupo_91502-4" data-name="Grupo 91502">
            <path id="Trazado_150301-4" data-name="Trazado 150301" d="M-318.2,222.6a12.8,12.8,0,0,1,1.68-4.259v6.666h.021c.3,23.346,56.851,24.586,61.256,2.265a11,11,0,0,0,.207-2.265l.062-6.272a12.224,12.224,0,0,1,1.64,8.679C-258.329,254.23-323.294,249.7-318.2,222.6Z" fill="#afafaf" fill-rule="evenodd"/>
            <path id="Trazado_150302-4" data-name="Trazado 150302" d="M-318.124,221.193a12.825,12.825,0,0,1,1.681-4.258V223.6h.02c.3,23.346,56.852,24.587,61.257,2.266a11.01,11.01,0,0,0,.207-2.266l.062-6.272a12.231,12.231,0,0,1,1.64,8.679C-258.253,252.822-323.218,248.294-318.124,221.193Z" fill="#e8e8e8" fill-rule="evenodd"/>
          </g>
          <path id="Trazado_150303-4" data-name="Trazado 150303" d="M-318.4,165.777c2.093-10.59,18.341-18.1,36.284-16.771s30.8,11,28.7,21.588-18.34,18.1-36.284,16.771S-320.493,176.368-318.4,165.777Z" fill="#afafaf" fill-rule="evenodd"/>
          <path id="Trazado_150304-4" data-name="Trazado 150304" d="M-318.3,164.287c2.094-10.59,18.341-18.1,36.284-16.771s30.8,11,28.7,21.587-18.34,18.1-36.284,16.772S-320.394,174.877-318.3,164.287Z" fill="#1d272b" fill-rule="evenodd"/>
          <path id="Trazado_150306-4" data-name="Trazado 150306" d="M-313.62,164.634c1.791-9.065,15.7-15.494,31.057-14.356s26.36,9.414,24.569,18.479-15.7,15.494-31.058,14.355S-315.412,173.7-313.62,164.634Z" fill="#2e3c42" fill-rule="evenodd"/>
          <path id="Trazado_150307-4" data-name="Trazado 150307" d="M-313.062,167.236c1.756-8.883,15.384-15.184,30.434-14.067,13.239.98,23.171,7.372,24.177,14.942-.028.21-.06.42-.1.63-1.756,8.883-15.384,15.183-30.434,14.067-13.239-.98-23.171-7.373-24.177-14.943C-313.135,167.655-313.1,167.446-313.062,167.236Z" fill="#afafaf" fill-rule="evenodd"/>
          <g id="Grupo_91503-4" data-name="Grupo 91503">
            <path id="Trazado_150308-4" data-name="Trazado 150308" d="M-303.719,157.274c.375-1.9,3.29-3.248,6.509-3.009s5.525,1.973,5.15,3.873-3.291,3.248-6.51,3.009S-304.1,159.174-303.719,157.274Z" fill="#afafaf" fill-rule="evenodd"/>
            <path id="Trazado_150309-4" data-name="Trazado 150309" d="M-292.027,157.578h0v0Zm.006.2.041,1.64a2.017,2.017,0,0,1,.009.381v0h0a1.978,1.978,0,0,1-.035.262c-.375,1.9-3.29,3.247-6.509,3.008-2.953-.218-5.137-1.7-5.189-3.4h0l-.049-1.835c.124,1.671,2.283,3.1,5.183,3.315,3.219.239,6.134-1.109,6.51-3.009A2.1,2.1,0,0,0-292.021,157.779Z" fill="#1d272b" fill-rule="evenodd"/>
            <path id="Trazado_150310-4" data-name="Trazado 150310" d="M-303.089,157.321c.334-1.695,2.934-2.9,5.806-2.684s4.927,1.76,4.593,3.455-2.935,2.9-5.806,2.683S-303.424,159.016-303.089,157.321Z" fill="#1d272b" fill-rule="evenodd"/>
            <path id="Trazado_150311-4" data-name="Trazado 150311" d="M-303.089,156.923c.334-1.7,2.934-2.9,5.806-2.684s4.927,1.759,4.593,3.455-2.935,2.9-5.806,2.683S-303.424,158.617-303.089,156.923Z" fill="#afafaf" fill-rule="evenodd"/>
          </g>
          <g id="Grupo_91504-4" data-name="Grupo 91504">
            <path id="Trazado_150312-4" data-name="Trazado 150312" d="M-318.2,247.129a12.807,12.807,0,0,1,1.68-4.259v6.666h.021c.3,23.346,56.851,24.586,61.256,2.266a11.016,11.016,0,0,0,.207-2.266l.062-6.272a12.225,12.225,0,0,1,1.64,8.679C-258.329,278.758-323.294,274.23-318.2,247.129Z" fill="#94adca" fill-rule="evenodd"/>
            <path id="Trazado_150313-4" data-name="Trazado 150313" d="M-318.124,245.721a12.825,12.825,0,0,1,1.681-4.258v6.665h.02c.3,23.347,56.852,24.587,61.257,2.266a11,11,0,0,0,.207-2.266l.062-6.271a12.229,12.229,0,0,1,1.64,8.679C-258.253,277.351-323.218,272.822-318.124,245.721Z" fill="#e8e8e8" fill-rule="evenodd"/>
          </g>
          <path id="Trazado_150314-4" data-name="Trazado 150314" d="M-281.114,238.954v-.014a5.883,5.883,0,0,0,2.067-.146,7.628,7.628,0,0,0,3.772-2.478,5.79,5.79,0,0,1-5.839,1.476,5.79,5.79,0,0,0,5.839-1.476,7.628,7.628,0,0,1-3.772,2.478,5.883,5.883,0,0,1-2.067.146v-1.148a5.351,5.351,0,0,0,5.839-1.476,7.628,7.628,0,0,1-3.772,2.478,5.823,5.823,0,0,1-2.067.16Zm0-5.214v-2.673a5.333,5.333,0,0,0,.529-2.268,5.9,5.9,0,0,1,.947-.444,5.718,5.718,0,0,1,.677-.205c.007.13.013-.354.013.4a9.483,9.483,0,0,1-1.109,3.843,7.311,7.311,0,0,1-1.057,1.352Zm0-5.326a6.834,6.834,0,0,1,1.32-.652,5.27,5.27,0,0,1,3.884-.151,4.311,4.311,0,0,1,2.617,4.681,6.267,6.267,0,0,0-.377-4.056,5,5,0,0,0-2.817-2.424,6.7,6.7,0,0,0-3.356-.3,7,7,0,0,0,.9-3.489,6.227,6.227,0,0,0-1.341-3.83,6.155,6.155,0,0,0-.829-.825h0a6.147,6.147,0,0,1,.829.824,6.214,6.214,0,0,1,1.341,3.827,7.008,7.008,0,0,1-.9,3.492,6.713,6.713,0,0,1,3.358.3,4.982,4.982,0,0,1,2.815,2.424,6.3,6.3,0,0,1,.377,4.056,4.311,4.311,0,0,0-2.614-4.681,5.253,5.253,0,0,0-3.885.151,6.888,6.888,0,0,0-1.322.654,6.888,6.888,0,0,1,1.322-.654,5.253,5.253,0,0,1,3.885-.151,4.311,4.311,0,0,1,2.614,4.681,6.3,6.3,0,0,0-.377-4.056,4.982,4.982,0,0,0-2.815-2.424,6.713,6.713,0,0,0-3.358-.3,7.008,7.008,0,0,0,.9-3.492,6.214,6.214,0,0,0-1.341-3.827,6.147,6.147,0,0,0-.829-.824v.555a4.93,4.93,0,0,1,.789,2.832,5.509,5.509,0,0,1-.789,2.735v4.919Zm0-4.919a5.509,5.509,0,0,0,.789-2.735,4.93,4.93,0,0,0-.789-2.832,4.93,4.93,0,0,1,.789,2.832A5.509,5.509,0,0,1-281.114,223.495Zm-2.387-.861a6.691,6.691,0,0,1,1.789.817,5.167,5.167,0,0,1-.512.7,4.895,4.895,0,0,1-.608.588,5.041,5.041,0,0,0-.669-.347v-1.758Zm2.387-5.262h0a6.5,6.5,0,0,0-2.387-1.239v.015a4.8,4.8,0,0,1,2.387,1.779v-.555a6.5,6.5,0,0,0-2.387-1.239,6.5,6.5,0,0,1,2.387,1.238Zm0,6.123a6.186,6.186,0,0,1-2.387,2.333v4.177l.5.261a6.186,6.186,0,0,1,1.891-1.85,6.186,6.186,0,0,0-1.891,1.85l-.5-.261h0c.165.089.33.175.5.261a6.181,6.181,0,0,1,1.891-1.852v-4.919Zm0,7.572v2.673a7.108,7.108,0,0,1-1.8,1.318,4.4,4.4,0,0,1-.164-.437,4.69,4.69,0,0,1-.2-1.178,5.6,5.6,0,0,0,2.166-2.376Zm0,6.725v1.148a5.786,5.786,0,0,1-2.09-.614c-.1-.054-.2-.109-.3-.166.1.057.194.112.3.166a5.786,5.786,0,0,0,2.09.614v.014a5.846,5.846,0,0,1-2.09-.628c-.1-.054-.2-.112-.3-.171v-2.794a3.965,3.965,0,0,0,2.255,2.372l.132.059-.132-.059a3.965,3.965,0,0,1-2.255-2.372v-.041a4.752,4.752,0,0,0,2.255,2.413l.132.059Zm-2.387-6.581v-.351l.125.067c-.046.094-.086.189-.125.284Zm0-5.384a6.183,6.183,0,0,0,2.387-2.332,6.183,6.183,0,0,1-2.387,2.332Zm2.387-7.9a4.8,4.8,0,0,0-2.387-1.779,4.8,4.8,0,0,1,2.387,1.779Zm-2.262,13c-.046.094-.086.189-.125.284.039-.1.079-.19.125-.284l-.125-.067Zm-2.285-8.594a7.731,7.731,0,0,1,2.16.3v1.758a5.493,5.493,0,0,0-2.16-.431,5.492,5.492,0,0,0-2.163.434v-1.758a7.686,7.686,0,0,1,2.163-.3Zm2.16-6.2v.015l-.18-.063.18.048Zm0,9.694v4.177c-.2-.109-.41-.222-.614-.334a.967.967,0,0,0,.138-.668,1.924,1.924,0,0,0-1.314-1.618v-1a4.905,4.905,0,0,0,1.79-.555,4.905,4.905,0,0,1-1.79.555v1A1.924,1.924,0,0,1-283.977,229a.967.967,0,0,1-.138.668c.2.112.409.225.614.334h0c-.206-.109-.413-.222-.617-.334.091-.206.141-.15.141-.668a1.918,1.918,0,0,0-1.314-1.615v-1a4.888,4.888,0,0,0,1.79-.556Zm0,5.032v.351a5.33,5.33,0,0,0-.185,3.6,4.892,4.892,0,0,0,.185.5v.041c-.066-.174-.127-.356-.185-.545a5.33,5.33,0,0,1,.185-3.6,5.33,5.33,0,0,0-.185,3.6c.058.189.119.371.185.545v2.794a6.325,6.325,0,0,1-2.16-2.226,6.341,6.341,0,0,1-2.163,2.226v-2.791c.066-.175.125-.358.184-.548a5.345,5.345,0,0,0-.184-3.61v-.348c.352-.187.7-.381,1.057-.576a1.667,1.667,0,0,0,1.106.423,1.625,1.625,0,0,0,1.1-.426q.527.3,1.057.581Zm-4.323,4.5v-.035a4.908,4.908,0,0,0,.186-.513,5.34,5.34,0,0,0-.186-3.61,5.345,5.345,0,0,1,.184,3.61c-.059.19-.118.373-.184.548Zm0-5.361v-4.176a4.889,4.889,0,0,0,1.791.557v1A1.92,1.92,0,0,0-287.347,229a.98.98,0,0,0,.138.67l-.615.33Zm0-13.852v-.013l.181-.05-.181.064.181-.064-.181.05h0l.178-.049-.178.063Zm4.143-.065.18.048-.18-.048.18.063-.18-.063Zm.18,22.074a5.855,5.855,0,0,1-2.16-2.231,5.85,5.85,0,0,1-2.163,2.232,5.85,5.85,0,0,0,2.163-2.232,5.855,5.855,0,0,0,2.16,2.231Zm-4.323-7.3c.352-.187.7-.381,1.057-.576a1.656,1.656,0,0,0,1.1.423,1.636,1.636,0,0,0,1.1-.426q.527.3,1.057.581-.529-.283-1.057-.581a1.636,1.636,0,0,1-1.1.426,1.656,1.656,0,0,1-1.1-.423c-.353.2-.7.389-1.057.576Zm0-5.032a4.887,4.887,0,0,0,1.791.556v1A1.926,1.926,0,0,0-287.347,229a.978.978,0,0,0,.138.67l-.615.33.615-.33a.978.978,0,0,1-.138-.67,1.926,1.926,0,0,1,1.314-1.618v-1A4.887,4.887,0,0,1-287.824,225.826Zm0-1.431a4.939,4.939,0,0,0-.667.344,5,5,0,0,1-.612-.588,5.38,5.38,0,0,1-.512-.7,6.719,6.719,0,0,1,1.791-.817V224.4Zm0-8.258h0a6.526,6.526,0,0,0-2.384,1.233h0a6.519,6.519,0,0,1,2.384-1.233Zm0,0a6.526,6.526,0,0,0-2.384,1.233v.557a4.812,4.812,0,0,1,2.384-1.777v-.013Zm0,9.689a6.191,6.191,0,0,1-2.384-2.33v4.92a6.179,6.179,0,0,1,1.886,1.846l.5-.26v-4.176Zm0,5.031v.348c-.038-.1-.081-.189-.126-.282l.126-.066Zm0,4.471v.035a3.965,3.965,0,0,1-2.254,2.367l-.13.058v1.152a5.778,5.778,0,0,0,2.086-.615c.1-.054.2-.109.3-.165-.1.056-.2.111-.3.165a5.778,5.778,0,0,1-2.086.615v.012a5.851,5.851,0,0,0,2.086-.627c.1-.055.2-.111.3-.171v-2.791a3.965,3.965,0,0,1-2.254,2.367l-.13.058.13-.058a4.761,4.761,0,0,0,2.254-2.4Zm-2.384-1.59v-2.675a5.583,5.583,0,0,0,2.164,2.377,4.547,4.547,0,0,1-.206,1.177,3.742,3.742,0,0,1-.161.44,7.187,7.187,0,0,1-1.8-1.319Zm2.384-2.533c-.038-.1-.081-.189-.126-.282l.126-.066-.126.066c.045.093.088.187.126.282Zm-.5-.943a6.185,6.185,0,0,0-1.888-1.846,6.185,6.185,0,0,1,1.888,1.846l.5-.26-.5.26Zm.5-14.111a4.811,4.811,0,0,0-2.384,1.776,4.811,4.811,0,0,1,2.384-1.776Zm-2.384,7.345a6.2,6.2,0,0,0,2.384,2.329A6.2,6.2,0,0,1-290.208,223.5Zm0-6.127h0a6.093,6.093,0,0,0-.835.826,6.208,6.208,0,0,0-1.338,3.83,7.007,7.007,0,0,0,.9,3.491,6.68,6.68,0,0,0-3.358.3,4.971,4.971,0,0,0-2.818,2.418,6.3,6.3,0,0,0-.374,4.059,4.31,4.31,0,0,1,2.614-4.683,5.249,5.249,0,0,1,3.882.153,7.021,7.021,0,0,1,1.327.655V223.5A5.509,5.509,0,0,1-291,220.76a4.932,4.932,0,0,1,.794-2.832v-.557a6.093,6.093,0,0,0-.835.826,6.208,6.208,0,0,0-1.338,3.83,7.007,7.007,0,0,0,.9,3.491,6.68,6.68,0,0,0-3.358.3,4.971,4.971,0,0,0-2.818,2.418,6.3,6.3,0,0,0-.374,4.059,4.31,4.31,0,0,1,2.614-4.683,5.249,5.249,0,0,1,3.882.153,7.021,7.021,0,0,1,1.327.655,7.021,7.021,0,0,0-1.327-.655,5.748,5.748,0,0,0-3.879-.151c-1.949.588-2.919,2.46-2.617,4.681a6.3,6.3,0,0,1,.374-4.059,4.675,4.675,0,0,1,2.818-2.418,6.784,6.784,0,0,1,3.358-.3,7,7,0,0,1-.9-3.489,6.218,6.218,0,0,1,1.338-3.832,6.1,6.1,0,0,1,.835-.827Zm0,13.694v2.675a7.364,7.364,0,0,1-1.062-1.351,9.462,9.462,0,0,1-1.1-3.843c0-.749,0-.265.01-.4a5.509,5.509,0,0,1,.674.205,6.16,6.16,0,0,1,.95.444,5.318,5.318,0,0,0,.531,2.265Zm0,6.725v1.152a5.882,5.882,0,0,1-2.071-.147,7.63,7.63,0,0,1-3.77-2.48,5.793,5.793,0,0,0,5.841,1.475Zm0,1.152v.012a5.822,5.822,0,0,1-2.071-.159,7.651,7.651,0,0,1-3.773-2.48,5.365,5.365,0,0,0,5.844,1.475,5.793,5.793,0,0,1-5.841-1.475,7.63,7.63,0,0,0,3.77,2.48,5.882,5.882,0,0,0,2.071.147Zm0-21.013A4.932,4.932,0,0,0-291,220.76a5.512,5.512,0,0,0,.794,2.737A5.512,5.512,0,0,1-291,220.76,4.932,4.932,0,0,1-290.208,217.928Z" fill="#b42218" fill-rule="evenodd"/>
        </g>
        <path id="Trazado_150368" data-name="Trazado 150368" d="M-311.077,311.3c-.3,1.591-2.636,2.434-3.969,3.218-1.505.887-1.017,3.664-3.326,4.555-2.219.856,1.412-6.806,1.954-7.851.436-.84,2.561-3.322,3.76-2.91C-310.573,309.028-311.126,310-311.077,311.3Z" fill="#575756" fill-rule="evenodd"/>
      </g>
    </g>
    <g id="Grupo_91520" data-name="Grupo 91520">
      <path id="Trazado_150393" data-name="Trazado 150393" d="M-120.408,339.219l-27.11-15.462a6.348,6.348,0,0,0-6.438,0L-181.2,339.238a3.177,3.177,0,0,0-1.646,2.827,3.178,3.178,0,0,0,1.641,2.828l27.162,15.487a6.355,6.355,0,0,0,6.447,0l27.188-15.509a3.178,3.178,0,0,0,1.642-2.826A3.178,3.178,0,0,0-120.408,339.219Z" fill="#b2b2b2" fill-rule="evenodd"/>
      <path id="Trazado_150394" data-name="Trazado 150394" d="M-120.408,337.473l-27.11-15.462a6.345,6.345,0,0,0-6.438,0L-181.2,337.492a3.177,3.177,0,0,0-1.646,2.826,3.177,3.177,0,0,0,1.641,2.828l27.162,15.488a6.353,6.353,0,0,0,6.447,0l27.188-15.508a3.179,3.179,0,0,0,1.642-2.826A3.177,3.177,0,0,0-120.408,337.473Z" fill="#fff" fill-rule="evenodd"/>
      <path id="Trazado_150395" data-name="Trazado 150395" d="M-172.436,335.64a7.111,7.111,0,0,0-.447,1.183l-.245.646h.1a6.377,6.377,0,0,0-.1,1.105c0,6.546,10.013,11.856,22.36,11.856s22.359-5.31,22.359-11.856a6.377,6.377,0,0,0-.1-1.105h.1l-.248-.654a7.177,7.177,0,0,0-.44-1.163l-15.69-41.462a6.423,6.423,0,0,0-5.983-4.46,6.425,6.425,0,0,0-5.984,4.46Z" fill="#ccc" fill-rule="evenodd"/>
      <path id="Trazado_150396" data-name="Trazado 150396" d="M-171.748,342.681c3.152,4.522,11.357,7.749,20.981,7.749a39.552,39.552,0,0,0,9.34-1.083l-6.384-49.955c-.491-3.844-.788-5.6-2.956-6.46-2.213-.88-4.417,1.517-5.352,3.991L-171.576,342.3C-171.638,342.423-171.7,342.551-171.748,342.681Z" fill="#e5e5e5" fill-rule="evenodd"/>
      <path id="Trazado_150397" data-name="Trazado 150397" d="M-170.779,331.262q-1.174,3.105-2.349,6.207c-.632,8.616,12.337,12.961,22.361,12.961,5.974,0,24.055-2.777,22.261-12.961.1,0-2.018-5.6-2.25-6.208-2.791,5.012-10.91,8.108-20.011,8.108S-168.045,336.157-170.779,331.262Z" fill="#de9318" fill-rule="evenodd"/>
      <path id="Trazado_150398" data-name="Trazado 150398" d="M-171.708,342.587c3.58,5.216,13.149,7.843,20.941,7.843a43.788,43.788,0,0,0,9.322-1.214l-1.365-10.685a37.169,37.169,0,0,1-7.957.838c-7.392,0-14.174-2.119-17.926-5.538l-2.883,8.464C-171.623,342.393-171.667,342.489-171.708,342.587Z" fill="#f9a825" fill-rule="evenodd"/>
      <path id="Trazado_150399" data-name="Trazado 150399" d="M-166.774,320.679c1.425,5.154,7.933,8.185,16.007,8.185s15.192-3.26,15.92-8.414l-3.5-9.245c-.834,3.329-5.763,6.571-12.422,6.571s-11.326-2.548-12.509-6.342Z" fill="#de9318" fill-rule="evenodd"/>
      <path id="Trazado_150400" data-name="Trazado 150400" d="M-165.225,323.651c2.694,3.327,8.089,5.213,14.458,5.213a27.5,27.5,0,0,0,6.622-.783l-1.409-11.02a18.73,18.73,0,0,1-5.213.715c-5.1,0-9.036-1.494-11.128-3.9Z" fill="#f9a825" fill-rule="evenodd"/>
      <path id="Trazado_150401" data-name="Trazado 150401" d="M-159.792,302.226c.947,2.8,5.381,4.193,9.025,4.193s8.31-1.567,9.024-4.193l-3.041-8.036a6.423,6.423,0,0,0-5.983-4.46,6.425,6.425,0,0,0-5.984,4.46Z" fill="#de9318" fill-rule="evenodd"/>
      <path id="Trazado_150402" data-name="Trazado 150402" d="M-158.538,304.024c1.809,1.6,5.016,2.4,7.771,2.4a15.251,15.251,0,0,0,3.789-.5l-.833-6.524c-.491-3.844-.415-7.313-2.953-8.165-3.252-1.092-4.42,3.222-5.355,5.7Z" fill="#f9a825" fill-rule="evenodd"/>
    </g>
    <g id="Grupo_91524" data-name="Grupo 91524" transform="translate(-187.874 124.733)">
      <path id="Trazado_150440" data-name="Trazado 150440" d="M335.04,127.115q2.769,2.885,7.1.923a136.151,136.151,0,0,0,4.892-17.9c1.093-5.67,14.985-31.06,3.311-34.366-7.184-2.033-11.094,2.45-12.167,9.083-.783,4.839-1.155,16.763-2.253,24.3C333.753,122.311,333.707,126.454,335.04,127.115Z" transform="translate(-312.058 -53.834)" fill="#de9318" fill-rule="evenodd"/>
      <path id="Trazado_150441" data-name="Trazado 150441" d="M343.84,93.727c-1.348,2.782-.889,6.473-2.233,9.889-3.321,8.447.423,4.559-.2,6.724-4.045,14,2,9.447-.994,16.479a5.506,5.506,0,0,1-5.673,3.675q3.758,4.028,7.528,1.457c1.664-.431,3.787-12.159,4.893-17.9.887-4.61.38-5.7,4.8-7.724.419-.333.8-.662,1.162-.986C349.939,101.531,346.965,90.46,343.84,93.727Z" transform="translate(-312.189 -57.746)" fill="#e0af00" fill-rule="evenodd"/>
      <g id="Grupo_91524-2" data-name="Grupo 91524" transform="translate(21.592 72.193)">
        <path id="Trazado_150442" data-name="Trazado 150442" d="M339.873,141.623c-1.377-.576-5.434-2.49-5.284-.412-.244,1.8-1.111,8.757-1.077,9.255a16.327,16.327,0,0,0,.276,2.2A3.734,3.734,0,0,0,335.1,155.1c.656.76,2.479,2.993,3.126,3.622a26.779,26.779,0,0,0,4.163,3.19.894.894,0,0,0,.362-.895c.515.273,1.262.935,1.7.349a1.748,1.748,0,0,0-.133-1.984l.512.419c1.075-.253.687-2.128.38-2.714s-1.765-1.927-2.092-2.5c-.791-1.392-2.638-4.594-.517-1.467.9,1.37,2.405,3.06,2.782,2.233.777-1.706-.728-2.3-1.5-3.766-.679-1.291-1.906-3.99-1.928-5.573C341.9,142.6,341.411,142.266,339.873,141.623Z" transform="translate(-333.512 -140.266)" fill="#3c3c3b" fill-rule="evenodd"/>
        <path id="Trazado_150443" data-name="Trazado 150443" d="M339.633,146.6c.7,1.333-.526,3.3-1.048,4.642-.59,1.517,1.368,3.267.193,5.251-1.13,1.905-2.892-5.794-3.1-6.871-.166-.866-.042-3.907,1.072-4.3C338.693,144.648,338.85,145.68,339.633,146.6Z" transform="translate(-333.974 -141.327)" fill="#575756" fill-rule="evenodd"/>
      </g>
      <path id="Trazado_150444" data-name="Trazado 150444" d="M336.317,140.275c3.139.635,2.717,1.165,6.389.832-.5,1.839-.283,2.124-.283,2.124-3.006,1.009-5.016.729-6.289-.536A2.608,2.608,0,0,1,336.317,140.275Z" transform="translate(-312.448 -68.075)" fill="#575756" fill-rule="evenodd"/>
      <path id="Trazado_150445" data-name="Trazado 150445" d="M336.183,245.528c-.246,3.181.245,5.834-1.8,9.422a58.7,58.7,0,0,1-11.8,3.653l-.006.022c-7.282,1.77-15.556,1.568-16.193-3.851.053-1.364,1.675-2.8,2.915-3.393,3.751-1.8,8.724-1.214,11.039-5.2a15.674,15.674,0,0,0,1.455-3.666Z" transform="translate(-305.977 -90.476)" fill="#575756" fill-rule="evenodd"/>
      <path id="Trazado_150446" data-name="Trazado 150446" d="M335.276,255.592c-2.713,2.964-4.465,1.63-6.519,2.357-6.285,2.227-8.517,5.4-16.274,4.188-3.134-.49-6.318-2.825-6.219-4.806l-.4,2.01c.083,1.726,3.188,4.288,6.268,4.674,4.8.6,8.976-.675,14.6-2.511,4.182-1.366,7.128-1.339,8.4-2.565C336.277,257.75,335.226,256.707,335.276,255.592Z" transform="translate(-305.862 -93.341)" fill="#3c3c3b" fill-rule="evenodd"/>
      <path id="Trazado_150447" data-name="Trazado 150447" d="M412.031,223.69c1.759,2.662,3.776,4.454,4.364,8.544a58.758,58.758,0,0,1-7.068,10.125l.008.021c-4.661,5.869-11.316,10.789-15.145,6.9-.8-1.11-.4-3.238.217-4.468,1.856-3.723,6.141-6.314,5.522-10.88a15.631,15.631,0,0,0-1.1-3.787Z" transform="translate(-325.117 -86.351)" fill="#575756" fill-rule="evenodd"/>
      <path id="Trazado_150448" data-name="Trazado 150448" d="M396.986,244.688c2.917-5.6,5.826-4.419,5.633-9.272,3.769.4,9.6-3.582,10.683-7.859h0c3.468,4.481-.159,4.626-2.683,8.21-2.431,3.452-5.739,11.059-10.151,12.763C396.952,249.889,395.725,247.109,396.986,244.688Z" transform="translate(-325.721 -87.198)" fill="#666" fill-rule="evenodd"/>
      <path id="Trazado_150449" data-name="Trazado 150449" d="M415.9,231.591c-.321,4.005-2.524,4.028-3.7,5.863-3.593,5.616-3.407,9.492-10.274,13.3-2.775,1.538-6.722,1.65-7.86.026l.918,1.833c1.125,1.311,5.148,1.427,7.818-.159,7.39-4.393,14.838-16.318,15.034-18.126C418.011,232.68,416.542,232.5,415.9,231.591Z" transform="translate(-325.187 -88.082)" fill="#3c3c3b" fill-rule="evenodd"/>
      <path id="Trazado_150450" data-name="Trazado 150450" d="M381.944,90.281s-.693,10.485-1.352,14.666c-1.212,4.851.859,14.326-1.259,21.031-1.652,5.226-1.5,7.544-1.763,11.553-8.833,12.509-28.168,9.119-37.074-9.344,1.019-8.51-1.117-23.071,4.673-37.977,1.716-4.419,3.02-15.038,12.957-11.3C372.636,80.512,382.165,90.064,381.944,90.281Z" transform="translate(-313.45 -54.459)" fill="#f9a825" fill-rule="evenodd"/>
      <path id="Trazado_150451" data-name="Trazado 150451" d="M336.955,140.828s-9.143,24.057-9.357,49.274c-.106,12.609-7.993,27.393-1.629,28.34-2.2,7.28,14.911,10.21,14.326,1.718,4.589-2.379,10.516-28.343,12.793-44.847,1.526,16.756,21.819,35.922,29.364,34.661,1.56,5.836,16.576,1.642,12.363-7.44,1-7.165-11.305-18.48-19.6-23.023-1.386-17.588-1.424-27.585-1.349-30.626-2.362,9.868-32.876,6.716-31.16-4.05Z" transform="translate(-309.724 -68.196)" fill="#f9a825" fill-rule="evenodd"/>
      <path id="Trazado_150452" data-name="Trazado 150452" d="M336.392,225.094c2.415-1.251,4.038-2.929,3.9-4.935-11.7,1.19,8.217-14.33.085-16.711-4.289-1.256-5.594-12.957-5.7-14.776-.939-16.305,5.811-27.374,4.168-44.5a12.084,12.084,0,0,0-1.611-3.145l-.285-.2s-9.143,24.057-9.357,49.274c-.106,12.609-7.993,27.393-1.629,28.34C324.5,223.308,331.658,226.228,336.392,225.094Z" transform="translate(-309.724 -68.196)" fill="#de9318" fill-rule="evenodd"/>
      <path id="Trazado_150453" data-name="Trazado 150453" d="M398.615,204.177c-.521,3.8-2.373,4.135-4.877,3.744-7.655-1.195-8.579-10.409-10.6-12.43-2.964-2.97-9.99.364-11.607-3.364-5.6-12.908-8.37-19.465-6.66-31.837-2.18-2.122-5.845,5.96-10.492,4.84-1.4-.337-9.112-2.894-11.546-16.8-6.724,14.451,4.878,24.856,14.052,28.623,1.526,16.756,21.819,35.922,29.364,34.661C387.812,217.453,402.827,213.26,398.615,204.177Z" transform="translate(-313.524 -69.841)" fill="#de9318" fill-rule="evenodd"/>
      <path id="Trazado_150454" data-name="Trazado 150454" d="M399.875,230.046a16.874,16.874,0,0,1-.892-2.766c3.121,5.175,15.44-1.107,12.363-7.44a14.4,14.4,0,0,1,2.5,3.5C414.764,229.285,402.41,235.32,399.875,230.046Z" transform="translate(-326.255 -85.503)" fill="#3c3c3b"/>
      <path id="Trazado_150455" data-name="Trazado 150455" d="M325.37,242.927a16.956,16.956,0,0,1,.995-2.731c-.714,6,12.866,8.606,14.326,1.717a14.409,14.409,0,0,1-.175,4.293C337.589,251.468,324.133,248.646,325.37,242.927Z" transform="translate(-310.118 -89.951)" fill="#3c3c3b"/>
      <path id="Trazado_150456" data-name="Trazado 150456" d="M312.246,254.046c5.739-2.629,7.312.09,10.138-3.859,2.727,2.634,9.779,3.067,13.258.355h0c-.014,5.666-2.965,3.554-7.159,4.834-4.039,1.232-11.32,5.206-15.849,3.841C309.026,258.131,309.764,255.184,312.246,254.046Z" transform="translate(-306.802 -92.156)" fill="#666" fill-rule="evenodd"/>
      <path id="Trazado_150457" data-name="Trazado 150457" d="M389.027,134.471a9.513,9.513,0,0,1-4.6,5.464c-7.445,4.568-17.438,7.011-20.874,5-3.322-1.385-2.412-5.567.169-9.075,1.627-3.468,8.815-2.682,12.219-5.99.434-.423-1.037-1.068-.479-1.486,2.038-1.529-.722-1.753.362-2.348,1.766-.971-.056-1.2-.088-1.987-.127-3.077-.244-4.261-3.176-8.245-4.895-14.759,13.075-24.448,14.784-21.785a13.51,13.51,0,0,1,2.752,4.722C392.446,105.544,393.413,117.824,389.027,134.471Z" transform="translate(-318.031 -57.843)" fill="#de9318" fill-rule="evenodd"/>
      <path id="Trazado_150459" data-name="Trazado 150459" d="M376.54,62.269c.038,2-.764,14.1,1.5,18.5C364.98,93.238,355,92.707,359.606,78.829c2.8-2.055,4.261-.976,1.469-8.588C360.545,67.831,376.54,62.269,376.54,62.269Z" transform="translate(-317.387 -50.985)" fill="#f9a825" fill-rule="evenodd"/>
      <g id="Grupo_91525" data-name="Grupo 91525" transform="translate(37.046 30.06)">
        <path id="Trazado_150460" data-name="Trazado 150460" d="M357.115,152.538a1,1,0,0,1-.946-.683c-2.832-8.538-3.557-20.835-2.216-37.593a62,62,0,0,1,3.712-15.683c1.559-4.556,2.791-8.154,1.569-10.861a1,1,0,1,1,1.816-.82c1.546,3.425.2,7.353-1.5,12.326a59.53,59.53,0,0,0-3.612,15.2c-1.319,16.486-.625,28.526,2.121,36.807a1,1,0,0,1-.945,1.31Z" transform="translate(-353.302 -86.312)" fill="#333"/>
      </g>
      <path id="Trazado_150461" data-name="Trazado 150461" d="M351.693,60.935c.117,1.048,1.378,1.122.077,5.52-.8,2.717-.362,2.724,1.071,7.194.81,2.531,4.931,7.476,7.78,5.621.892-.58,4.147-5.8,6.278-.861.631,1.463,2.165-1.246,3.042-5.134.219-.97,1.662-11.187,1.951-5.014.442,9.433,4.089-10.674,1.753-14.6-2.311-4.075-8.592-8.2-18.469-4.238-3.919,1.571-7.914,6.214-5.838,10.246C349.927,60.815,351.794,59.279,351.693,60.935Z" transform="translate(-315.263 -47.818)" fill="#de9318" fill-rule="evenodd"/>
      <path id="Trazado_150463" data-name="Trazado 150463" d="M355.632,58.066c3.509,2.2,8.477,9.279,8.84,14.992s-.446,6.059-1.613,7.023c-.989.525-1.8.95-2.194,1.208-2.849,1.855-6.97-3.09-7.78-5.621-1.432-4.47-1.871-4.477-1.071-7.194,1.3-4.4.041-4.472-.076-5.52.1-1.656-1.766-.119-2.357-1.266a5.167,5.167,0,0,1-.406-1.064C350.19,57.4,352.123,55.87,355.632,58.066Z" transform="translate(-315.308 -49.838)" fill="#f9a825" fill-rule="evenodd"/>
      <path id="Trazado_150464" data-name="Trazado 150464" d="M355.513,59.53c3.769,2.335,7.091,8.9,7.328,15.481s-3.559,8.836-7.328,6.5-6.824-9.151-6.824-15.22S351.745,57.195,355.513,59.53Z" transform="translate(-315.245 -50.212)" fill="#333" fill-rule="evenodd"/>
      <path id="Trazado_150465" data-name="Trazado 150465" d="M348.255,66.059l-1.927,10.055,5.214,7.635c1.967-.679,3.048-.932,4.985-1.688l.048-.019c6.607-2.7,1.966-17.794-2.317-20.449C351.239,59.724,348.733,61.712,348.255,66.059Z" transform="translate(-314.728 -50.683)" fill="#7f7f7f" fill-rule="evenodd"/>
      <path id="Trazado_150466" data-name="Trazado 150466" d="M350.856,82.744c5.216-.918,7.363-9.748,6.956-16.259a11.4,11.4,0,0,0-3.554-4.891c-3.018-1.87-5.524.118-6,4.465l-1.927,10.055Z" transform="translate(-314.728 -50.683)" fill="#b2b2b2" fill-rule="evenodd"/>
      <path id="Trazado_150467" data-name="Trazado 150467" d="M350.8,61.3l-3.477,15.948,1.53.387,6.628-15.288a7.392,7.392,0,0,0-1.007-.758A3.39,3.39,0,0,0,350.8,61.3Z" transform="translate(-314.946 -50.682)" fill-rule="evenodd" fill="url(#linear-gradient-2)"/>
      <path id="Trazado_150468" data-name="Trazado 150468" d="M340.989,82.81l4.1-3.522a.949.949,0,0,1,.184-.113c3.12-1.636,9.426,6,6.771,8.417h0l-3.987,3.423Z" transform="translate(-313.558 -54.639)" fill="#4c4c4c" fill-rule="evenodd"/>
      <path id="Trazado_150469" data-name="Trazado 150469" d="M349.069,86.711l3.7-3.133a6.9,6.9,0,0,1,1.344,2.919l-3.737,3.157A6.879,6.879,0,0,0,349.069,86.711Z" transform="translate(-315.328 -55.653)" fill="#333" fill-rule="evenodd"/>
      <path id="Trazado_150470" data-name="Trazado 150470" d="M347.518,92.265c-1.4.733-3.979-.605-5.762-2.989s-2.1-4.913-.7-5.645,3.979.605,5.762,2.989S348.916,91.533,347.518,92.265Z" transform="translate(-313.382 -55.621)" fill="#333" fill-rule="evenodd"/>
      <path id="Trazado_150471" data-name="Trazado 150471" d="M348.044,85.481l3.708-3.128q.244.26.472.536l-3.707,3.128Q348.288,85.736,348.044,85.481Z" transform="translate(-315.104 -55.385)" fill="#333" fill-rule="evenodd"/>
      <path id="Trazado_150472" data-name="Trazado 150472" d="M340.233,85.006l.809-.694a.86.86,0,0,1,.17-.1c2.889-1.516,8.73,5.555,6.271,7.793h0l-.7.6Z" transform="translate(-313.392 -55.745)" fill="#4c4c4c" fill-rule="evenodd"/>
      <path id="Trazado_150473" data-name="Trazado 150473" d="M346.279,93.043c-1.295.679-3.684-.561-5.336-2.769S339,85.725,340.3,85.046s3.685.561,5.337,2.769S347.574,92.365,346.279,93.043Z" transform="translate(-313.229 -55.934)" fill="#333" fill-rule="evenodd"/>
      <path id="Trazado_150474" data-name="Trazado 150474" d="M346.808,79.113l-3.859,3.293a4.256,4.256,0,0,1,1.631.538l3.975-3.208A4.13,4.13,0,0,0,346.808,79.113Z" transform="translate(-313.988 -54.675)" fill="#999" fill-rule="evenodd"/>
      <path id="Trazado_150475" data-name="Trazado 150475" d="M389.744,134.326c-2.012,7.357-20.439,9.364-23.494,7.683-.692-.641,5.9-2.839,2.191-2.675-.475.021-4.151.87-3.726.359,2.332-2.8-.886-2.676.268-4.049,1.634-1.943,4.408-2.882,7.456-3.167,3.919-.365,6.729.083,4.953-3.277-.636-1.2,4.839.819,4.857.54.045-.733-4.614-2.332-3.712-2.525,2.671-.57.164-1.866-.007-2.682-1.572-7.531-5.4-16.839-3.772-21.038,3.2-8.235,10.963-13.483,13.935-8.853a9.777,9.777,0,0,1,2.119,3.947C393.163,105.4,394.284,117.721,389.744,134.326Z" transform="translate(-318.749 -57.699)" fill="#f9a825" fill-rule="evenodd"/>
      <g id="Grupo_91527" data-name="Grupo 91527" transform="translate(25.603 76.057)">
        <g id="Grupo_91526" data-name="Grupo 91526">
          <path id="Trazado_150477" data-name="Trazado 150477" d="M354.214,150.762c-1.5.2-2.222-.96-3.369-1.98-1.3-1.152-4.4-.641-5.973-2.55-.8-.974,1.019-1.276,2.841-.791s3.278-.185,4.748.256c.871.262,3.8,1.41,3.849,2.666C356.39,150.55,355.341,150.324,354.214,150.762Z" transform="translate(-339.969 -145.215)" fill="#575756" fill-rule="evenodd"/>
          <path id="Trazado_150478" data-name="Trazado 150478" d="M357.218,155.348c1.245-.822.192-6.627-.368-6.842-1.8-.551-4.244-1.917-4.749-1.962-.848-.088-2.379.967-3.242.986a3.488,3.488,0,0,0-2.583.979c-.831.565-3.264,2.116-3.962,2.693-1.147,1.172-4.03,3.231-3.627,3.855a1.62,1.62,0,0,0,1.125.747c-.412.432-1.283.881-.774,1.506a1.71,1.71,0,0,0,2.019.184l-.474.47c-.13,1.092,1.8.907,2.426.68.607-.223,2.4-1.378,3.009-1.628,1.483-.6,4.9-2.022,1.534-.3-1.472.725-3.372,2.119-2.527,2.561,1.462.762,2.487-.515,4.04-1.086,1.369-.5,4.214-1.826,5.815-1.591A4.9,4.9,0,0,0,357.218,155.348Z" transform="translate(-338.648 -145.505)" fill="#3c3c3b" fill-rule="evenodd"/>
        </g>
        <path id="Trazado_150479" data-name="Trazado 150479" d="M355.768,148.916a17.2,17.2,0,0,0-5.12-.705,1.876,1.876,0,0,0-.648,2.894,1.782,1.782,0,0,0,.582,2.386,1.744,1.744,0,0,0,1.067,2.11,3,3,0,0,0,1.241,1.261c1.323.16,2.4-.356,3.983-.433C356.187,153.665,354.918,150.389,355.768,148.916Z" transform="translate(-341.038 -145.871)" fill="#575756" fill-rule="evenodd"/>
        <path id="Trazado_150480" data-name="Trazado 150480" d="M362.611,148.761a22.41,22.41,0,0,0-.151,8.167c-1.859-.419-3.008-.74-3.008-.74-1.338-3.791-1.219-6.713.732-7.469C360.868,148.754,361.688,148.747,362.611,148.761Z" transform="translate(-343.011 -145.983)" fill="#575756" fill-rule="evenodd"/>
      </g>
    </g>
    <g id="Grupo_91522" data-name="Grupo 91522" transform="translate(0 29.691)">
      <g id="Grupo_91521" data-name="Grupo 91521" transform="translate(-350.88 171.591)">
        <path id="Trazado_150403" data-name="Trazado 150403" d="M-335.175,188.524c1.644-.855,1.543-2.523,1.969-4.348.482-2.063,3.942-3.74,4.167-6.753.116-1.538-1.915-.556-3.393,1.211s-3.4,2.125-4.559,3.6c-.686.875-2.8,4.087-1.964,5.373C-337.5,189.845-336.609,188.881-335.175,188.524Z" transform="translate(343.7 -176.66)" fill="#575756" fill-rule="evenodd"/>
        <path id="Trazado_150404" data-name="Trazado 150404" d="M-339.4,198.917c-1.816.153-6.178-3.867-4.2-5.536,1.406-1.815,5.163-9.108,5.636-9.51.784-.685,3.055-.71,3.93-1.3a4.261,4.261,0,0,1,3.268-.842c1.228-.021,4.75-.186,5.853-.1,1.97.363,6.3.387,6.336,1.294a1.976,1.976,0,0,1-.6,1.538c.716.14,1.9-.025,1.834.959a2.088,2.088,0,0,1-1.885,1.6l.8.136c.9,1-1.161,2.176-1.942,2.387-.763.2-3.364.314-4.15.494-1.906.442-6.313,1.43-1.745.777,1.98-.314,4.858-.26,4.325.776-.923,1.791-2.845,1.237-4.8,1.761-1.722.463-4.981,1.685-6.413,3.048C-336.233,199.336-336.9,198.705-339.4,198.917Z" transform="translate(344.106 -177.064)" fill="#3c3c3b" fill-rule="evenodd"/>
      </g>
      <path id="Trazado_150405" data-name="Trazado 150405" d="M-425.46,204.232c2.36,12.065,14.223,28.623,15.814,25.965,6.735,2.308,10.382-.021,12.242-2.64-3.741-7.567-9.626-28.633-6.716-47.38,1.546-9.963,5.312-19.347,2.525-24.647-3.362-6.395-14.591-5.112-18.952,5.3C-423.949,168.944-429.5,183.591-425.46,204.232Z" transform="translate(0 -3.02)" fill="#f9a825" fill-rule="evenodd"/>
      <path id="Trazado_150406" data-name="Trazado 150406" d="M-419.875,319.937c2.519,2.674-3.728,6.121,1.3,12.7,4.059,2.339,14.525-1.543,18.733-3.64l.022.014c7.8-3.674,15.072-9.832,11.729-15.147-1.033-1.185-3.523-1.3-5.064-.936-4.661,1.1-8.694,5.214-13.646,3.316a17.923,17.923,0,0,1-3.952-2.234Z" transform="translate(-0.514 -16.207)" fill="#575756" fill-rule="evenodd"/>
      <path id="Trazado_150407" data-name="Trazado 150407" d="M-391.436,313.765c-7.041,1.789-4.771,2.715-11.03,3.819-.2,1.562-.508,7.363-9.23,7.735-3.679,4.07,7.819,1.444,9.95.612,4.527-1.767,6.378.658,11.032-6.052C-388.241,316.312-388.392,312.991-391.436,313.765Z" transform="translate(-1.183 -16.281)" fill="#666" fill-rule="evenodd"/>
      <path id="Trazado_150408" data-name="Trazado 150408" d="M-420.381,329.328c2.941,3.038,6.508,4.076,15.658-.535,6.348-3.2,8.216.374,14.29-6.315,2.454-2.7,3.757-6.9,2.238-8.6l1.622,2.35a8.086,8.086,0,0,1-2.186,7.682c-5.26,5.451-18.11,9.552-25.081,10.881C-419.676,335.9-421.956,331.6-420.381,329.328Z" transform="translate(-0.492 -16.299)" fill="#3c3c3b" fill-rule="evenodd"/>
      <path id="Trazado_150409" data-name="Trazado 150409" d="M-388.618,338.983c.567,1.992-3.813,5.541,1.211,12.124,4.06,2.339,14.525-1.543,18.733-3.64l.022.015c7.8-3.674,15.073-9.833,11.729-15.148-1.034-1.184-3.523-1.3-5.064-.936-4.661,1.1-8.694,5.215-13.646,3.317a18.006,18.006,0,0,1-3.952-2.235Z" transform="translate(-3.03 -17.718)" fill="#575756" fill-rule="evenodd"/>
      <path id="Trazado_150410" data-name="Trazado 150410" d="M-360.227,332.23c-7.04,1.79-4.77,2.716-11.03,3.819-.2,1.562-.507,7.364-9.229,7.735-3.679,4.07,7.818,1.444,9.95.612,4.527-1.767,6.378.658,11.032-6.052C-357.032,334.778-357.183,331.456-360.227,332.23Z" transform="translate(-3.738 -17.792)" fill="#666" fill-rule="evenodd"/>
      <path id="Trazado_150411" data-name="Trazado 150411" d="M-389.172,347.794c2.941,3.037,6.508,4.075,15.659-.536,6.347-3.2,8.215.375,14.29-6.315,2.454-2.7,3.757-6.9,2.237-8.6l1.622,2.35a8.085,8.085,0,0,1-2.186,7.683c-5.259,5.451-18.11,9.552-25.08,10.881C-388.466,354.366-390.746,350.067-389.172,347.794Z" transform="translate(-3.046 -17.81)" fill="#3c3c3b" fill-rule="evenodd"/>
      <path id="Trazado_150412" data-name="Trazado 150412" d="M-418.888,214.755s-.652,26.922-3.465,56.569c-1.455,15.337-1.926,26.208,1.892,35.286,3.345,7.88,19.966,7.683,17.909-2.786,4.484-6.77,2.153-9.15,3.913-28.625.493-5.459-1.489-12.243-.642-18.386,1.864,20.47,5.715,60.615,9.818,67,.025,7.516,13.352,9.294,16.315-3.008,6.818-6.72,1.774-15.055,3.83-36.346,1.755-18.19-5.042-41.423-4.576-59.932-3.509-27.98-40.371-4.95-38.07-4.948Z" transform="translate(-0.283 -7.851)" fill="#de9318" fill-rule="evenodd"/>
      <path id="Trazado_150413" data-name="Trazado 150413" d="M-366.333,168.265s-2.893,9.56-3.7,14.668c-1.48,5.927,1.049,17.5-1.539,25.7-2.016,6.384-7.84-3.341-9.224-2.308-2.276,3.224,1.229,13.112-2.211,15.206-10.936,6.652-26.833,13.095-35.419-4.7-.5-25.23-4.925-34.769-.879-49.7,3.917-14.455,14.835-16.114,29.73-11.6C-371.019,161.153-366.063,168-366.333,168.265Z" transform="translate(-0.481 -3.157)" fill="#f9a825" fill-rule="evenodd"/>
      <path id="Trazado_150414" data-name="Trazado 150414" d="M-418.919,215.086c-4.64,22.912.068,25.989-3.422,56.6-1.367,12-1.672,26.754,2.147,35.832,1.166,6.388,19.242,9.294,17.655-3.332-14.3,1.453,6.856-14.33-3.079-17.239-5.241-1.535-1.966-11.3-2.092-13.522-1.148-19.921,12.967-10.341,11.926-29.141C-397.766,236.689-414.074,225.6-418.919,215.086Z" transform="translate(-0.294 -8.213)" fill="#f9a825" fill-rule="evenodd"/>
      <path id="Trazado_150415" data-name="Trazado 150415" d="M-399.084,257.007c.786,8.636,1.926,20.775,3.289,32.4,1.868,15.932-.168,31.144,4.11,34.29.017,5.19,13.3,8.361,18.928-1.021-1.119-.428,2.709-18.881.084-15.506-10.47,13.465-10.075.518-4.5-13.389,1.908-4.76-3.922-4.43-4.717-9.331-1.5-9.224-.04-24.68,2.264-38.054,1.249-7.25,2.511-11.374-1.385-18.2-3.629,2.14-14.686,1.518-21.521-2.941-1.468-.958-11.159-5.47-15.672-12.225-1.694,4.71-5.251,29.442-.265,37.025C-416.032,253.759-399.912,256.163-399.084,257.007Z" transform="translate(-0.479 -8.045)" fill="#f9a825" fill-rule="evenodd"/>
      <path id="Trazado_150416" data-name="Trazado 150416" d="M-379.01,215.94c4.291,22.69,42.062-10.584,40.083-17.3.389-4.024-2.1-8.12-7.186-10.256-4.98-3.021-11.594,7.554-14.335,10.8-3.574,4.238-.353-1.574-.662-1.83-.5-.421-2.6,3.147-.948-1.87,2.658-8.091,1.39-20.988-1.015-26.244-1.251-2.734-9.507-8.705-14.428,3.042C-380.9,180.4-382.917,195.274-379.01,215.94Z" transform="translate(-3.743 -4.137)" fill="#de9318" fill-rule="evenodd"/>
      <path id="Trazado_150417" data-name="Trazado 150417" d="M-420.817,175.844c.691,4.626,2.221,2.2,2.61,7.3.095,1.239,2.151,6.9,3.474,7.052,1.955.224,3.558-6.626,4.632-8.115,2.348-3.255,3.675,11.6,3.86,14.2.772,10.883,7.223-4.8,7.721-5.7,2.637-4.723,3.477-5.017,6.176-.967,3.072,4.608,9.122-7.428,10.133-10.337,2.166-6.231,4.39-14.12,14.189-13.108-2.719-2.514-9.044-6.853-21.537-10.643-14.9-4.516-25.813-2.858-29.73,11.6A47.236,47.236,0,0,0-420.817,175.844Z" transform="translate(-0.496 -3.157)" fill="#de9318" fill-rule="evenodd"/>
      <path id="Trazado_150419" data-name="Trazado 150419" d="M-389.292,336.787a21.012,21.012,0,0,1,.2-3.59c1.3,7.364,19.509,4.6,18.78-4.077a56.676,56.676,0,0,1,.127,6.148C-371.772,342.544-388.717,344-389.292,336.787Z" transform="translate(-3.075 -17.545)" fill="#3c3c3b"/>
      <path id="Trazado_150420" data-name="Trazado 150420" d="M-420.063,318.792a20.9,20.9,0,0,1,.2-3.589c1.3,7.364,18.311,5.6,17.583-3.076a17.8,17.8,0,0,1,1.324,5.146C-402.544,324.55-419.488,326.009-420.063,318.792Z" transform="translate(-0.557 -16.154)" fill="#3c3c3b"/>
      <path id="Trazado_150421" data-name="Trazado 150421" d="M-401.4,129.748c-.046,2.441.933,17.234-1.835,22.6-2.223,1.734-1.232,4.933.724,6.39,13.074,9.742,18.662-1.313,22.828-2.193a17.431,17.431,0,0,0-1.026-6.563c-3.419-2.51-5.207-1.193-1.8-10.492C-381.855,136.543-401.4,129.748-401.4,129.748Z" transform="translate(-1.831 -1.229)" fill="#f9a825" fill-rule="evenodd"/>
      <path id="Trazado_150422" data-name="Trazado 150422" d="M-373.358,130.758c-.143,1.281-1.683,1.372-.094,6.745.979,3.32.442,3.327-1.307,8.789-.99,3.092-6.025,9.134-9.506,6.868-1.09-.709-5.067-7.084-7.67-1.052-.771,1.786-2.646-1.521-3.717-6.272-.267-1.185-2.03-13.668-2.384-6.127-.539,11.526-5-13.041-2.14-17.837,2.823-4.978,10.5-10.015,22.564-5.177,4.787,1.919,9.67,7.591,7.132,12.519C-371.2,130.612-373.481,128.735-373.358,130.758Z" transform="translate(-2.108)" fill="#de9318" fill-rule="evenodd"/>
      <path id="Trazado_150424" data-name="Trazado 150424" d="M-377.036,125.569c-4.287,2.683-10.357,11.337-10.8,18.316s.545,7.4,1.971,8.582c1.206.64,2.194,1.16,2.679,1.475,3.481,2.266,8.516-3.775,9.506-6.868,1.749-5.461,2.286-5.469,1.307-8.789-1.588-5.373-.049-5.464.094-6.745-.123-2.023,2.158-.145,2.878-1.546a6.218,6.218,0,0,0,.5-1.3C-370.387,124.754-372.749,122.887-377.036,125.569Z" transform="translate(-3.186 -0.784)" fill="#f9a825" fill-rule="evenodd"/>
      <path id="Trazado_150425" data-name="Trazado 150425" d="M-376.789,127.046c-4.6,2.853-8.663,10.87-8.953,18.913s4.349,10.8,8.953,7.943,8.338-11.179,8.338-18.594S-372.185,124.194-376.789,127.046Z" transform="translate(-3.365 -0.929)" fill="#2e3c42" fill-rule="evenodd"/>
      <path id="Trazado_150426" data-name="Trazado 150426" d="M-368.286,134.631l2.354,12.284-6.37,9.328c-2.4-.828-3.724-1.139-6.09-2.061l-.058-.023c-8.072-3.3-2.4-21.739,2.831-24.984C-371.932,126.89-368.87,129.32-368.286,134.631Z" transform="translate(-3.633 -1.112)" fill="#7f7f7f" fill-rule="evenodd"/>
      <path id="Trazado_150427" data-name="Trazado 150427" d="M-371.243,155.015c-6.374-1.121-9-11.909-8.5-19.864,1.251-2.785,2.814-5.028,4.343-5.976,3.687-2.284,6.749.145,7.333,5.457l2.354,12.284Z" transform="translate(-3.853 -1.112)" fill="#b2b2b2" fill-rule="evenodd"/>
      <path id="Trazado_150428" data-name="Trazado 150428" d="M-370.629,128.822l4.249,19.485-1.87.472-8.1-18.677a9.073,9.073,0,0,1,1.23-.927A4.143,4.143,0,0,1-370.629,128.822Z" transform="translate(-4.135 -1.112)" fill-rule="evenodd" fill="url(#linear-gradient-3)"/>
      <path id="Trazado_150429" data-name="Trazado 150429" d="M-360.182,151.8l-5.011-4.3a1.167,1.167,0,0,0-.225-.139c-3.811-2-11.516,7.329-8.273,10.282h0l4.872,4.181Z" transform="translate(-4.289 -2.647)" fill="#4c4c4c" fill-rule="evenodd"/>
      <path id="Trazado_150430" data-name="Trazado 150430" d="M-367.854,155.719l-4.527-3.828a8.439,8.439,0,0,0-1.641,3.567l4.565,3.857A8.408,8.408,0,0,1-367.854,155.719Z" transform="translate(-4.326 -3.041)" fill="#333" fill-rule="evenodd"/>
      <path id="Trazado_150431" data-name="Trazado 150431" d="M-367.925,162.532c1.708.9,4.861-.74,7.039-3.652s2.561-6,.853-6.9-4.861.74-7.04,3.652S-369.633,161.637-367.925,162.532Z" transform="translate(-4.737 -3.029)" fill="#333" fill-rule="evenodd"/>
      <path id="Trazado_150432" data-name="Trazado 150432" d="M-366.694,154.439l-4.529-3.82q-.3.317-.577.655l4.529,3.82Q-366.993,154.751-366.694,154.439Z" transform="translate(-4.508 -2.937)" fill="#333" fill-rule="evenodd"/>
      <path id="Trazado_150433" data-name="Trazado 150433" d="M-358.976,153.559l-.989-.848a1.069,1.069,0,0,0-.208-.129c-3.529-1.851-10.664,6.787-7.661,9.523h0l.859.736Z" transform="translate(-4.773 -3.077)" fill="#4c4c4c" fill-rule="evenodd"/>
      <path id="Trazado_150434" data-name="Trazado 150434" d="M-366.474,163.221c1.582.829,4.5-.686,6.52-3.383s2.372-5.558.79-6.387-4.5.685-6.52,3.382S-368.055,162.392-366.474,163.221Z" transform="translate(-4.863 -3.15)" fill="#333" fill-rule="evenodd"/>
      <path id="Trazado_150435" data-name="Trazado 150435" d="M-366.27,147.251l4.715,4.023a5.193,5.193,0,0,0-1.991.658l-4.856-3.921A5.064,5.064,0,0,1-366.27,147.251Z" transform="translate(-4.786 -2.661)" fill="#999" fill-rule="evenodd"/>
      <path id="Trazado_150436" data-name="Trazado 150436" d="M-375.015,209.353c.82,4.337,2.593,6.906,4.9,8.153,8.247,4.45,23.328-7.973,26.192-17.019.471-1.489,3.457-8.055-2.834-5-1.631.791,3.589-5.486.969-7.018-5.028-2.94-11.594,7.554-14.335,10.8-3.574,4.237-.353-1.573-.662-1.83-.5-.421-2.6,3.147-.948-1.87,2.66-8.09,1.172-20.894-1.015-26.244-1.508-3.687-6.747-4.616-11.489.312C-377.173,178.072-378.634,190.211-375.015,209.353Z" transform="translate(-4.069 -4.216)" fill="#f9a825" fill-rule="evenodd"/>
      <path id="Trazado_150437" data-name="Trazado 150437" d="M-337.267,186.848a21,21,0,0,1,4.615-4.311,2.291,2.291,0,0,1,2.685,2.432c1.144.7,1.613,2,1.1,2.791a2.132,2.132,0,0,1,.421,2.858,3.688,3.688,0,0,1-.351,2.134c-1.207,1.091-2.647,1.334-4.28,2.373C-334.342,191.883-335.381,187.72-337.267,186.848Z" transform="translate(-7.334 -5.549)" fill="#575756" fill-rule="evenodd"/>
      <path id="Trazado_150438" data-name="Trazado 150438" d="M-342.991,190.283a43.411,43.411,0,0,1,7.185,10.256c1.562-1.728,2.483-2.857,2.483-2.857-1.335-4.726-4.823-9.806-7.3-9.186C-341.284,189.01-342.079,189.619-342.991,190.283Z" transform="translate(-6.866 -6.033)" fill="#575756" fill-rule="evenodd"/>
    </g>
  </g>
</svg>
