<svg xmlns="http://www.w3.org/2000/svg" xmlns:xlink="http://www.w3.org/1999/xlink" width="472.636" height="533.166" viewBox="0 0 472.636 533.166">
  <defs>
    <linearGradient id="linear-gradient" x1="0.5" x2="0.5" y2="1" gradientUnits="objectBoundingBox">
      <stop offset="0" stop-color="#f5f5f5"/>
      <stop offset="0.25" stop-color="#f5f5f5"/>
      <stop offset="1" stop-color="#a7b3cf"/>
    </linearGradient>
  </defs>
  <g id="Grupo_91659" data-name="Grupo 91659" transform="translate(-202.318 -514)">
    <g id="Grupo_91614" data-name="Grupo 91614" transform="translate(-16 -457.467)">
      <rect id="Rectángulo_33297" data-name="Rectángulo 33297" width="377.063" height="318.757" transform="translate(259.778 1124.112)" fill="#fff"/>
      <rect id="Rectángulo_33298" data-name="Rectángulo 33298" width="392.286" height="11.582" transform="translate(250.455 1112.529)" fill="#1d272b"/>
      <rect id="Rectángulo_33301" data-name="Rectángulo 33301" width="392.286" height="11.582" transform="translate(250.455 1440.052)" fill="#1d272b"/>
      <rect id="Rectángulo_33299" data-name="Rectángulo 33299" width="243.962" height="59.247" transform="translate(398.779 1152.924)" fill="#b0c0d2"/>
      <g id="Grupo_91611" data-name="Grupo 91611" transform="translate(410.612 1161.122)">
        <g id="Grupo_90890" data-name="Grupo 90890">
          <g id="Grupo_90889" data-name="Grupo 90889">
            <path id="Trazado_149972" data-name="Trazado 149972" d="M-3088.535,2035.365a21.215,21.215,0,0,1-15.1-6.255,21.213,21.213,0,0,1-6.253-15.1,21.214,21.214,0,0,1,6.253-15.1,21.214,21.214,0,0,1,15.1-6.254,21.21,21.21,0,0,1,15.1,6.254,21.211,21.211,0,0,1,6.255,15.1,21.21,21.21,0,0,1-6.255,15.1A21.211,21.211,0,0,1-3088.535,2035.365Zm0-40.742a19.263,19.263,0,0,0-13.71,5.68,19.262,19.262,0,0,0-5.678,13.709,19.264,19.264,0,0,0,5.678,13.709,19.267,19.267,0,0,0,13.71,5.679,19.263,19.263,0,0,0,13.709-5.679,19.261,19.261,0,0,0,5.679-13.709,19.259,19.259,0,0,0-5.679-13.709A19.259,19.259,0,0,0-3088.535,1994.623Z" transform="translate(3109.888 -1992.658)" fill="#fff"/>
          </g>
          <path id="Trazado_149973" data-name="Trazado 149973" d="M-3060.863,2024.406h-10.309V2014.1h-6.967v10.308h-10.308v6.966h10.308v10.309h6.967v-10.309h10.309Z" transform="translate(3096.008 -2006.537)" fill="#fff"/>
        </g>
      </g>
      <g id="Grupo_91612" data-name="Grupo 91612" transform="translate(470.257 1171.893)">
        <path id="Trazado_149974" data-name="Trazado 149974" d="M-2940.774,2024.2h4.534v8.155h8.36V2024.2h4.534V2044.8h-4.534v-8.271h-8.36v8.271h-4.534Z" transform="translate(2940.774 -2023.844)" fill="#fff"/>
        <path id="Trazado_149975" data-name="Trazado 149975" d="M-2879.919,2033.852a10.657,10.657,0,0,1,10.981-10.657,10.571,10.571,0,0,1,10.922,10.657A10.657,10.657,0,0,1-2869,2044.51,10.572,10.572,0,0,1-2879.919,2033.852Zm17.164,0a6.26,6.26,0,0,0-6.241-6.477,6.179,6.179,0,0,0-6.182,6.477,6.261,6.261,0,0,0,6.241,6.478A6.179,6.179,0,0,0-2862.755,2033.852Z" transform="translate(2901.381 -2023.195)" fill="#fff"/>
        <path id="Trazado_149976" data-name="Trazado 149976" d="M-2810.8,2041.262l2.679-3.209a9.454,9.454,0,0,0,6.152,2.5c1.855,0,2.974-.736,2.974-2,0-1.148-.707-1.737-4.15-2.62-4.152-1.06-6.832-2.208-6.832-6.359,0-3.739,3-6.211,7.213-6.211a11.934,11.934,0,0,1,7.655,2.62l-2.355,3.416a9.669,9.669,0,0,0-5.359-2.031c-1.736,0-2.649.794-2.649,1.854,0,1.354.884,1.8,4.446,2.709,4.18,1.089,6.536,2.591,6.536,6.241,0,4.092-3.121,6.389-7.567,6.389A13.112,13.112,0,0,1-2810.8,2041.262Z" transform="translate(2856.636 -2023.303)" fill="#fff"/>
        <path id="Trazado_149977" data-name="Trazado 149977" d="M-2753.363,2024.2h8.419c4.917,0,7.89,2.914,7.89,7.184,0,4.769-3.709,7.242-8.332,7.242h-3.445v6.181h-4.532Zm8.125,10.392c2.267,0,3.593-1.354,3.593-3.18,0-2.031-1.414-3.12-3.68-3.12h-3.5v6.3Z" transform="translate(2819.458 -2023.844)" fill="#fff"/>
        <path id="Trazado_149978" data-name="Trazado 149978" d="M-2697.014,2024.2h4.534V2044.8h-4.534Z" transform="translate(2782.981 -2023.844)" fill="#fff"/>
        <path id="Trazado_149979" data-name="Trazado 149979" d="M-2667.453,2028.378h-6.271V2024.2h17.075v4.181h-6.271V2044.8h-4.533Z" transform="translate(2767.905 -2023.844)" fill="#fff"/>
        <path id="Trazado_149980" data-name="Trazado 149980" d="M-2619.146,2023.778h4.181l8.833,20.755h-4.741l-1.883-4.622h-8.714l-1.885,4.622h-4.622Zm4.771,12.129-2.738-6.682-2.738,6.682Z" transform="translate(2738.292 -2023.572)" fill="#fff"/>
        <path id="Trazado_149981" data-name="Trazado 149981" d="M-2557.02,2024.2h4.534v16.486h10.274v4.121h-14.808Z" transform="translate(2692.36 -2023.844)" fill="#fff"/>
      </g>
      <path id="Trazado_150603" data-name="Trazado 150603" d="M-3143.443,1891.694l377.063,11.371v-15.348h-377.063Z" transform="translate(3403.222 -763.605)" fill="#dee4f0"/>
      <g id="Grupo_91613" data-name="Grupo 91613" transform="translate(318.459 1301.175)">
        <rect id="Rectángulo_33205" data-name="Rectángulo 33205" width="264.953" height="138.412" fill="#12263f"/>
        <rect id="Rectángulo_33206" data-name="Rectángulo 33206" width="248.373" height="129.198" transform="translate(8.905 9.679)" fill="#fff"/>
        <rect id="Rectángulo_33207" data-name="Rectángulo 33207" width="230.069" height="29.685" transform="translate(18.309 17.851)" fill="#f3f9ff"/>
        <rect id="Rectángulo_33208" data-name="Rectángulo 33208" width="67.277" height="82.719" transform="translate(18.309 55.6)" fill="#f3f9ff"/>
        <rect id="Rectángulo_33209" data-name="Rectángulo 33209" width="82.713" height="82.719" transform="translate(91.986 55.6)" fill="#12263f"/>
        <rect id="Rectángulo_33210" data-name="Rectángulo 33210" width="67.989" height="82.719" transform="translate(180.388 55.6)" fill="#d2e1f1"/>
        <path id="Trazado_149987" data-name="Trazado 149987" d="M-2668.264,2547.425h55.611v30.614l-9.912,52.106H-2684Z" transform="translate(2787.352 -2491.825)" fill="#d2e1f1"/>
        <g id="Grupo_90895" data-name="Grupo 90895" transform="translate(102.83 71.34)">
          <g id="Grupo_90893" data-name="Grupo 90893">
            <rect id="Rectángulo_33211" data-name="Rectángulo 33211" width="61.879" height="67.071" fill="#fff"/>
            <rect id="Rectángulo_33212" data-name="Rectángulo 33212" width="55.979" height="64.04" transform="translate(2.95 3.031)" fill="#d2e1f1"/>
            <rect id="Rectángulo_33213" data-name="Rectángulo 33213" width="2.086" height="64.04" transform="translate(29.896 3.031)" fill="#fff"/>
          </g>
          <g id="Grupo_90894" data-name="Grupo 90894" transform="translate(24.908 33.729)">
            <path id="Trazado_149988" data-name="Trazado 149988" d="M-2614.853,2689.018a1.323,1.323,0,0,1,1.324-1.323,1.322,1.322,0,0,1,1.321,1.323,1.322,1.322,0,0,1-1.321,1.322A1.323,1.323,0,0,1-2614.853,2689.018Z" transform="translate(2614.853 -2687.694)" fill="#fff"/>
            <path id="Trazado_149989" data-name="Trazado 149989" d="M-2588.148,2689.018a1.322,1.322,0,0,1,1.322-1.323,1.322,1.322,0,0,1,1.322,1.323,1.321,1.321,0,0,1-1.322,1.322A1.322,1.322,0,0,1-2588.148,2689.018Z" transform="translate(2597.566 -2687.694)" fill="#fff"/>
          </g>
        </g>
        <path id="Trazado_149990" data-name="Trazado 149990" d="M-2884.412,2547.425h34.062l-10.873,82.72h-34.062Z" transform="translate(2924.123 -2491.825)" fill="#d2e1f1"/>
        <path id="Trazado_149991" data-name="Trazado 149991" d="M-2823.491,2440.39l-3.9,29.685h-34.062l3.9-29.685Z" transform="translate(2902.223 -2422.538)" fill="#d2e1f1"/>
        <path id="Trazado_149992" data-name="Trazado 149992" d="M-2439.892,2547.425h34.063l-10.873,82.72h-34.063Z" transform="translate(2636.372 -2491.825)" fill="#f3f9ff"/>
        <path id="Trazado_149993" data-name="Trazado 149993" d="M-2378.971,2440.39l-3.9,29.685h-34.062l3.9-29.685Z" transform="translate(2614.473 -2422.538)" fill="#d2e1f1"/>
        <path id="Trazado_149994" data-name="Trazado 149994" d="M-2567.948,2440.39l-5.649,29.685h-61.435l5.648-29.685Z" transform="translate(2755.654 -2422.538)" fill="#d2e1f1"/>
      </g>
      <rect id="Rectángulo_33300" data-name="Rectángulo 33300" width="394.033" height="13.867" transform="translate(253.92 1259.308)" fill="#dde8fd"/>
    </g>
    <g id="Grupo_91609" data-name="Grupo 91609" transform="translate(202.318 514)">
      <g id="Grupo_60248" data-name="Grupo 60248" transform="translate(0 0)">
        <g id="Grupo_60220" data-name="Grupo 60220" transform="translate(96.15 109.815)">
          <path id="Trazado_116995" data-name="Trazado 116995" d="M2734.276,793.313l7.321,5.571,6.566,7.284c-2.464,2.193-5.913-1.916-5.913-1.916a63.91,63.91,0,0,0,7.02,12.614c1.174,2.42-1.245,2.555-1.245,2.555-3.048-2.382-7.57-10.015-7.57-10.015a124.2,124.2,0,0,0,6.257,11.894c.606,2.163-1.69,1.836-1.69,1.836-4.912-2.071-7.757-11.691-7.757-11.691.961,3.665,4.934,10.918,4.934,10.918-.322,1.587-1.128,1.17-1.128,1.17-4.148-1.046-6.858-10.311-6.858-10.311l1.108,3.443c1.93,4.577-1.185,3.753-1.185,3.753l-1.383-2.238a28.978,28.978,0,0,1-4.058-13.605l-1.139-8.556Z" transform="translate(-2697.694 -642.962)" fill="#e28262"/>
          <path id="Trazado_116996" data-name="Trazado 116996" d="M2776.325,405.668l-4.451,2.324s3.973,65.107,12.454,77.008,12.742-3.332,14.859-5.2,5.32-74.94,5.32-74.94Z" transform="translate(-2767.96 -389.04)" fill="#e28262"/>
          <path id="Trazado_116997" data-name="Trazado 116997" d="M2792.356,593.226s1.511,55.989,3.813,68.478c0,0-2.619,6.468-6.72,2.706s-18.984-64.508-17.58-69.667S2792.356,593.226,2792.356,593.226Z" transform="translate(-2759.587 -511.354)" fill="#e28262"/>
          <path id="Trazado_116998" data-name="Trazado 116998" d="M2802.817,429.549c-12.711,9.43-33.812,5.02-33.812,5.02l-5.636-58.406s-1.8-11.539,12.97-16.285c0,0,16.9-5.112,24.133,12.216Z" transform="translate(-2763.3 -359.174)" fill="url(#linear-gradient)"/>
        </g>
        <g id="Grupo_60221" data-name="Grupo 60221" transform="translate(89.366 231.574)">
          <rect id="Rectángulo_6332" data-name="Rectángulo 6332" width="85.499" height="55.293" transform="translate(2.687 1.891)" fill="#fa9711"/>
          <rect id="Rectángulo_6333" data-name="Rectángulo 6333" width="82.776" height="52.287" transform="translate(4.08 3.12)" fill="#fff"/>
          <rect id="Rectángulo_6334" data-name="Rectángulo 6334" width="85.5" height="52.562" transform="translate(0 4.623)" fill="#ffad0b"/>
          <rect id="Rectángulo_6335" data-name="Rectángulo 6335" width="26.588" height="4.623" transform="translate(58.912)" fill="#ffad0b"/>
        </g>
        <path id="Trazado_116999" data-name="Trazado 116999" d="M2800.358,1436.946s2.69,10.121,5.919,12.844,15.477,6.668,15.477,6.668l6.781.913s4.731,3.333-8.151,6.994-35.641-6.86-35.641-6.86l4.931-20.778Z" transform="translate(-2701.594 -953.735)" fill="#db8804"/>
        <path id="Trazado_117000" data-name="Trazado 117000" d="M3015.462,1457.914c-2.384-3.482-7.738-22.689-7.738-22.689l-10.553-.005-5.966,21.5s-.952,3.6,1.24,4.871c0,0,13.289,4.174,24.381-.945A7.745,7.745,0,0,0,3015.462,1457.914Z" transform="translate(-2961.873 -952.749)" fill="#db8804"/>
        <path id="Trazado_117001" data-name="Trazado 117001" d="M2868.472,433.651l13.475-82.35s4.643-12.378-4.641-18.569L2841.914,316.1h-24.956l-42.546,25.143,27.885,92.406Z" transform="translate(-2753.766 -221.203)" fill="#f39672"/>
        <path id="Trazado_117002" data-name="Trazado 117002" d="M2826.161,655.527s-7.643,17.449-9.487,57.561c0,0,57.517,18.041,75.558,0l.1-57.561Z" transform="translate(-2776.348 -443.079)" fill="#001b34"/>
        <path id="Trazado_117003" data-name="Trazado 117003" d="M2946.066,775.731c0,13.461-10.565,24.374-23.6,24.374s-23.6-10.913-23.6-24.374,10.564-24.372,23.6-24.372S2946.066,762.271,2946.066,775.731Z" transform="translate(-2858.834 -505.723)" fill="#001b34"/>
        <path id="Trazado_117004" data-name="Trazado 117004" d="M2859.518,782.149c0,13.461-5.92,24.375-18.952,24.375s-23.6-10.914-23.6-24.375,10.565-24.372,23.6-24.372S2859.518,768.689,2859.518,782.149Z" transform="translate(-2743.145 -509.918)" fill="#1d272b"/>
        <path id="Trazado_117005" data-name="Trazado 117005" d="M2921.644,807.522l-5.028,101.345s8.9,27.852,28.624,11.6l17.452-111.731S2957.231,779.671,2921.644,807.522Z" transform="translate(-2881.74 -534.546)" fill="#1d272b"/>
        <path id="Trazado_117006" data-name="Trazado 117006" d="M2974.309,1107.265s-7.868,16.694-7.266,41.4l3.4,74.817h17.793l14.7-104.61S2989.395,1083.283,2974.309,1107.265Z" transform="translate(-2939.665 -732.943)" fill="#1d272b"/>
        <path id="Trazado_117007" data-name="Trazado 117007" d="M2816.495,820.686l1.453,93.272s23.724,21.146,29.914,5.674c0,0,6.7-71.63,5.413-107.507C2853.275,812.125,2824.747,788.193,2816.495,820.686Z" transform="translate(-2736.838 -539.894)" fill="#1d272b"/>
        <path id="Trazado_117008" data-name="Trazado 117008" d="M2837.254,1109.229s-7.22,11.337-3.675,43.043l6.253,73.43h19.083l8.254-110.8S2854.754,1090.963,2837.254,1109.229Z" transform="translate(-2756.25 -735.165)" fill="#1d272b"/>
        <g id="Grupo_60223" data-name="Grupo 60223" transform="translate(0 116.348)">
          <path id="Trazado_117009" data-name="Trazado 117009" d="M3105.69,618.249c-4.613,46.257-2.72,49.318-2.239,67.869,0,0-2.464,6.527-6.656,2.863s-10.882-65.264-8.775-70.177C3091.154,611.513,3105.69,618.249,3105.69,618.249Z" transform="translate(-3084.818 -533.206)" fill="#f39672"/>
          <path id="Trazado_117010" data-name="Trazado 117010" d="M3068.482,814.25l6.505,6.5,5.528,8.1c-2.736,1.839-5.6-2.693-5.6-2.693a63.709,63.709,0,0,0,5.258,13.44c.84,2.56-1.576,2.369-1.576,2.369-2.7-2.771-6.154-10.944-6.154-10.944a124.04,124.04,0,0,0,4.6,12.627c.309,2.226-1.921,1.594-1.921,1.594-4.59-2.717-6.115-12.629-6.115-12.629.458,3.76,3.423,11.484,3.423,11.484-.533,1.529-1.278,1.007-1.278,1.007-3.968-1.592-5.406-11.139-5.406-11.139l.631,3.56c1.3,4.8-1.676,3.56-1.676,3.56l-1.071-2.4a29,29,0,0,1-2.19-14.027l.021-8.632Z" transform="translate(-3050.53 -663.182)" fill="#f39672"/>
          <g id="Grupo_60222" data-name="Grupo 60222">
            <path id="Trazado_117011" data-name="Trazado 117011" d="M3021.57,416.293l-4.987.58s-19.547,62.229-15.875,76.376,10.883,1.7,13.528.718,33.945-68.359,33.945-68.359Z" transform="translate(-2997.051 -403.045)" fill="#f39672"/>
            <path id="Trazado_117012" data-name="Trazado 117012" d="M3027.267,458.155c-11.628,3.534-31.706-13.956-31.706-13.956l16.644-55.54s2.439-11.423,17.933-10.576c0,0,17.607,1.261,18.177,20.034Z" transform="translate(-2995.561 -378.039)" fill="url(#linear-gradient)"/>
          </g>
        </g>
        <path id="Trazado_117013" data-name="Trazado 117013" d="M2884.327,263.578v26.677h28.212s-6.937-10.574-3.467-26.677Z" transform="translate(-2819.865 -186.87)" fill="#f39672"/>
        <path id="Trazado_117014" data-name="Trazado 117014" d="M2903.065,286.231c2.543,1.637,7.946,5.119,11.028,3.081a2.9,2.9,0,0,0,1.339-2.066,39.085,39.085,0,0,1-1.935-23.667h-24.744V266C2891.841,273.805,2895.8,281.549,2903.065,286.231Z" transform="translate(-2824.306 -186.87)" fill="#db765e"/>
        <g id="Grupo_60224" data-name="Grupo 60224" transform="translate(46.6 22.702)">
          <path id="Trazado_117015" data-name="Trazado 117015" d="M2943.017,162.363s-4.849-1.974-10.555-13.727c0,0-12.125-13.777-4.129-29.918,0,0,4.632-13.6,28.662-10.38C2957,108.339,2959.981,144.434,2943.017,162.363Z" transform="translate(-2925.605 -107.772)" fill="#f3906b"/>
          <path id="Trazado_117016" data-name="Trazado 117016" d="M2905.05,168.758l1.5-4.217s4.048-15.66,4.048-15.663a16.063,16.063,0,0,0,.078-6.591,16.183,16.183,0,0,1-.219-6.78c2.521-11.255-3.358-17.474-3.358-17.474-6.566-10.408-22.128-10.4-22.128-10.4-19.246.943-20.868,19.569-20.868,19.569-3.127,12.386,6.726,22.7,6.746,22.724.787.822.383,4.9.619,6.062,1.016,4.942,5.746,7.983,9.935,10.076,4.606,2.3,10.176,4.746,15.328,5.221C2898.683,171.465,2904.191,171.177,2905.05,168.758Z" transform="translate(-2857.983 -107.635)" fill="#f39672"/>
        </g>
        <path id="Trazado_117017" data-name="Trazado 117017" d="M2892.694,202.594l-5.321,1.753s7.021.791,7.394-1.241c0,0-.863-4.046-1.828-7.884C2892.939,195.223,2893.483,202.333,2892.694,202.594Z" transform="translate(-2802.939 -142.187)" fill="#e47a5d"/>
        <g id="Grupo_60225" data-name="Grupo 60225" transform="translate(73.632 45.466)">
          <path id="Trazado_117018" data-name="Trazado 117018" d="M2921.289,190.015c-.055,1.1-.711,1.963-1.457,1.925s-1.309-.959-1.254-2.062.708-1.964,1.453-1.928S2921.344,188.914,2921.289,190.015Z" transform="translate(-2913.932 -182.899)" fill="#341e13"/>
          <path id="Trazado_117019" data-name="Trazado 117019" d="M2877.577,187.38c-.056,1.1-.708,1.963-1.457,1.924s-1.308-.958-1.253-2.062.706-1.966,1.453-1.928S2877.632,186.276,2877.577,187.38Z" transform="translate(-2855.081 -181.175)" fill="#341e13"/>
          <path id="Trazado_117020" data-name="Trazado 117020" d="M2920.818,178.377c.482.126.634-.522.634-.522a2.282,2.282,0,0,0,.028-1.173,1.137,1.137,0,0,0-.549-.618,16.466,16.466,0,0,0-5.806.463c-1.162.281-3.06,1.04-3.233,2.089-.051.314-.109.856.243.97A47.072,47.072,0,0,1,2920.818,178.377Z" transform="translate(-2911.853 -175.062)" fill="#341e13"/>
          <path id="Trazado_117021" data-name="Trazado 117021" d="M2871.232,175.829a40.846,40.846,0,0,0-6.764.365c-.453.207-.716-.4-.716-.4a2.292,2.292,0,0,1-.23-1.15,1.132,1.132,0,0,1,.433-.7,12.278,12.278,0,0,1,5.029-.529,9.9,9.9,0,0,1,2.489.464A4.845,4.845,0,0,1,2871.232,175.829Z" transform="translate(-2845.066 -173.364)" fill="#341e13"/>
        </g>
        <g id="Grupo_60226" data-name="Grupo 60226" transform="translate(82.868 66.653)">
          <path id="Trazado_117022" data-name="Trazado 117022" d="M2891.285,234.543c.428.019.646.23.472.527,0,0-2.056,3.435-5.364,3.665s-5.843-2.88-5.843-2.88c-.247-.3,0-.58.532-.622C2881.083,235.233,2886.792,234.8,2891.285,234.543Z" transform="translate(-2880.453 -234.543)" fill="#fff"/>
        </g>
        <path id="Trazado_117023" data-name="Trazado 117023" d="M2797.717,431.413c.056,2.743-4.107,31.446-2.358,31.813.011,0,47.62,10.972,73.01,0l.1-29.575,13.475-82.35s4.643-12.378-4.641-18.569L2841.914,316.1l2.391,7.173-5.118,14.552L2816.958,316.1l-42.546,25.143q3.568,11.818,7.118,23.639c4.387,14.525,8.653,29.091,13.17,43.577C2794.7,408.46,2798.442,424.17,2797.717,431.413Z" transform="translate(-2753.766 -221.203)" fill="url(#linear-gradient)"/>
        <path id="Trazado_117024" data-name="Trazado 117024" d="M2915.278,331.051l-.3,13.257-4.884-4.774Z" transform="translate(-2831.448 -230.975)" fill="#a7b3cf"/>
        <path id="Trazado_117025" data-name="Trazado 117025" d="M2880.511,312.8s-1.435-5.554-8.473-10.243l.92,19.139S2876.862,311.907,2880.511,312.8Z" transform="translate(-2783.279 -212.351)" fill="url(#linear-gradient)"/>
        <path id="Trazado_117026" data-name="Trazado 117026" d="M2876.461,340.918l-.641-8.9c-2.148-.528-4.068,2.481-5.635,4.947Z" transform="translate(-2778.556 -231.57)" fill="#a7b3cf"/>
        <g id="Grupo_60227" data-name="Grupo 60227" transform="translate(86.394 119.564)">
          <path id="Trazado_117027" data-name="Trazado 117027" d="M2895.931,389.215a1.892,1.892,0,1,1-1.891-1.891A1.891,1.891,0,0,1,2895.931,389.215Z" transform="translate(-2892.148 -387.324)" fill="#a7b3cf"/>
        </g>
        <g id="Grupo_60228" data-name="Grupo 60228" transform="translate(86.394 153.916)">
          <path id="Trazado_117028" data-name="Trazado 117028" d="M2895.931,488.408a1.892,1.892,0,1,1-1.891-1.892A1.892,1.892,0,0,1,2895.931,488.408Z" transform="translate(-2892.148 -486.516)" fill="#d2eae6"/>
        </g>
        <g id="Grupo_60229" data-name="Grupo 60229" transform="translate(86.394 152.214)">
          <path id="Trazado_117029" data-name="Trazado 117029" d="M2895.931,587.6a1.892,1.892,0,1,1-1.891-1.891A1.892,1.892,0,0,1,2895.931,587.6Z" transform="translate(-2892.148 -549.656)" fill="#a7b3cf"/>
          <path id="Trazado_150602" data-name="Trazado 150602" d="M2895.931,587.6a1.892,1.892,0,1,1-1.891-1.891A1.892,1.892,0,0,1,2895.931,587.6Z" transform="translate(-2892.148 -585.711)" fill="#a7b3cf"/>
        </g>
        <g id="Grupo_60230" data-name="Grupo 60230" transform="translate(86.394 222.621)">
          <path id="Trazado_117030" data-name="Trazado 117030" d="M2895.931,686.793a1.892,1.892,0,1,1-1.891-1.891A1.893,1.893,0,0,1,2895.931,686.793Z" transform="translate(-2892.148 -684.902)" fill="#a7b3cf"/>
        </g>
        <g id="Grupo_60232" data-name="Grupo 60232" transform="translate(40.985 235.912)">
          <path id="Trazado_117031" data-name="Trazado 117031" d="M2889.358,732.108s-24.319,11.391-74.083-.253c-.819-.192-.474-2.317-.474-2.317l.474-4.791c.215-1.535,1.073-1.462,1.073-1.462s47.619,10.973,73.01,0c0,0,1.025-.178,1.068,1.357v5.973A1.579,1.579,0,0,1,2889.358,732.108Z" transform="translate(-2814.729 -723.279)" fill="#3d1a0c"/>
          <g id="Grupo_60231" data-name="Grupo 60231" transform="translate(37.556 4.093)">
            <path id="Trazado_117032" data-name="Trazado 117032" d="M2901.513,743.449a1.36,1.36,0,0,1-1.342,1.375h-9.686a1.358,1.358,0,0,1-1.341-1.375v-6.977a1.358,1.358,0,0,1,1.341-1.374h9.686a1.359,1.359,0,0,1,1.342,1.374Z" transform="translate(-2889.142 -735.098)" fill="none" stroke="#bababa" stroke-miterlimit="10" stroke-width="4.837"/>
            <line id="Línea_211" data-name="Línea 211" x2="5.127" transform="translate(0 4.422)" fill="none" stroke="#bababa" stroke-miterlimit="10" stroke-width="4.837"/>
          </g>
        </g>
        <path id="Trazado_117033" data-name="Trazado 117033" d="M2934,307.347s-15.612-6.062-19.287-12.1l-4.614,8.792,16.459,15.783L2934,307.646" transform="translate(-2850.388 -207.57)" fill="url(#linear-gradient)"/>
        <path id="Trazado_117034" data-name="Trazado 117034" d="M2909.749,102.022s8.718-7.646,4.681-14c0,0-6.943-7.7-19.822-5.785s-12.716-1.666-22.789,3.465-11.851,4.113-14.107,13.9c-2.132,9.247-.854,12.687.746,18.235s3.546,16.932,14.255,23.379c0,0-7.278-16.325,4.78-12.576l1.314-.106s-2.82-8.4,2.52-12.7c-2.654-3.254-.713-9.926-.209-10.883,2.527-4.824,10.182-2.968,14.608-4.333C2899.148,99.555,2907.679,97.9,2909.749,102.022Z" transform="translate(-2813.438 -68.13)" fill="#341e13"/>
        <g id="Grupo_60241" data-name="Grupo 60241" transform="translate(53.372 55.155)">
          <g id="Grupo_60237" data-name="Grupo 60237">
            <g id="Grupo_60236" data-name="Grupo 60236">
              <g id="Grupo_60235" data-name="Grupo 60235">
                <g id="Grupo_60234" data-name="Grupo 60234">
                  <g id="Grupo_60233" data-name="Grupo 60233">
                    <path id="Trazado_117035" data-name="Trazado 117035" d="M2975,212.931a4.283,4.283,0,0,1-2.689,1.031c-3.066.168-5.809-2.521-6.126-6.007s1.912-6.438,4.977-6.606a5.406,5.406,0,0,1,3.916,1.468c1.579,1.438,1.824,4.272,1.613,6.256A5.862,5.862,0,0,1,2975,212.931Z" transform="translate(-2966.154 -201.343)" fill="#f39672"/>
                  </g>
                </g>
              </g>
            </g>
          </g>
          <g id="Grupo_60240" data-name="Grupo 60240" transform="translate(2.752 2.033)">
            <g id="Grupo_60238" data-name="Grupo 60238" transform="translate(0)">
              <path id="Trazado_117036" data-name="Trazado 117036" d="M2981.681,208.348c-.309-1.82-3.886.188-3.257,1.18a5.692,5.692,0,0,0,1.585,1.341,2.71,2.71,0,0,1,1.277,1.921c.02.106.061.422-.04.5-.458.367-2.148-1.315-2.522-1.665a3.067,3.067,0,0,1-.647-2.9,1.84,1.84,0,0,1,1.938-1.517c.831-.01,1.685-.01,1.706,1.028,0,.022-.024.2-.041.1Z" transform="translate(-2977.963 -207.214)" fill="#e47a5d"/>
            </g>
            <g id="Grupo_60239" data-name="Grupo 60239" transform="translate(0.748 2.909)">
              <path id="Trazado_117037" data-name="Trazado 117037" d="M2977.045,215.821c.358-.414.747-.121,1.162.138a1.738,1.738,0,0,1,.74,1.034,4.3,4.3,0,0,1-.248,3.086,2.316,2.316,0,0,1-1.917,1.2c-1.117.043-1.516-.917-1.623-1.859-.031-.252-.095-.85.145-1.022.255-.182.473.215.662.38a1.557,1.557,0,0,0,.969.289,2.015,2.015,0,0,0,1.61-.854,1.078,1.078,0,0,0,.148-.3c.04.617.019.757-.069.421a1.762,1.762,0,0,0-.242-.419c-.286-.41-.746-.673-1.062-1.059-.151-.177-.454-.824-.275-1.035Z" transform="translate(-2975.128 -215.614)" fill="#e47a5d"/>
            </g>
          </g>
        </g>
        <path id="Trazado_117038" data-name="Trazado 117038" d="M2866.417,225.66l1.712-9.062,1.312-.106a10.2,10.2,0,0,0,8.71,6.916s3.069.412,4.379.563c.172.02,2.024-1.878,2.266-2.04a14.793,14.793,0,0,1,7.027-2.05c2.5-.237,5.163-.526,7.574.344.321.115,3.411,1.614,3.5,1.177,0,0-2.988,14.382-5.2,18.515,0,0-.94,3.17-8.319,2.528,0,0-12.66-.9-22.634-9.876C2865.1,231.369,2866.417,225.66,2866.417,225.66Zm32.985-1.192c-.315-1.485-.392-2.423-1.672-2.635a25.946,25.946,0,0,0-7.783.421c-2.024.293-4.538.6-5.327,2.833a8.637,8.637,0,0,0,.945,6.564c1.789,2.979,7.433,4.428,10.245,2.431C2898.2,232.381,2900,227.267,2899.4,224.468Z" transform="translate(-2803.817 -156.09)" fill="#341e13"/>
        <path id="Trazado_117039" data-name="Trazado 117039" d="M2888.077,250.595c-.567.809.81,1.625,1.333,1.953,1.038.651,1.2.6,2.186-.3.644-.593,2.331-2.07.774-2.516C2891.883,249.588,2888.327,250.24,2888.077,250.595Z" transform="translate(-2801.363 -177.804)" fill="#341e13"/>
        <path id="Trazado_117040" data-name="Trazado 117040" d="M2720.273,859.461s5.948-8.547,13.994-8.953c0,0,10.272,1.254,7.719,5.69C2741.986,856.2,2738.767,865.76,2720.273,859.461Z" transform="translate(-2591.624 -570.535)" fill="#e28262"/>
        <g id="Grupo_60246" data-name="Grupo 60246" transform="translate(42.376)">
          <path id="Trazado_117041" data-name="Trazado 117041" d="M2903.116,79.474a26.554,26.554,0,0,0,.276-3.758c0-15.879-13.975-28.753-31.209-28.753s-31.208,12.874-31.208,28.753a26.7,26.7,0,0,0,.275,3.758s.065,12.4,42.692,11.277C2883.943,90.751,2915.828,88.583,2903.116,79.474Z" transform="translate(-2840.976 -45.273)" fill="#fff"/>
          <path id="Trazado_117042" data-name="Trazado 117042" d="M2909.482,79.474a26.277,26.277,0,0,0-.617-10.586,6.714,6.714,0,0,1-2.566,5,10.538,10.538,0,0,1-6.434,1.88c-2.1-.091-4.351-.664-5.545-2.221a12.113,12.113,0,0,1-1.971-6.105A114.758,114.758,0,0,0,2888.59,51a20.78,20.78,0,0,1-1.576-2.957,33.7,33.7,0,0,0-13.718-.661,21.622,21.622,0,0,1,4.184,8.8,58.86,58.86,0,0,1,1.349,8.727c.235,2.608.67,5.324-.147,7.9a6.784,6.784,0,0,1-5.428,4.8,17.953,17.953,0,0,1-9.513-1.012c-3-1.144-5.483-2.834-6.748-5.423a11.526,11.526,0,0,1-.486-8.812c1.655-4.994,5.392-9.5,9.9-13.131-11.2,4.362-19.068,14.584-19.068,26.5a26.7,26.7,0,0,0,.275,3.758s.051,9.47,28.5,11.109a3.188,3.188,0,0,1-1.176-1.726c-1.161-4.839,6.977-5.088,10.758-5.334,3.978-.257,7.953-.863,11.91-1.29a77.711,77.711,0,0,0,12.663-2.151C2910.027,79.882,2909.77,79.681,2909.482,79.474Z" transform="translate(-2847.342 -45.273)" fill="#e8e8e8"/>
          <g id="Grupo_60242" data-name="Grupo 60242" transform="translate(8.216 34.202)">
            <path id="Trazado_117043" data-name="Trazado 117043" d="M2849.62,142.282s.816.239,2.276.526c.73.135,1.612.356,2.637.507,1.021.168,2.178.357,3.442.533,1.26.207,2.64.285,4.1.448,1.459.115,2.992.367,4.588.363l4.922.146c1.677.092,3.379.014,5.082-.038,1.7-.08,3.4-.158,5.078-.236s3.31-.345,4.9-.5c1.587-.172,3.117-.381,4.567-.572a37.726,37.726,0,0,0,4.054-.73c2.5-.52,4.567-1.028,6.016-1.348l2.268-.544-2.318.308c-1.468.222-3.574.487-6.077.9a36.993,36.993,0,0,1-4.061.524c-1.451.116-2.979.233-4.555.4-1.579.126-3.2.377-4.865.413l-5.04.153c-1.688.079-3.375.184-5.039.121l-4.885-.064c-1.587.008-3.111-.143-4.564-.188-1.452-.089-2.831-.1-4.091-.241s-2.424-.218-3.453-.3-1.919-.214-2.658-.291C2850.46,142.415,2849.62,142.282,2849.62,142.282Z" transform="translate(-2849.62 -140.84)" fill="#d2d1d1"/>
          </g>
          <path id="Trazado_117044" data-name="Trazado 117044" d="M2903.116,79.474a26.554,26.554,0,0,0,.276-3.758c0-15.879-13.975-28.753-31.209-28.753s-31.208,12.874-31.208,28.753a26.7,26.7,0,0,0,.275,3.758s.065,12.4,42.692,11.277C2883.943,90.751,2915.828,88.583,2903.116,79.474Z" transform="translate(-2840.976 -45.273)" fill="none" stroke="#bababa" stroke-miterlimit="10" stroke-width="1"/>
          <g id="Grupo_60245" data-name="Grupo 60245" transform="translate(24.243)">
            <path id="Trazado_117045" data-name="Trazado 117045" d="M2918.542,78.969c4.069-22.6-4.3-34.476-4.3-34.476-1.133-1.988-5.4-2.411-5.4-2.411h-4.966c-6.522.187-4.409,3.115-4.409,3.115s9.377,10.495,9.135,34.492Z" transform="translate(-2898.912 -42.082)" fill="#e4e3e3"/>
            <g id="Grupo_60243" data-name="Grupo 60243" transform="translate(0 2.411)">
              <path id="Trazado_117046" data-name="Trazado 117046" d="M2929.381,49.043a44.2,44.2,0,0,1,2.956,5.01c.426.757.8,1.626,1.239,2.516.376.923.826,1.87,1.207,2.884.4,1.005.787,2.056,1.138,3.137.394,1.067.683,2.184.994,3.3.35,1.1.537,2.243.811,3.345.241,1.11.4,2.217.595,3.283.178,1.069.257,2.114.4,3.1s.155,1.929.212,2.8c.021.87.135,1.669.117,2.377,0,.71,0,1.33,0,1.838.018,1.025.027,1.611.027,1.611s.077-.58.212-1.6c.061-.51.134-1.129.217-1.841a21.465,21.465,0,0,0,.121-2.4c.008-.882.073-1.841-.009-2.85-.066-1.009-.061-2.086-.216-3.181s-.257-2.238-.5-3.375c-.267-1.132-.445-2.3-.79-3.435s-.644-2.274-1.06-3.362c-.364-1.106-.821-2.155-1.266-3.168-.411-1.028-.955-1.956-1.4-2.863-.512-.874-.954-1.723-1.441-2.461a32.922,32.922,0,0,0-2.483-3.462A16.1,16.1,0,0,0,2929.381,49.043Z" transform="translate(-2929.381 -49.043)" fill="#d2d1d1"/>
            </g>
            <g id="Grupo_60244" data-name="Grupo 60244" transform="translate(15.332 2.411)">
              <path id="Trazado_117047" data-name="Trazado 117047" d="M2897.546,49.043s.268.489.673,1.366c.195.443.438.976.673,1.607.255.62.475,1.348.769,2.116.236.791.538,1.63.754,2.55.254.908.455,1.882.678,2.884.245,1,.357,2.057.573,3.113.136,1.069.3,2.154.4,3.244.076,1.092.215,2.182.242,3.262s.1,2.142.1,3.172c-.025,1.03-.018,2.027-.015,2.974-.047.946-.094,1.84-.135,2.666-.061,1.656-.221,3.03-.295,4s-.11,1.526-.11,1.526.125-.541.347-1.488a39.973,39.973,0,0,0,.75-3.965c.107-.831.223-1.73.342-2.681.073-.956.155-1.967.207-3.014s.02-2.133.007-3.235-.138-2.219-.2-3.336c-.119-1.114-.295-2.223-.451-3.315-.223-1.082-.409-2.153-.691-3.167a28.807,28.807,0,0,0-.878-2.9c-.291-.917-.666-1.752-.965-2.534a28.739,28.739,0,0,0-1.879-3.589A13.459,13.459,0,0,0,2897.546,49.043Z" transform="translate(-2897.546 -49.043)" fill="#d2d1d1"/>
            </g>
          </g>
        </g>
        <path id="Trazado_117048" data-name="Trazado 117048" d="M2963.356,332.016s21.127,35.22,21.127,60.564a1054.865,1054.865,0,0,1-2.343,105.8s-13.8.639-36.3-4.3l5.623-47.659s.291-27.278-7.957-46.918l-13.372-47.858Z" transform="translate(-2909.49 -231.606)" fill="#db8804"/>
        <path id="Trazado_117049" data-name="Trazado 117049" d="M2776.806,331.051l24.669,11.363s6.806,3.4,5.506,12.587l-13.961,90.706,2.678,52.073s-16.856,1.332-21.761.613c2.449-101.237,2.58-101.232,3.541-121.8C2777.477,376.589,2778.522,352.2,2776.806,331.051Z" transform="translate(-2675.429 -230.975)" fill="#db8804"/>
        <g id="Grupo_60247" data-name="Grupo 60247" transform="translate(31.335 153.916)">
          <path id="Trazado_117050" data-name="Trazado 117050" d="M2862.624,535.555c.133,7.169.24,17.861.1,30.89h22.58c.372-14.371.642-23.849.87-30.89Z" transform="translate(-2817.49 -518.572)" fill="none"/>
          <path id="Trazado_117051" data-name="Trazado 117051" d="M2975.495,493.573a55.534,55.534,0,0,0-.488-7.057h-44.394l3.906,13.984c.414.981.8,1.985,1.167,3h40.062C2975.631,497.161,2975.495,493.573,2975.495,493.573Z" transform="translate(-2930.612 -486.516)" fill="#f7b242"/>
          <path id="Trazado_117052" data-name="Trazado 117052" d="M2930.334,624.75c.656,7.67.6,13.029.6,13.029l-.466,3.953h33.515c.159-5.993.26-11.681.319-16.982Z" transform="translate(-2919.07 -576.877)" fill="#f7b242"/>
          <path id="Trazado_117053" data-name="Trazado 117053" d="M2811.034,503.5l2.614-16.983h-25.291c-.226,4.9-.42,9.612-.658,16.983Z" transform="translate(-2719.018 -486.516)" fill="#f7b242"/>
          <path id="Trazado_117054" data-name="Trazado 117054" d="M2828.857,624.75h-19.45c-.131,5.024-.275,10.652-.432,16.982h18.1l-.208-4.04Z" transform="translate(-2741.597 -576.877)" fill="#f7b242"/>
        </g>
      </g>
    </g>
    <g id="Grupo_91610" data-name="Grupo 91610" transform="translate(477.797 891.313)">
      <g id="Grupo_90349" data-name="Grupo 90349" transform="translate(0.96 100.002)" opacity="0.18" style="mix-blend-mode: multiply;isolation: isolate">
        <path id="Trazado_149749" data-name="Trazado 149749" d="M1945.492,491.81c-3.506-.88-7.259.141-10.69-1.144a5.909,5.909,0,0,1-2.389-1.6,10.9,10.9,0,0,1-1.578-2.953c-.6-1.374-1.585-2.975-3.08-3.394.04-.188.079-.376.114-.56-4-.9-7.563-3.1-11.356-4.652a36.553,36.553,0,0,0-19.232-2.286,14.628,14.628,0,0,0-4.545,1.318.247.247,0,0,0-.139.006c-2.971,1.043-5.824-.78-8.421-1.992a10.58,10.58,0,0,0-4.128-1.146,5.335,5.335,0,0,0-3.69,1.186,5.2,5.2,0,0,0-1.636,3.03,6.008,6.008,0,0,0,.483,3.54,8.063,8.063,0,0,0,2.414,2.957,13.281,13.281,0,0,0,3.806,1.938c2.567.9,5.47,1.511,7.422,3.56a6.115,6.115,0,0,1,.619.764.261.261,0,0,0,.076.074c-.073.137-.135.278-.214.412,3.412.51,6.008,2.268,9.227,3.506,7.367,2.833,16.093.369,23.236,3.726.006-.016.013-.033.018-.049a24.227,24.227,0,0,0,5.554.952,52.59,52.59,0,0,0,6.622.131,117.3,117.3,0,0,0,13.469-1.46,2.493,2.493,0,0,0,2.1-1.15,2.376,2.376,0,0,0-.1-1.949A5.649,5.649,0,0,0,1945.492,491.81Zm-62.221-5.7a22.8,22.8,0,0,1-4.133-1.619,8.47,8.47,0,0,1-2.834-2.483,5.891,5.891,0,0,1-1.139-3.372,4.972,4.972,0,0,1,1.082-3.144c1.857-2.229,5-1.519,7.293-.475,2.612,1.186,5.276,2.973,8.289,2.41a3.173,3.173,0,0,0,.317-.087c0,.161,0,.321-.008.483-.021.772-.069,1.553-.142,2.336-.009.106-.019.213-.03.319a45.5,45.5,0,0,1-.866,5.329c-.021.1-.046.21-.07.313-.028.123-.055.245-.085.366a18.343,18.343,0,0,1-1.1,3.374c-.015.033-.035.063-.05.1C1888.251,487.837,1885.686,486.895,1883.271,486.114Zm64.189,10.918c-4.141.552-8.284,1.106-12.458,1.328a56.7,56.7,0,0,1-7-.026c-1.189-.084-2.375-.2-3.553-.383-.819-.125-1.631-.286-2.449-.4.036-.1.07-.193.109-.289.359-.9.777-1.8,1.21-2.684.125-.257.253-.515.38-.77.448-.9.9-1.795,1.312-2.681.361-.776.7-1.6,1.024-2.461.074-.2.149-.4.22-.606a42.514,42.514,0,0,0,1.392-4.85c1.477.365,2.351,2.192,2.872,3.487a7.552,7.552,0,0,0,2.767,3.9c2.814,1.786,6.327,1.263,9.48,1.407a9.215,9.215,0,0,1,5.021,1.4,3.16,3.16,0,0,1,1.357,2C1949.315,496.525,1948.4,496.907,1947.46,497.033Z" transform="translate(-1874.636 -460.405)" fill="#757575"/>
        <path id="Trazado_149750" data-name="Trazado 149750" d="M2115.724,464.418c1.98-.306,3.934-.709,5.931-.925q2.9-.314,5.823-.36a63.512,63.512,0,0,1,12.636,1.073c.122.144.256.288.366.432,3.1-.825,6.979-.529,10.743-.8,8.616-.613,12.358-5.263,21.387-5.447-.093-.087-.181-.176-.272-.263a1.912,1.912,0,0,0,1.436-1.331,10.69,10.69,0,0,1,.526-1.542,3.152,3.152,0,0,1,1.31-1.266,3.035,3.035,0,0,1,1.687-.32c.638.062,1.253.279,1.9.316a1.936,1.936,0,0,0,2.072-1.207c.229-.923-.576-1.592-1.321-1.938a30.955,30.955,0,0,0-3.553-1.24q-3.987-1.287-8.061-2.27-2.218-.533-4.456-.974c-.761-.151-1.524-.3-2.29-.421a13.441,13.441,0,0,0-2.016-.259l-.14-.108c-3.965.765-9.058.5-13.6.754-7.236.4-13.115,2.17-16.816,5.046a4.264,4.264,0,0,0-1.977,2.868l.354.219a29.958,29.958,0,0,1-7.924,1.709c-2.852.391-6.4,1.016-8.115,3.609a2.917,2.917,0,0,0,.108,3.684C2112.554,464.612,2114.264,464.645,2115.724,464.418Zm47.192-17.732q1.827.358,3.64.776,3.536.815,7.02,1.846,1.786.528,3.552,1.114.839.279,1.674.57a5.169,5.169,0,0,1,1.445.658.93.93,0,0,1,.406,1.2,1.54,1.54,0,0,1-1.372.64c-1.055-.014-2-.49-3.069-.251a3.772,3.772,0,0,0-2.321,1.62c-.468.73-.662,3.136-1.993,2.614a.227.227,0,0,0-.21.017c-.649-.657-1.265-1.323-1.86-1.993-.192-.216-.384-.434-.573-.649-.668-.761-1.325-1.517-2-2.256-.593-.646-1.257-1.322-1.972-2.01-.167-.16-.337-.322-.509-.483-1.421-1.333-3-2.687-4.581-3.928.3.061.6.109.9.166Q2162,446.507,2162.916,446.686Zm-51.289,13.9c1.34-2.772,5.149-3.365,7.866-3.759,2.818-.41,5.94-.573,8.456-2.028.046.028.091.055.135.084q1.262.791,2.489,1.623c.112.074.224.15.333.226,1.862,1.273,3.645,2.593,5.274,3.888.1.077.2.157.3.234.115.093.23.184.343.276a30.466,30.466,0,0,1,2.721,2.434,64.656,64.656,0,0,0-20.568-.234c-.925.139-1.843.307-2.762.476a7.013,7.013,0,0,1-2.784.111A2.321,2.321,0,0,1,2111.627,460.588Z" transform="translate(-2000.458 -445.57)" fill="#757575"/>
        <path id="Trazado_149751" data-name="Trazado 149751" d="M2121.482,528.885c-1.481-.718-3.244-.431-4.817-.778a11.379,11.379,0,0,1-4.7-2.308,12.592,12.592,0,0,1-3.214-3.947,13.97,13.97,0,0,1-1.223-4.1l.3-.183a4.743,4.743,0,0,0-2.2-3.191c-4.118-3.2-10.658-5.163-18.708-5.614-5.05-.283-10.716.012-15.128-.839l-.09.071a.2.2,0,0,0-.229-.142,21.393,21.393,0,0,0-4.662,1.463c-1.525.586-3.026,1.23-4.56,1.8a32.013,32.013,0,0,1-4.37,1.311,7.283,7.283,0,0,0-6.65-2.455c-.925.157-2.583.715-2.135,1.984.414,1.171,2.355,1.349,3.368,1.475a16.432,16.432,0,0,0,5.2-.255c.113.153.23.3.329.466a7.858,7.858,0,0,1,.334,7.219.327.327,0,0,0-.026.167c-.134.137-.26.275-.4.411q-.382.381-.78.755c10.046.206,14.209,5.378,23.794,6.06,4.187.3,8.5-.03,11.952.887.122-.16.251-.32.387-.479,1.734,1.136,3.939.993,5.9.616a26.344,26.344,0,0,1,3.927-.644,8.539,8.539,0,0,1,3.507.647c3.833,1.528,6.851,5.009,11.16,5.313a4.991,4.991,0,0,0,4.606-1.927A2.494,2.494,0,0,0,2121.482,528.885Zm-67.523-16.036a12.81,12.81,0,0,1-2.279-.231,4.17,4.17,0,0,1-1.68-.557c-.728-.537-.122-1.094.5-1.314a5.376,5.376,0,0,1,1.712-.294,6.778,6.778,0,0,1,4.947,2.121A16.9,16.9,0,0,1,2053.958,512.849Zm4.365.188a30.539,30.539,0,0,0,3.766-1.136c1.591-.585,3.155-1.245,4.722-1.891,1.456-.6,2.963-1.07,4.422-1.652l-.161.124c-1.8,1.41-3.607,2.957-5.228,4.477-.193.179-.382.36-.566.538-.8.765-1.535,1.516-2.194,2.236-.754.822-1.486,1.664-2.229,2.51-.211.24-.423.483-.637.723-.3.333-.6.665-.905,1A8.337,8.337,0,0,0,2058.323,513.037Zm63.041,19.888c-1.472,1.427-3.751,1.283-5.567.7-3.84-1.224-6.687-4.562-10.684-5.4-2.1-.439-4.141.12-6.2.51a7.407,7.407,0,0,1-5.269-.515c.012-.014.023-.027.036-.041a31.968,31.968,0,0,1,3.263-2.948c.125-.1.253-.2.382-.307.107-.086.218-.175.329-.261,1.813-1.44,3.8-2.909,5.868-4.326.122-.083.246-.168.37-.25.908-.615,1.834-1.219,2.769-1.806.113-.071.228-.14.34-.211a10.115,10.115,0,0,0,1.112,3.988,12.619,12.619,0,0,0,3.356,4.229,12.071,12.071,0,0,0,4.225,2.262,10.974,10.974,0,0,0,2.375.417,14.392,14.392,0,0,1,2.453.243,2.122,2.122,0,0,1,1.737,1.491A2.533,2.533,0,0,1,2121.364,532.925Z" transform="translate(-1967.561 -478.76)" fill="#757575"/>
        <path id="Trazado_149752" data-name="Trazado 149752" d="M2249.17,498.709a.216.216,0,0,0-.008-.032v0c-.139-.684-1-.927-1.7-1a39.2,39.2,0,0,0-12.392.654,5.658,5.658,0,0,1-4.092-.159c.208-.008.414-.024.622-.034l-.009.006c.152-.008.3-.021.455-.03.319-.019.638-.038.957-.063.234-.018.468-.041.7-.063.316-.029.633-.058.948-.093.241-.027.481-.059.721-.089.307-.039.614-.077.919-.121.251-.036.5-.078.754-.119.294-.048.589-.093.883-.146.266-.048.531-.1.8-.153s.553-.106.828-.164c.291-.062.582-.131.872-.2.249-.057.5-.112.746-.173.335-.083.669-.175,1-.265.2-.054.4-.1.6-.161q.8-.226,1.594-.479a4.4,4.4,0,0,0,1.058-.45,1.958,1.958,0,0,0,.3-.236,1.414,1.414,0,0,0,.383-.663.976.976,0,0,0-.084-.729.957.957,0,0,0-.243-.269c-.006,0-.009-.013-.015-.017l0,0a2,2,0,0,0-.763-.332,11.892,11.892,0,0,0-5.27.493,44.739,44.739,0,0,1-9.706,1.079c.27-.117.545-.218.82-.322.185-.069.37-.139.557-.2s.405-.129.609-.19c.177-.053.352-.108.53-.155.24-.064.483-.117.725-.171.145-.032.289-.069.435-.1.392-.076.786-.141,1.183-.191a9.209,9.209,0,0,0,3.886-.92,1.713,1.713,0,0,0,.689-.725.952.952,0,0,0,.069-.246,1.019,1.019,0,0,0,0-.116.908.908,0,0,0,0-.139.809.809,0,0,0-.051-.177,1.739,1.739,0,0,0-.164-.264h0a1.147,1.147,0,0,0-.7-.243,6.085,6.085,0,0,0-1.3.057l.013,0c-.038,0-.075.013-.113.018-.246.035-.489.074-.731.116h0c-.435.076-.883.194-1.334.31a7.488,7.488,0,0,1-2.251.328c-5.664-.343-11.191,1.362-16.379,3.663-1.433.635-3.091.044-4.654.152-.062.058-.135.136-.211.222l-.064.076c-.06.071-.122.148-.186.23-.02.027-.04.05-.06.078-.083.11-.166.225-.248.343l-.022.034q-.108.159-.2.316l-.029.046h0a3.15,3.15,0,0,0-.308.634,23.2,23.2,0,0,0-1.2,5.908,5.783,5.783,0,0,0,.062,1l0,0c0,.021.009.041.012.062q.04.242.1.475c.009.035.017.07.028.1a4.067,4.067,0,0,0,.192.523c.012.026.027.05.039.076a3.31,3.31,0,0,0,.23.4c.027.041.054.081.082.12a2.961,2.961,0,0,0,.358.417c.942-.21,1.837-.595,2.769-.848a4.7,4.7,0,0,1,1.454-.151,4.966,4.966,0,0,1,1.438.284,19.864,19.864,0,0,0,6.484,3.29q.37.09.743.156c1.246.226,2.52.292,3.78.448.5.063,1,.14,1.5.248a17.184,17.184,0,0,1,3.2,1.08c.519.226,1.031.468,1.541.717s1.018.5,1.525.751a2.656,2.656,0,0,0,.352.15.856.856,0,0,0,.37.043h0a.666.666,0,0,0,.284-.111.739.739,0,0,0,.077-.068.9.9,0,0,0,.142-.147,1,1,0,0,0,.067-.107,1.5,1.5,0,0,0,.088-.176c.017-.042.031-.082.044-.126.008-.023.019-.045.025-.069l-.008,0a1.636,1.636,0,0,0,.047-.2c.207-1.72-1.375-3.129-2.95-3.851s-3.375-1.158-4.532-2.449c.149-.026.339-.066.535-.1.11-.021.22-.038.33-.054.049-.007.1-.014.147-.02a1.768,1.768,0,0,1,.4-.007l5.261.714a55.2,55.2,0,0,0,9.419.734c.084,0,.171-.008.258-.014a3.261,3.261,0,0,0,.769-.141,1.277,1.277,0,0,0,.762-.583.984.984,0,0,0,.1-.3c0-.026.009-.051.011-.077a1.174,1.174,0,0,0,0-.294s0-.008,0-.013a1.43,1.43,0,0,0-.091-.306c-.009-.023-.02-.045-.03-.067a1.641,1.641,0,0,0-.155-.268l-.007-.012h0a1.628,1.628,0,0,0-.357-.358,3.825,3.825,0,0,0-1.838-.543c-4.438-.49-8.933-.443-13.137-1.949.273-.063.547-.109.822-.149.181-.027.362-.046.543-.064.122-.013.245-.027.368-.036.187-.014.374-.023.561-.031.118,0,.236-.01.354-.012.195,0,.389-.007.584-.006l.326,0c.212,0,.424.007.636.014l.222.007c.452.016.9.036,1.356.053l.065,0c.242.009.483.016.725.022l.279.007c.316.005.631.007.946,0,1.179-.025,2.354-.154,3.527-.283l3.269-.36a6.578,6.578,0,0,0,2.505-.618,1.824,1.824,0,0,0,.741-.722A.926.926,0,0,0,2249.17,498.709Z" transform="translate(-2052.985 -469.531)" fill="#757575"/>
      </g>
      <g id="Grupo_90350" data-name="Grupo 90350" transform="translate(71.148 0)">
        <path id="Trazado_149753" data-name="Trazado 149753" d="M2047.632,364.039c-5.216-1.171-10.586-3.4-14.105-8.426a22.927,22.927,0,0,1-3.1-17.656c1.029-4.41,3.348-8.387,3.513-12.982.1-2.692-.568-5.343-.606-8.039-.134-9.323,6.753-15.9,11.1-23.417a44.541,44.541,0,0,0,5.547-18.018c.247-2.654,2.757-3.791,4.247-1.9a31.158,31.158,0,0,0,6.963,6.4c4.862,3.3,10.193,5.294,15.317,7.872a84.114,84.114,0,0,1,12.059,7.419c6.031,4.439,12.1,10.617,13.355,19.326.457,3.162.249,6.534,1.3,9.46,2.457,6.869,10.266,7.787,13.674,13.966,3.259,5.908,1.032,14.63-3.365,19.2s-10.274,5.969-15.9,6.939c-9,1.553-18.07,2.387-27.136,3.07C2062.709,367.835,2055.319,365.763,2047.632,364.039Z" transform="translate(-2027.535 -253.429)" fill="#2e3c42"/>
        <path id="Trazado_149754" data-name="Trazado 149754" d="M2109.45,361.388c0,3.127,2.463,3.909,3.694,5.473a4.37,4.37,0,0,1,0,3.91c-1.231,1.564-3.694,1.564-4.309,2.346-1.848,3.127-2.463,7.819-4.925,7.819-5.338.678-12.989,1.944-15.732-4.357A5.87,5.87,0,0,0,2082.59,373a3.069,3.069,0,0,0-2.688,1.676c-7.388,15.639-22.162,11.729-32.628,5.474-6.156-3.128-8.619-10.947-6.772-19.548,1.231-4.692,3.693-7.82,7.387-6.256-8.338-6.619-9.175-20.52-5.128-31.273-4.239,6.453-9.544,12.53-9.427,20.724.038,2.7.7,5.346.606,8.039-.165,4.595-2.484,8.572-3.513,12.982a22.927,22.927,0,0,0,3.1,17.656c3.52,5.027,8.89,7.256,14.105,8.426,7.687,1.725,15.078,3.8,22.857,3.209,9.066-.683,18.133-1.518,27.136-3.07,5.628-.97,11.5-2.373,15.9-6.939s6.623-13.288,3.365-19.2a11.459,11.459,0,0,0-.633-1.012C2114.121,364.344,2111.787,363.67,2109.45,361.388Z" transform="translate(-2027.535 -280.294)" fill="#1d272b" opacity="0.72"/>
        <path id="Trazado_149755" data-name="Trazado 149755" d="M2044.45,265.894a13.715,13.715,0,0,0-.926-9.886c-1.655-2.957-5.12-5.018-8.448-4.38a41.73,41.73,0,0,0-4.677,1.718c-1.585.507-3.53.527-4.686-.67-1.4-1.455-.86-4.012.572-5.438s3.462-2.032,5.381-2.669,3.926-1.438,5.1-3.082c1.221-1.7,1.291-3.943,1.843-5.966s2.078-4.167,4.171-4.028c2.03.134,3.385,2.342,5.385,2.706,1.526.277,3-.576,4.384-1.271s3.112-1.237,4.425-.41a3.405,3.405,0,0,1,1.254,3.526,9.6,9.6,0,0,1-1.77,3.529c-1.519,2.183-3.134,4.424-3.616,7.038-.678,3.671,1.058,7.456,3.644,10.149s5.939,4.494,9.233,6.251c-.277-.148-6.451,4.561-7.224,5.008a54.745,54.745,0,0,1-8.3,3.921c-1.477.551-6.6,3.015-8.032,1.844C2040.975,272.814,2044.06,267.491,2044.45,265.894Z" transform="translate(-2024.896 -231.486)" fill="#2e3c42"/>
        <path id="Trazado_149756" data-name="Trazado 149756" d="M2051.635,257.451c-4.19-4.788.785-9.574,6.5-11.907a11.311,11.311,0,0,0,1.291-2.294c-5.346-.009-11.087,4.357-14.833,8.728a6.757,6.757,0,0,1-2.346-4.692,26.625,26.625,0,0,0-.781,7.82c-4.376-5.106-12.151-1.366-13.812,4.235a5.013,5.013,0,0,0,4.213.274,41.729,41.729,0,0,1,4.677-1.718c3.329-.638,6.793,1.423,8.449,4.38a13.716,13.716,0,0,1,.926,9.885c-.2.816-1.1,2.6-1.777,4.286a19.314,19.314,0,0,0,5.925-18.216,30.168,30.168,0,0,0,5.335,3.018A21.212,21.212,0,0,1,2051.635,257.451Z" transform="translate(-2026.368 -237.755)" fill="#263238" opacity="0.72"/>
        <path id="Trazado_149757" data-name="Trazado 149757" d="M2076.768,279.393c-.015-.014-.028-.031-.042-.045a2.941,2.941,0,0,1-.5.2q-1.844.638-3.69,1.27c-1.806.621-3.885,1.388-5.8.934a10.281,10.281,0,0,0,4.669-2.189,12.865,12.865,0,0,0,3.985-4.459.274.274,0,0,0-.372-.372c-3.154,1.765-6.276,3.924-9.952,4.324a.174.174,0,0,0,0,.348,10.8,10.8,0,0,0,5.077-1.391c1.47-.725,2.9-1.543,4.327-2.35a13.091,13.091,0,0,1-3.154,3.323,9.653,9.653,0,0,1-5.744,2.353c-.25.009-.383.371-.135.5,2.17,1.1,4.622.369,6.781-.376q1.98-.682,3.959-1.371a3.179,3.179,0,0,0,.938-.41A3.8,3.8,0,0,1,2076.768,279.393Z" transform="translate(-2046.215 -254.509)" fill="#fff"/>
      </g>
      <g id="Grupo_90351" data-name="Grupo 90351" transform="translate(103.18 89.033)">
        <path id="Trazado_149758" data-name="Trazado 149758" d="M2095.538,438.41h0a5.5,5.5,0,0,1-.888-7.7l5.193-6.548a5.5,5.5,0,0,1,7.7-.889h0a5.5,5.5,0,0,1,.889,7.7l-5.194,6.548A5.5,5.5,0,0,1,2095.538,438.41Z" transform="translate(-2093.469 -422.089)" fill="#cfd8dc"/>
        <path id="Trazado_149759" data-name="Trazado 149759" d="M2096.649,438.811h0a4.022,4.022,0,0,1-.65-5.633l6.579-8.3a4.021,4.021,0,0,1,5.633-.65h0a4.021,4.021,0,0,1,.65,5.632l-6.578,8.3A4.022,4.022,0,0,1,2096.649,438.811Z" transform="translate(-2094.357 -422.771)" fill="#fff"/>
        <path id="Trazado_149760" data-name="Trazado 149760" d="M2100.169,444.254h0a1.542,1.542,0,0,1-.25-2.167l4.125-5.2a1.543,1.543,0,0,1,2.167-.25h0a1.543,1.543,0,0,1,.25,2.167l-4.127,5.2A1.542,1.542,0,0,1,2100.169,444.254Z" transform="translate(-2096.728 -429.662)" fill="#bdbdbd"/>
        <path id="Trazado_149761" data-name="Trazado 149761" d="M2116.422,430.445l-.5-.4a1.222,1.222,0,0,1-.2-1.718h0a1.223,1.223,0,0,1,1.718-.2l.5.4a1.222,1.222,0,0,1,.2,1.718h0A1.224,1.224,0,0,1,2116.422,430.445Z" transform="translate(-2105.187 -425.168)" fill="#d32f2f"/>
      </g>
      <g id="Grupo_90352" data-name="Grupo 90352" transform="translate(0 16.294)">
        <path id="Trazado_149762" data-name="Trazado 149762" d="M1895.17,399.991c-6.625-1.17-13.445-3.4-17.916-8.426a18.969,18.969,0,0,1-3.937-17.656c1.307-4.41,4.253-8.387,4.462-12.982.123-2.692-.721-5.343-.77-8.038-.17-9.323,8.577-15.9,14.1-23.417a38.1,38.1,0,0,0,7.047-18.018,3.17,3.17,0,0,1,5.394-1.9,37.7,37.7,0,0,0,8.845,6.4c6.175,3.3,12.945,5.295,19.454,7.872a115.1,115.1,0,0,1,15.316,7.42c7.661,4.439,15.367,10.617,16.962,19.326.579,3.161.315,6.534,1.645,9.46,3.121,6.869,13.039,7.787,17.368,13.966,4.138,5.908,1.309,14.63-4.275,19.2s-13.048,5.969-20.2,6.939c-11.436,1.552-22.952,2.387-34.467,3.07C1914.32,403.787,1904.933,401.716,1895.17,399.991Z" transform="translate(-1872.582 -288.881)" fill="#37474f"/>
        <path id="Trazado_149763" data-name="Trazado 149763" d="M1944.354,335.289c3.127-1.563-3.128-7.819-.782-9.383,2.345-2.345,7.037-.782,10.947.782-4.719-3.145-9.941-6.419-14.348-10.326-.271-.139-.547-.267-.815-.411a37.7,37.7,0,0,1-8.844-6.4,3.171,3.171,0,0,0-5.394,1.9,38.6,38.6,0,0,1-1.937,8.263C1925.9,329.157,1935.427,337.349,1944.354,335.289Z" transform="translate(-1899.545 -288.881)" fill="#263238" opacity="0.72"/>
        <path id="Trazado_149764" data-name="Trazado 149764" d="M1973.688,397.34c0,3.128,3.128,3.91,4.692,5.474a3.55,3.55,0,0,1,0,3.909c-1.564,1.564-4.692,1.564-5.473,2.346-2.346,3.128-3.128,7.819-6.255,7.819-7.819.782-19.548,2.346-21.112-7.819-3.128.782-7.037-1.564-9.383,1.564-9.383,15.638-28.15,11.729-41.442,5.473-7.819-3.127-10.947-10.947-8.6-19.548,1.564-4.691,4.691-7.819,9.383-6.255-10.59-6.619-11.653-20.521-6.514-31.273-5.384,6.453-12.123,12.529-11.974,20.725.049,2.695.893,5.346.77,8.038-.209,4.595-3.155,8.572-4.462,12.982a18.969,18.969,0,0,0,3.937,17.656c4.471,5.027,11.291,7.256,17.916,8.426,9.763,1.725,19.151,3.8,29.031,3.21,11.515-.684,23.031-1.518,34.467-3.07,7.148-.971,14.612-2.373,20.2-6.94s8.413-13.287,4.275-19.2a11.792,11.792,0,0,0-.8-1.012A11,11,0,0,1,1973.688,397.34Z" transform="translate(-1872.582 -315.746)" fill="#263238" opacity="0.72"/>
        <path id="Trazado_149765" data-name="Trazado 149765" d="M1928.335,276.128a80.37,80.37,0,0,1,13.9-7.926c2.5-1.112,5.194-2.114,7.906-1.762a10.835,10.835,0,0,1,7.081,4.585,25.959,25.959,0,0,1,3.547,7.869,10.762,10.762,0,0,0-4.474-.686,3.677,3.677,0,0,0-3.263,2.735c-.178,1.095.311,2.317-.244,3.278-.616,1.068-2.153,1.142-3.328.77a12.064,12.064,0,0,0-3.523-1.055q.145,2.824.291,5.647a2.058,2.058,0,0,1-2.846-.1,7.308,7.308,0,0,1-1.553-2.748c-1.693-4.078-5.6-7.128-9.763-4.135-4.142,2.976,1.891,20.655-1.284,23.655-4.025,3.8-8.274-13.99-8.494-17.146C1921.88,283.281,1923.591,279.5,1928.335,276.128Z" transform="translate(-1899.037 -266.368)" fill="#37474f"/>
        <path id="Trazado_149766" data-name="Trazado 149766" d="M1957.971,272.972c-2.617.846-5.4,2.322-5.359,5.427a1.247,1.247,0,0,1-1.561,1.189,34.362,34.362,0,0,0-10.165-1.28,12.074,12.074,0,0,0-7.813,3.487,23.366,23.366,0,0,0-4.657,6.972,22.538,22.538,0,0,0-2,12.681c1.657,5.331,4.1,10.562,6.467,8.327,3.176-3-2.858-20.679,1.284-23.655,4.165-2.992,8.07.057,9.763,4.135A7.3,7.3,0,0,0,1945.48,293a2.058,2.058,0,0,0,2.846.1l-.291-5.647a12.066,12.066,0,0,1,3.522,1.055c1.176.372,2.713.3,3.328-.77.555-.961.066-2.183.244-3.278a3.676,3.676,0,0,1,3.263-2.735,10.762,10.762,0,0,1,4.474.686,25.965,25.965,0,0,0-3.547-7.869A13.343,13.343,0,0,0,1957.971,272.972Z" transform="translate(-1901.139 -269.887)" fill="#263238" opacity="0.72"/>
        <path id="Trazado_149767" data-name="Trazado 149767" d="M1931.868,312.393a.26.26,0,0,0-.509.069,6.341,6.341,0,0,1-7.528,6.67c-.245-.043-.352.327-.1.377a6.725,6.725,0,0,0,8-5.287c.444,2.334.61,5.01-1.2,6.651a6.364,6.364,0,0,1-3.921,1.625,2.616,2.616,0,0,1-2.746-2.04c-.043-.335-.572-.348-.538,0a3.009,3.009,0,0,0,2.516,2.55,6.262,6.262,0,0,0,4.535-1.3C1933.375,319.569,1932.589,315.464,1931.868,312.393Z" transform="translate(-1899.621 -290.796)" fill="#fff"/>
      </g>
      <g id="Grupo_90354" data-name="Grupo 90354" transform="translate(0.96 111.764)">
        <path id="Trazado_149768" data-name="Trazado 149768" d="M1892.6,473.893c-2.971,1.043-5.824-.781-8.421-1.992a10.578,10.578,0,0,0-4.128-1.146,5.335,5.335,0,0,0-3.69,1.185,5.2,5.2,0,0,0-1.636,3.03,6.008,6.008,0,0,0,.483,3.54,8.064,8.064,0,0,0,2.414,2.957,13.3,13.3,0,0,0,3.806,1.938c2.567.9,5.47,1.511,7.422,3.559a6.129,6.129,0,0,1,.619.764c.193.281.654.015.46-.269-1.536-2.241-4.178-3.2-6.655-4a22.8,22.8,0,0,1-4.133-1.619,8.471,8.471,0,0,1-2.834-2.482,5.893,5.893,0,0,1-1.139-3.372,4.971,4.971,0,0,1,1.082-3.144c1.857-2.229,5-1.519,7.293-.476,2.612,1.186,5.276,2.973,8.289,2.41a4.766,4.766,0,0,0,1-.336C1893.136,474.306,1892.915,473.78,1892.6,473.893Z" transform="translate(-1874.636 -470.751)" fill="#efebe9"/>
        <g id="Grupo_90353" data-name="Grupo 90353" transform="translate(14.691 1.407)">
          <path id="Trazado_149769" data-name="Trazado 149769" d="M1909.374,506.445a4.938,4.938,0,0,0-2.763-.465,10.652,10.652,0,0,1-.524,1.006c3.412.51,6.008,2.268,9.227,3.505,7.367,2.834,16.093.37,23.235,3.726q.15-.423.319-.845c-5.244-2.918-12.005-2.669-18.041-2.937C1916.663,510.089,1913.019,508.353,1909.374,506.445Z" transform="translate(-1906.087 -490.931)" fill="#b2f2ef"/>
          <path id="Trazado_149770" data-name="Trazado 149770" d="M1941.056,493.822c.448-.9.9-1.794,1.312-2.681.361-.776.7-1.6,1.024-2.461.074-.2.149-.4.22-.606a42.3,42.3,0,0,0,1.477-5.22,14.034,14.034,0,0,1-4.054-1.009c-9.941-4.457-21.068-8.743-31.539-4-.022.772-.069,1.553-.142,2.336-.009.106-.019.213-.029.319a45.654,45.654,0,0,1-.866,5.329c-.021.1-.046.21-.07.313-.028.123-.056.245-.085.366a18.311,18.311,0,0,1-1.1,3.374,4.939,4.939,0,0,1,2.763.465c3.644,1.909,7.289,3.644,11.454,3.992,6.036.268,12.8.019,18.041,2.937.36-.9.776-1.8,1.21-2.684C1940.8,494.336,1940.929,494.078,1941.056,493.822Z" transform="translate(-1906.684 -474.834)" fill="#00a79e"/>
          <path id="Trazado_149771" data-name="Trazado 149771" d="M1936.479,476.459a36.553,36.553,0,0,0-19.232-2.286,13.454,13.454,0,0,0-5.128,1.649c0,.315-.005.633-.014.952,10.472-4.744,21.6-.458,31.539,4a14.025,14.025,0,0,0,4.054,1.009c.048-.226.094-.45.137-.671C1943.837,480.214,1940.272,478.01,1936.479,476.459Z" transform="translate(-1909.294 -473.763)" fill="#b2f2ef"/>
          <path id="Trazado_149772" data-name="Trazado 149772" d="M1946.026,492.076c-.071.2-.146.406-.22.606-1.087-.658-2.109-1.421-3.2-2.078a31.667,31.667,0,0,0-3.677-1.8,55.532,55.532,0,0,0-13.81-4.2,49.741,49.741,0,0,0-13.384-.1c.01-.106.021-.213.03-.319a36.278,36.278,0,0,1,7.04-.87,42.671,42.671,0,0,1,14.722,2,31.3,31.3,0,0,1,6.844,2.983A39.166,39.166,0,0,1,1946.026,492.076Z" transform="translate(-1909.098 -478.835)" fill="#008f85"/>
          <path id="Trazado_149773" data-name="Trazado 149773" d="M1942.4,505.279c-.126.256-.255.514-.38.771-2.2-.973-4.361-2.029-6.608-2.9a81.424,81.424,0,0,0-8.751-2.837,90.324,90.324,0,0,0-9-1.873c-2.634-.411-5.279-.605-7.927-.84.024-.1.048-.208.07-.313a57.156,57.156,0,0,1,7.953.448,68.245,68.245,0,0,1,9,1.636,73.469,73.469,0,0,1,8.91,2.853A51.938,51.938,0,0,1,1942.4,505.279Z" transform="translate(-1908.031 -486.291)" fill="#008f85"/>
        </g>
        <path id="Trazado_149774" data-name="Trazado 149774" d="M2002.2,502.429a5.653,5.653,0,0,0-3.968-2.77c-3.506-.88-7.259.142-10.69-1.143a5.913,5.913,0,0,1-2.389-1.6,10.9,10.9,0,0,1-1.579-2.953c-.731-1.685-2.051-3.713-4.172-3.48a.268.268,0,1,0,.072.528c2.046-.322,3.164,1.984,3.785,3.528a7.551,7.551,0,0,0,2.767,3.9c2.815,1.786,6.328,1.263,9.48,1.407a9.213,9.213,0,0,1,5.021,1.4,3.156,3.156,0,0,1,1.356,2c.173,1.118-.738,1.5-1.682,1.626-4.141.552-8.284,1.106-12.458,1.328a56.726,56.726,0,0,1-7-.026c-1.188-.084-2.375-.2-3.553-.383-1.143-.175-2.271-.422-3.423-.523-.152-.013-.223.234-.08.3a20.748,20.748,0,0,0,6.416,1.281,52.579,52.579,0,0,0,6.622.131,117.266,117.266,0,0,0,13.469-1.46,2.494,2.494,0,0,0,2.1-1.15A2.377,2.377,0,0,0,2002.2,502.429Z" transform="translate(-1927.378 -481.259)" fill="#efebe9"/>
      </g>
      <g id="Grupo_90356" data-name="Grupo 90356" transform="translate(111.253 98.76)">
        <path id="Trazado_149775" data-name="Trazado 149775" d="M2141.026,470.564a64.606,64.606,0,0,0-22.053-.493c-.925.138-1.843.307-2.762.475a7.013,7.013,0,0,1-2.784.111,2.321,2.321,0,0,1-1.8-3.33c1.34-2.772,5.149-3.365,7.866-3.759,3.187-.463,6.767-.609,9.416-2.67.19-.147-.053-.44-.252-.326-2.838,1.627-6.014,1.9-9.189,2.332-2.852.392-6.4,1.016-8.115,3.609a2.917,2.917,0,0,0,.108,3.684c1.094,1.154,2.8,1.187,4.264.96,1.98-.306,3.934-.709,5.931-.925q2.9-.314,5.823-.36a63.553,63.553,0,0,1,13.4,1.215C2141.223,471.156,2141.369,470.632,2141.026,470.564Z" transform="translate(-2110.752 -452.309)" fill="#efebe9"/>
        <path id="Trazado_149776" data-name="Trazado 149776" d="M2235.212,448.3a31.023,31.023,0,0,0-3.554-1.24q-3.986-1.286-8.061-2.27-2.219-.532-4.456-.974c-.761-.151-1.524-.3-2.29-.421a10.973,10.973,0,0,0-2.267-.263.123.123,0,0,0-.032.24,10.531,10.531,0,0,0,1.806.417q.912.176,1.825.355,1.826.358,3.64.776,3.537.815,7.02,1.846,1.784.528,3.552,1.114.841.279,1.674.57a5.157,5.157,0,0,1,1.444.658.93.93,0,0,1,.407,1.2,1.541,1.541,0,0,1-1.372.639c-1.056-.013-2-.49-3.069-.251a3.772,3.772,0,0,0-2.321,1.62c-.467.73-.662,3.136-1.994,2.614-.3-.119-.508.376-.221.525.944.488,1.79-.347,2.1-1.193a10.67,10.67,0,0,1,.526-1.541,3.156,3.156,0,0,1,1.311-1.266,3.036,3.036,0,0,1,1.687-.32c.639.062,1.253.279,1.9.316a1.935,1.935,0,0,0,2.071-1.207C2236.763,449.313,2235.957,448.645,2235.212,448.3Z" transform="translate(-2166.02 -443.026)" fill="#efebe9"/>
        <g id="Grupo_90355" data-name="Grupo 90355" transform="translate(16.286)">
          <path id="Trazado_149777" data-name="Trazado 149777" d="M2175.4,474.335a4.674,4.674,0,0,0-2.567.633c.265.286.51.572.728.858,3.1-.825,6.979-.529,10.743-.8,8.615-.613,12.358-5.263,21.387-5.447q-.359-.337-.7-.679c-7.133-.17-11.876,2.313-16.655,4.2C2184.861,474.295,2180.229,474.373,2175.4,474.335Z" transform="translate(-2160.122 -456.758)" fill="#b2f2ef"/>
          <path id="Trazado_149778" data-name="Trazado 149778" d="M2189.029,452.754c-.667-.76-1.325-1.517-2-2.256-.593-.646-1.257-1.322-1.971-2.009-.167-.16-.336-.322-.509-.483-1.457-1.366-3.085-2.757-4.7-4.024a15.993,15.993,0,0,1-4.131.708c-12.329.4-25.348,1.323-27.856,8.107q1.261.791,2.489,1.623c.111.074.223.15.333.226,1.862,1.273,3.645,2.593,5.275,3.888.1.077.2.157.295.234.116.093.23.184.343.276a28.821,28.821,0,0,1,2.933,2.649,4.674,4.674,0,0,1,2.568-.633c4.825.038,9.458-.04,12.935-1.233,4.779-1.887,9.522-4.37,16.655-4.2-.733-.731-1.418-1.476-2.082-2.223C2189.41,453.188,2189.218,452.97,2189.029,452.754Z" transform="translate(-2146.812 -443.482)" fill="#00a79e"/>
          <path id="Trazado_149779" data-name="Trazado 149779" d="M2164.409,443.666c-7.236.4-13.115,2.17-16.816,5.046a4.265,4.265,0,0,0-1.977,2.868q.526.319,1.046.647c2.508-6.784,15.527-7.706,27.856-8.107a16,16,0,0,0,4.131-.708q-.322-.253-.644-.5C2174.042,443.677,2168.948,443.412,2164.409,443.666Z" transform="translate(-2145.617 -442.912)" fill="#b2f2ef"/>
          <path id="Trazado_149780" data-name="Trazado 149780" d="M2187.383,451.834c.172.161.343.324.509.484-1.536-.071-3.143-.235-4.68-.3-1.657-.075-3.183-.009-4.724.049a71.054,71.054,0,0,0-14.92,1.9,31.476,31.476,0,0,0-10.05,4.515c-.109-.075-.221-.151-.333-.226a16.351,16.351,0,0,1,4.262-3,37.457,37.457,0,0,1,13.146-3.7,50.46,50.46,0,0,1,8.394-.333C2181.677,451.358,2184.482,451.4,2187.383,451.834Z" transform="translate(-2149.65 -447.311)" fill="#008f85"/>
          <path id="Trazado_149781" data-name="Trazado 149781" d="M2198.265,462.734c.189.215.381.433.573.649-2.713.1-5.49.126-8.126.309-3.353.232-6.582.594-9.648,1.085s-5.992,1.1-8.761,1.82c-2.413.625-4.592,1.4-6.818,2.149-.1-.077-.2-.157-.3-.234a41.159,41.159,0,0,1,6.4-2.422,67.224,67.224,0,0,1,8.5-1.98,97.21,97.21,0,0,1,9.782-1.129C2192.556,462.8,2195.323,462.646,2198.265,462.734Z" transform="translate(-2156.047 -453.462)" fill="#008f85"/>
        </g>
      </g>
      <g id="Grupo_90358" data-name="Grupo 90358" transform="translate(82.416 127.853)">
        <path id="Trazado_149782" data-name="Trazado 149782" d="M2143.311,535.49c1.618,1.22,3.737,1.1,5.627.741,2.062-.39,4.1-.949,6.2-.51,4,.835,6.844,4.172,10.684,5.4,1.816.579,4.095.723,5.566-.7a2.531,2.531,0,0,0,.893-2.216,2.119,2.119,0,0,0-1.737-1.491,14.325,14.325,0,0,0-2.453-.244,11.021,11.021,0,0,1-2.375-.417,12.072,12.072,0,0,1-4.225-2.262,12.625,12.625,0,0,1-3.356-4.229,8.7,8.7,0,0,1-1.025-5.215.148.148,0,0,1,.283,0,16.7,16.7,0,0,0,1.381,5,12.593,12.593,0,0,0,3.214,3.947,11.376,11.376,0,0,0,4.7,2.308c1.573.348,3.336.06,4.817.778a2.493,2.493,0,0,1,.872,3.783,4.99,4.99,0,0,1-4.607,1.926c-4.309-.3-7.326-3.785-11.16-5.313a8.542,8.542,0,0,0-3.507-.647,26.36,26.36,0,0,0-3.927.644c-2.057.4-4.392.552-6.161-.78C2142.729,535.766,2143.014,535.267,2143.311,535.49Z" transform="translate(-2099.045 -515.341)" fill="#efebe9"/>
        <path id="Trazado_149783" data-name="Trazado 149783" d="M2049.093,509.3c.414,1.171,2.355,1.349,3.368,1.475a16.43,16.43,0,0,0,5.2-.255c.113.153.23.3.329.466a7.858,7.858,0,0,1,.334,7.219c-.169.374.384.7.554.324a8.474,8.474,0,0,0-.556-8.147,30.539,30.539,0,0,0,3.766-1.136c1.591-.585,3.155-1.245,4.722-1.891s3.2-1.136,4.76-1.784a.193.193,0,0,0-.1-.371,21.394,21.394,0,0,0-4.662,1.463c-1.525.586-3.026,1.23-4.56,1.8a31.959,31.959,0,0,1-4.37,1.311,7.282,7.282,0,0,0-6.65-2.455C2050.3,507.471,2048.645,508.028,2049.093,509.3Zm1.4-1.209a5.376,5.376,0,0,1,1.712-.294,6.777,6.777,0,0,1,4.947,2.121,16.89,16.89,0,0,1-3.2.275,12.833,12.833,0,0,1-2.279-.231,4.167,4.167,0,0,1-1.68-.557C2049.271,508.866,2049.876,508.309,2050.5,508.089Z" transform="translate(-2049.018 -505.195)" fill="#efebe9"/>
        <g id="Grupo_90357" data-name="Grupo 90357" transform="translate(8.104 0.074)">
          <path id="Trazado_149784" data-name="Trazado 149784" d="M2100.066,540.312a5.2,5.2,0,0,1,2.856.7c-.294.318-.568.636-.81.954-3.448-.918-7.764-.589-11.951-.888-9.586-.682-13.748-5.855-23.794-6.06.266-.249.525-.5.781-.755,7.934-.19,13.211,2.573,18.529,4.672C2089.544,540.268,2094.7,540.355,2100.066,540.312Z" transform="translate(-2066.367 -520.757)" fill="#b2f2ef"/>
          <path id="Trazado_149785" data-name="Trazado 149785" d="M2070.99,516.3c.743-.846,1.475-1.688,2.229-2.51.66-.719,1.4-1.471,2.194-2.236.185-.178.374-.359.566-.538,1.621-1.52,3.432-3.067,5.229-4.477a17.8,17.8,0,0,0,4.6.788c13.716.446,28.2,1.472,30.99,9.019-.935.587-1.86,1.191-2.768,1.806-.124.083-.248.167-.37.25-2.072,1.417-4.056,2.886-5.869,4.326-.111.086-.222.175-.329.261-.129.1-.256.2-.382.307a32.017,32.017,0,0,0-3.263,2.948,5.2,5.2,0,0,0-2.856-.705c-5.368.043-10.522-.044-14.391-1.371-5.316-2.1-10.593-4.862-18.528-4.672.815-.812,1.577-1.642,2.315-2.473C2070.566,516.786,2070.779,516.543,2070.99,516.3Z" transform="translate(-2067.257 -505.988)" fill="#00a79e"/>
          <path id="Trazado_149786" data-name="Trazado 149786" d="M2112.076,506.193c8.05.45,14.59,2.414,18.708,5.614a4.745,4.745,0,0,1,2.2,3.191c-.389.236-.778.477-1.165.719-2.789-7.547-17.273-8.573-30.99-9.019a17.8,17.8,0,0,1-4.6-.788c.239-.187.478-.373.716-.555C2101.359,506.2,2107.025,505.91,2112.076,506.193Z" transform="translate(-2082.281 -505.354)" fill="#b2f2ef"/>
          <path id="Trazado_149787" data-name="Trazado 149787" d="M2084.393,515.28c-.192.179-.381.36-.566.538,1.709-.079,3.5-.262,5.206-.339,1.844-.084,3.542-.011,5.256.054a79.015,79.015,0,0,1,16.6,2.111,35.038,35.038,0,0,1,11.181,5.022l.37-.25a18.19,18.19,0,0,0-4.741-3.335,41.685,41.685,0,0,0-14.624-4.113,56.16,56.16,0,0,0-9.339-.371C2090.74,514.75,2087.62,514.8,2084.393,515.28Z" transform="translate(-2075.671 -510.248)" fill="#008f85"/>
          <path id="Trazado_149788" data-name="Trazado 149788" d="M2073.631,527.406c-.211.24-.424.482-.637.723,3.018.108,6.108.141,9.04.344,3.73.257,7.322.661,10.733,1.207s6.665,1.227,9.747,2.025c2.683.7,5.109,1.557,7.585,2.391.106-.086.217-.175.328-.261a45.783,45.783,0,0,0-7.122-2.695,74.891,74.891,0,0,0-9.456-2.2,108.255,108.255,0,0,0-10.883-1.256C2079.983,527.485,2076.9,527.308,2073.631,527.406Z" transform="translate(-2069.899 -517.091)" fill="#008f85"/>
        </g>
      </g>
      <g id="Grupo_90359" data-name="Grupo 90359" transform="translate(157.296 119.764)">
        <path id="Trazado_149789" data-name="Trazado 149789" d="M2211.857,492.531c1.563-.108,3.222.483,4.654-.152,5.188-2.3,10.715-4.006,16.378-3.663a16.3,16.3,0,0,0,3.586-.638,8.5,8.5,0,0,1,2.135-.187,1.147,1.147,0,0,1,.7.243.846.846,0,0,1,.145.942,1.712,1.712,0,0,1-.69.725,9.207,9.207,0,0,1-3.885.92,17.71,17.71,0,0,0-4.857,1.328,44.748,44.748,0,0,0,9.706-1.079,11.893,11.893,0,0,1,5.27-.493,1.522,1.522,0,0,1,1.024.612,1.194,1.194,0,0,1-.3,1.392,3.336,3.336,0,0,1-1.356.686,50.318,50.318,0,0,1-13.4,2.347,5.658,5.658,0,0,0,4.092.159,39.19,39.19,0,0,1,12.392-.654c.715.077,1.594.324,1.712,1.033a1.384,1.384,0,0,1-.84,1.3,6.564,6.564,0,0,1-2.505.618l-3.268.36c-1.173.129-2.348.258-3.528.284-2.6.055-5.25-.393-7.787.191,4.2,1.506,8.7,1.459,13.137,1.949a3.824,3.824,0,0,1,1.838.543,1.389,1.389,0,0,1,.536,1.69c-.322.6-1.112.715-1.789.739a55.214,55.214,0,0,1-9.419-.734l-5.261-.714a5.781,5.781,0,0,0-1.416.184c1.157,1.29,2.958,1.726,4.532,2.449s3.156,2.131,2.95,3.851c-.054.453-.313.952-.766,1.01a1.314,1.314,0,0,1-.722-.192,28.076,28.076,0,0,0-6.268-2.548c-1.983-.431-4.051-.373-6.023-.852a19.866,19.866,0,0,1-6.484-3.29,4.917,4.917,0,0,0-2.892-.133c-.932.253-1.827.637-2.769.848a4.186,4.186,0,0,1-1.1-3.187,23.175,23.175,0,0,1,1.2-5.908A6.551,6.551,0,0,1,2211.857,492.531Z" transform="translate(-2209.321 -487.876)" fill="#00a79e"/>
        <path id="Trazado_149790" data-name="Trazado 149790" d="M2233.192,519.684c-2.469-1.51-4.245-3.673-7.142-4.433-2.5-.613-5.187-.693-7.537-1.706-1.55-.72-2.043-2.261-3.033-3.682-.409,3.175-3.452,2.815-5.842,3.148a.255.255,0,0,0-.185.13,3.694,3.694,0,0,0,1.045,2.179c.941-.211,1.836-.595,2.769-.848a4.915,4.915,0,0,1,2.892.133,19.883,19.883,0,0,0,6.485,3.29c1.971.479,4.04.421,6.023.852a28.1,28.1,0,0,1,6.268,2.548,1.311,1.311,0,0,0,.721.192.975.975,0,0,0,.727-.8C2235.345,520.286,2234.238,520.18,2233.192,519.684Z" transform="translate(-2209.392 -499.592)" fill="#008f85"/>
        <path id="Trazado_149791" data-name="Trazado 149791" d="M2269.439,517.371a1.387,1.387,0,0,1-1.084,1.026c-4.49,1.527-8.657-.3-13.178-.752a4.779,4.779,0,0,0-2.951.438,3.208,3.208,0,0,1,.924-.088l5.26.714a55.213,55.213,0,0,0,9.419.734c.676-.025,1.467-.144,1.789-.74A1.264,1.264,0,0,0,2269.439,517.371Z" transform="translate(-2232.184 -503.593)" fill="#008f85"/>
        <path id="Trazado_149792" data-name="Trazado 149792" d="M2258.874,497.983a5.712,5.712,0,0,0-1.886.841,50.31,50.31,0,0,0,12.782-2.318,3.343,3.343,0,0,0,1.357-.686,1.2,1.2,0,0,0,.3-1.391.972.972,0,0,0-.258-.285,1.282,1.282,0,0,1-.342.515C2267.81,497.935,2263.107,497.571,2258.874,497.983Z" transform="translate(-2234.722 -491.216)" fill="#008f85"/>
        <path id="Trazado_149793" data-name="Trazado 149793" d="M2217.3,495.715c3.314-5.738,11.046-4.565,16.763-6.549a3.874,3.874,0,0,1,2.075-.3,12.351,12.351,0,0,0,2.909-.845c-.282.037-.565.085-.844.134a16.3,16.3,0,0,1-3.585.638c-5.664-.343-11.192,1.363-16.379,3.663-1.433.635-3.092.043-4.655.152a7.229,7.229,0,0,0-1.023,1.344c1.128-.105,2.222-.114,3.315-.122C2217.038,493.955,2217.558,494.6,2217.3,495.715Z" transform="translate(-2211.048 -487.954)" fill="#00c1b9"/>
        <path id="Trazado_149794" data-name="Trazado 149794" d="M2256.861,490.875c-.763.146-2.081.354-2.193,1.271a17.716,17.716,0,0,1,4.38-1.13,9.206,9.206,0,0,0,3.886-.92,1.718,1.718,0,0,0,.69-.725.849.849,0,0,0-.144-.941,1.753,1.753,0,0,1-.551.739C2261.094,490.463,2258.9,490.263,2256.861,490.875Z" transform="translate(-2233.485 -488.172)" fill="#008f85"/>
        <path id="Trazado_149795" data-name="Trazado 149795" d="M2268.412,507.619l3.269-.36a6.563,6.563,0,0,0,2.505-.618,1.385,1.385,0,0,0,.84-1.3.307.307,0,0,0-.007-.032,1.353,1.353,0,0,1-.477.426c-4.42,2.158-9.412.932-14.142,1.464a4.642,4.642,0,0,0-2.558.756c2.309-.359,4.694,0,7.043-.051C2266.065,507.877,2267.239,507.748,2268.412,507.619Z" transform="translate(-2235.177 -497.165)" fill="#008f85"/>
      </g>
      <g id="Grupo_90360" data-name="Grupo 90360" transform="translate(69.349 56.711)">
        <path id="Trazado_149796" data-name="Trazado 149796" d="M2025.564,352.892c1.8.466,3.241,1.755,4.919,2.031a18.066,18.066,0,0,1,14.487,12.591c.4,1.408,1.257,2.8,1.7,4.255a9.755,9.755,0,0,1,.509,2.72,1.733,1.733,0,0,1-.182.925.666.666,0,0,1-.9.218,2.074,2.074,0,0,1-.74-.819,26.146,26.146,0,0,1-1.573-4.452,12.206,12.206,0,0,0-3.052-4.769,44.749,44.749,0,0,1,3.55,10.422,10.7,10.7,0,0,1-.156,6.349,1.884,1.884,0,0,1-.876,1.082,1.017,1.017,0,0,1-1.2-.686,4.983,4.983,0,0,1-.306-1.645,37.766,37.766,0,0,0-3.637-13.248,7,7,0,0,0,1.085,3.778,14.555,14.555,0,0,1-.036,12.255c-.313.7-.905,1.479-1.58,1.311-.516-.128-.762-.733-.835-1.257a8.828,8.828,0,0,1,.165-2.417,18.839,18.839,0,0,0,.188-2.928c-.015-1.033-.115-2.039-.192-3.034-.159-2.16-.277-4.506-1.618-6.252-.026,3.676.394,7.046-.72,10.434a2.242,2.242,0,0,1-.837,1.262,1.536,1.536,0,0,1-1.673-.082,1.3,1.3,0,0,1-.38-1.343,35.181,35.181,0,0,0,.718-6.055,15.047,15.047,0,0,0-.458-3.522,2.373,2.373,0,0,0-.588-.772c-.717,1.265-.67,2.419-1.071,3.491a3.77,3.77,0,0,1-3.26,2.263c-.435.05-.924.038-1.012-.109-.049-.083.039-.192.122-.3a4.993,4.993,0,0,0,1.293-3.356,13.016,13.016,0,0,0-1.132-2.879c-.45-1.252-.606-2.985-1.142-4.823a2.143,2.143,0,0,0-1.735-.959c-.7-.01-1.392-.1-2.058-.062a4.717,4.717,0,0,1-.143-2.915,15.8,15.8,0,0,1,2.387-5.29A5.173,5.173,0,0,1,2025.564,352.892Z" transform="translate(-2021.044 -352.892)" fill="#00a79e"/>
        <path id="Trazado_149797" data-name="Trazado 149797" d="M2027.423,380.749c1.039-1.451,2.511-3.343,2.052-5.28-.449-1.642-1.626-2.94-2.411-4.676-.513-1.193-.095-2.655-.228-4.277-1.737,2.515-3.623,1.25-5.6,1.206a.2.2,0,0,0-.168.093,3.872,3.872,0,0,0,.284,1.954c.665-.042,1.363.052,2.058.062a2.143,2.143,0,0,1,1.735.959c.536,1.839.692,3.571,1.142,4.823a13.017,13.017,0,0,1,1.132,2.879,4.991,4.991,0,0,1-1.293,3.356c-.084.108-.171.217-.122.3.075.126.439.152.813.128C2027.119,381.8,2027.109,381.326,2027.423,380.749Z" transform="translate(-2021.045 -360.152)" fill="#008f85"/>
        <path id="Trazado_149798" data-name="Trazado 149798" d="M2045.334,400.123a1.286,1.286,0,0,1-.745-1.019c-.748-3.192.847-5.7.2-9a2.153,2.153,0,0,0-1.194-1.677,1.411,1.411,0,0,1,.351.523,15.1,15.1,0,0,1,.458,3.522,35.23,35.23,0,0,1-.718,6.055,1.3,1.3,0,0,0,.379,1.343A1.525,1.525,0,0,0,2045.334,400.123Z" transform="translate(-2033.063 -371.83)" fill="#008f85"/>
        <path id="Trazado_149799" data-name="Trazado 149799" d="M2059.484,387.572a4.489,4.489,0,0,0-1.38-1.478,37.61,37.61,0,0,1,3.384,12.713,5.007,5.007,0,0,0,.306,1.645,1.017,1.017,0,0,0,1.2.686,1.03,1.03,0,0,0,.348-.236,1.317,1.317,0,0,1-.379-.524C2060.812,396.214,2061.188,391.646,2059.484,387.572Z" transform="translate(-2040.793 -370.585)" fill="#008f85"/>
        <path id="Trazado_149800" data-name="Trazado 149800" d="M2031.548,357.185c5.9-3.541,12.705,3.824,16.315,9.8a5.038,5.038,0,0,1,1.042,2.372c.359,1.173,1.02,2.174,1.511,3.473-.083-.358-.183-.711-.29-1.059-.441-1.454-1.3-2.847-1.7-4.255a18.065,18.065,0,0,0-14.486-12.591c-1.678-.275-3.123-1.564-4.92-2.031a5.676,5.676,0,0,0-1.489.909,15.957,15.957,0,0,1,3.475,1.108C2032.12,355.543,2032.281,356.366,2031.548,357.185Z" transform="translate(-2024.501 -352.892)" fill="#00c1b9"/>
        <path id="Trazado_149801" data-name="Trazado 149801" d="M2066.108,382.773c-.412-.808-1.206-2.141-2.066-1.875a12.285,12.285,0,0,1,2.655,4.368,26.1,26.1,0,0,0,1.572,4.452,2.073,2.073,0,0,0,.74.819.666.666,0,0,0,.9-.216,1.936,1.936,0,0,1-.749-.667C2067.781,387.463,2067.466,384.877,2066.108,382.773Z" transform="translate(-2043.957 -367.798)" fill="#008f85"/>
        <path id="Trazado_149802" data-name="Trazado 149802" d="M2053.732,397.948a18.827,18.827,0,0,1-.189,2.928,8.822,8.822,0,0,0-.165,2.417c.073.524.32,1.129.835,1.257.011,0,.021,0,.032.005a1.459,1.459,0,0,1-.186-.61c-.26-4.7,1.1-8.849-.435-12.915a3.062,3.062,0,0,0-1.35-1.845c1.014,1.692,1.118,3.773,1.265,5.731C2053.617,395.909,2053.717,396.915,2053.732,397.948Z" transform="translate(-2037.687 -372.231)" fill="#008f85"/>
      </g>
      <path id="Trazado_149803" data-name="Trazado 149803" d="M2089.507,283.448c-.3-.322-.593-.66-.868-1.009-.534-.2-1.061-.422-1.58-.652A22.119,22.119,0,0,0,2089.507,283.448Z" transform="translate(-1986.873 -258.29)" fill="#2e3c42"/>
    </g>
    <g id="Grupo_91520" data-name="Grupo 91520" transform="translate(530.874 651.438)">
      <path id="Trazado_150393" data-name="Trazado 150393" d="M-90.318,347.094l-40.175-22.913a9.407,9.407,0,0,0-9.541-.006l-40.373,22.948a4.708,4.708,0,0,0-2.439,4.189,4.71,4.71,0,0,0,2.432,4.191l40.252,22.95a9.418,9.418,0,0,0,9.554,0l40.29-22.983a4.71,4.71,0,0,0,2.433-4.188A4.71,4.71,0,0,0-90.318,347.094Z" transform="translate(0 15.975)" fill="#b2b2b2" fill-rule="evenodd"/>
      <path id="Trazado_150394" data-name="Trazado 150394" d="M-90.318,345.348l-40.175-22.913a9.4,9.4,0,0,0-9.541-.007l-40.373,22.949a4.708,4.708,0,0,0-2.439,4.188,4.708,4.708,0,0,0,2.432,4.191l40.252,22.952a9.414,9.414,0,0,0,9.554,0l40.29-22.982a4.711,4.711,0,0,0,2.433-4.188A4.708,4.708,0,0,0-90.318,345.348Z" transform="translate(0 15.133)" fill="#fff" fill-rule="evenodd"/>
      <path id="Trazado_150395" data-name="Trazado 150395" d="M-172.1,357.765a10.54,10.54,0,0,0-.662,1.753l-.363.957h.147a9.448,9.448,0,0,0-.145,1.638c0,9.7,14.838,17.57,33.136,17.57s33.134-7.869,33.134-17.57a9.449,9.449,0,0,0-.145-1.638h.148l-.368-.969a10.635,10.635,0,0,0-.652-1.723l-23.251-61.443c-1.55-4.1-4.921-6.609-8.866-6.609s-7.318,2.513-8.868,6.609Z" transform="translate(4.683 0)" fill="#ccc" fill-rule="evenodd"/>
      <path id="Trazado_150396" data-name="Trazado 150396" d="M-171.748,366.745c4.671,6.7,16.83,11.483,31.092,11.483a58.614,58.614,0,0,0,13.841-1.6l-9.461-74.029c-.728-5.7-1.168-8.293-4.381-9.573-3.279-1.3-6.546,2.248-7.931,5.914l-22.906,67.238C-171.585,366.363-171.671,366.553-171.748,366.745Z" transform="translate(5.348 1.454)" fill="#e5e5e5" fill-rule="evenodd"/>
      <path id="Trazado_150397" data-name="Trazado 150397" d="M-169.636,331.262q-1.74,4.6-3.481,9.2c-.937,12.768,18.282,19.207,33.137,19.207,8.853,0,35.648-4.115,32.989-19.207.142,0-2.991-8.291-3.334-9.2-4.136,7.427-16.168,12.015-29.655,12.015S-165.585,338.517-169.636,331.262Z" transform="translate(4.673 20.014)" fill="#de9318" fill-rule="evenodd"/>
      <path id="Trazado_150398" data-name="Trazado 150398" d="M-171.708,346.807c5.305,7.73,19.486,11.623,31.033,11.623a64.891,64.891,0,0,0,13.814-1.8l-2.023-15.834a55.079,55.079,0,0,1-11.792,1.242c-10.954,0-21-3.14-26.565-8.207l-4.272,12.543C-171.582,346.519-171.647,346.661-171.708,346.807Z" transform="translate(5.368 21.253)" fill="#f9a825" fill-rule="evenodd"/>
      <path id="Trazado_150399" data-name="Trazado 150399" d="M-166.774,325.245c2.112,7.638,11.756,12.13,23.721,12.13s22.513-4.831,23.592-12.469l-5.184-13.7c-1.236,4.933-8.54,9.738-18.408,9.738s-16.784-3.776-18.537-9.4Z" transform="translate(7.745 10.349)" fill="#de9318" fill-rule="evenodd"/>
      <path id="Trazado_150400" data-name="Trazado 150400" d="M-165.225,328.362c3.992,4.93,11.987,7.725,21.426,7.725a40.759,40.759,0,0,0,9.813-1.16l-2.088-16.331a27.755,27.755,0,0,1-7.725,1.06c-7.561,0-13.391-2.214-16.491-5.779Z" transform="translate(8.492 11.636)" fill="#f9a825" fill-rule="evenodd"/>
      <path id="Trazado_150401" data-name="Trazado 150401" d="M-159.792,308.248c1.4,4.149,7.974,6.214,13.374,6.214s12.315-2.322,13.373-6.214l-4.507-11.909c-1.55-4.1-4.921-6.609-8.866-6.609s-7.318,2.513-8.868,6.609Z" transform="translate(11.11 0)" fill="#de9318" fill-rule="evenodd"/>
      <path id="Trazado_150402" data-name="Trazado 150402" d="M-158.538,310.275c2.681,2.368,7.433,3.549,11.516,3.549a22.6,22.6,0,0,0,5.615-.745l-1.234-9.668c-.728-5.7-.615-10.837-4.376-12.1-4.819-1.618-6.55,4.775-7.936,8.441Z" transform="translate(11.714 0.638)" fill="#f9a825" fill-rule="evenodd"/>
    </g>
  </g>
</svg>
