<svg xmlns="http://www.w3.org/2000/svg" xmlns:xlink="http://www.w3.org/1999/xlink" width="568.932" height="277.835" viewBox="0 0 568.932 277.835">
  <defs>
    <clipPath id="clip-path">
      <path id="Trazado_150181" data-name="Trazado 150181" d="M-2334.289,1394.985c-281.132-2.681-324.925,3.1-326.562-13.826S-2671.4,1138-2604,1125.57s245.924-21.937,259.59,54.484S-2334.289,1394.985-2334.289,1394.985Z" transform="translate(2662.136 -1117.15)" fill="none"/>
    </clipPath>
  </defs>
  <g id="Grupo_90986" data-name="Grupo 90986" transform="translate(4514.06 -1064.392)">
    <g id="Grupo_90926" data-name="Grupo 90926" transform="translate(-4514.06 1109.535)">
      <path id="Trazado_149968" data-name="Trazado 149968" d="M-3927.2,1279.565c-.317,15.9-3.85,31.513-9.405,46.364-.8,2.105-5.241,15.563-7.262,15.564l-9.47,0-105.044.016q-103.5.015-207,.027-61.293.007-122.587.008c-2.681,0-4.913-3.463-6.452-5.292a30.955,30.955,0,0,1-6-11.254c-1.63-5.53-2.649-13.708.378-24.112,1.634-5.617,5.137-11.281,7.787-15.534a103.527,103.527,0,0,1,21.281-23.912c9.4-7.974,21.5-15.317,26.134-27.342,6.849-17.781-4.9-35.229-3.3-53.146,2.674-29.871,32.356-52.2,58.43-62.276,20.2-7.809,42.6-9.7,64.092-9.014a231.356,231.356,0,0,1,31.394,3.137c9.475,1.611,20.636,3.258,29.325,7.6,18.638,6.9,34.772,18.109,48.445,32.444,6.642,6.964,12.535,14.782,19.785,21.141,8.651,7.587,17.5,7.314,28.276,5.225,20.494-4.021,40.52-8.4,61.293-3.35,20.119,4.893,37.414,17.115,51.7,31.758a99.36,99.36,0,0,1,28.207,71.944C-3927.217,1280.6-3927.073,1273.158-3927.2,1279.565Z" transform="translate(4417.487 -1109.535)" fill="#e4e5e7"/>
      <path id="Trazado_149969" data-name="Trazado 149969" d="M-4079.529,2305.606s-15.7-3.889-21.866,5.856-18.5,10.123-24.975,17.951-11.409,21.931,3.392,28.909,51.613-3.263,51.613-3.263l7.036-45.408Z" transform="translate(4185.425 -2139.48)" fill="#f3f9ff"/>
      <path id="Trazado_149971" data-name="Trazado 149971" d="M-1649.11,2350.008c-14.754-11.783-36.181,2.467-40.292-13.568s-23.532-17.245-23.532-17.245l-19.831,64.627,79.387-.012h9.47c2.021,0,6.46-13.458,7.262-15.564.071-.189.14-.38.21-.569A41.159,41.159,0,0,0-1649.11,2350.008Z" transform="translate(2117.532 -2151.85)" fill="#f6f6f6"/>
      <rect id="Rectángulo_33192" data-name="Rectángulo 33192" width="130.964" height="161.308" transform="translate(273.635 70.831)" fill="#12263f"/>
      <rect id="Rectángulo_33193" data-name="Rectángulo 33193" width="117.902" height="17.571" transform="translate(286.697 78.719)" fill="#dde8fd"/>
      <rect id="Rectángulo_33194" data-name="Rectángulo 33194" width="147.908" height="125.037" transform="translate(189.612 107.654)" fill="#fff"/>
      <rect id="Rectángulo_33195" data-name="Rectángulo 33195" width="153.88" height="4.543" transform="translate(185.955 103.111)" fill="#fff"/>
      <rect id="Rectángulo_33196" data-name="Rectángulo 33196" width="136.036" height="4.543" transform="translate(270.994 68.559)" fill="#fff"/>
      <rect id="Rectángulo_33197" data-name="Rectángulo 33197" width="95.698" height="23.241" transform="translate(189.612 118.957)" fill="#b42218"/>
      <rect id="Rectángulo_33198" data-name="Rectángulo 33198" width="89.273" height="49.515" transform="translate(100.339 122.467)" fill="#dee4f0"/>
      <rect id="Rectángulo_33199" data-name="Rectángulo 33199" width="89.273" height="49.515" transform="translate(100.339 182.285)" fill="#dee4f0"/>
      <rect id="Rectángulo_33200" data-name="Rectángulo 33200" width="76.9" height="10.302" transform="translate(112.712 171.982)" fill="#12263f"/>
      <g id="Grupo_90891" data-name="Grupo 90891" transform="translate(194.254 122.172)">
        <g id="Grupo_90890" data-name="Grupo 90890">
          <g id="Grupo_90889" data-name="Grupo 90889">
            <path id="Trazado_149972" data-name="Trazado 149972" d="M-3101.512,2009.41a8.322,8.322,0,0,1-5.923-2.453,8.321,8.321,0,0,1-2.453-5.923,8.321,8.321,0,0,1,2.453-5.923,8.322,8.322,0,0,1,5.923-2.453,8.321,8.321,0,0,1,5.923,2.453,8.321,8.321,0,0,1,2.454,5.923,8.32,8.32,0,0,1-2.454,5.923A8.321,8.321,0,0,1-3101.512,2009.41Zm0-15.982a7.556,7.556,0,0,0-5.378,2.228,7.555,7.555,0,0,0-2.227,5.378,7.556,7.556,0,0,0,2.227,5.378,7.557,7.557,0,0,0,5.378,2.228,7.556,7.556,0,0,0,5.377-2.228,7.555,7.555,0,0,0,2.228-5.378,7.555,7.555,0,0,0-2.228-5.378A7.554,7.554,0,0,0-3101.512,1993.429Z" transform="translate(3109.888 -1992.658)" fill="#fff"/>
          </g>
          <path id="Trazado_149973" data-name="Trazado 149973" d="M-3077.626,2018.142h-4.044V2014.1h-2.733v4.044h-4.043v2.733h4.043v4.044h2.733v-4.044h4.044Z" transform="translate(3091.413 -2011.132)" fill="#fff"/>
        </g>
      </g>
      <g id="Grupo_90892" data-name="Grupo 90892" transform="translate(217.65 126.397)">
        <path id="Trazado_149974" data-name="Trazado 149974" d="M-2940.774,2024.2H-2939v3.2h3.28v-3.2h1.779v8.083h-1.779v-3.245H-2939v3.245h-1.778Z" transform="translate(2940.774 -2024.058)" fill="#fff"/>
        <path id="Trazado_149975" data-name="Trazado 149975" d="M-2879.919,2027.375a4.18,4.18,0,0,1,4.308-4.18,4.146,4.146,0,0,1,4.284,4.18,4.18,4.18,0,0,1-4.307,4.181A4.147,4.147,0,0,1-2879.919,2027.375Zm6.733,0a2.456,2.456,0,0,0-2.448-2.541,2.424,2.424,0,0,0-2.425,2.541,2.456,2.456,0,0,0,2.448,2.541A2.424,2.424,0,0,0-2873.186,2027.375Z" transform="translate(2888.338 -2023.195)" fill="#fff"/>
        <path id="Trazado_149976" data-name="Trazado 149976" d="M-2810.8,2030.383l1.051-1.259a3.708,3.708,0,0,0,2.413.982c.728,0,1.167-.289,1.167-.786,0-.45-.277-.681-1.628-1.028-1.629-.416-2.68-.866-2.68-2.494,0-1.467,1.178-2.437,2.83-2.437a4.682,4.682,0,0,1,3,1.028l-.924,1.34a3.794,3.794,0,0,0-2.1-.8c-.681,0-1.039.312-1.039.727,0,.531.347.7,1.744,1.063,1.639.427,2.564,1.016,2.564,2.448,0,1.605-1.224,2.506-2.968,2.506A5.143,5.143,0,0,1-2810.8,2030.383Z" transform="translate(2828.777 -2023.339)" fill="#fff"/>
        <path id="Trazado_149977" data-name="Trazado 149977" d="M-2753.363,2024.2h3.3a2.773,2.773,0,0,1,3.095,2.818c0,1.871-1.455,2.841-3.268,2.841h-1.351v2.425h-1.778Zm3.187,4.076a1.256,1.256,0,0,0,1.409-1.247c0-.8-.555-1.224-1.444-1.224h-1.375v2.471Z" transform="translate(2779.29 -2024.058)" fill="#fff"/>
        <path id="Trazado_149978" data-name="Trazado 149978" d="M-2697.014,2024.2h1.778v8.083h-1.778Z" transform="translate(2730.736 -2024.058)" fill="#fff"/>
        <path id="Trazado_149979" data-name="Trazado 149979" d="M-2671.264,2025.837h-2.46v-1.64h6.7v1.64h-2.46v6.444h-1.778Z" transform="translate(2710.668 -2024.058)" fill="#fff"/>
        <path id="Trazado_149980" data-name="Trazado 149980" d="M-2624.513,2023.778h1.64l3.465,8.141h-1.86l-.739-1.813h-3.418l-.739,1.813h-1.813Zm1.871,4.758-1.074-2.621-1.074,2.621Z" transform="translate(2671.25 -2023.697)" fill="#fff"/>
        <path id="Trazado_149981" data-name="Trazado 149981" d="M-2557.02,2024.2h1.778v6.467h4.03v1.616h-5.809Z" transform="translate(2610.109 -2024.058)" fill="#fff"/>
      </g>
      <rect id="Rectángulo_33201" data-name="Rectángulo 33201" width="59.644" height="39.363" transform="translate(344.954 172.896)" fill="#d2e1f1"/>
      <rect id="Rectángulo_33202" data-name="Rectángulo 33202" width="59.644" height="39.363" transform="translate(344.954 114.937)" fill="#f3f9ff"/>
      <rect id="Rectángulo_33203" data-name="Rectángulo 33203" width="116.661" height="15.508" transform="translate(287.938 79.654)" fill="#f3f9ff"/>
      <path id="Trazado_149982" data-name="Trazado 149982" d="M-3143.443,1889.276l147.908,4.46v-6.02h-147.908Z" transform="translate(3333.055 -1780.062)" fill="#dee4f0"/>
      <rect id="Rectángulo_33204" data-name="Rectángulo 33204" width="94.859" height="4.902" transform="translate(94.754 122.172)" fill="#fff"/>
      <path id="Trazado_149983" data-name="Trazado 149983" d="M-4322.86,2561.126c-11.58,2.631-14.667,12.032-22,6.391s-16.6-1.879-21.612-1.634-4.247-11.526-15.054-15.287c-5.2-1.81-13.9-2.129-20.12-1.859a40.056,40.056,0,0,0,1.241,16.292,30.943,30.943,0,0,0,6,11.254c1.312,1.56,3.129,4.306,5.3,5.082h84.773C-4300.089,2571.144-4311.283,2558.492-4322.86,2561.126Z" transform="translate(4417.476 -2349.564)" fill="#f6f6f6"/>
      <path id="Trazado_149984" data-name="Trazado 149984" d="M-4053.206,1387.136s7.843-9.207,26.6-8.184c0,0,27.228-15.345,56.263-2.046,0,0,30.865-3.3,53.722,2.853,15.24,4.1,20.273,8.4,20.273,8.4Z" transform="translate(4116.961 -1335.245)" fill="#fff"/>
      <path id="Trazado_149985" data-name="Trazado 149985" d="M-2831.353,1365.367a6.043,6.043,0,0,1,6.043-6.043,6.042,6.042,0,0,1,6.042,6.043,6.042,6.042,0,0,1-6.042,6.042A6.043,6.043,0,0,1-2831.353,1365.367Z" transform="translate(3064.14 -1324.768)" fill="#fff"/>
      <path id="Trazado_149986" data-name="Trazado 149986" d="M-3398.959,1626.34s4.3-5.042,14.568-4.482c0,0,14.913-8.4,30.816-1.121,0,0,16.905-1.8,29.425,1.563,8.347,2.245,11.1,4.6,11.1,4.6Z" transform="translate(3553.223 -1547.457)" fill="#fff"/>
      <g id="Grupo_90896" data-name="Grupo 90896" transform="translate(212.631 177.109)">
        <rect id="Rectángulo_33205" data-name="Rectángulo 33205" width="103.932" height="54.294" fill="#12263f"/>
        <rect id="Rectángulo_33206" data-name="Rectángulo 33206" width="97.428" height="50.68" transform="translate(3.493 3.797)" fill="#fff"/>
        <rect id="Rectángulo_33207" data-name="Rectángulo 33207" width="90.248" height="11.645" transform="translate(7.182 7.002)" fill="#f3f9ff"/>
        <rect id="Rectángulo_33208" data-name="Rectángulo 33208" width="26.39" height="32.448" transform="translate(7.182 21.81)" fill="#f3f9ff"/>
        <rect id="Rectángulo_33209" data-name="Rectángulo 33209" width="32.446" height="32.448" transform="translate(36.083 21.81)" fill="#12263f"/>
        <rect id="Rectángulo_33210" data-name="Rectángulo 33210" width="26.67" height="32.448" transform="translate(70.76 21.81)" fill="#d2e1f1"/>
        <path id="Trazado_149987" data-name="Trazado 149987" d="M-2677.827,2547.425h21.814v12.009l-3.888,20.439H-2684Z" transform="translate(2724.541 -2525.615)" fill="#ceddfb"/>
        <g id="Grupo_90895" data-name="Grupo 90895" transform="translate(40.337 27.984)">
          <g id="Grupo_90893" data-name="Grupo 90893">
            <rect id="Rectángulo_33211" data-name="Rectángulo 33211" width="24.273" height="26.31" fill="#fff"/>
            <rect id="Rectángulo_33212" data-name="Rectángulo 33212" width="21.959" height="25.121" transform="translate(1.157 1.189)" fill="#d2e1f1"/>
            <rect id="Rectángulo_33213" data-name="Rectángulo 33213" width="0.818" height="25.121" transform="translate(11.727 1.189)" fill="#fff"/>
          </g>
          <g id="Grupo_90894" data-name="Grupo 90894" transform="translate(9.77 13.231)">
            <path id="Trazado_149988" data-name="Trazado 149988" d="M-2614.853,2688.213a.519.519,0,0,1,.519-.519.519.519,0,0,1,.518.519.519.519,0,0,1-.518.519A.519.519,0,0,1-2614.853,2688.213Z" transform="translate(2614.853 -2687.694)" fill="#fff"/>
            <path id="Trazado_149989" data-name="Trazado 149989" d="M-2588.148,2688.213a.519.519,0,0,1,.519-.519.519.519,0,0,1,.519.519.518.518,0,0,1-.519.519A.519.519,0,0,1-2588.148,2688.213Z" transform="translate(2591.842 -2687.694)" fill="#fff"/>
          </g>
        </g>
        <path id="Trazado_149990" data-name="Trazado 149990" d="M-2891.02,2547.425h13.361l-4.265,32.448h-13.362Z" transform="translate(2906.597 -2525.615)" fill="#d2e1f1"/>
        <path id="Trazado_149991" data-name="Trazado 149991" d="M-2846.563,2440.39l-1.531,11.645h-13.362l1.531-11.645Z" transform="translate(2877.447 -2433.387)" fill="#d2e1f1"/>
        <path id="Trazado_149992" data-name="Trazado 149992" d="M-2446.5,2547.425h13.362l-4.265,32.448h-13.362Z" transform="translate(2523.572 -2525.615)" fill="#f3f9ff"/>
        <path id="Trazado_149993" data-name="Trazado 149993" d="M-2402.043,2440.39l-1.531,11.645h-13.362l1.53-11.645Z" transform="translate(2494.422 -2433.387)" fill="#ceddfb"/>
        <path id="Trazado_149994" data-name="Trazado 149994" d="M-2608.718,2440.39l-2.216,11.645h-24.1l2.216-11.645Z" transform="translate(2682.348 -2433.387)" fill="#ceddfb"/>
      </g>
      <path id="Trazado_149995" data-name="Trazado 149995" d="M-2465.412,2564.708h.049l-.049.259Z" transform="translate(2748.823 -2363.398)" fill="#ceddfb"/>
      <path id="Trazado_149996" data-name="Trazado 149996" d="M-3030.089,2713.143a6.614,6.614,0,0,1,5.114-7.116c5.756-1.439,8.014-6.579,14.7-2.261s4.567,9.377,4.567,9.377Z" transform="translate(3235.401 -2481.761)" fill="#bed2fa"/>
      <path id="Trazado_149997" data-name="Trazado 149997" d="M-1941.96,1979.726H-1961.7l8.634-39.362h19.735Z" transform="translate(2314.792 -1825.427)" fill="#d2e1f1"/>
      <path id="Trazado_149998" data-name="Trazado 149998" d="M-1815.564,2398.681H-1835.3l8.634-39.362h19.735Z" transform="translate(2205.881 -2186.422)" fill="#ceddfb"/>
      <path id="Trazado_149999" data-name="Trazado 149999" d="M-2003.258,2359.316l-8.634,39.363h-8.663v-39.363Z" transform="translate(2365.509 -2186.42)" fill="#f3f9ff"/>
      <path id="Trazado_150000" data-name="Trazado 150000" d="M-1724.535,1940.36v39.363h-21.694l9.635-39.363Z" transform="translate(2129.133 -1825.423)" fill="#ceddfb"/>
      <rect id="Rectángulo_33214" data-name="Rectángulo 33214" width="1.645" height="15.508" transform="translate(316.505 79.654)" fill="#dde8fd"/>
      <rect id="Rectángulo_33215" data-name="Rectángulo 33215" width="1.645" height="15.508" transform="translate(349.704 79.654)" fill="#dde8fd"/>
      <rect id="Rectángulo_33216" data-name="Rectángulo 33216" width="1.645" height="15.508" transform="translate(382.082 79.654)" fill="#dde8fd"/>
      <g id="Grupo_90906" data-name="Grupo 90906" transform="translate(110.201 139.736)" opacity="0.5">
        <g id="Grupo_90899" data-name="Grupo 90899">
          <rect id="Rectángulo_33217" data-name="Rectángulo 33217" width="9.89" height="15.61" transform="translate(0.597 0.503)" fill="#6d89cf"/>
          <g id="Grupo_90898" data-name="Grupo 90898">
            <g id="Grupo_90897" data-name="Grupo 90897">
              <path id="Trazado_150001" data-name="Trazado 150001" d="M-3706.572,2136.237h-10.9v-16.616h10.9Zm-9.89-1.006h8.884v-14.6h-8.884Z" transform="translate(3717.468 -2119.621)" fill="#fff"/>
            </g>
            <rect id="Rectángulo_33218" data-name="Rectángulo 33218" width="9.135" height="0.754" transform="translate(0.88 5.723)" fill="#fff"/>
            <rect id="Rectángulo_33219" data-name="Rectángulo 33219" width="9.135" height="0.754" transform="translate(0.88 10.918)" fill="#fff"/>
            <rect id="Rectángulo_33220" data-name="Rectángulo 33220" width="15.684" height="0.754" transform="translate(5.825 0.429) rotate(90)" fill="#fff"/>
          </g>
        </g>
        <g id="Grupo_90902" data-name="Grupo 90902" transform="translate(28.556)">
          <rect id="Rectángulo_33221" data-name="Rectángulo 33221" width="9.89" height="15.61" transform="translate(0.597 0.503)" fill="#6d89cf"/>
          <g id="Grupo_90901" data-name="Grupo 90901">
            <g id="Grupo_90900" data-name="Grupo 90900">
              <path id="Trazado_150002" data-name="Trazado 150002" d="M-3500.157,2136.237h-10.9v-16.616h10.9Zm-9.89-1.006h8.884v-14.6h-8.884Z" transform="translate(3511.053 -2119.621)" fill="#fff"/>
            </g>
            <rect id="Rectángulo_33222" data-name="Rectángulo 33222" width="9.135" height="0.754" transform="translate(0.88 5.723)" fill="#fff"/>
            <rect id="Rectángulo_33223" data-name="Rectángulo 33223" width="9.135" height="0.754" transform="translate(0.88 10.918)" fill="#fff"/>
            <rect id="Rectángulo_33224" data-name="Rectángulo 33224" width="15.684" height="0.754" transform="translate(5.825 0.429) rotate(90)" fill="#fff"/>
          </g>
        </g>
        <g id="Grupo_90905" data-name="Grupo 90905" transform="translate(57.112)">
          <rect id="Rectángulo_33225" data-name="Rectángulo 33225" width="9.889" height="15.61" transform="translate(0.597 0.503)" fill="#6d89cf"/>
          <g id="Grupo_90904" data-name="Grupo 90904">
            <g id="Grupo_90903" data-name="Grupo 90903">
              <path id="Trazado_150003" data-name="Trazado 150003" d="M-3293.741,2136.237h-10.9v-16.616h10.9Zm-9.889-1.006h8.884v-14.6h-8.884Z" transform="translate(3304.636 -2119.621)" fill="#fff"/>
            </g>
            <rect id="Rectángulo_33226" data-name="Rectángulo 33226" width="9.135" height="0.754" transform="translate(0.88 5.723)" fill="#fff"/>
            <rect id="Rectángulo_33227" data-name="Rectángulo 33227" width="9.135" height="0.754" transform="translate(0.88 10.918)" fill="#fff"/>
            <rect id="Rectángulo_33228" data-name="Rectángulo 33228" width="15.684" height="0.754" transform="translate(5.825 0.429) rotate(90)" fill="#fff"/>
          </g>
        </g>
      </g>
      <g id="Grupo_90916" data-name="Grupo 90916" transform="translate(110.201 193.261)" opacity="0.5">
        <g id="Grupo_90909" data-name="Grupo 90909">
          <rect id="Rectángulo_33229" data-name="Rectángulo 33229" width="9.89" height="15.61" transform="translate(0.597 0.503)" fill="#6d89cf"/>
          <g id="Grupo_90908" data-name="Grupo 90908">
            <g id="Grupo_90907" data-name="Grupo 90907">
              <path id="Trazado_150004" data-name="Trazado 150004" d="M-3706.572,2523.141h-10.9v-16.616h10.9Zm-9.89-1.006h8.884v-14.6h-8.884Z" transform="translate(3717.468 -2506.525)" fill="#fff"/>
            </g>
            <rect id="Rectángulo_33230" data-name="Rectángulo 33230" width="9.135" height="0.754" transform="translate(0.88 5.723)" fill="#fff"/>
            <rect id="Rectángulo_33231" data-name="Rectángulo 33231" width="9.135" height="0.754" transform="translate(0.88 10.918)" fill="#fff"/>
            <rect id="Rectángulo_33232" data-name="Rectángulo 33232" width="15.683" height="0.754" transform="translate(5.825 0.43) rotate(90)" fill="#fff"/>
          </g>
        </g>
        <g id="Grupo_90912" data-name="Grupo 90912" transform="translate(28.556)">
          <rect id="Rectángulo_33233" data-name="Rectángulo 33233" width="9.89" height="15.61" transform="translate(0.597 0.503)" fill="#6d89cf"/>
          <g id="Grupo_90911" data-name="Grupo 90911">
            <g id="Grupo_90910" data-name="Grupo 90910">
              <path id="Trazado_150005" data-name="Trazado 150005" d="M-3500.157,2523.141h-10.9v-16.616h10.9Zm-9.89-1.006h8.884v-14.6h-8.884Z" transform="translate(3511.053 -2506.525)" fill="#fff"/>
            </g>
            <rect id="Rectángulo_33234" data-name="Rectángulo 33234" width="9.135" height="0.754" transform="translate(0.88 5.723)" fill="#fff"/>
            <rect id="Rectángulo_33235" data-name="Rectángulo 33235" width="9.135" height="0.754" transform="translate(0.88 10.918)" fill="#fff"/>
            <rect id="Rectángulo_33236" data-name="Rectángulo 33236" width="15.683" height="0.754" transform="translate(5.825 0.43) rotate(90)" fill="#fff"/>
          </g>
        </g>
        <g id="Grupo_90915" data-name="Grupo 90915" transform="translate(57.112)">
          <rect id="Rectángulo_33237" data-name="Rectángulo 33237" width="9.889" height="15.61" transform="translate(0.597 0.503)" fill="#6d89cf"/>
          <g id="Grupo_90914" data-name="Grupo 90914">
            <g id="Grupo_90913" data-name="Grupo 90913">
              <path id="Trazado_150006" data-name="Trazado 150006" d="M-3293.741,2523.141h-10.9v-16.616h10.9Zm-9.889-1.006h8.884v-14.6h-8.884Z" transform="translate(3304.636 -2506.525)" fill="#fff"/>
            </g>
            <rect id="Rectángulo_33238" data-name="Rectángulo 33238" width="9.135" height="0.754" transform="translate(0.88 5.723)" fill="#fff"/>
            <rect id="Rectángulo_33239" data-name="Rectángulo 33239" width="9.135" height="0.754" transform="translate(0.88 10.918)" fill="#fff"/>
            <rect id="Rectángulo_33240" data-name="Rectángulo 33240" width="15.683" height="0.754" transform="translate(5.825 0.43) rotate(90)" fill="#fff"/>
          </g>
        </g>
      </g>
      <rect id="Rectángulo_33241" data-name="Rectángulo 33241" width="154.565" height="5.439" transform="translate(187.314 160.686)" fill="#dde8fd"/>
      <g id="Grupo_90920" data-name="Grupo 90920" transform="translate(43.155 163.65)">
        <path id="Trazado_150008" data-name="Trazado 150008" d="M-4163.677,2307.275c-.248-.479,5.417-2.2,5.506,2.522,0,0,10.612-.261,5.545-6.176-1.754-2.047-1.574-3.74-1.521-5.317s-1.093-6.157-5.021-5.7a2.926,2.926,0,0,0-2.313.248C-4164.4,2294.371-4170.939,2309.018-4163.677,2307.275Z" transform="translate(4171.844 -2292.479)" fill="#12263f"/>
        <path id="Trazado_150009" data-name="Trazado 150009" d="M-4017.67,2429.841s.69-1.052,1.247-1.072,1.588-.309,1.505-.1-.721.227-.783.351.948.309,1.237.33.969,0,.948.145a3.277,3.277,0,0,1-2.077.66,5.769,5.769,0,0,0-1.9.247Z" transform="translate(4043.187 -2409.762)" fill="#fdb2b0"/>
        <path id="Trazado_150010" data-name="Trazado 150010" d="M-4089.884,2387.778a10.314,10.314,0,0,0,1.056,1.6,6.185,6.185,0,0,0,3.676,2.45,3.944,3.944,0,0,0,2.184-.354h0a9.956,9.956,0,0,0,3.381-2.827,1.587,1.587,0,0,0-.216-1.557s-3.9.877-4.269.691-2.536-6.423-3.052-7.207-2.273-1.191-2.273-1.191Z" transform="translate(4105.41 -2367.359)" fill="#f9a825"/>
        <path id="Trazado_150011" data-name="Trazado 150011" d="M-4201.129,2740.959s-1.189,1.085-.958,1.856,1.305,1.285,1.45,2.228.725,1.457,1.247,1.457h2.489s.384-.663-.544-.863-1.278-1.308-1.22-2.335a18.106,18.106,0,0,0-.087-2.4l-1.972-.457Z" transform="translate(4202.116 -2678.473)" fill="#f9a825"/>
        <path id="Trazado_150012" data-name="Trazado 150012" d="M-4123.255,2747.49s-.427,4.6.095,4.854l6.681-.014s0-.771-1.073-.942-2.958-.8-3.278-2.2S-4123.255,2747.49-4123.255,2747.49Z" transform="translate(4134.306 -2684.543)" fill="#f9a825"/>
        <path id="Trazado_150013" data-name="Trazado 150013" d="M-4156.832,2370.542c1.375-3.083,2.216-3.969,2.056-4.926-.12-.712.364-13.28.364-13.28.163-.05.49-.1.669-.135a1.678,1.678,0,0,0,1.225-1.065,8.541,8.541,0,0,0,.416-2.836l.176.034,2.961.587s-.067.932-.069,1.81v.022a1.7,1.7,0,0,0,1.229,1.647l.7.2a27.175,27.175,0,0,1,1.295,6.293c.208,3.189-1.978,4.575.017,10.948C-4143.759,2376.35-4157.592,2372.246-4156.832,2370.542Z" transform="translate(4163.123 -2340.578)" fill="#fdb2b0"/>
        <path id="Trazado_150014" data-name="Trazado 150014" d="M-4118.224,2349.136s-.067.932-.069,1.81c-1.657-.047-2.533-1.558-2.892-2.4Z" transform="translate(4132.381 -2340.793)" fill="#efa2a2"/>
        <path id="Trazado_150015" data-name="Trazado 150015" d="M-4120.491,2317.593s-3.92.065-3.922-2.377-.512-4.079,1.992-4.223,2.99.786,3.19,1.6S-4119.47,2317.513-4120.491,2317.593Z" transform="translate(4135.201 -2308.418)" fill="#fdb2b0"/>
        <path id="Trazado_150016" data-name="Trazado 150016" d="M-4128.487,2307.561s-1.074,2.865-2.72,3.289a3.245,3.245,0,0,1-2.363-.018,4.666,4.666,0,0,0,1.526-2.756S-4129.3,2306.2-4128.487,2307.561Z" transform="translate(4143.053 -2305.047)" fill="#12263f"/>
        <path id="Trazado_150017" data-name="Trazado 150017" d="M-4098.752,2309.424a2.43,2.43,0,0,1,1.124.878,3.947,3.947,0,0,1,.53,2.242s.809-1.948-.1-3.049C-4098.162,2308.327-4098.752,2309.424-4098.752,2309.424Z" transform="translate(4113.051 -2306.677)" fill="#12263f"/>
        <path id="Trazado_150018" data-name="Trazado 150018" d="M-4101.945,2346.994a.985.985,0,0,0,.812.33.722.722,0,0,0,.6-.4A2.636,2.636,0,0,0-4101.945,2346.994Z" transform="translate(4115.803 -2339.334)" fill="#fff"/>
        <path id="Trazado_150019" data-name="Trazado 150019" d="M-4152.785,2383.036s.015,1.859.115,3.544a10.945,10.945,0,0,0,.329,2.526c.4.928.856,1.079.856,1.079l3.507.86,1.233.3,3.89-1.162s1.771-4.944,1.06-7.728a21.383,21.383,0,0,0-1.8-4.717s-3.174,3.107-7.307-.264Z" transform="translate(4159.61 -2365.718)" fill="#f9a825"/>
        <path id="Trazado_150020" data-name="Trazado 150020" d="M-4122.988,2474.768s1.926,6,2.05,8.037-3.682,29-3.835,29.939c-.144.887-1.245,1.452-1.245,1.452a1.665,1.665,0,0,1-1.229.095,3.049,3.049,0,0,1-1.32-.622s-1.5-19.226-.571-26.094a108.822,108.822,0,0,0,.939-12.807Z" transform="translate(4139.496 -2449.55)" fill="#868695"/>
        <path id="Trazado_150021" data-name="Trazado 150021" d="M-4185.093,2473.474s-2.938,3.942-3.212,6.607-.43,12.026-1.014,14.624-2.728,7.6-2.728,15.7a1.616,1.616,0,0,0,.911.712,7.45,7.45,0,0,0,.8.221,1.259,1.259,0,0,0,1.409-.668c1.449-2.918,6.067-12.332,6.3-14.286.168-1.383,1.626-10.535,4.806-15.9.764-1.29-.469-6.417-.469-6.417Z" transform="translate(4193.439 -2448.435)" fill="#868695"/>
        <path id="Trazado_150022" data-name="Trazado 150022" d="M-4101.306,2347.179s.059.29.776.267c0,0,.6-.019.593-.335A1.934,1.934,0,0,0-4101.306,2347.179Z" transform="translate(4115.252 -2339.475)" fill="#fff"/>
        <path id="Trazado_150023" data-name="Trazado 150023" d="M-4135.909,2468.076a4.038,4.038,0,0,1-2.31.643c-1.835.037-6.382-.468-6.382-.468a3.751,3.751,0,0,0-.193,1.161s5.553,1.4,8.771.2A2.033,2.033,0,0,0-4135.909,2468.076Z" transform="translate(4152.724 -2443.784)" fill="#12263f"/>
        <g id="Grupo_90917" data-name="Grupo 90917" transform="translate(14.109 24.621)">
          <path id="Trazado_150024" data-name="Trazado 150024" d="M-4100.132,2471.4a.9.9,0,0,1,.837-.948.9.9,0,0,1,.837.948.9.9,0,0,1-.837.948A.9.9,0,0,1-4100.132,2471.4Zm.278,0a.623.623,0,0,0,.56.67.623.623,0,0,0,.56-.67.623.623,0,0,0-.56-.67A.623.623,0,0,0-4099.854,2471.4Z" transform="translate(4100.132 -2470.451)" fill="#fff"/>
        </g>
        <rect id="Rectángulo_33242" data-name="Rectángulo 33242" width="8.94" height="5.01" transform="translate(9.764 36.398) rotate(-167.832)" fill="#12263f"/>
        <path id="Trazado_150025" data-name="Trazado 150025" d="M-4178.33,2508.446s-2.443,2.047-5.158,1.335a5.424,5.424,0,0,1-3.581-3.219Z" transform="translate(4189.15 -2476.946)" fill="#727997"/>
        <g id="Grupo_90918" data-name="Grupo 90918" transform="translate(9.113 30.695)">
          <path id="Trazado_150026" data-name="Trazado 150026" d="M-4136.244,2514.841a.486.486,0,0,1,.485-.485.486.486,0,0,1,.485.485.486.486,0,0,1-.485.485A.486.486,0,0,1-4136.244,2514.841Zm.161,0a.325.325,0,0,0,.325.324.325.325,0,0,0,.324-.324.325.325,0,0,0-.324-.324A.325.325,0,0,0-4136.083,2514.841Z" transform="translate(4136.244 -2514.356)" fill="#3a49cd"/>
        </g>
        <path id="Trazado_150027" data-name="Trazado 150027" d="M-4195.026,2518.343a3.972,3.972,0,0,1-.138,1.053c-.135.342-.539.8-.673.8s.124-.713.056-.7-.392,1.187-.627,1.216-.45-1.315-.326-1.843a3.582,3.582,0,0,1,.656-1.161Z" transform="translate(4197.511 -2486.549)" fill="#fdb2b0"/>
        <path id="Trazado_150028" data-name="Trazado 150028" d="M-4185.363,2377.477a4.775,4.775,0,0,0-3.336,2.594c-.9,1.777-1.521,7.368-2.157,9.128a55.188,55.188,0,0,0-1.918,7.551.431.431,0,0,0,.266.478l.8.316a.377.377,0,0,0,.463-.157,65.5,65.5,0,0,0,4.474-8.712,14.405,14.405,0,0,1,3.256-5.226Z" transform="translate(4194.073 -2365.719)" fill="#f9a825"/>
        <g id="Grupo_90919" data-name="Grupo 90919" transform="translate(8.478 11.759)">
          <path id="Trazado_150029" data-name="Trazado 150029" d="M-4139.556,2396.521c0-.08.509-8.052.413-12.535a18.679,18.679,0,0,0-.71-4.988,3.6,3.6,0,0,0-.819-1.522l-.164.049c.012.02,1.351,2.033,1.446,6.467.1,4.472-.408,12.434-.413,12.514Z" transform="translate(4140.836 -2377.476)" fill="#12263f"/>
        </g>
      </g>
      <g id="Grupo_90923" data-name="Grupo 90923" transform="translate(130.594 162.961)">
        <g id="Grupo_90921" data-name="Grupo 90921" transform="translate(16.985 38.873)">
          <path id="Trazado_150030" data-name="Trazado 150030" d="M-3434.312,2594.106l-1.238-.4a38.908,38.908,0,0,1,.294-7.39,23.691,23.691,0,0,1,2.147-7.537,9.713,9.713,0,0,1,1.914-2.61s.95-2.206,2.209-5.156c1.4-3.279,10.157-4.24,5.16,2.629-1.025,1.409-2.126,3.891-3.446,5.4a29.884,29.884,0,0,0-4.938,8.231A36.789,36.789,0,0,0-3434.312,2594.106Z" transform="translate(3437.226 -2568.494)" fill="#fdb2b0"/>
          <path id="Trazado_150031" data-name="Trazado 150031" d="M-3447.19,2725.756c-.375.609.436,1.2,1.438,1.766s.588.618,1.87,1.573,2.039.849,2.235.71c.174-.124-.35-.714-.9-1.359l-.207-.245a6.878,6.878,0,0,1-.993-2.617,10.092,10.092,0,0,1,.16-3.162l-1.712-1.359s-.348,2.05-.539,2.9a2.631,2.631,0,0,1-.856,1.232A2.816,2.816,0,0,0-3447.19,2725.756Z" transform="translate(3447.284 -2699.957)" fill="#fdb2b0"/>
          <path id="Trazado_150032" data-name="Trazado 150032" d="M-3445.752,2753.286c1,.562.588.618,1.87,1.573s2.039.85,2.235.71c.174-.124-.35-.713-.9-1.359l-.017.006a4.479,4.479,0,0,1-2.147-1.034c-.806-.716-1.431-1.72-1.984-2.219a2.809,2.809,0,0,0-.5.557C-3447.566,2752.128-3446.755,2752.724-3445.752,2753.286Z" transform="translate(3447.284 -2725.72)" fill="#b42218"/>
        </g>
        <g id="Grupo_90922" data-name="Grupo 90922" transform="translate(0 34.642)">
          <path id="Trazado_150033" data-name="Trazado 150033" d="M-3519.541,2692.7l-1.427.74a23.99,23.99,0,0,1-1.617-2.456,8.931,8.931,0,0,1-1.144-2.86c-.292-2.1-2.513-5.548-2.282-6.136s4.637-1.6,4.637-1.6.862,5.9,1.434,9.709C-3519.773,2691.211-3519.631,2692.146-3519.541,2692.7Z" transform="translate(3532.12 -2660.678)" fill="#fdb2b0"/>
          <path id="Trazado_150034" data-name="Trazado 150034" d="M-3534.367,2680.685a9.122,9.122,0,0,1-2.224.75,7.147,7.147,0,0,1-2.02.126c-.119-.012-.183-.023-.183-.023a8.265,8.265,0,0,1-1.712-1.9,14.566,14.566,0,0,1-1.468-2.986l6.728-.655Z" transform="translate(3545.858 -2656.892)" fill="#12263f"/>
          <path id="Trazado_150035" data-name="Trazado 150035" d="M-3515.648,2697.811a7.169,7.169,0,0,1-2.02.126l.756-2.938A10.806,10.806,0,0,1-3515.648,2697.811Z" transform="translate(3524.916 -2673.267)" fill="#12263f"/>
          <path id="Trazado_150036" data-name="Trazado 150036" d="M-3498.094,2753.18l-1.427.74a23.92,23.92,0,0,1-1.617-2.456,5.662,5.662,0,0,0,2.645-.89C-3498.326,2751.687-3498.184,2752.622-3498.094,2753.18Z" transform="translate(3510.673 -2721.154)" fill="#fff"/>
          <path id="Trazado_150037" data-name="Trazado 150037" d="M-3555.009,2681.6a23.61,23.61,0,0,0-2.9,6.121,8.751,8.751,0,0,1-2.019,2.824c-.859.9-1.727,1.7-2.048,2.09l-1.454-.7a19.4,19.4,0,0,1,1.267-2.8,7.928,7.928,0,0,1,.929-1.345c.463-.518.311-7.064.771-7.5S-3555.009,2681.6-3555.009,2681.6Z" transform="translate(3564.344 -2660.542)" fill="#fdb2b0"/>
          <path id="Trazado_150038" data-name="Trazado 150038" d="M-3541.263,2679.176l-2.663,5.413a7.534,7.534,0,0,1-3.383-.722,3.6,3.6,0,0,1-1.162-.98l.83-3.712Z" transform="translate(3551.458 -2659.633)" fill="#12263f"/>
          <path id="Trazado_150039" data-name="Trazado 150039" d="M-3560.284,2541.492a2.11,2.11,0,0,0-3.094-.771c-2.188,1.134-.058,5.457-1.206,6.524s.417,1.767.183,2.532.433,1.636,1.964,1.534,3.144-.02,3.835-1.359a8.148,8.148,0,0,0,.267-4.7C-3558.6,2544.835-3560.284,2541.492-3560.284,2541.492Z" transform="translate(3565.709 -2540.021)" fill="#ab4e49"/>
          <path id="Trazado_150040" data-name="Trazado 150040" d="M-3532.164,2605.744l.007,0C-3532.163,2605.751-3532.164,2605.744-3532.164,2605.744Z" transform="translate(3537.407 -2596.36)" fill="#fdb2b0"/>
          <path id="Trazado_150041" data-name="Trazado 150041" d="M-3528.391,2592.994l-3.721-2.245a3.382,3.382,0,0,0,.374-.925,4.507,4.507,0,0,0,.213-.877c0-.024.006-.047.008-.069a2.4,2.4,0,0,0,.01-.541l.815.3,1.507.546a1.865,1.865,0,0,0,.117.836.672.672,0,0,0,.574.451Z" transform="translate(3537.362 -2581.361)" fill="#fdb2b0"/>
          <path id="Trazado_150042" data-name="Trazado 150042" d="M-3525.665,2591.851a2.8,2.8,0,0,1-2.459-1.066c-.027-.035-.04-.055-.04-.055l.049-.014c.118-.035.44-.132.825-.246l1.508.546A1.864,1.864,0,0,0-3525.665,2591.851Z" transform="translate(3533.961 -2583.198)" fill="#fc9290"/>
          <path id="Trazado_150043" data-name="Trazado 150043" d="M-3530.695,2563.986s-3.237.356-3.3-1.833-.545-3.19,1.695-3.385,2.769.612,2.9,1.352C-3528.99,2562.433-3529.783,2563.887-3530.695,2563.986Z" transform="translate(3539.063 -2555.856)" fill="#fdb2b0"/>
          <path id="Trazado_150044" data-name="Trazado 150044" d="M-3553.7,2541.924c-.045-.1-.078-.167-.078-.167A.536.536,0,0,1-3553.7,2541.924Z" transform="translate(3556.027 -2541.225)" fill="#a83f3f"/>
          <path id="Trazado_150045" data-name="Trazado 150045" d="M-3502.053,2560.734s3.1-2.385,3.435-3.174a25.387,25.387,0,0,1,2.124-3.974s.772-.1.882.435a14.032,14.032,0,0,1-1.324,4.661c-.589.957-3.411,4.2-4.338,4.673Z" transform="translate(3511.461 -2551.411)" fill="#fdb2b0"/>
          <path id="Trazado_150046" data-name="Trazado 150046" d="M-3459.9,2538.624a1.692,1.692,0,0,1-.3.727c-.174.2-.45.614-.624.88-.113.164-.185.287-.185.287l-.88-.43s-.021-1.494.563-1.812c.02-.01.031-.02.051-.02a3.668,3.668,0,0,1,.686-.287.888.888,0,0,1,.614-.01C-3459.856,2538.02-3459.836,2538.317-3459.9,2538.624Z" transform="translate(3476.848 -2537.91)" fill="#fdb2b0"/>
          <path id="Trazado_150047" data-name="Trazado 150047" d="M-3541.059,2547.976c-1.145-.29-.707,1.739-1,1.6-.324-.156-.88-.153-.792.238a7.425,7.425,0,0,0,.281.775c.066.244,0,.728-.267.63s-2.743-2.926-.994-5.129,6.964-.846,5.322,1.459A3.32,3.32,0,0,1-3541.059,2547.976Z" transform="translate(3547.992 -2543.996)" fill="#ab4e49"/>
          <path id="Trazado_150048" data-name="Trazado 150048" d="M-3540.367,2611.155a5.575,5.575,0,0,1-2.5.492,17.407,17.407,0,0,1-4.379-.92c-.759-.273-1.278-.565-1.215-.811.09-.353.74-3.066,1.34-5.577.549-2.3,1.057-4.422,1.057-4.422s1.516,1.077,2.4.7.77-.81.77-.81a1.825,1.825,0,0,1,.849-.147c.271.085,1.04-.35,1.04-.35a2.743,2.743,0,0,1,.882,2.066,3.883,3.883,0,0,1-.044.677l-.613.707A18.7,18.7,0,0,1-3540.367,2611.155Z" transform="translate(3551.458 -2590.814)" fill="#4cb4ae"/>
          <path id="Trazado_150049" data-name="Trazado 150049" d="M-3488.791,2769.927h-4.262a5.4,5.4,0,0,1,.017-1.286.361.361,0,0,1,.105-.194,1.54,1.54,0,0,0,1.024,0,2.106,2.106,0,0,0,.754-.469c.044.043.925.882,1.332.882A.958.958,0,0,1-3488.791,2769.927Z" transform="translate(3503.734 -2736.148)" fill="#4cb4ae"/>
          <path id="Trazado_150050" data-name="Trazado 150050" d="M-3559.924,2746.04c-.859.9-1.727,1.7-2.048,2.09l-1.454-.7a19.415,19.415,0,0,1,1.267-2.8A3.111,3.111,0,0,0-3559.924,2746.04Z" transform="translate(3564.344 -2716.036)" fill="#fff"/>
          <path id="Trazado_150051" data-name="Trazado 150051" d="M-3567.375,2763.5s-.053.926.255,1.048.884.426.884,1.013h-2.135a8.012,8.012,0,0,1-1.669-1.032c-.2-.308.981-1.621.981-1.621A1.929,1.929,0,0,0-3567.375,2763.5Z" transform="translate(3570.062 -2731.781)" fill="#4cb4ae"/>
          <path id="Trazado_150052" data-name="Trazado 150052" d="M-3526.041,2658.093a2.486,2.486,0,0,1,1.3.065c.365.239.474.614.21.767a1.7,1.7,0,0,1-1.662-.051Z" transform="translate(3532.26 -2641.413)" fill="#fdb2b0"/>
          <path id="Trazado_150053" data-name="Trazado 150053" d="M-3556.095,2605.834s-2.88.61-4.015,5.086a1.358,1.358,0,0,0,.307,1.241c.522.578,1.673,1.425,4.35,1.736.292.034.332-.708.332-.708a19.226,19.226,0,0,1-2.58-1.809.419.419,0,0,1-.032-.518,12.263,12.263,0,0,0,.834-1.42C-3556.688,2608.935-3555.29,2606.065-3556.095,2605.834Z" transform="translate(3561.522 -2596.438)" fill="#fdb2b0"/>
          <path id="Trazado_150054" data-name="Trazado 150054" d="M-3550.241,2603.719a4.623,4.623,0,0,0-3.073,1.961,3.349,3.349,0,0,0,2.66,2.145S-3549.3,2604.776-3550.241,2603.719Z" transform="translate(3555.631 -2594.615)" fill="#4cb4ae"/>
        </g>
        <path id="Trazado_150055" data-name="Trazado 150055" d="M-3414.1,2287.515a4.722,4.722,0,0,0-4.54,2.443c-1.519,2.811-1.4,6.884-2.868,8.8a2.929,2.929,0,0,0,.245,3.742l11.472.387a7.974,7.974,0,0,0,0-4.724C-3410.584,2295.591-3406.688,2287.9-3414.1,2287.515Z" transform="translate(3442.57 -2287.499)" fill="#ab4e49"/>
        <path id="Trazado_150056" data-name="Trazado 150056" d="M-3343.891,2425.54c-.118.448-.5,1.461-.8,1.461-.243,0-.331-1.24-.644-1.5a3.793,3.793,0,0,1-.883-1.377c-.122-.4-.236-.483-.236-.483h0s-3.627-6.632-3.911-8.33c-.094-.552-.331-1.662-.61-2.9-.3-1.35-.654-2.858-.92-3.988a21.007,21.007,0,0,1,3.483-.325c.213,1.374.4,2.778.567,4,.244,1.815.429,3.223.543,3.525.315.828,1.185,5.292,2,7.609a2.743,2.743,0,0,0,.652,1.023C-3344.282,2424.5-3343.774,2425.091-3343.891,2425.54Z" transform="translate(3382.077 -2391.407)" fill="#efa2a2"/>
        <path id="Trazado_150057" data-name="Trazado 150057" d="M-3431.122,2361.262c-2-6.4,2.03-6.321,1.821-9.527s-2.69-6.651-2.69-6.651l-.244-.023a.222.222,0,0,1-.187-.144,5.184,5.184,0,0,1-.118-1.385c0-.882.07-1.819.07-1.819l-2.976-.59-.177-.034a7.725,7.725,0,0,1-.585,3.251,1,1,0,0,1-.76.55,11.541,11.541,0,0,0-2.522.6,1.379,1.379,0,0,0-.748.552c-.817,1.8-1.633,6.332-2.207,9.567-.32,1.8-.563,3.2-.691,3.5-.355.828-1.439,5.38-2.365,7.627l1.183.355s3.9-6.475,4.257-8.159c.116-.549.4-1.646.731-2.876l.153-.566a9.4,9.4,0,0,1,.867,3c-.023.975-.684,1.851-2.066,4.95C-3441.14,2365.154-3429.076,2367.8-3431.122,2361.262Z" transform="translate(3462.733 -2333.675)" fill="#fdb2b0"/>
        <path id="Trazado_150058" data-name="Trazado 150058" d="M-3369.848,2341.929s-.068.936-.07,1.819c-1.665-.047-2.545-1.566-2.906-2.408Z" transform="translate(3400.11 -2333.891)" fill="#efa2a2"/>
        <path id="Trazado_150059" data-name="Trazado 150059" d="M-3372.125,2310.227s-3.94.065-3.943-2.389-.513-4.1,2-4.244,3.006.791,3.206,1.61S-3371.1,2310.147-3372.125,2310.227Z" transform="translate(3402.944 -2301.354)" fill="#fdb2b0"/>
        <path id="Trazado_150060" data-name="Trazado 150060" d="M-3366.161,2534.5l-1.264.311a38.94,38.94,0,0,1-3.641-6.437,23.691,23.691,0,0,1-2.143-7.539,9.72,9.72,0,0,1,.253-3.227s-.354-2.376-.837-5.547c-.537-3.525-1.233-8.031-1.778-11.344l.329-.1,5.38-3.146a32.109,32.109,0,0,1,1.84,14.106c-.129,1.738.241,4.428-.087,6.4a29.864,29.864,0,0,0,.135,9.6A36.753,36.753,0,0,0-3366.161,2534.5Z" transform="translate(3402.477 -2468.423)" fill="#fdb2b0"/>
        <path id="Trazado_150061" data-name="Trazado 150061" d="M-3403.77,2431.372c.739,2.04,1.119,2.872,1.1,3.643a10.09,10.09,0,0,1,6.605-4.194l-8.073-.923A7.609,7.609,0,0,0-3403.77,2431.372Z" transform="translate(3427.092 -2410.198)" fill="#ea8888"/>
        <path id="Trazado_150062" data-name="Trazado 150062" d="M-3378.869,2300.718c-.608-.737-1.068-.577-1.326-.356a2.8,2.8,0,0,0-3.543.568,4.688,4.688,0,0,1-1.533,2.77,3.809,3.809,0,0,0,2.374.018c1.985-.421,2.531-2.658,2.61-2.949a3.081,3.081,0,0,1,.859,1.145c.2.625.285,1.912.66,1.868C-3378.768,2303.782-3377.955,2301.825-3378.869,2300.718Z" transform="translate(3410.835 -2298.233)" fill="#ab4e49"/>
        <path id="Trazado_150063" data-name="Trazado 150063" d="M-3454.574,2525.036a3.083,3.083,0,0,1-.734,1.084c-.375.237-.906.808-.808,1.261s.2,1.163.67,1.163,1.577-2.089,1.715-2.483.256-.473.256-.473Z" transform="translate(3471.89 -2492.175)" fill="#fdb2b0"/>
        <path id="Trazado_150064" data-name="Trazado 150064" d="M-3418.256,2409.14c-4.758,2.719-17.282-1.611-17.269-1.861.066-1.331,1.27-9.341,2.683-16.984.869-4.7,3.182-6.457,2.812-6.753l-.005-.005c-1.427-1.012-.81-2.75-.716-3.372a4.735,4.735,0,0,1-3.469-.508c.666-3.257,1.616-7.826,2.567-9.635a.734.734,0,0,1,.234-.247.048.048,0,0,1-.009-.011,7.093,7.093,0,0,1,2.711-.848,26.839,26.839,0,0,0,1.281,2.777c1.942,2.426,5.43,1.331,4.955-.18a26.549,26.549,0,0,0-1.159-2.476,2.355,2.355,0,0,1,.247.024c.585.077,1,.136,1.3.188a1.737,1.737,0,0,1,.876.282,6.05,6.05,0,0,1,1.235,4.066c.02.847.9,10.195-1.951,10.033-.065,0-.01.149.114.438a20.4,20.4,0,0,1,1.877,6.229C-3418.867,2399.989-3418.256,2409.14-3418.256,2409.14Z" transform="translate(3454.137 -2357.652)" fill="#fff"/>
        <path id="Trazado_150065" data-name="Trazado 150065" d="M-3355.475,2339.889s.075.3.828.247c0,0,.632-.047.609-.379A2.036,2.036,0,0,0-3355.475,2339.889Z" transform="translate(3385.161 -2332.465)" fill="#fff"/>
        <path id="Trazado_150066" data-name="Trazado 150066" d="M-3444.8,2532.445s-.129.954-.381,1.174-.288.616-.546.4S-3444.8,2532.445-3444.8,2532.445Z" transform="translate(3462.962 -2498.559)" fill="#fdb2b0"/>
        <path id="Trazado_150067" data-name="Trazado 150067" d="M-3329.539,2745.947c0,.715,1,.794,2.152.744s.825.216,2.418.353,2.181-.351,2.274-.573c.083-.2-.673-.423-1.48-.681l-.3-.1a6.87,6.87,0,0,1-2.223-1.7,10.089,10.089,0,0,1-1.529-2.772l-2.171-.255s.784,1.926,1.071,2.753a2.634,2.634,0,0,1-.079,1.5A2.791,2.791,0,0,0-3329.539,2745.947Z" transform="translate(3363.557 -2678.229)" fill="#fdb2b0"/>
        <path id="Trazado_150068" data-name="Trazado 150068" d="M-3322.01,2773.171c1.148-.05.825.216,2.418.353s2.18-.351,2.274-.573c.083-.2-.673-.423-1.48-.681l-.011.014a4.481,4.481,0,0,1-2.37.252c-1.063-.184-2.123-.709-2.855-.842a2.811,2.811,0,0,0-.129.735C-3324.161,2773.142-3323.157,2773.221-3322.01,2773.171Z" transform="translate(3358.18 -2704.708)" fill="#b42218"/>
        <path id="Trazado_150069" data-name="Trazado 150069" d="M-3418.256,2500.241c-4.758,2.719-17.282-1.61-17.269-1.861.066-1.331,1.27-9.341,2.683-16.984.869-4.7,3.182-6.457,2.812-6.753a5.721,5.721,0,0,0,3.891,1.007,40.633,40.633,0,0,0,4.316-.482,20.4,20.4,0,0,1,1.877,6.229C-3418.867,2491.09-3418.256,2500.241-3418.256,2500.241Z" transform="translate(3454.137 -2448.753)" fill="#12263f"/>
        <path id="Trazado_150070" data-name="Trazado 150070" d="M-3396.888,2474.6a12.148,12.148,0,0,0,8.1.092l.213.659a13.268,13.268,0,0,1-8.48-.207Z" transform="translate(3420.99 -2448.72)" fill="#b42218"/>
      </g>
      <path id="Rectángulo_33243" data-name="Rectángulo 33243" d="M.655,0H492.873a.655.655,0,0,1,.655.655v0a.655.655,0,0,1-.655.655H.654A.654.654,0,0,1,0,.655v0A.655.655,0,0,1,.655,0Z" transform="translate(0 231.382)" fill="#232065"/>
      <g id="Grupo_90925" data-name="Grupo 90925" transform="translate(71.788 155.811)">
        <path id="Trazado_150071" data-name="Trazado 150071" d="M-3866.806,2769.362h-4.22a10.2,10.2,0,0,1,.337-1.514,4.3,4.3,0,0,1,.239-.608c.41-.819,3.017-.3,3.017-.3a2,2,0,0,1,.431,1A8.415,8.415,0,0,1-3866.806,2769.362Z" transform="translate(3888.196 -2693.324)" fill="#727997"/>
        <path id="Trazado_150072" data-name="Trazado 150072" d="M-3953.679,2319.547s-3.363.59-4.123,2.575-5.055,34.043-5.055,34.043,2.127,1.685,6.692,1.08S-3953.679,2319.547-3953.679,2319.547Z" transform="translate(3967.323 -2307.964)" fill="#f9f9f9"/>
        <path id="Trazado_150073" data-name="Trazado 150073" d="M-3986.5,2757.333a2.289,2.289,0,0,1-.292,1.332h-8.346a1.438,1.438,0,0,1,1.263-.9,6.329,6.329,0,0,0,3.377-1.563,2.514,2.514,0,0,0,.654-1.184c.393-1.748,3.247.536,3.247.536A14.147,14.147,0,0,1-3986.5,2757.333Z" transform="translate(3995.137 -2682.626)" fill="#727997"/>
        <path id="Trazado_150074" data-name="Trazado 150074" d="M-3962.281,2524.672c.933.3,2.715,1.206,3.848.779.732-.276,4.823-12.109,5.088-17.285a13.28,13.28,0,0,1,.209-1.542c.242-1.336.666-3.171,1.154-5.2,1.31-5.427,3.08-12.217,3.042-14.387-.059-3.368-10.038-.706-10.038-.706a36.025,36.025,0,0,0-.823,6.763c-.271,7.94-1.016,21.352-3.042,30.667A.8.8,0,0,0-3962.281,2524.672Z" transform="translate(3967.324 -2450.816)" fill="#12263f"/>
        <path id="Trazado_150075" data-name="Trazado 150075" d="M-3908.615,2490.165l5.275,38.232a10.323,10.323,0,0,0,4.119.112s1.544-20.333,1.415-25.249,1.109-13.154-.282-14.062S-3908.615,2490.165-3908.615,2490.165Z" transform="translate(3920.584 -2453.93)" fill="#12263f"/>
        <path id="Trazado_150076" data-name="Trazado 150076" d="M-3925.112,2318.047s-5.544-3.584-9.52-1.751a7.451,7.451,0,0,0-1.874,1.677c-1.437,1.584-4.246,26.741-4.246,26.741s7.972,2.7,15.639-.916Z" transform="translate(3948.275 -2304.713)" fill="#fff"/>
        <path id="Trazado_150077" data-name="Trazado 150077" d="M-3958.608,2318.89s-5.612,2.3-6.373,4.067a107.943,107.943,0,0,0-3.23,13.892c0,1.273,4.3.284,4.994-1.768.575-1.7,2.515-6.94,3.537-10.252Z" transform="translate(3971.936 -2307.397)" fill="#f9f9f9"/>
        <g id="Grupo_90924" data-name="Grupo 90924" transform="translate(12.177)">
          <path id="Trazado_150078" data-name="Trazado 150078" d="M-3896.025,2300.329a6.315,6.315,0,0,0,4.343-.884,12.5,12.5,0,0,1-.926-3.269c-.005-.039-.009-.076-.013-.112a3.326,3.326,0,0,1-.015-.749h-3.167s-.866.4-.866.67q0,.219,0,.42c-.007.364-.021.682-.04.955a8.664,8.664,0,0,1-.162,1.308S-3897.262,2300.086-3896.025,2300.329Z" transform="translate(3898.341 -2287.084)" fill="#fdb2b0"/>
          <path id="Trazado_150079" data-name="Trazado 150079" d="M-3895.345,2301a4.376,4.376,0,0,0,4.1-1.184c.044-.048.067-.077.067-.077-.025-.013-.052-.024-.08-.036a7.434,7.434,0,0,0-4.052.341C-3895.311,2300.406-3895.326,2300.724-3895.345,2301Z" transform="translate(3896.973 -2290.721)" fill="#ee9f9f"/>
          <path id="Trazado_150080" data-name="Trazado 150080" d="M-3898.008,2255.351c-.429,2.308-3.407,2.232-4.693,2.087-.362-.041-.59-.086-.59-.086-.409-.109-.636-.752-.742-1.595a13.132,13.132,0,0,1,.336-4.741c.425-.942,1.223-1.961,4.222-1.226S-3897.458,2252.394-3898.008,2255.351Z" transform="translate(3904.524 -2247.64)" fill="#fdb2b0"/>
          <path id="Trazado_150081" data-name="Trazado 150081" d="M-3906.4,2237.9a6.862,6.862,0,0,1,2.069-1.688,5,5,0,0,1,3.875.033c2.45,1.077,3.089,2.951,1.79,5.87-1.373,3.087-2.681,2.74-2.681,2.74s.278-.173.253-1.135c0-.054,0-.1-.006-.14a.646.646,0,0,1,.2-.526c.3-.272.453-1.093.2-1.321-.307-.276-.739.059-.877.317a.376.376,0,0,1-.538.118c-.762-.482-.267-1.446-1-2.035s-2.207-.094-3.3-.565C-3907.835,2239.039-3906.7,2238.331-3906.4,2237.9Z" transform="translate(3907.112 -2235.816)" fill="#12263f"/>
        </g>
        <path id="Trazado_150082" data-name="Trazado 150082" d="M-3904.734,2358.011c.483.124.96.226,1.436.3.42.072.838.125,1.257.161a20.426,20.426,0,0,0,7.541-.926c.627-.18,1.275-.384,1.948-.61.071-.024-.184-7.389-.477-14.987-.03-.784-.061-1.572-.091-2.354q-.02-.5-.039-.989c-.267-6.719-.531-12.787-.587-13.114-.127-.74-.246-1.37-.376-1.916a4.851,4.851,0,0,0-1.878-3.216c-.1-.076-.921-.49-1.646-.851-.6-.3-1.134-.559-1.134-.559h0a3.176,3.176,0,0,0-.826,1.433,51.771,51.771,0,0,0-1.562,5.205s0,.007,0,.008h0c-.267,1.046-.458,1.86-.513,2.094-.092.395-.215,1.158-.358,2.194-.2,1.41-.428,3.323-.675,5.494q-.038.335-.076.677-.044.391-.088.79c-.009.085-.019.171-.028.256-.095.86-.19,1.747-.286,2.649-.079.746-1.21,1.285-1.288,2.043-.045.445-.139,4.554-.26,5.865C-3904.831,2348.6-3904.769,2357.571-3904.734,2358.011Z" transform="translate(3917.287 -2307.454)" fill="#f9f9f9"/>
        <path id="Trazado_150083" data-name="Trazado 150083" d="M-3893.354,2385.815c0,.015.192,6.794-4.907,7.618s-1.711,1.041-1.711,1.041,9.595-.408,9.753-.661S-3893.354,2385.815-3893.354,2385.815Z" transform="translate(3914.089 -2365.064)" fill="#e4e5e7"/>
        <path id="Trazado_150084" data-name="Trazado 150084" d="M-3876.4,2453.369s.1.068.279.187l.01.005a23.94,23.94,0,0,0,6.448,2.758c.353.1.718.186,1.094.269-.03-.784-.061-1.571-.091-2.353a9.772,9.772,0,0,0,1.264-.175c-.013-.1-.028-.206-.041-.31-.428-.176-.853-.345-1.262-.5-.334-.131-.657-.255-.963-.37-1.381-.525-2.4-.88-2.4-.88l-4.088,1.3Z" transform="translate(3892.83 -2422.089)" fill="#e4e5e7"/>
        <path id="Trazado_150085" data-name="Trazado 150085" d="M-3884.225,2338.62s.525.131,1.361.3l.009,0a33.521,33.521,0,0,0,6.449.721c.342,0,.677-.017,1-.042a9.769,9.769,0,0,0,1.264-.175,3.928,3.928,0,0,0,2.019-.953c3.444-3.508-1.879-16.1-3-17.324-1.307-1.43-3.692-1.932-5.009-2.1l-.159-.02c-.463-.055-.76-.067-.777-.067h0s.1.332.276.9c.067.218.146.47.231.752.809,2.649,2.37,7.855,3.058,10.792a7.439,7.439,0,0,1,.326,2.075c-.269,1-3.052,1.518-4.814,1.746-.735.1-1.293.14-1.418.15l-.026,0-.1.418-.244,1-.24.985Z" transform="translate(3899.569 -2307.454)" fill="#f9f9f9"/>
        <path id="Trazado_150086" data-name="Trazado 150086" d="M-3968.61,2409.805l11.829-.5-2.4-14.741-11.829.5Z" transform="translate(3974.348 -2372.604)" fill="#b42218"/>
        <path id="Trazado_150087" data-name="Trazado 150087" d="M-3893.7,2437.451s-2.3-.161-2.418.376c-.269,1.251,1.979,2.278,2.708,2.208S-3893.173,2437.368-3893.7,2437.451Z" transform="translate(3909.838 -2409.537)" fill="#fdb2b0"/>
        <path id="Trazado_150088" data-name="Trazado 150088" d="M-3968.386,2417.485s2.2-.689,2.44-.193c.551,1.155-1.4,2.674-2.124,2.775S-3968.921,2417.526-3968.386,2417.485Z" transform="translate(3972.37 -2392.032)" fill="#fdb2b0"/>
        <path id="Trazado_150089" data-name="Trazado 150089" d="M-3876.5,2313.606a2.744,2.744,0,0,1,1.579.886s-3.745,6.559-3.729,6.5S-3877.429,2314.411-3876.5,2313.606Z" transform="translate(3894.768 -2302.844)" fill="#e4e5e7"/>
        <path id="Trazado_150090" data-name="Trazado 150090" d="M-3905.045,2314.246a2.761,2.761,0,0,0-1.068,1.094l-.431,5.488s.919-4.028,1.387-5.848A3.089,3.089,0,0,0-3905.045,2314.246Z" transform="translate(3918.8 -2303.396)" fill="#e4e5e7"/>
        <path id="Trazado_150091" data-name="Trazado 150091" d="M-3943.3,2393.484a.538.538,0,0,0-.632-.362c-.538.047-3.563.2-3.563.2s-.583-.01-.53.364Z" transform="translate(3954.546 -2371.357)" fill="#12263f"/>
      </g>
    </g>
    <g id="Grupo_90985" data-name="Grupo 90985" transform="translate(-4273.389 1067.735)">
      <g id="Grupo_90984" data-name="Grupo 90984" transform="translate(0 -3.343)" clip-path="url(#clip-path)">
        <g id="Grupo_90983" data-name="Grupo 90983" transform="translate(1.212 10.211)">
          <g id="Grupo_90938" data-name="Grupo 90938" transform="translate(78.252 162.878)">
            <g id="Grupo_90932" data-name="Grupo 90932">
              <g id="Grupo_90927" data-name="Grupo 90927" transform="translate(40.496)">
                <path id="Trazado_150092" data-name="Trazado 150092" d="M-1889.436,2294.9s-13.319,60.565-15.581,73.382.5,16.587,4.021,17.843,15.079,4.021,24.377-11.812,21.612-39.706,26.89-47.245,8.8-36.188,8.8-36.188Z" transform="translate(1905.838 -2290.883)" fill="#ecedea"/>
                <path id="Trazado_150093" data-name="Trazado 150093" d="M-1654.68,2421.264s-.3,27.048-1.948,44.456c4.434-8.047,8.781-16.021,12.211-21.908Z" transform="translate(1696.156 -2400.584)" fill="#e4e5e7"/>
              </g>
              <g id="Grupo_90931" data-name="Grupo 90931" transform="translate(0 76.177)">
                <g id="Grupo_90930" data-name="Grupo 90930" transform="translate(0 74.104)">
                  <path id="Trazado_150094" data-name="Trazado 150094" d="M-2160.5,3443.524v3.77c0,.377,1.759,2.891,11.057,3.644s12.063-1.382,20.356-1.005,14.569.307,16.586-.167c2.848-.67,1.885-6.115,1.885-6.115Z" transform="translate(2160.605 -3410.98)" fill="#26354c"/>
                  <g id="Grupo_90929" data-name="Grupo 90929">
                    <path id="Trazado_150095" data-name="Trazado 150095" d="M-2129.256,3238.346s-3.392,15.581-4.523,18.723c0,0-3.142-.252-4.4,1.131,0,0-24.754-3.644-22.869,12.691,0,0,2.638,6.031,20.356,4.9,6.157-.5,14.576-1.13,19.476-.879s9.8.377,10.178-4.649c0-1.759,0-6.157-.628-8.293s6.408-18.848,6.408-18.848Z" transform="translate(2161.148 -3238.346)" fill="#f9c977"/>
                    <g id="Grupo_90928" data-name="Grupo 90928" transform="translate(22.95 18.679)">
                      <path id="Trazado_150096" data-name="Trazado 150096" d="M-1988.624,3356.108a9.447,9.447,0,0,1,1.587.206c.261.059.523.122.781.2.13.037.258.08.385.125s.257.085.382.139.253.1.382.146l.381.159a2.418,2.418,0,0,1,.365.2,2.406,2.406,0,0,1,.335.245c.1.093.205.188.3.287a3.5,3.5,0,0,1,.266.327c.042.056.082.113.121.171s.07.124.1.187a2.845,2.845,0,0,1,.166.4l-.066.058a13.294,13.294,0,0,1-1.4-.707c-.1-.067-.218-.12-.32-.19s-.2-.145-.307-.214l-.307-.223c-.106-.069-.214-.135-.324-.2s-.223-.122-.335-.183-.226-.119-.343-.172c-.229-.117-.464-.222-.7-.324a14.068,14.068,0,0,0-1.467-.538Z" transform="translate(1993.048 -3356.108)" fill="#f9bc67"/>
                      <path id="Trazado_150097" data-name="Trazado 150097" d="M-2016.414,3363.269c.365.123.717.27,1.069.422.175.079.349.16.522.242s.342.175.511.268.346.176.521.265a1.789,1.789,0,0,1,.466.355,2.5,2.5,0,0,1,.363.486,2.552,2.552,0,0,1,.133.287,1.638,1.638,0,0,1,.072.324l-.07.054a2.6,2.6,0,0,1-.3-.1c-.1-.034-.183-.072-.267-.111a5.008,5.008,0,0,1-.49-.255,2.171,2.171,0,0,1-.427-.336c-.131-.131-.259-.267-.4-.386s-.286-.238-.43-.357-.289-.241-.435-.359l-.881-.719Z" transform="translate(2016.456 -3362.133)" fill="#f9bc67"/>
                    </g>
                  </g>
                </g>
                <path id="Trazado_150098" data-name="Trazado 150098" d="M-1953.48,2772.375s-1.508,4.523-4.524,33.926c-1,9.549-2.261,18.848-3.769,24.377s-2.316,12.934-1.005,15.079c2.764,4.523,19.853,7.539,23.874,4.272,3.752-3.048,7.539-23.372,9.047-32.419s2.764-31.413,2.764-31.413,3.77-3.016,1.508-6.785C-1925.585,2779.411-1946.192,2767.349-1953.48,2772.375Z" transform="translate(1994.797 -2771.15)" fill="#ecedea"/>
              </g>
            </g>
            <g id="Grupo_90937" data-name="Grupo 90937" transform="translate(74.968 0.251)">
              <path id="Trazado_150099" data-name="Trazado 150099" d="M-1677.265,2294.981s8.293,33.424,10.555,45.235,3.143,35.5,6.031,41.968c5.277,11.812,25.633,15.581,29.152-1.508a31.5,31.5,0,0,0,0-9.55c-.754-6.031,3.77-48.251-.5-76.02l-2.262-2.639Z" transform="translate(1679.048 -2292.468)" fill="#ecedea"/>
              <g id="Grupo_90936" data-name="Grupo 90936" transform="translate(0 75.932)">
                <g id="Grupo_90935" data-name="Grupo 90935" transform="translate(0 82.392)">
                  <path id="Trazado_150100" data-name="Trazado 150100" d="M-1688.356,3478.222s.126,2.764,1.131,3.9,10.68,3.393,19.727,1.131,10.806-4.271,16.083-5.4a44.4,44.4,0,0,0,9.676-3.142c.377-.251.754-3.9.377-7.413Z" transform="translate(1688.38 -3439.269)" fill="#26354c"/>
                  <g id="Grupo_90934" data-name="Grupo 90934">
                    <path id="Trazado_150101" data-name="Trazado 150101" d="M-1666.871,3290.631l.754,20.859s-2.764-.251-3.518,2.01c0,0-5.277,2.262-8.544,3.77s-10.806,1.759-10.3,12.314c0,0,4.524,5.529,21.864,2.01,4.523-1.005,12.565-4.775,18.094-6.283s8.8-3.016,6.031-13.319c-.5-1.76,2.011-21.362,2.011-21.362Z" transform="translate(1688.507 -3290.631)" fill="#f9c977"/>
                    <g id="Grupo_90933" data-name="Grupo 90933" transform="translate(18.872 20.786)">
                      <path id="Trazado_150102" data-name="Trazado 150102" d="M-1569.527,3433.916a8.614,8.614,0,0,1,1.121-.111c.188-.006.377-.007.567,0s.379.02.57.039.386.029.583.055a1.566,1.566,0,0,1,.567.188,1.9,1.9,0,0,1,.491.391,1.1,1.1,0,0,1,.287.589l-.068.056c-.21-.054-.381-.086-.551-.119s-.33-.064-.491-.1a2.309,2.309,0,0,1-.474-.166,3.718,3.718,0,0,0-.486-.2c-.168-.056-.34-.1-.514-.15s-.348-.1-.526-.138c-.354-.089-.714-.165-1.077-.239Z" transform="translate(1569.527 -3431.877)" fill="#f9bc67"/>
                      <path id="Trazado_150103" data-name="Trazado 150103" d="M-1547.36,3421.708c.453-.031.9-.032,1.358-.025q.34.011.68.029t.68.063l.689.066a2.3,2.3,0,0,1,.674.181,2.8,2.8,0,0,1,.623.368,1.518,1.518,0,0,1,.479.588l-.057.066c-.247-.037-.459-.058-.674-.087s-.424-.058-.633-.1a3.4,3.4,0,0,1-.617-.174c-.2-.079-.408-.161-.619-.221s-.424-.121-.638-.176-.429-.117-.645-.17c-.432-.114-.867-.217-1.3-.324Z" transform="translate(1550.882 -3421.679)" fill="#f9bc67"/>
                    </g>
                  </g>
                </g>
                <path id="Trazado_150104" data-name="Trazado 150104" d="M-1583.786,2778.941s1.759,37.193,1.759,47.748-1.005,24.628,4.021,28.146,24.628,2.764,26.387-2.513,1.005-61.571-1.257-68.858a5.745,5.745,0,0,0,0-8.042S-1580.268,2763.862-1583.786,2778.941Z" transform="translate(1600.396 -2771.187)" fill="#ecedea"/>
              </g>
            </g>
          </g>
          <g id="Grupo_90982" data-name="Grupo 90982" transform="translate(0 0)">
            <g id="Grupo_90955" data-name="Grupo 90955" transform="translate(0 64.633)">
              <g id="Grupo_90942" data-name="Grupo 90942" transform="translate(53.927)">
                <g id="Grupo_90939" data-name="Grupo 90939" transform="translate(49.359)">
                  <path id="Trazado_150105" data-name="Trazado 150105" d="M-1967.3,1671.491s-8.1,1.885-19.79,18.093-15.832,25.821-16.208,29.59,4.523,28.082,12.439,22.8,20.543-18.47,26.763-29.59S-1962.215,1677.71-1967.3,1671.491Z" transform="translate(2003.322 -1671.491)" fill="#ecedea"/>
                  <path id="Trazado_150106" data-name="Trazado 150106" d="M-1832.307,1772.119l-10.528-32.6s-1.508,3.267-1.885,16.963c-.321,11.661.359,23.684-.206,31.576A104.85,104.85,0,0,0-1832.307,1772.119Z" transform="translate(1870.05 -1728.727)" fill="#e4e5e7"/>
                </g>
                <g id="Grupo_90941" data-name="Grupo 90941" transform="translate(0 47.254)">
                  <path id="Trazado_150107" data-name="Trazado 150107" d="M-2133.467,1969.647s-4.712-1.131-5.466,1.508c0,0-15.831,1.319-21.109,7.916l4.146,15.643s24.124,2.261,31.852-1.508C-2122.724,1992.641-2129.132,1971.532-2133.467,1969.647Z" transform="translate(2184.542 -1969.406)" fill="#ecedea"/>
                  <g id="Grupo_90940" data-name="Grupo 90940" transform="translate(0 9.664)">
                    <path id="Trazado_150108" data-name="Trazado 150108" d="M-2290.01,2030.337s6.219,5.654,4.146,15.643c0,0-10.114,1.256-27.328,4.712l-1.319-14.324S-2309.056,2035.915-2290.01,2030.337Z" transform="translate(2314.511 -2030.337)" fill="#f9a825"/>
                    <path id="Trazado_150109" data-name="Trazado 150109" d="M-2299.624,2095.782s3.351,4.775-3.351,9.047c0,0-4.188-3.351-3.351-6.7S-2299.624,2095.782-2299.624,2095.782Z" transform="translate(2307.717 -2085.282)" fill="#f9bc67"/>
                  </g>
                </g>
              </g>
              <g id="Grupo_90952" data-name="Grupo 90952" transform="translate(0 48.874)">
                <g id="Grupo_90947" data-name="Grupo 90947" transform="translate(0 26.627)">
                  <path id="Trazado_150110" data-name="Trazado 150110" d="M-2601.649,2147.49a7.76,7.76,0,0,0-3.77,4.774c-.754,3.267-2.764,8.293-6.785,11.56s-19.351,15.581-24.377,29.906c-.5,2.513-4.272,8.545-6.785,11.812s-12.063,16.084-11.058,30.157c.251,3.769,6.031,17.34,6.283,20.607s8.544,5.78,12.314,8.042,19.6,8.545,28.147,5.781a41.973,41.973,0,0,1,22.115-.754c5.026,1.256,21.613,1.005,29.906-2.764s11.057-9.3,13.068-10.052,4.523-3.519,1.005-8.544c-1.508-2.765.251-10.3,1.005-16.084s-.5-31.413-13.822-39.2c0,0-5.026-16.587-11.058-18.848s-6.534-7.288-11.057-8.8-15.833-8.8-17.089-11.812-1.759-5.78-3.77-5.78Z" transform="translate(2654.498 -2147.49)" fill="#2e3c42"/>
                  <g id="Grupo_90943" data-name="Grupo 90943" transform="translate(3.532 2.873)">
                    <path id="Trazado_150111" data-name="Trazado 150111" d="M-2363.86,2165.677c-2.195,1.7-2.209,4.624-2.681,7.116a16.371,16.371,0,0,1-3.554,7.46c-.258.308.184.754.445.444a17.061,17.061,0,0,0,3.535-6.905c.632-2.589.372-5.866,2.7-7.672.319-.247-.128-.689-.444-.444Z" transform="translate(2411.74 -2165.605)" fill="#1d272b"/>
                    <path id="Trazado_150112" data-name="Trazado 150112" d="M-2324.348,2168.837a5.561,5.561,0,0,0-.754,4.179c.083.4.688.229.606-.167a4.92,4.92,0,0,1,.691-3.7c.218-.342-.325-.657-.542-.317Z" transform="translate(2373.921 -2168.201)" fill="#1d272b"/>
                    <path id="Trazado_150113" data-name="Trazado 150113" d="M-2307.7,2172.738a33.784,33.784,0,0,1,.719,11.391c-.042.4.586.4.629,0a34.326,34.326,0,0,0-.742-11.557c-.094-.394-.7-.227-.606.167Z" transform="translate(2359.18 -2171.277)" fill="#1d272b"/>
                    <path id="Trazado_150114" data-name="Trazado 150114" d="M-2289.326,2171.311a8.469,8.469,0,0,0,1.222,4.48.314.314,0,0,0,.542-.317,7.84,7.84,0,0,1-1.136-4.163.314.314,0,0,0-.628,0Z" transform="translate(2343.717 -2170.151)" fill="#1d272b"/>
                    <path id="Trazado_150115" data-name="Trazado 150115" d="M-2073.819,2437.484c.061,3.2-1.35,6.131-2.916,8.842-1.65,2.855-3.425,5.643-5.255,8.385-.225.337.319.652.542.317,1.912-2.864,3.777-5.775,5.476-8.772,1.527-2.693,2.841-5.615,2.781-8.772a.314.314,0,0,0-.628,0Z" transform="translate(2169.312 -2394.105)" fill="#1d272b"/>
                    <path id="Trazado_150116" data-name="Trazado 150116" d="M-2548.941,2458.972a42.585,42.585,0,0,0,6.959,18.794c.225.333.769.02.542-.317a41.908,41.908,0,0,1-6.873-18.477c-.047-.4-.676-.4-.628,0Z" transform="translate(2562.154 -2412.189)" fill="#1d272b"/>
                    <path id="Trazado_150117" data-name="Trazado 150117" d="M-2632.173,2757.854a39.237,39.237,0,0,0,15.234,12.658,39.082,39.082,0,0,0,5.268,2.008.314.314,0,0,0,.167-.606,38.578,38.578,0,0,1-20.127-14.377c-.234-.326-.779-.013-.543.317Z" transform="translate(2632.231 -2663.532)" fill="#1d272b"/>
                    <path id="Trazado_150118" data-name="Trazado 150118" d="M-2020.176,2771.593a19.188,19.188,0,0,1-12.19,8.75c-.395.088-.228.693.167.606a19.818,19.818,0,0,0,12.565-9.038.314.314,0,0,0-.542-.317Z" transform="translate(2127.703 -2675.348)" fill="#1d272b"/>
                    <path id="Trazado_150119" data-name="Trazado 150119" d="M-2413.995,2834.383a27.966,27.966,0,0,0,8.659,1.178,40.549,40.549,0,0,0,8.637-1.453,20.475,20.475,0,0,1,4.468-.681,23.831,23.831,0,0,1,4.548.527,25.01,25.01,0,0,0,8.716.122,58.612,58.612,0,0,0,9.971-2.931c.377-.136.215-.743-.167-.606a67,67,0,0,1-8.689,2.685,23.606,23.606,0,0,1-8.972.245c-1.41-.239-2.814-.533-4.244-.636a16.019,16.019,0,0,0-4.217.319c-2.905.567-5.693,1.493-8.663,1.713a27.381,27.381,0,0,1-9.881-1.089.315.315,0,0,0-.167.606Z" transform="translate(2448.795 -2725.054)" fill="#1d272b"/>
                    <path id="Trazado_150120" data-name="Trazado 150120" d="M-2126.245,2295.712a16.117,16.117,0,0,1,1.557,8.469,28.1,28.1,0,0,1-1.922,8.88c-.148.377.459.54.605.167a28.6,28.6,0,0,0,1.955-9.28,16.542,16.542,0,0,0-1.653-8.552c-.191-.356-.734-.04-.543.317Z" transform="translate(2206.829 -2274.677)" fill="#1d272b"/>
                    <path id="Trazado_150121" data-name="Trazado 150121" d="M-2281.167,2179.193c.91,5.157,6.762,7.442,8.039,12.414a.314.314,0,0,0,.605-.167c-1.28-4.985-7.136-7.3-8.038-12.414-.071-.4-.676-.229-.606.167Z" transform="translate(2336.856 -2176.706)" fill="#1d272b"/>
                  </g>
                  <g id="Grupo_90946" data-name="Grupo 90946" transform="translate(36.715 43.156)">
                    <g id="Grupo_90944" data-name="Grupo 90944">
                      <path id="Trazado_150122" data-name="Trazado 150122" d="M-2270.828,2433.407c4.163-6.276-2.388-13.838-2.388-13.838,5.519,9.831-4.6,16.016-8.4,17.918a2.387,2.387,0,0,1,1.853,2.325,2.378,2.378,0,0,1-.087.632c3.677-2.286,14.115-7.554,19.594,2.208C-2260.258,2442.652-2263.3,2433.12-2270.828,2433.407Z" transform="translate(2304.048 -2419.569)" fill="#f9f9f9"/>
                      <path id="Trazado_150123" data-name="Trazado 150123" d="M-2353.484,2557.649a2.379,2.379,0,0,1-1.716.73,2.378,2.378,0,0,1-1.716-.73c.184,4.38-.386,15.934-11.52,15.934,0,0,9.8,2.011,13.236-4.691,3.434,6.7,13.236,4.691,13.236,4.691C-2353.1,2573.583-2353.668,2562.03-2353.484,2557.649Z" transform="translate(2377.095 -2535.748)" fill="#f9f9f9"/>
                      <path id="Trazado_150124" data-name="Trazado 150124" d="M-2403.519,2439.813a2.386,2.386,0,0,1,1.853-2.325c-3.805-1.9-13.921-8.087-8.4-17.918,0,0-6.551,7.562-2.388,13.838-7.525-.287-10.57,9.245-10.57,9.245,5.479-9.761,15.917-4.493,19.594-2.208A2.408,2.408,0,0,1-2403.519,2439.813Z" transform="translate(2423.026 -2419.569)" fill="#f9f9f9"/>
                    </g>
                    <g id="Grupo_90945" data-name="Grupo 90945" transform="translate(10.083 8.432)">
                      <path id="Trazado_150125" data-name="Trazado 150125" d="M-2356.693,2536.384a9.091,9.091,0,0,1,.13-1.522,15.631,15.631,0,0,0-2.719-.516,11.906,11.906,0,0,0-.176,2.038,11.816,11.816,0,0,0,7.827,11.122,15.116,15.116,0,0,0,.9-2.614A9.05,9.05,0,0,1-2356.693,2536.384Z" transform="translate(2359.457 -2524.572)" fill="#f9f9f9"/>
                      <path id="Trazado_150126" data-name="Trazado 150126" d="M-2256.83,2536.384a11.857,11.857,0,0,0-.176-2.038,15.63,15.63,0,0,0-2.718.516,9.091,9.091,0,0,1,.13,1.522,9.051,9.051,0,0,1-5.965,8.508,15.1,15.1,0,0,0,.9,2.614A11.816,11.816,0,0,0-2256.83,2536.384Z" transform="translate(2280.453 -2524.572)" fill="#f9f9f9"/>
                      <path id="Trazado_150127" data-name="Trazado 150127" d="M-2331.944,2477.675a9.007,9.007,0,0,1,5.884-2.178,9.008,9.008,0,0,1,5.884,2.178,15.592,15.592,0,0,0,1.858-2.051,11.766,11.766,0,0,0-7.742-2.892,11.767,11.767,0,0,0-7.742,2.892A15.628,15.628,0,0,0-2331.944,2477.675Z" transform="translate(2337.871 -2472.732)" fill="#f9f9f9"/>
                    </g>
                  </g>
                </g>
                <g id="Grupo_90951" data-name="Grupo 90951" transform="translate(19.114)">
                  <g id="Grupo_90949" data-name="Grupo 90949" transform="translate(29.21)">
                    <path id="Trazado_150128" data-name="Trazado 150128" d="M-2345.434,2006.875s-1.13-7.414-1.381-11.687-1.256-10.806-3.016-15.079c0,0,4.021-1.256,6.785.252s5.026.251,7.288,0,5.026-.252,6.534,1.005c0,0-3.016,7.037-4.523,11.309s-5.97,11.624-5.97,14.64C-2339.716,2007.315-2343.675,2009.64-2345.434,2006.875Z" transform="translate(2349.83 -1979.619)" fill="#2e3c42"/>
                    <g id="Grupo_90948" data-name="Grupo 90948" transform="translate(3.657 0.74)">
                      <path id="Trazado_150129" data-name="Trazado 150129" d="M-2326.751,1984.662c1.213,2.908,1.344,6.128,1.472,9.237a97.105,97.105,0,0,1-.107,9.939c-.025.4.6.4.628,0a97.191,97.191,0,0,0,.1-10.187c-.134-3.08-.283-6.275-1.484-9.156-.154-.368-.762-.206-.606.167Z" transform="translate(2326.777 -1984.287)" fill="#1d272b"/>
                      <path id="Trazado_150130" data-name="Trazado 150130" d="M-2295.9,1999.057l-.9,13.183c-.028.4.6.4.628,0q.449-6.591.9-13.183c.027-.4-.6-.4-.628,0Z" transform="translate(2301.553 -1996.46)" fill="#1d272b"/>
                      <path id="Trazado_150131" data-name="Trazado 150131" d="M-2289.746,2019.542a101.373,101.373,0,0,1,6.4-18.006c.17-.364-.372-.684-.542-.317a102.237,102.237,0,0,0-6.466,18.157.314.314,0,0,0,.606.167Z" transform="translate(2296.138 -1998.396)" fill="#1d272b"/>
                    </g>
                  </g>
                  <g id="Grupo_90950" data-name="Grupo 90950" transform="translate(0 24.126)">
                    <path id="Trazado_150132" data-name="Trazado 150132" d="M-2468.087,2133.943a13.214,13.214,0,0,0-5.046-.34c-.151.019-.337.129-.314.314a1.3,1.3,0,0,0,.935,1.059,11.367,11.367,0,0,0,2.688.675,14.743,14.743,0,0,0,5.252-.18.317.317,0,0,0,0-.606,23.188,23.188,0,0,0-8.674-1.062.318.318,0,0,0-.158.586,8.156,8.156,0,0,0,7.033,1.161.32.32,0,0,0,.219-.386,1.931,1.931,0,0,0-1.38-1.236,14.481,14.481,0,0,0-2.884-.743,16.2,16.2,0,0,0-2.826-.2c-.584.011-1.52-.057-1.892.52-.792,1.229,2.782,1.848,3.431,1.965a13.45,13.45,0,0,0,5.583-.182.318.318,0,0,0,.188-.461,2.821,2.821,0,0,0-1.706-1.3,12.563,12.563,0,0,0-2.936-.629c-1.147-.115-4.082-.459-3.842,1.471a2.313,2.313,0,0,0,1.366,1.606,10.446,10.446,0,0,0,2.7,1.033,10.729,10.729,0,0,0,2.882.275c.643-.027,1.768.008,2.26-.491,1.3-1.321-2.445-2.176-3.054-2.323a18.092,18.092,0,0,0-3.014-.464q-.742-.051-1.484-.039a3.786,3.786,0,0,0-1.3.11c-.6.243-.492.9-.092,1.273a5.9,5.9,0,0,0,2.447,1.038,10.731,10.731,0,0,0,2.767.34,6.562,6.562,0,0,0,2.557-.4,1.239,1.239,0,0,0,.829-1.531c-.3-.791-1.367-1.183-2.063-1.5a16.52,16.52,0,0,0-6.5-1.476.317.317,0,0,0-.158.585,10.292,10.292,0,0,0,7.609,1.634.317.317,0,0,0,.23-.3c.012-.706-.792-.9-1.334-1.1a15.29,15.29,0,0,0-2.908-.733,14.2,14.2,0,0,0-2.849-.169,2.151,2.151,0,0,0-1.637.625c-1.035,1.327,1.168,2.374,2.108,2.709a8.347,8.347,0,0,0,5.15.119.317.317,0,0,0,0-.606,11.475,11.475,0,0,0-5.747-.112,31.981,31.981,0,0,0-6.706,2.254,125.973,125.973,0,0,0-13.974,7.692c-2.039,1.229-4.073,2.487-6.2,3.556-.361.182-.043.724.317.543,4.046-2.031,7.827-4.59,11.742-6.856,4.379-2.534,8.973-5.1,13.916-6.342a11.8,11.8,0,0,1,6.487-.129v-.606a7.727,7.727,0,0,1-3.7.189c-.56-.112-3.958-1.166-2.769-2.139a2.586,2.586,0,0,1,1.59-.277,14.686,14.686,0,0,1,2.1.156,15.289,15.289,0,0,1,1.808.384c.289.08,1.98.457,1.974.844l.23-.3a9.658,9.658,0,0,1-7.124-1.571l-.158.585a15.917,15.917,0,0,1,4.073.613,15.465,15.465,0,0,1,1.9.686,5.847,5.847,0,0,1,1.777.973c1.2,1.206-2.267,1.382-2.8,1.375a9.947,9.947,0,0,1-4.041-.906,1.155,1.155,0,0,1-.4-.214l-.109-.073q-.082-.377.267-.287a3.137,3.137,0,0,1,.913-.027,17.509,17.509,0,0,1,2.051.114,16.592,16.592,0,0,1,4.123,1.009,1.769,1.769,0,0,1,.456.215c.5.514.233.406,0,.529a3.369,3.369,0,0,1-1.026.159,10.348,10.348,0,0,1-2.058-.011,9.837,9.837,0,0,1-3.837-1.223,1.907,1.907,0,0,1-.9-.844c-.25-.614.165-.947.718-1.023a10.3,10.3,0,0,1,2.313,0,12.473,12.473,0,0,1,2.384.459,2.686,2.686,0,0,1,1.829,1.17l.188-.461a12.808,12.808,0,0,1-4.033.336,12.391,12.391,0,0,1-2.069-.338q-.53-.133-1.047-.311c-.2-.068-.946-.256-1.018-.407-.159-.332.513-.321.753-.334.344-.018.688-.022,1.032-.016a14.98,14.98,0,0,1,2.2.2,15.547,15.547,0,0,1,2.008.47c.58.177,1.531.369,1.7,1.051l.22-.386a7.554,7.554,0,0,1-6.549-1.1l-.158.585a22.689,22.689,0,0,1,8.507,1.039v-.606a14.086,14.086,0,0,1-4.1.272,13.514,13.514,0,0,1-2.048-.328c-.446-.107-1.86-.3-1.934-.892l-.314.314a12.75,12.75,0,0,1,4.879.317.314.314,0,0,0,.167-.606Z" transform="translate(2505.972 -2131.723)" fill="#1d272b"/>
                    <path id="Trazado_150133" data-name="Trazado 150133" d="M-2500.9,2142.7a14.887,14.887,0,0,0-5.393-.052,48.382,48.382,0,0,0-6.963,1.55,135.608,135.608,0,0,0-14.489,5.263c-2.037.85-4.061,1.729-6.08,2.62-.369.163-.05.7.317.542,3.963-1.748,7.949-3.446,12-4.976a77.505,77.505,0,0,1,14.242-4.221,15.8,15.8,0,0,1,6.2-.121c.393.094.561-.512.167-.605Z" transform="translate(2533.99 -2140.729)" fill="#1d272b"/>
                  </g>
                </g>
              </g>
              <g id="Grupo_90954" data-name="Grupo 90954" transform="translate(46.391 59.445)">
                <path id="Trazado_150134" data-name="Trazado 150134" d="M-2333.877,2055.364a2.436,2.436,0,0,1-1.331-.055,18.306,18.306,0,0,1-5.748-3.158c-2.059-1.708-9.662-2.03-10.657-3.772s4.022-2.071,4.975-2.106c2-.074,12.884.824,14.092,2.149C-2328.02,2053.386-2332.125,2054.946-2333.877,2055.364Z" transform="translate(2353.373 -2046.269)" fill="#f9a825"/>
                <g id="Grupo_90953" data-name="Grupo 90953" transform="translate(0 3.763)">
                  <path id="Trazado_150135" data-name="Trazado 150135" d="M-2349.214,2143.84a2.623,2.623,0,0,0,2.518,2.1c2.326.105,6.626.121,5.875-1.271-1.021-1.891-6.758-3.525-8.005-2.2A1.539,1.539,0,0,0-2349.214,2143.84Z" transform="translate(2351.27 -2130.565)" fill="#f9a825"/>
                  <path id="Trazado_150136" data-name="Trazado 150136" d="M-2359.867,2096.722a2.622,2.622,0,0,0,2.517,2.1c2.327.105,6.627.121,5.876-1.271-1.021-1.891-6.757-3.525-8-2.2A1.537,1.537,0,0,0-2359.867,2096.722Z" transform="translate(2360.232 -2090.921)" fill="#f9a825"/>
                  <path id="Trazado_150137" data-name="Trazado 150137" d="M-2362,2072.361a2.623,2.623,0,0,0,2.517,2.1c2.326.1,5.512.268,5.875-1.271.979-4.142-6.757-3.526-8.005-2.2A1.538,1.538,0,0,0-2362,2072.361Z" transform="translate(2362.025 -2069.991)" fill="#f9a825"/>
                  <path id="Trazado_150138" data-name="Trazado 150138" d="M-2352.128,2121.025a2.494,2.494,0,0,0,2.2,1.512c2.287.111,6.789.157,6.021-1.263-1.021-1.892-6.757-3.525-8.005-2.2A1.736,1.736,0,0,0-2352.128,2121.025Z" transform="translate(2353.863 -2110.884)" fill="#f9a825"/>
                </g>
              </g>
            </g>
            <g id="Grupo_90962" data-name="Grupo 90962" transform="translate(129.658)">
              <g id="Grupo_90960" data-name="Grupo 90960" transform="translate(1.138)">
                <g id="Grupo_90959" data-name="Grupo 90959" transform="translate(0 4.582)">
                  <path id="Trazado_150139" data-name="Trazado 150139" d="M-1808.518,1293.115s-15.078,1.759-14.576,16.335,2.262,34.429,14.576,33.927,18.548-17.829,19.1-27.393C-1788.665,1302.916-1795.953,1291.1-1808.518,1293.115Z" transform="translate(1824.182 -1292.89)" fill="#ffb294"/>
                  <g id="Grupo_90956" data-name="Grupo 90956" transform="translate(2.35 28.182)">
                    <path id="Trazado_150140" data-name="Trazado 150140" d="M-1787.682,1470.567c-8.9,5.161-25.52,4.105-27.35,3.971-.545,11.17,5.124,18.665,13.277,18.332.353-.015.7-.044,1.044-.086C-1783.273,1486.533-1787.682,1470.567-1787.682,1470.567Z" transform="translate(1815.069 -1470.567)" fill="#fff"/>
                    <path id="Trazado_150141" data-name="Trazado 150141" d="M-1787.392,1472.057a13.4,13.4,0,0,0-.288-1.49c-8.9,5.161-25.52,4.105-27.35,3.971q-.037.762-.036,1.5A52.961,52.961,0,0,0-1787.392,1472.057Z" transform="translate(1815.067 -1470.567)" fill="#e4edef"/>
                    <path id="Trazado_150142" data-name="Trazado 150142" d="M-1747.589,1475.924l-3.449,1.224c.5,19.473-16.168,18.99-16.6,18.974l.087.045q.374.179.739.346a11.484,11.484,0,0,0,4.963.866c.353-.015.7-.044,1.044-.086C-1745.777,1491.905-1746.971,1479.307-1747.589,1475.924Z" transform="translate(1775.16 -1475.074)" fill="#e4edef"/>
                    <path id="Trazado_150143" data-name="Trazado 150143" d="M-1806.775,1521.461c.871.068,1.738.1,2.606.108s1.733,0,2.6-.012c.216,0,.432-.013.649-.022l.648-.02.324-.01.324-.018.648-.036.648-.033.647-.045.647-.045.324-.023.323-.031,1.293-.112c.431-.034.861-.091,1.292-.131s.863-.077,1.292-.136.86-.105,1.292-.152.86-.111,1.291-.165l1.293-.163c.862-.114,1.722-.246,2.593-.336-.835.254-1.678.483-2.524.7-.852.187-1.7.4-2.563.546s-1.722.3-2.589.415l-.651.085c-.217.027-.433.059-.651.078l-1.307.122-.327.027-.328.019-.655.036c-.437.025-.874.053-1.312.055-.875.018-1.751.02-2.626-.019s-1.749-.1-2.619-.207A18.6,18.6,0,0,1-1806.775,1521.461Z" transform="translate(1808.091 -1512.225)" fill="#e4edef"/>
                    <path id="Trazado_150144" data-name="Trazado 150144" d="M-1796.873,1550.231c1.437.059,2.862.058,4.285.016s2.838-.123,4.25-.268c.177-.017.354-.027.53-.049l.528-.064c.352-.043.706-.074,1.057-.128l1.054-.15.264-.036.262-.046.525-.09c.35-.064.7-.106,1.052-.181s.7-.138,1.05-.2.7-.144,1.05-.218.7-.15,1.057-.215A24.153,24.153,0,0,1-1784,1550c-.7.189-1.409.316-2.12.449-.177.036-.356.059-.535.084l-.537.075-.537.07c-.179.023-.359.036-.539.054a29.051,29.051,0,0,1-4.329.109A20.961,20.961,0,0,1-1796.873,1550.231Z" transform="translate(1799.759 -1536.221)" fill="#e4edef"/>
                  </g>
                  <g id="Grupo_90958" data-name="Grupo 90958" transform="translate(0 19.072)">
                    <path id="Trazado_150145" data-name="Trazado 150145" d="M-1826.714,1422.763a1.3,1.3,0,0,1,.839-1.211c1.079-.4,3.469-.981,8.54-1.217,8.1-.377,13.759-.754,14.073-.5s1.005,7.853-.377,9.236-8.293,1.7-9.738,1.7-3.141-3.267-4.209-3.016-1.822,2.953-2.639,3.267a19.433,19.433,0,0,1-5.4,0C-1826.265,1430.841-1826.743,1426.066-1826.714,1422.763Z" transform="translate(1827.218 -1418.701)" fill="#fff" opacity="0.6"/>
                    <g id="Grupo_90957" data-name="Grupo 90957">
                      <path id="Trazado_150146" data-name="Trazado 150146" d="M-1825.267,1429.04a18.211,18.211,0,0,1-3.16-.209c-.394-.108-.809-.457-1.159-3.377a45.226,45.226,0,0,1-.3-5.364,1.813,1.813,0,0,1,1.167-1.678c1.184-.44,3.652-1.014,8.692-1.248,2.074-.1,4-.193,5.692-.279,7.557-.381,8.372-.392,8.719-.114.116.093.424.339.591,3.362.112,2.015.14,5.555-.927,6.621-1.735,1.735-10.011,1.844-10.093,1.844-.958,0-1.828-.926-2.669-1.821-.386-.41-1.185-1.263-1.426-1.208-.369.087-.853.946-1.207,1.574-.444.786-.827,1.465-1.366,1.673A9.63,9.63,0,0,1-1825.267,1429.04Zm-2.8-1.157a20.318,20.318,0,0,0,4.993-.006,4.373,4.373,0,0,0,.851-1.228c.518-.92,1.055-1.871,1.853-2.059s1.538.593,2.388,1.5c.629.67,1.413,1.5,1.936,1.5,2.3,0,8.279-.446,9.383-1.549.348-.348.709-1.693.681-4.427a25.291,25.291,0,0,0-.325-4.019c-.885-.066-4.2.1-7.978.292-1.7.086-3.62.183-5.7.279-5.169.24-7.474.847-8.387,1.186a.8.8,0,0,0-.513.745C-1828.907,1423.46-1828.454,1427.219-1828.065,1427.882Z" transform="translate(1829.885 -1416.032)" fill="#1d272b"/>
                      <path id="Trazado_150147" data-name="Trazado 150147" d="M-1678.85,1414.264l3.958-1.131.754,3.2-4.21,1.759Z" transform="translate(1702.806 -1413.134)" fill="#1d272b"/>
                    </g>
                  </g>
                  <path id="Trazado_150148" data-name="Trazado 150148" d="M-1791.319,1303.262c-2.949-6.921-8.885-11.454-17.052-10.147,0,0-14.071,1.728-14.56,14.64C-1820.842,1307.764-1803.1,1307.711-1791.319,1303.262Z" transform="translate(1824.034 -1292.89)" fill="#12263f"/>
                </g>
                <path id="Trazado_150149" data-name="Trazado 150149" d="M-1811.79,1317.815s6.971,1.2,12.507-2.8a11.845,11.845,0,0,0,4.477-7.381c2.827-12.723-.5-31.664-10.683-34.052-5.726-1.343-12.587.77-14.6,6.55,0,0-1.149-13.587,15.353-15.848s25.382,9.424,26.89,21.738c.754,6.618-2.387,19.1-5.866,22.408,0,0,2.764,8.963,7.037,9.634l1.592,7.958-27.476,3.853-.084-4.691s1.531-1.9,1.005-3.351C-1802.64,1319.072-1808.355,1321.019-1811.79,1317.815Z" transform="translate(1821.654 -1264.004)" fill="#ecedea"/>
                <path id="Trazado_150150" data-name="Trazado 150150" d="M-1605.4,1544.034a6.6,6.6,0,0,1-.447.972c-.088.156-.18.309-.275.461s-.2.3-.309.442l-.316.443a1.754,1.754,0,0,1-.389.378,2.173,2.173,0,0,1-1.04.416l-.044-.061a2.721,2.721,0,0,1,.266-.5,4.851,4.851,0,0,1,.309-.414,6.709,6.709,0,0,1,.763-.667c.126-.114.247-.234.369-.355s.243-.243.36-.369c.239-.25.467-.512.685-.785Z" transform="translate(1643.379 -1499.588)" fill="#e5d1d1"/>
              </g>
              <g id="Grupo_90961" data-name="Grupo 90961" transform="translate(0 51.748)">
                <path id="Trazado_150151" data-name="Trazado 150151" d="M-1803.2,2287.879a3.817,3.817,0,0,0-.2,2.753s33.3,7.916,65.088-1.131a6.951,6.951,0,0,0,.507-3.7Z" transform="translate(1808.888 -2175.481)" fill="#e4e5e7"/>
                <path id="Trazado_150152" data-name="Trazado 150152" d="M-1816.9,1611.853s-3.532,1.189-8.244,2.509-11.5,5.654-11.874,13.758,2.45,32.228,5.277,43.914,1.32,18.47.377,25.255-3.016,14.135,0,17.528c0,0,8.481,4.146,29.025,3.2s32.417-1.131,36.375-5.277c1.131-1.508,1.319-4.523.754-10.931s-3.016-23.936-3.392-32.229-2.827-56.541-7.162-62.949c-.754-2.262-15.167-1.9-15.167-1.9Z" transform="translate(1837.056 -1602.419)" fill="#ecedea"/>
                <path id="Trazado_150153" data-name="Trazado 150153" d="M-1714.915,1603.517c-.377,4.147-3.581,19.413-2.45,29.779s3.769,23.559,4.335,33.736c.555,9.987.021,31.225,1.782,38.961a5.483,5.483,0,0,0,3.382-.066,185.317,185.317,0,0,1-2.148-29.472c.188-16.208-1.7-25.255-3.581-35.809s0-29.59,1.7-38.637a13.408,13.408,0,0,0-.593-5.67c-1.089-3.518-3.885-3.487-5.895-6.084a14.037,14.037,0,0,1-2.094,1.016,14.555,14.555,0,0,1-2.136.66,42.888,42.888,0,0,1,4.869,2.272C-1714.922,1596.171-1714.538,1599.371-1714.915,1603.517Z" transform="translate(1740.77 -1590.255)" fill="#e4e5e7"/>
                <path id="Trazado_150154" data-name="Trazado 150154" d="M-1509.911,1782.371c-.126-1.49-.221-2.853-.274-4.03-.168-3.71-.752-15.421-1.734-27.8l-18-16.566S-1526.44,1754.372-1509.911,1782.371Z" transform="translate(1578.634 -1711.176)" fill="#e4e5e7"/>
                <path id="Trazado_150155" data-name="Trazado 150155" d="M-1630.36,1839.187l-16.767,1.689a1.092,1.092,0,0,1-1.2-.977l-.367-3.641a1.092,1.092,0,0,1,.977-1.2l16.767-1.689a1.091,1.091,0,0,1,1.2.977l.367,3.641A1.092,1.092,0,0,1-1630.36,1839.187Z" transform="translate(1678.572 -1794.807)" fill="#e4e5e7"/>
              </g>
            </g>
            <g id="Grupo_90981" data-name="Grupo 90981" transform="translate(177.334 55.397)">
              <g id="Grupo_90978" data-name="Grupo 90978" transform="translate(30.5 108.263)">
                <g id="Grupo_90964" data-name="Grupo 90964" transform="translate(24.413 16.308)">
                  <path id="Trazado_150156" data-name="Trazado 150156" d="M-1189.03,2398.621s5.194,2.01,7.958,5.529,18.6,13.822,26.639,15.33,24.628,8.042,34.932,19.854c2.764,3.015,3.77,2.764,7.288,3.769s2.01,4.272.251,5.78a18.439,18.439,0,0,0-6.031,10.555c-1.005,5.528-4.021,16.586-21.361,25.131a26.621,26.621,0,0,0-6.031,5.78c-1.257,1.759-6.283,1.508-6.283-3.77s-5.78-11.812-11.309-18.345-17.592-21.361-20.607-38.2S-1192.968,2401.888-1189.03,2398.621Z" transform="translate(1190.279 -2398.621)" fill="#2e3c42"/>
                  <path id="Trazado_150157" data-name="Trazado 150157" d="M-1117.671,2458c-10.62,7.37-17.818-4.531-23.443-14.512-5.842-10.366-15.832-14.7-22.993-17.9s-12.062-9.989-14.889-16.208a37.342,37.342,0,0,0-5.046-7.993,24.943,24.943,0,0,0-4.988-2.761c-3.937,3.267,2.429,14.576,5.445,31.414s15.078,31.664,20.607,38.2,11.309,13.069,11.309,18.345,5.026,5.529,6.283,3.77a26.621,26.621,0,0,1,6.031-5.78c17.34-8.545,20.356-19.6,21.361-25.131C-1117.9,2458.941-1117.8,2458.463-1117.671,2458Z" transform="translate(1190.279 -2398.621)" fill="#1d272b"/>
                  <g id="Grupo_90963" data-name="Grupo 90963" transform="translate(24.906 21.068)">
                    <path id="Trazado_150158" data-name="Trazado 150158" d="M-756.021,2668.077a10.391,10.391,0,0,1-1.089,5.4c-.729,1.667-1.556,3.294-2.343,4.934-.174.363.368.682.542.317.853-1.78,1.762-3.544,2.527-5.363a10.442,10.442,0,0,0,.99-5.283c-.047-.4-.676-.4-.628,0Z" transform="translate(802.91 -2646.153)" fill="#1d272b"/>
                    <path id="Trazado_150159" data-name="Trazado 150159" d="M-1032.879,2534.179a46.275,46.275,0,0,1,7.017-2.119c.395-.085.228-.692-.167-.605a46.321,46.321,0,0,0-7.017,2.118c-.373.146-.21.754.167.606Z" transform="translate(1033.257 -2531.447)" fill="#1d272b"/>
                  </g>
                </g>
                <g id="Grupo_90977" data-name="Grupo 90977">
                  <g id="Grupo_90969" data-name="Grupo 90969" transform="translate(0.384)">
                    <g id="Grupo_90965" data-name="Grupo 90965">
                      <path id="Trazado_150160" data-name="Trazado 150160" d="M-1316.475,2312.226s-1.987-17.3-18.322-16.382c0,0-2.325,1.068-2.639,5.215-.217,2.86-2.094,3.77-2.932,4.942a6.846,6.846,0,0,0-.168,8.042s13.487-8.335,18.429,3.56A12.68,12.68,0,0,0-1316.475,2312.226Z" transform="translate(1341.771 -2295.808)" fill="#2e3c42"/>
                      <path id="Trazado_150161" data-name="Trazado 150161" d="M-1313.245,2402.3a18.164,18.164,0,0,0-2.262,7.037c-.5,4.272-2.764,18.094-5.277,25.131s-12.063,30.157-11.309,47.5,2.262,26.387,3.518,30.911-2.262,12.816-.754,15.33,12.063,2.01,16.586.5,11.56-2.262,14.073-2.765,31.413-4.021,36.942-4.775,12.314,1.508,14.576-6.282c.5-3.267-3.015-5.78-3.77-11.812s-3.518-31.162-13.822-48.5-25.885-29.152-32.419-38.953-8.544-15.33-10.806-16.586S-1313.245,2402.3-1313.245,2402.3Z" transform="translate(1333.663 -2382.477)" fill="#2e3c42"/>
                    </g>
                    <g id="Grupo_90968" data-name="Grupo 90968" transform="translate(22.054 77.861)">
                      <g id="Grupo_90966" data-name="Grupo 90966">
                        <path id="Trazado_150162" data-name="Trazado 150162" d="M-1075.209,2798.109c3.487-5.562-2-11.418-2-11.418,4.624,7.833-3.851,13.756-7.039,15.63a1.793,1.793,0,0,1,1.552,1.812,2.073,2.073,0,0,1-.073.535c3.081-2.185,11.826-7.363,16.417.413C-1066.353,2805.081-1068.9,2797.319-1075.209,2798.109Z" transform="translate(1103.042 -2786.691)" fill="#f9f9f9"/>
                        <path id="Trazado_150163" data-name="Trazado 150163" d="M-1144.464,2905.719a2.193,2.193,0,0,1-1.438.738,1.833,1.833,0,0,1-1.437-.486c.154,3.657-.324,13.379-9.652,14.195,0,0,8.212.966,11.09-4.9,2.878,5.363,11.089,2.96,11.089,2.96C-1144.14,2919.041-1144.618,2909.4-1144.464,2905.719Z" transform="translate(1164.246 -2886.839)" fill="#f9f9f9"/>
                        <path id="Trazado_150164" data-name="Trazado 150164" d="M-1186.385,2811.432a2.232,2.232,0,0,1,1.552-2.084c-3.188-1.315-11.664-5.756-7.039-14.4,0,0-5.488,6.816-2,11.769-6.3.312-8.856,8.521-8.856,8.521,4.591-8.581,13.336-4.931,16.417-3.286A1.91,1.91,0,0,1-1186.385,2811.432Z" transform="translate(1202.729 -2793.641)" fill="#f9f9f9"/>
                      </g>
                      <g id="Grupo_90967" data-name="Grupo 90967" transform="translate(8.448 7.682)">
                        <path id="Trazado_150165" data-name="Trazado 150165" d="M-1147.151,2893.883a7.8,7.8,0,0,1,.109-1.285,12.628,12.628,0,0,0-2.278-.234,10.171,10.171,0,0,0-.147,1.721,8.881,8.881,0,0,0,6.558,8.745,13.711,13.711,0,0,0,.756-2.256A6.8,6.8,0,0,1-1147.151,2893.883Z" transform="translate(1149.467 -2883.284)" fill="#f9f9f9"/>
                        <path id="Trazado_150166" data-name="Trazado 150166" d="M-1063.48,2883.306a9.727,9.727,0,0,0-.147-1.7,13.912,13.912,0,0,0-2.278.631,7.465,7.465,0,0,1,.109,1.266,8.451,8.451,0,0,1-5,7.566,11.641,11.641,0,0,0,.756,2.124A11.034,11.034,0,0,0-1063.48,2883.306Z" transform="translate(1083.273 -2874.236)" fill="#f9f9f9"/>
                        <path id="Trazado_150167" data-name="Trazado 150167" d="M-1126.415,2839.732a8.253,8.253,0,0,1,4.93-2.256,7.009,7.009,0,0,1,4.93,1.394,14.827,14.827,0,0,0,1.557-1.855,9.145,9.145,0,0,0-6.487-1.854,10.783,10.783,0,0,0-6.487,2.99A11.476,11.476,0,0,0-1126.415,2839.732Z" transform="translate(1131.381 -2835.122)" fill="#f9f9f9"/>
                      </g>
                    </g>
                  </g>
                  <g id="Grupo_90976" data-name="Grupo 90976" transform="translate(0 5.246)">
                    <g id="Grupo_90970" data-name="Grupo 90970" transform="translate(6.111 7.974)">
                      <path id="Trazado_150168" data-name="Trazado 150168" d="M-1286.4,2381.594a17.631,17.631,0,0,0-5.749,5.556.315.315,0,0,0,.049.38c.475.431,1.08-.087,1.51-.357a16.664,16.664,0,0,0,2.011-1.488,16.926,16.926,0,0,0,3.312-3.889.317.317,0,0,0-.113-.43c-.6-.288-1.079.052-1.554.433q-1.116.9-2.167,1.868-1.011.93-1.961,1.922a2.855,2.855,0,0,0-1.066,1.753.316.316,0,0,0,.473.271,20.065,20.065,0,0,0,4.649-4.756c.323-.468,1.464-1.727.9-2.317-.585-.612-1.835.623-2.281.959a20.7,20.7,0,0,0-4.657,4.8c-.324.478-.562,1.432.257,1.593.42.083.85-.283,1.154-.516a13.167,13.167,0,0,0,1.381-1.291c1.009-1.032,1.981-2.1,2.9-3.211a5.971,5.971,0,0,0,1.575-3.024c.032-.253-.286-.369-.473-.271a18.942,18.942,0,0,0-4.975,3.766c-.519.552-3.443,3.481-1.687,4,.787.231,1.672-.576,2.24-.989a20.755,20.755,0,0,0,2.394-2.034,20.674,20.674,0,0,0,2.054-2.375,6.575,6.575,0,0,0,.793-1.29c.121-.279.367-.833.229-1.139-.641-1.42-3.64,1.829-4.066,2.287a16.241,16.241,0,0,0-3.36,5.131c-.233.62.045,1.236.791,1.084a3.119,3.119,0,0,0,1.111-.635q.618-.447,1.2-.936a20.119,20.119,0,0,0,4.178-4.784c.263-.426.554-1.357-.269-1.39-.383-.016-.718.319-.994.535q-.677.528-1.322,1.095a28.5,28.5,0,0,0-4.352,4.835c-.356.5-1.246,1.524-.469,2.076.649.462,1.535-.593,1.961-.966a20.667,20.667,0,0,0,2.308-2.387q.468-.57.9-1.17a3.526,3.526,0,0,0,.741-1.238c.145-.9-.935-.624-1.368-.369a10.535,10.535,0,0,0-2.328,1.978,21.08,21.08,0,0,0-1.86,2.377c-1.6,2.315-3.017,4.759-4.408,7.2q-4.373,7.682-8.278,15.63-.281.573-.556,1.149c-.173.363.369.682.542.317,3.185-6.692,6.709-13.279,10.5-19.646.884-1.484,1.789-2.959,2.772-4.38a14.1,14.1,0,0,1,3.67-3.924,1.872,1.872,0,0,1,.44-.263c.218-.058.183-.123.073.141a4.949,4.949,0,0,1-.61.882,20.019,20.019,0,0,1-1.449,1.757,20.484,20.484,0,0,1-1.534,1.5c-.268.235-.541.469-.823.687-.159.123-.384.4-.28-.154.037-.193.3-.455.413-.618a27.61,27.61,0,0,1,2.885-3.492q.674-.692,1.394-1.337.4-.357.813-.7c.128-.106.927-.889,1.082-.84s-.319.681-.418.829q-.316.472-.657.926a19.858,19.858,0,0,1-1.63,1.894,20.146,20.146,0,0,1-1.751,1.6q-.49.4-1.005.761a2.39,2.39,0,0,1-.425.293c-.292.117-.527.182-.351-.226a16.773,16.773,0,0,1,2.553-4.088,18,18,0,0,1,1.553-1.631c.365-.337,1.719-1.782,2.234-1.4l-.156-.271a4.721,4.721,0,0,1-1.195,2.295,19.9,19.9,0,0,1-1.649,1.87,19.929,19.929,0,0,1-1.868,1.652q-.484.378-.992.723a2.609,2.609,0,0,1-1,.55c-.656.081-.02-.773.144-1.006q.363-.515.763-1a18.449,18.449,0,0,1,1.7-1.8,18.382,18.382,0,0,1,3.97-2.8l-.473-.271a6,6,0,0,1-1.7,2.948q-1.17,1.374-2.426,2.671c-.373.385-.744.775-1.146,1.129-.125.11-.633.642-.823.607-.5-.092,0-.592.119-.76a20.412,20.412,0,0,1,2.069-2.431,21.045,21.045,0,0,1,2.409-2.095c.171-.127,1.115-.9,1.248-.8a12.564,12.564,0,0,1-.777,1.251,19.2,19.2,0,0,1-4.542,4.7l.473.271c.035-.652.778-1.207,1.2-1.638q.68-.7,1.391-1.36.669-.626,1.364-1.222c.318-.274,1.377-1.439,1.848-1.213l-.113-.43a16.3,16.3,0,0,1-2.615,3.222,15.762,15.762,0,0,1-1.564,1.307,10.536,10.536,0,0,1-1.667,1.08c.016.126.033.253.049.38a16.931,16.931,0,0,1,5.524-5.331.314.314,0,0,0-.317-.542Z" transform="translate(1305.668 -2379.156)" fill="#1d272b"/>
                    </g>
                    <g id="Grupo_90971" data-name="Grupo 90971" transform="translate(0 15.641)">
                      <path id="Trazado_150169" data-name="Trazado 150169" d="M-1325.5,2427.6c-5.373,6.539-10.553,13.272-15.575,20.083-1.051,1.425-2.118,2.852-3.065,4.351-.217.343.327.658.542.317,1.969-3.115,4.3-6.029,6.524-8.958q4.328-5.687,8.766-11.289c1.075-1.36,2.152-2.72,3.252-4.06.255-.31-.187-.757-.444-.444Z" transform="translate(1344.194 -2427.489)" fill="#1d272b"/>
                    </g>
                    <g id="Grupo_90972" data-name="Grupo 90972" transform="translate(20.464 13.279)">
                      <path id="Trazado_150170" data-name="Trazado 150170" d="M-1214.618,2442.043c-.782,2.117-.527,4.491-.493,6.7q.056,3.673.114,7.345a.314.314,0,0,0,.628,0q-.055-3.548-.11-7.1c-.034-2.229-.321-4.651.467-6.783.14-.38-.467-.544-.606-.167Z" transform="translate(1215.178 -2437.194)" fill="#1d272b"/>
                      <path id="Trazado_150171" data-name="Trazado 150171" d="M-1204.127,2436.32l.931,2.831c.126.382.732.219.606-.167l-.931-2.831c-.126-.382-.733-.218-.606.167Z" transform="translate(1205.894 -2432.235)" fill="#1d272b"/>
                      <path id="Trazado_150172" data-name="Trazado 150172" d="M-1193,2427.067c.76-.178,1.15,1.476,1.326,1.945q.422,1.125.8,2.268.754,2.284,1.325,4.622a.314.314,0,0,0,.606-.167,61.672,61.672,0,0,0-1.793-5.986,12.769,12.769,0,0,0-1.033-2.571,1.283,1.283,0,0,0-1.4-.716c-.394.092-.227.7.167.605Z" transform="translate(1196.846 -2424.236)" fill="#1d272b"/>
                      <path id="Trazado_150173" data-name="Trazado 150173" d="M-1182.1,2413.046l.008-.073-.092.222a25.691,25.691,0,0,0,1.751,2.155c.257.313.7-.134.444-.444l-.9-1.088a7.7,7.7,0,0,0-.851-1.016c-.353-.3-.937-.3-.992.245-.041.4.588.4.628,0Z" transform="translate(1187.878 -2412.601)" fill="#1d272b"/>
                    </g>
                    <g id="Grupo_90973" data-name="Grupo 90973" transform="translate(6.253 125.945)">
                      <path id="Trazado_150174" data-name="Trazado 150174" d="M-1304.691,3123.458c2.835,3.2,7.307,3.516,11.3,3.692.4.019.4-.61,0-.628-3.825-.17-8.129-.437-10.851-3.508-.269-.3-.712.142-.444.444Z" transform="translate(1304.774 -3122.913)" fill="#1d272b"/>
                    </g>
                    <g id="Grupo_90974" data-name="Grupo 90974" transform="translate(76.294 117.423)">
                      <path id="Trazado_150175" data-name="Trazado 150175" d="M-857.043,3069.406a9.27,9.27,0,0,1-5.928,6.028c-.383.125-.219.732.167.605a9.927,9.927,0,0,0,6.367-6.467c.12-.387-.486-.552-.606-.167Z" transform="translate(863.189 -3069.186)" fill="#1d272b"/>
                    </g>
                    <g id="Grupo_90975" data-name="Grupo 90975" transform="translate(4.14)">
                      <path id="Trazado_150176" data-name="Trazado 150176" d="M-1317.7,2344.678c4.672-.961,9.084,1.385,12.642,4.193.314.248.762-.194.444-.444-3.75-2.959-8.337-5.366-13.254-4.354-.4.081-.228.687.167.605Z" transform="translate(1318.091 -2341.465)" fill="#1d272b"/>
                      <path id="Trazado_150177" data-name="Trazado 150177" d="M-1311.843,2329.51a18.773,18.773,0,0,1,10.927,4.7c.3.269.746-.174.444-.445a19.482,19.482,0,0,0-11.371-4.887c-.4-.033-.4.594,0,.628Z" transform="translate(1313.088 -2328.881)" fill="#1d272b"/>
                    </g>
                  </g>
                </g>
              </g>
              <g id="Grupo_90980" data-name="Grupo 90980">
                <g id="Grupo_90979" data-name="Grupo 90979">
                  <path id="Trazado_150178" data-name="Trazado 150178" d="M-1523.25,1613.258s11.309-.754,23.936,28.082c5.277,10.931,11.308,25.067,11.874,28.459s-9.424,6.408-13.947,6.785-10.366-3.016-15.643-9.989-14.136-20.732-17.528-28.459S-1538.327,1613.258-1523.25,1613.258Z" transform="translate(1536.484 -1613.256)" fill="#ecedea"/>
                  <path id="Trazado_150179" data-name="Trazado 150179" d="M-1353.662,1962.727s3.769,10.366,2.073,33.171l-16.774,2.45a11.6,11.6,0,0,1-4.146-7.539,110.538,110.538,0,0,0-3.581-16.963c-1.13-3.2-2.073-7.162-.754-9.046S-1358.374,1959.523-1353.662,1962.727Z" transform="translate(1402.706 -1906.184)" fill="#ecedea"/>
                </g>
                <path id="Trazado_150180" data-name="Trazado 150180" d="M-1319.962,2179.289s5.022,16.072,5.4,19.088-1.634,7.916-2.387,10.429-.629,4.314,1.508,5.319a3.846,3.846,0,0,0,3.644,2.136s.922.8,3.6-.293l3.183-1.173a5.287,5.287,0,0,1,.251-3.351c.754-1.633,3.9-7.665,3.644-10.555s-2.052-5.78-2.3-7.791.233-16.26.233-16.26S-1309.026,2175.029-1319.962,2179.289Z" transform="translate(1354.306 -2087.125)" fill="#f9a825"/>
              </g>
            </g>
          </g>
        </g>
      </g>
    </g>
  </g>
</svg>
