<svg id="img2" xmlns="http://www.w3.org/2000/svg" xmlns:xlink="http://www.w3.org/1999/xlink" width="222.94" height="222.945" viewBox="0 0 222.94 222.945">
  <defs>
    <radialGradient id="radial-gradient" cx="0.076" cy="0.019" r="1.465" gradientTransform="translate(0)" gradientUnits="objectBoundingBox">
      <stop offset="0" stop-color="#f6f6f7"/>
      <stop offset="0.477" stop-color="#f9f9fa"/>
      <stop offset="0.715" stop-color="#fff"/>
    </radialGradient>
  </defs>
  <g id="Grupo_42274" data-name="Grupo 42274" transform="translate(0 0)">
    <g id="Grupo_18423" data-name="Grupo 18423" transform="translate(0 0)">
      <g id="Grupo_18421" data-name="Grupo 18421">
        <g id="Grupo_18420" data-name="Grupo 18420">
          <g id="Grupo_18419" data-name="Grupo 18419">
            <path id="Trazado_40936" data-name="Trazado 40936" d="M417.562,2257.189a111.47,111.47,0,1,1-111.468-111.468A111.468,111.468,0,0,1,417.562,2257.189Z" transform="translate(-194.623 -2145.721)" fill="#fff"/>
          </g>
        </g>
      </g>
      <path id="Trazado_40937" data-name="Trazado 40937" d="M415.569,2255.017A111.467,111.467,0,1,0,304.1,2366.492,111.031,111.031,0,0,0,415.569,2255.017Z" transform="translate(-192.629 -2143.547)" fill="url(#radial-gradient)"/>
      <path id="Trazado_40938" data-name="Trazado 40938" d="M389.579,2246.181a94.349,94.349,0,1,0-94.349,94.35A94.011,94.011,0,0,0,389.579,2246.181Z" transform="translate(-183.54 -2134.468)" fill="none" stroke="#1d272b" stroke-miterlimit="10" stroke-width="5"/>
      <g id="Grupo_18422" data-name="Grupo 18422" transform="translate(19.748 62.583)">
        <path id="Trazado_40939" data-name="Trazado 40939" d="M392.465,2164.488A111.483,111.483,0,0,1,200.545,2275.5a111.8,111.8,0,0,0,11.094,14.849,111.485,111.485,0,0,0,180.826-125.859Z" transform="translate(-200.545 -2164.488)" fill="#eceef0"/>
      </g>
      <g id="BW72Gg" transform="translate(-6364.336 -1995.12)">
        <g id="Grupo_91636" data-name="Grupo 91636" transform="translate(6406.245 2049.501)">
          <path id="Trazado_150611" data-name="Trazado 150611" d="M6534.282,2148.846c2.189,0,4.021.049,5.85-.02.968-.036,1.313.276,1.222,1.241-.1,1.105.008,2.239-.173,3.326a6.543,6.543,0,0,1-6.327,5.528c-.941.04-1.885.021-2.827.021q-50.254,0-100.51,0c-4.026,0-6.961-2.275-7.3-5.751-.133-1.353-.021-2.73-.021-4.345h6.825c-2.322-3.668-1.414-7.592-1.437-11.365-.089-15.081-.039-30.162-.031-45.242a23.7,23.7,0,0,1,.151-2.432c.125-1.2-.393-1.82-1.589-1.841-6.1-.105-11.568-1.919-16.022-6.19-7.907-7.581-7.76-18.926.264-26.388,9.316-8.664,25.741-7.611,33.528,2.15a17.619,17.619,0,0,1-2.316,24.78c-.4.35-.818.688-1.458,1.225h5.5c0-.977,0-1.94,0-2.9,0-3.128.748-4.148,3.755-5.047.107-1.964.154-3.967.343-5.956.162-1.7.447-3.392.748-5.076a9.611,9.611,0,0,1,4.835-6.8,26.5,26.5,0,0,1,22.641-2.277c5.572,1.864,8.473,6,8.994,11.811.245,2.726.414,5.458.627,8.334,4.685.813,3.569,4.633,3.751,7.989h1.547c10.71,0,21.425.141,32.131-.059,5.4-.1,9.039,3.631,9,9.02-.13,16.622-.057,33.246-.036,49.869A10.174,10.174,0,0,1,6534.282,2148.846Zm-49.315-79.187c-.8,1.542-1.594,3.084-2.411,4.662,1.064,1.619,1.169,1.658,3.645,1.229a10.5,10.5,0,0,0-1.254-5.873,8.977,8.977,0,0,0-5.36-4.133c.052.988-1.517,2.789-2.229,2.611-1.516-.379-3.019-.8-4.627-1.237a7.9,7.9,0,0,0-.034-1.709c-.074-.335-.48-.844-.751-.853a29.892,29.892,0,0,0-10.053.948c-4.831,1.518-7.088,4.461-7.321,9.512a5.064,5.064,0,0,0,.18.948l1.781-3.988,2.7,1.617c-1.5,2.194-.7,4.48-.875,6.748a5.3,5.3,0,0,0,.886.094,39.317,39.317,0,0,0,4.341-.429c7.368-1.473,14.453-3.474,18.449-10.717C6483,2069.274,6483.986,2069.463,6484.966,2069.659Zm44.827,69.868h-94.237v-1.491q0-21.011-.021-42.022a2.063,2.063,0,0,0-.354-1.382,22.338,22.338,0,0,0-2.572-1.753v1.462q0,24.355,0,48.71c0,4.034,1.748,5.79,5.781,5.791q44.405.006,88.809.007c3.778,0,5.625-1.869,5.626-5.717q.005-25.383,0-50.766c0-3.831-1.843-5.682-5.65-5.683q-16.258,0-32.516,0c-.417,0-.833.038-1.3.061v2.336h36.436Zm-3.062-47.292a4.51,4.51,0,0,0-.642-.113q-16.056-.006-32.114.029c-.382,0-.789.44-1.138.73-.77.637-1.513,1.3-2.26,1.969-.412.366-.955.675-1.187,1.137a9.616,9.616,0,0,1-7.111,5.539,4.6,4.6,0,0,0-2.632,1.4,1.8,1.8,0,0,0,.676,3.078c3.412,1.556,6.852,3.061,10.2,4.749a11.617,11.617,0,0,1,6.6,9.889c.323,3.538.567,7.082.86,10.623.144,1.732.317,3.462.478,5.194h28.269Zm-68.558,18.251c-2.442,1.268-5,2.383-7.326,3.865a8.028,8.028,0,0,0-3.592,6.384q-.486,5.632-.951,11.266c-.1,1.257-.169,2.517-.26,3.882,1.977,0,3.772.045,5.562-.043.3-.015.775-.565.828-.919.185-1.225.215-2.472.312-3.71q.271-3.432.549-6.858h3.889v2.849l-.375-.143a6.143,6.143,0,0,0-.747,1.486,21.216,21.216,0,0,0-.243,2.684c-.1,1.515-.2,3.03-.3,4.553h30.271c-.186-2.5-.324-4.891-.574-7.27a4.661,4.661,0,0,0-.778-1.484l-.276.118v-2.815H6488c.3,3.84.6,7.628.906,11.468h6.251a5.308,5.308,0,0,0,.043-.7c-.389-4.866-.742-9.736-1.194-14.6a7.9,7.9,0,0,0-3.654-6.215c-2.308-1.438-4.819-2.547-7.227-3.793C6477.915,2118.774,6463.251,2118.64,6458.174,2110.486Zm-21.435-18.623c-.361-1.34-.731-2.434-.935-3.559s-.224-2.295-.355-3.44a1.408,1.408,0,0,1,1.059-1.74,12.98,12.98,0,0,0,2.394-1.224c9.716-5.812,10.681-17.933,2-24.989a20.993,20.993,0,0,0-25.726.119c-7.331,6.054-7.857,15.768-1.067,22.391a19.263,19.263,0,0,0,15.4,5.359c1.214-.083,1.807.1,2.244,1.32A10.625,10.625,0,0,0,6436.739,2091.863Zm1.884,4.271v1.64q0,17.91,0,35.82c0,2.984,0,2.933,2.967,2.988,1.1.021,1.333-.4,1.4-1.4q.536-7.364,1.207-14.718a11.249,11.249,0,0,1,6.058-9.412c3.265-1.752,6.656-3.28,10.046-4.784,2.276-1.01,2.463-1.778.714-3.52-1.627-1.623-3.771-3.1-4.569-5.087-1-2.485-2.372-2.831-4.571-2.64a3.822,3.822,0,0,1-3.961-2.289c-.129-.257-.46-.579-.7-.584-2.164-.046-4.328-.027-6.492-.027l-.212.325,4.114,5.016Zm-11.345,55.883c-.036,2.541,1.483,3.865,4.311,3.865q51.1,0,102.2,0a7.764,7.764,0,0,0,1.407-.078,3.426,3.426,0,0,0,2.913-3.784Zm47.119-48.52-.1-.282c-.126-.008-.253-.023-.379-.022-2.779.006-4.787-1.646-5-4.114a4.646,4.646,0,0,1,3.745-5.081c2.612-.465,4.75,1.037,5.468,3.841a1.064,1.064,0,0,0,1.831.528,12.777,12.777,0,0,0,2.294-3.449,8.864,8.864,0,0,0,.262-3.3c-.03-3.3-.016-6.6-.223-9.884a8.9,8.9,0,0,0-2.176-5.318c-6.533,4.728-13.842,6.646-21.787,6.979,0,3.315.022,6.56-.008,9.8a6.084,6.084,0,0,0,2.083,4.78c1.613,1.473,3.23,2.944,4.782,4.481a5.188,5.188,0,0,0,3.755,1.671c1.282,0,2.568.021,3.843-.078A6.537,6.537,0,0,0,6474.4,2103.5Zm10.849-38.793a8.742,8.742,0,0,0-4.982-5.739,20.461,20.461,0,0,0-10.889-1.8,21.062,21.062,0,0,0-10.759,3.42,6.438,6.438,0,0,0-3.029,4.141C6465.475,2059.805,6475.316,2059.869,6485.246,2064.7Zm-24.162,44.636a11.6,11.6,0,0,0,9.854,4.278c3.537-.089,6.869-1.1,9.211-4.345-1.685-.8-3.676-.978-3.752-3.191a16.725,16.725,0,0,1-11.647.214C6464.765,2108.561,6462.636,2108.412,6461.084,2109.341Zm-5.812-17.391c0-4.293.007-8.391-.019-12.489,0-.224-.268-.633-.423-.639a22.924,22.924,0,0,0-3.454.048c-.274.031-.68.68-.686,1.05-.052,3.636-.064,7.274.016,10.908a1.556,1.556,0,0,0,1.047,1.072A26.736,26.736,0,0,0,6455.272,2091.949Zm30.318.008c1.165,0,2.182-.042,3.193.011,1.074.056,1.432-.437,1.42-1.454-.032-2.778-.009-5.557-.014-8.336-.006-3.8.408-3.4-3.589-3.413-.085,0-.2-.034-.251.009-.262.244-.724.5-.727.763C6485.576,2083.6,6485.59,2087.654,6485.59,2091.957Zm-46.783-5.2c-.015,2.2.074,2.29,2.078,2.3.643,0,1.285,0,1.928,0h4.714v-2.3Zm36.306,11.845a1.583,1.583,0,0,0-1.525-1.58,1.533,1.533,0,0,0-1.6,1.595,1.452,1.452,0,0,0,1.56,1.5C6474.507,2100.119,6474.978,2099.519,6475.113,2098.6Z" transform="translate(-6406.245 -2049.501)" fill="#008f85"/>
          <path id="Trazado_150613" data-name="Trazado 150613" d="M6695.769,2410.736h4.028v2.9h-4.028Z" transform="translate(-6621.332 -2317.862)" fill="#008f85"/>
          <path id="Trazado_150614" data-name="Trazado 150614" d="M6777.079,2230.072h2.687c.055-1.046.109-2.092.169-3.221h2.986v3.269h3.215v3.269h3.389v3.13a21.478,21.478,0,0,1-2.228-.015c-1.093-.114-1.139.492-1.135,1.326,0,.858,0,1.555,1.183,1.42a19.9,19.9,0,0,1,2.159-.014v3.042h-3.218v2.672h3.216v3.115c-.782,0-1.542.04-2.3-.011-.791-.053-1.089.265-1.043,1.04.041.68.009,1.365.009,2.231h-3.19v3.313h-3.143v-3.208h-2.667v3.205h-3.1v-3.174h-2.625c-.05,1.036-.1,2.081-.154,3.2h-2.945c-.049-1.073-.1-2.121-.149-3.282h-3.171c0-.827-.044-1.542.012-2.249.069-.867-.3-1.141-1.123-1.082-.714.052-1.434.011-2.236.011V2245h3.27v-2.616l-3.156-.178a5.745,5.745,0,0,1-.12-.772c-.035-2.106-.029-2.208,2.062-2.154,1.315.034,1.29-.656,1.343-1.577.059-1.043-.453-1.236-1.327-1.173-.674.049-1.355.01-2.162.01,0-.829-.007-1.508,0-2.185,0-.25.049-.5.09-.9h3.329v-3.292h3.231v-3.33h3.076v3.243h2.687v-3.222h3.067Zm-8.881,3.249V2248.2h14.809V2233.32Z" transform="translate(-6670.231 -2181.238)" fill="#008f85"/>
          <path id="Trazado_150615" data-name="Trazado 150615" d="M6642.458,2353.716h-15.074V2350.8h15.074Z" transform="translate(-6570.529 -2273.336)" fill="#008f85"/>
          <path id="Trazado_150616" data-name="Trazado 150616" d="M6482.828,2118.964h-3.185c.156-2.073.306-4.077.459-6.111h4.888v2.757c-.633.643-1.907-.415-2.137.875A14.671,14.671,0,0,0,6482.828,2118.964Z" transform="translate(-6460.772 -2096.565)" fill="#1d272b"/>
          <path id="Trazado_150617" data-name="Trazado 150617" d="M6528.817,2118.987h-3.094c.146-2.054.29-4.064.437-6.13h4.887v2.9l-2.092.185C6528.91,2116.927,6528.866,2117.887,6528.817,2118.987Z" transform="translate(-6495.005 -2096.568)" fill="#1d272b"/>
          <path id="Trazado_150618" data-name="Trazado 150618" d="M6436.834,2118.952h-3.225c.152-2.087.3-4.1.45-6.153h4.858v2.923l-2.083.181Z" transform="translate(-6426.574 -2096.525)" fill="#1d272b"/>
          <path id="Trazado_150619" data-name="Trazado 150619" d="M6678.762,2192.579h-3.026v-2.949h3.026Z" transform="translate(-6606.449 -2153.602)" fill="#008f85"/>
          <path id="Trazado_150620" data-name="Trazado 150620" d="M6627.289,2189.624v2.916h-3.058v-2.916Z" transform="translate(-6568.187 -2153.598)" fill="#008f85"/>
        </g>
      </g>
      <rect id="Rectángulo_33806" data-name="Rectángulo 33806" width="15" height="16" transform="translate(139.891 106.258)" fill="#1d272b"/>
    </g>
  </g>
</svg>
