<svg xmlns="http://www.w3.org/2000/svg" width="217.159" height="217.174" viewBox="0 0 217.159 217.174">
  <g id="Grupo_91007" data-name="Grupo 91007" transform="translate(3453.236 -3193.841)">
    <path id="Trazado_150184" data-name="Trazado 150184" d="M-3324.434,3193.841h72.451a18.43,18.43,0,0,0,3.481.571c5.733,1,11.613,8.078,12,12.969.16,2.009.415,4.006.415,6.031q-.019,55.032.009,110.063c.006,5.7-1.4,10.708-5.9,14.549a20.456,20.456,0,0,1-12.9,5.138c-3.736.127-7.477-.087-11.214.144-2.685-.515-5.371.037-8.056,0-1.44-.623-2.916-.1-4.37-.106-7.309-.029-14.617-.018-21.925-.012a27.723,27.723,0,0,0-3.579.145c-2.679-.547-5.36-.048-8.039,0a19.639,19.639,0,0,0-6.062-.1c-4.037.041-8.019-.155-11.779-1.939a22.37,22.37,0,0,1-5.987-4.287,23.621,23.621,0,0,1-4.3-6.33,27.438,27.438,0,0,1-1.416-8.923c.053-2.081-.511-2.436-2.412-1.634q-4.67,1.972-9.355,3.907c-1.3.538-1.98,1.354-1.5,2.781a34.259,34.259,0,0,1,1.265,7.266,5.165,5.165,0,0,0,2.062,3.944,16.024,16.024,0,0,1,2.642,2.727c1.934,1.537,2.944,3.753,4.244,5.758a28.915,28.915,0,0,1,2.8,10.771,26.954,26.954,0,0,1-.4,5.456,3.007,3.007,0,0,1-2.373,2.689,3.217,3.217,0,0,1-3.587-1.667,12.253,12.253,0,0,0-5.131-5.175c-2.083-1.01-3.121-.764-4.153,1.249a29.113,29.113,0,0,1-10.195,11.065c-1.648,1.088-1.859,1.994-.84,3.722a13.8,13.8,0,0,0,4.445,4.439c2.18,1.448,2.488,3.3,1.015,4.969a2.816,2.816,0,0,1-2.012,1.026c-4.462.258-8.9.206-13.121-1.511a4.169,4.169,0,0,0-4.216.183,45.388,45.388,0,0,1-11.883,1.562,4.767,4.767,0,0,1-2.263-.406,3.3,3.3,0,0,1-2.486-2.6,3.122,3.122,0,0,1,1.7-3.336,12.954,12.954,0,0,0,4.49-4.08c1.455-2.316,1.385-2.983-.854-4.48a27.44,27.44,0,0,1-7.254-6.989c-1.491-1.6-2.077-3.748-3.3-5.51-1.058-.684-2.053-.2-3.009.218a11.821,11.821,0,0,0-5.092,4.625c-.843,1.287-1.859,2.508-3.537,2.2a3.542,3.542,0,0,1-2.89-3.46,25.256,25.256,0,0,1,6.112-19.988,26.7,26.7,0,0,1,3.138-3.139c2.738-2.306,2.8-5.433,2.792-8.6a27.851,27.851,0,0,1,8.982-14.905,16.368,16.368,0,0,1,1.616-1.346c2.143-1.385,3.685-.8,5.118,1.933-.02,2.171-.8,4.264-.563,6.478.293,2.781,1.156,3.421,3.861,2.722a27.541,27.541,0,0,1,15.815.336,2.254,2.254,0,0,0,3.345-2.195c-.017-.469-.356-.906-.227-1.416a9.773,9.773,0,0,0-.3-3.944,3.1,3.1,0,0,1,1.3-3.66,3.235,3.235,0,0,1,3.894.281,7.383,7.383,0,0,1,1.554,1.38c.335.355.7.686,1.058,1.021,1.217,1.135,2.2.9,3.145-.392,2.068-2.841,4.314-5.547,6.382-8.388a41.6,41.6,0,0,1,3.782-4.564,1.547,1.547,0,0,0,.14-2.42c-3.024-5.609-6.693-10.828-9.9-16.327-.282-.483-.544-.978-.841-1.451-1.324-1.731-2.285-3.691-3.467-5.512a3.593,3.593,0,0,1-.93-1.531,36.348,36.348,0,0,0-2.885-4.356c-.812-1.126-4.213-1.638-5.522-1.018a1.029,1.029,0,0,0-.691,1.174c.665,2.846,1.02,5.774,2.2,8.49.382,1.684.275,3.464,1.031,5.071.819,2.125.818,4.468,1.75,6.565.118.481.211.966.286,1.452.176,1.157.763,2.537-.529,3.283-1.354.782-2.873,1.6-4.528.563a8.677,8.677,0,0,1-1.493-3.679c-1.277-6.787-3.477-13.345-4.983-20.076a5.935,5.935,0,0,0-.45-1.408c-.265-.522-.6-.985-1.261-.969s-.988.478-1.232,1.011c-.736,1.607-.859,3.414-1.622,5.017-1.286,4.435-2.522,8.88-3.853,13.3-.773,2.561-1.708,2.979-4.232,2.153-2.088-.684-2.356-1.35-1.835-4.565,1.848-4.171,2.27-8.806,4.181-12.957a13.721,13.721,0,0,1,.207-1.86c.632-2.221.293-2.545-1.924-2.744-2.653-.238-4.635.48-5.759,3.087a23.5,23.5,0,0,1-2.137,3.1,153.885,153.885,0,0,1-10.625,16.953c-1.11,1.458-1.454,3.2-2.245,4.767a64.768,64.768,0,0,0-5.323,8.135c-8.654,14.136-17.413,28.208-26.037,42.363-2.646,4.343-4.031,9.13-5.284,13.983a4.1,4.1,0,0,0,.11,1.465,30.808,30.808,0,0,0-.165,7.729,41.181,41.181,0,0,0,8.666,20.41q2.371,2.478,4.868,4.833a43.344,43.344,0,0,0,14.836,7.239,25.461,25.461,0,0,0,5.394.813c1.852.972,3.8.088,5.7.314.823.1,1.643-.191,2.477-.125,1.365.68,2.777.117,4.158.124,7.319.035,14.638.021,21.957.016a26.667,26.667,0,0,0,3.584-.148c2.658.585,5.318.035,7.976,0,1.364.551,2.765.166,4.151.16,4.855-.019,9.712.092,14.563-.036a35.192,35.192,0,0,0,14.859-3.549c5.323-1.651,9.008-5.547,12.7-9.4,1.449-1.511,2.508-3.376,3.927-4.92,1.126-1.224.945-2.876,1.656-4.216,1.864-3,2.485-6.391,3.1-9.782,1.23-6.778-.092-13.271-2.237-19.667a5.968,5.968,0,0,1-.739-1.5c-1.423-3.353-1.369-3.509,1.811-5.158,1.414-.75,2.431-.278,3.125,1.055.293.563.74,1.027.977,1.618a45.729,45.729,0,0,1,3.915,19.65,33.472,33.472,0,0,1-.775,5.394,25.142,25.142,0,0,1-2.242,8.846,35.95,35.95,0,0,0-2.263,5.517,74.932,74.932,0,0,1-8.085,10.041,44.629,44.629,0,0,1-15.424,9.812c-4.1,1.572-8.4,1.707-12.655,1.728-21.677.106-43.355-.005-65.032.073a37.475,37.475,0,0,1-25.661-9.475,53,53,0,0,1-4.728-4.8,33.939,33.939,0,0,1-9.358-18.214c-.24-1.527-.21-3.1-.592-4.615v-11.44a15.651,15.651,0,0,0,.465-3.727c.347-5.346,2.716-9.958,5.434-14.38q7.479-12.164,14.966-24.324a26.959,26.959,0,0,1,2.46-3.325,5.788,5.788,0,0,0,1.442-3.464c3.165-4.069,5.481-8.684,8.3-12.979a24.993,24.993,0,0,1,2.1-3.151,18.064,18.064,0,0,0,3.28-5.993c3.026-4,5.37-8.443,8.046-12.669,1.32-2.084,2.6-4.2,3.885-6.3.907-1.49.749-2.5-.684-3.574a9.54,9.54,0,0,1-3.5-11.236c1.348-3.753,4.962-6.028,9.516-5.977.567.006,1.125-.075,1.693-.093,4.418.011,8.833-.113,13.245.086a34.52,34.52,0,0,1,4.25,0c1.229-.053,2.459-.09,3.681-.24,1.937.6,3.883.106,5.821,0a1.992,1.992,0,0,0,1.875-1.494c.66-2.679,2.078-5.187,1.864-8.066,1.807-5.5,2.829-11.191,4.2-16.8.45-1.843-.458-2.6-2.377-2.383-4.38.5-8.33,4.559-9.192,9.555-.562,3.26-.941,6.549-1.352,9.831-.348,2.773-.867,3.211-3.649,2.924-2.508-.1-2.9-.6-2.729-3.027a36.321,36.321,0,0,0,.488-4.8c-.031-.52.094-1.3-.726-1.237-.588.046-.55.725-.559,1.205-.03,1.548.394,3.048.468,4.593.127,2.653-.263,3.151-2.986,3.276-2.388.226-3-.208-3.314-2.552-.308-2.267-.625-4.535-.824-6.814-.644-2.2-.411-4.589-1.419-6.712-1.9-3.12-4.327-5.553-8.084-6.287-2.336-.457-3.022.186-2.6,2.541.7,3.955,2.007,7.776,2.623,11.753a69.938,69.938,0,0,1,1.951,8.181c-.325,1.989-2.156,1.777-3.443,2.365a1.616,1.616,0,0,1-.739-.05c-1.349-.05-1.8-1-2.211-2.088-.443-1.166-.133-2.48-.8-3.58-1.41-5.681-2.813-11.364-4.042-17.088a6.933,6.933,0,0,1,6.859-8.63,16.838,16.838,0,0,1,14.659,7.8,14.806,14.806,0,0,1,1.584,2.7,3.137,3.137,0,0,0,2.241,2c1.19.764,2,0,2.787-.721a6.973,6.973,0,0,0,1.5-2.037c1.7-3.423,4.577-5.68,7.632-7.723a12.892,12.892,0,0,1,9.205-1.941,6.5,6.5,0,0,1,5.611,6.44c.078,3.643-1.081,7.054-2.087,10.49a3.151,3.151,0,0,0-.343,1.378,41.311,41.311,0,0,1-1.98,8.679,7.864,7.864,0,0,0-.379,3.149c-.143.468-.371.907-.519,1.378-1.072,3.4-1.073,3.4,1.908,5.231a9.577,9.577,0,0,1,1.2,15.616c-2.487,2.018-2.487,2.018-.759,4.949,1.413,1.774,2.288,3.9,3.716,5.663,2.911,5,5.99,9.887,9.058,14.786.407.649.834,1.441,1.788,1.172.888-.25,1-1.1,1.1-1.88a19.73,19.73,0,0,0,.069-2.324c.138-8.1-.29-16.213.235-24.312.047-.731-.507-1.329-.334-2.062-.055-2.581.55-5.162-.061-7.736.352-7.969.111-15.94.119-23.91,0-1.95.553-3.92-.088-5.86,0-2.6.417-5.2.093-7.809.135-3.286-.2-6.588.459-9.862a19.986,19.986,0,0,1,9.629-13.483C-3329.369,3194.186-3326.8,3194.416-3324.434,3193.841Z" transform="translate(0 0)" fill="#212d31"/>
    <path id="Trazado_150185" data-name="Trazado 150185" d="M-3177.842,3257.173c-.008-12.981-.071-25.962,0-38.943a14.719,14.719,0,0,1,14.363-14.4q33.439-.1,66.878-.012a12.552,12.552,0,0,1,7.7,2.552,1.544,1.544,0,0,1-.395,2.379c-3.781,3.02-6.726,6.927-10.549,9.9-1.814.417-3.594-.362-5.454-.038-4.494.784-8.6,2.682-12.815,4.242-13.344,4.94-26.758,9.688-40.121,14.575-.926.339-1.846.7-2.773,1.029-5.9,2.116-9.324,6.323-10.565,12.407a7.573,7.573,0,0,1-.534,2.251c-1.425.807-2.179,2.3-3.388,3.325C-3176.178,3257.023-3176.784,3257.822-3177.842,3257.173Z" transform="translate(-158.426 -5.726)" fill="#b42218"/>
    <path id="Trazado_150186" data-name="Trazado 150186" d="M-3312.716,3598.87h-30.067c-.642-.973.058-1.6.633-2.186q9.607-9.755,19.363-19.361c1.062-1.044,2.505-1.589,3.7-2.474a3.478,3.478,0,0,1,3.908-.292,25.711,25.711,0,0,0,13.025,1.95,2.209,2.209,0,0,0,2.258-1.555,2.113,2.113,0,0,0-1.28-2.6,12.962,12.962,0,0,1-6-7.11,1.468,1.468,0,0,1,.867-2.157A23.773,23.773,0,0,0-3294.329,3550c.5-1.285,1.232-1.324,2.282-1.031a12.489,12.489,0,0,1,7.687,5.881c.651,1.107,1.227,2.385,2.819,2.057,1.663-.343,1.754-1.766,1.917-3.138a27.319,27.319,0,0,0-2.589-14.584,2.406,2.406,0,0,1,.583-3.043c2.364-2.414,4.746-4.81,7.171-7.163a1.767,1.767,0,0,1,2.448-.388c4.7,4.673,10.484,6.3,16.946,6.025,1.845.538,2.584,2.005,3.086,3.672a1.539,1.539,0,0,1-.043.614,15.767,15.767,0,0,1-2.528,3.1q-27.029,27.005-54.027,54.042A10.581,10.581,0,0,1-3312.716,3598.87Z" transform="translate(-63.401 -192.399)" fill="#2e3c42"/>
    <path id="Trazado_150187" data-name="Trazado 150187" d="M-3032.227,3394.795c.009,14.682.076,29.365,0,44.048a14.705,14.705,0,0,1-14.386,14.387c-14.682.074-29.364.006-44.046,0-.743-.713-.467-1.381.082-2.044.5-.6,1.045-1.149,1.594-1.7q26.515-26.5,53.013-53.016c.549-.549,1.1-1.1,1.7-1.594C-3033.607,3394.327-3032.939,3394.053-3032.227,3394.795Z" transform="translate(-208.346 -115.357)" fill="#b42218"/>
    <path id="Trazado_150188" data-name="Trazado 150188" d="M-3193.871,3396.477c-.9-4.35-.3-8.751-.449-13.126a2.662,2.662,0,0,0-3.9-1.739c-1.916.9-3.948,1.5-5.834,2.449-.743.372-1.45.666-2.092,0-.765-.791-.084-1.419.338-2.1a47.657,47.657,0,0,1,7.075-8.581q21.489-21.471,42.922-43c2.025-2.046,4.475-2.866,6.976-3.728,3.59-1.238,7.177-2.491,10.7-3.9,2.843-1.133,5.711-2.254,8.576-3.271a88.742,88.742,0,0,1,8.65-2.921c1.507-.366,2.513-2,4.373-1.706.732.117,1.424.058,1.743.84a1.6,1.6,0,0,1-.624,1.861c-4.726,4.387-9.193,9.04-13.737,13.608-5.458,5.487-10.941,10.952-16.383,16.457q-6.914,6.994-13.947,13.879c-1.916,1.865-3.739,3.827-5.691,5.657-.828.776-1.066,1.906-1.626,2.846a3.173,3.173,0,0,0-2.435,3.784c-.805,1.756-2.549,2.6-3.826,3.891q-8.84,8.971-17.81,17.813C-3191.662,3396.279-3192.416,3397.549-3193.871,3396.477Z" transform="translate(-141.963 -69.604)" fill="#b42117"/>
    <path id="Trazado_150189" data-name="Trazado 150189" d="M-3385.481,3399.583c.278,1.092-1.662,2.541.619,3.332,2.64.915,2.657.947,3.455-1.717q1.967-6.567,3.951-13.13a1.361,1.361,0,0,1,2.009.531c2.555,3.809,5.721,7.2,7.618,11.466a2.788,2.788,0,0,1-.575,3.432q-.58.617-1.179,1.215-34.407,34.291-68.694,68.7c-.649.648-1.293,1.3-2,1.887-.668.553-1.344.794-2.042.046a27.8,27.8,0,0,1,3.744-12.9c10.55-17.945,21.591-35.593,32.674-53.213,4.613-6.234,10.312-11.458,15.761-16.912.839-.84,1.7-1.742,3.1-1.27,1.662,1.153,1.852,2.917,1.937,4.706A15.157,15.157,0,0,1-3385.481,3399.583Z" transform="translate(-6.28 -111.599)" fill="#2e3c42"/>
    <path id="Trazado_150190" data-name="Trazado 150190" d="M-3199.641,3569.391a36.58,36.58,0,0,1-.718,30.53c-3.7,5.321-8.582,9.556-13.056,14.167-1.606,1.654-3.662,2.763-5.27,4.411a31.405,31.405,0,0,1-14.191,3.748c-6.694.216-13.4.042-20.1.035-.526-.747-.124-1.322.351-1.883.5-.592,1.052-1.137,1.6-1.684q23.763-23.743,47.5-47.507c.6-.6,1.192-1.2,1.845-1.737S-3200.351,3568.65-3199.641,3569.391Z" transform="translate(-115.074 -215.81)" fill="#2e3c42"/>
    <path id="Trazado_150191" data-name="Trazado 150191" d="M-3433.419,3576.776a35.147,35.147,0,0,1-8.951-20.7,3.929,3.929,0,0,1,1.564-2.8q19.366-19.369,38.751-38.717c.672-.667,1.327-1.854,2.63-.917-.138,1.969-.378,3.938-.377,5.908,0,1.251-.837,1.671-1.6,2.275-7.389,5.876-10.908,13.472-10.151,22.951.1,1.214.224,2.466,1.7,2.848,1.606.414,2.233-.737,2.923-1.852a12.513,12.513,0,0,1,7.814-5.739c1.011-.257,2.048-.4,2.111,1.156a5.148,5.148,0,0,1-1.635,2.878q-15.857,15.883-31.753,31.726C-3431.194,3576.6-3431.981,3577.781-3433.419,3576.776Z" transform="translate(-6.252 -183.796)" fill="#2e3c42"/>
    <path id="Trazado_150192" data-name="Trazado 150192" d="M-3289.635,3415.82c1.2.427,2.269-.213,3.383-.453.763-.164.656-.764.551-1.325q-.265-1.421-.537-2.84a5.311,5.311,0,0,1,1.4-2.557q3.111-3.177,6.292-6.286c.754-.741,1.534-1.3,2.588-.522q5.738,8.739,11,17.77c.507.963-.082,1.622-.638,2.288-3.945,4.728-8.494,8.87-12.823,13.226a1.893,1.893,0,0,1-2.263.643c-.777-.594-1.539-1.208-2.335-1.776a2.024,2.024,0,0,0-2.366-.1,1.9,1.9,0,0,0-.879,2.183,13.685,13.685,0,0,1,.463,5.195c-.957,1.829-1.7,3.871-4.172,4.194-6.118-1.856-12.185-1.962-18.14.623-1.039.45-1.4-.058-1.74-.846a12.876,12.876,0,0,1-.651-8.065c.165-.756.377-1.5.568-2.251a4.151,4.151,0,0,1,1.35-2.54c5.365-5.357,10.674-10.77,16.108-16.057C-3291.736,3415.6-3290.9,3414.138-3289.635,3415.82Z" transform="translate(-81.918 -119.453)" fill="#2e3c42"/>
    <path id="Trazado_150193" data-name="Trazado 150193" d="M-3023.224,3304.334l0,30.5a16.9,16.9,0,0,1-4.8,5.556c-3.36,2.829-6.336,6.035-9.436,9.119-10.461,10.409-20.864,20.875-31.333,31.276-1.065,1.058-1.7,2.682-3.461,2.941-1.69.007-2.523-1.189-3.071-2.477-.5-1.175.534-1.947,1.265-2.687,6.735-6.819,13.565-13.543,20.314-20.347.546-.551,1.106-1.087,1.608-1.679a2.218,2.218,0,0,0-.047-3.228c-.745-.847-1.586-1.6-2.343-2.439-1.59-1.758-1.631-2.411.01-4.11,4.064-4.207,8.253-8.29,12.381-12.435a8.346,8.346,0,0,0,1.4-1.581,1,1,0,0,0-.037-1.355c-.441-.419-.923-.243-1.356.035a9.9,9.9,0,0,0-1.561,1.419c-3.885,3.888-7.759,7.789-11.671,11.65-2.786,2.75-5.489,1.91-6.617-2.037a6.1,6.1,0,0,1,1.809-2.8q16.892-16.938,33.85-33.811C-3025.527,3305.042-3024.875,3303.548-3023.224,3304.334Z" transform="translate(-217.349 -63.444)" fill="#b42117"/>
    <path id="Trazado_150194" data-name="Trazado 150194" d="M-3172.564,3315.226c.183-2.7,2.321-4.123,3.963-5.786,5.479-5.548,11.092-10.965,16.608-16.479,5.466-5.463,10.861-11,16.315-16.473,4.563-4.58,9.164-9.121,13.751-13.676.427-.424,1.273-.729.851-1.473-.353-.621-1.151-.345-1.766-.309-1.133.068-1.8,1.083-2.8,1.429-4.365,1.509-8.806,2.833-13.075,4.578-3.719,1.52-7.484,2.89-11.258,4.249-2.316.834-4.638,1.656-6.985,2.4a4.122,4.122,0,0,0-1.73,1.129c-15.167,15.191-30.3,30.418-45.556,45.515a34.348,34.348,0,0,0-6.906,8.614c1.765.235,2.9-.9,4.245-1.323,2.031-.645,3.95-1.963,6.227-1.072,1,.391,2.437.676,1.018,2.218-1.028-1.647-2.383-1.666-4.026-.953-3.928,1.706-7.892,3.328-12.087,5.086.1-1.346.945-1.969,1.492-2.695,4.155-5.516,8.293-11.048,12.579-16.462a8.335,8.335,0,0,0,2.067-6.185c-.154-1.819-.017-3.664-.009-5.5.921-2.655,3.126-4.292,4.992-6.167,4.966-4.988,9.961-9.948,14.922-14.942.815-.82,2.075-1.236,2.354-2.554,2.16-1.046,4.553-1.344,6.8-2.155q25.258-9.118,50.435-18.455a15.435,15.435,0,0,0,5.625-25.244,7.437,7.437,0,0,1-1.885-2.248,3.385,3.385,0,0,1,1.119-2.805c2.2-2.235,4.4-4.468,6.663-6.644.731-.7,1.5-1.327,2.553-.54a16.1,16.1,0,0,1,2.167,8.494c-.076,6.489-.041,12.98-.052,19.47-1.315,2.654-3.588,4.481-5.7,6.407-1.25,1.137-2.531,2.241-3.728,3.437q-27.166,27.152-54.353,54.283c-1.325,1.318-2.1,3.213-4.007,3.943C-3172.344,3316.206-3172.734,3315.922-3172.564,3315.226Z" transform="translate(-136.622 -15.015)" fill="#b42218"/>
    <path id="Trazado_150195" data-name="Trazado 150195" d="M-3390.6,3634.666a35.271,35.271,0,0,1-20.223-8.564c-.764-.95-.285-1.69.394-2.407,1.263-1.334,2.586-2.607,3.882-3.907q13.611-13.649,27.271-27.249c.828-.823,1.593-2.222,3.165-1.127a26.075,26.075,0,0,0,9.073,7.677c.977.454,1.126,1.008.761,1.988a12.793,12.793,0,0,1-5.294,6.6c-1.164.731-2.732,1.218-2.346,3.051.377,1.793,2,1.7,3.352,1.953a2.483,2.483,0,0,0,.615.121c.585.084,1.358-.3,1.684.474s-.234,1.343-.723,1.841c-6.108,6.212-12.25,12.391-18.494,18.466A3.238,3.238,0,0,1-3390.6,3634.666Z" transform="translate(-24.18 -228.508)" fill="#2e3c42"/>
    <path id="Trazado_150196" data-name="Trazado 150196" d="M-3293.537,3511.3c6.835-2.43,11.014-7.223,12.479-14.6a11.8,11.8,0,0,1,2.935,4.923,18.279,18.279,0,0,1,1.221,9.289,3.087,3.087,0,0,0,1.587,3.37,17.1,17.1,0,0,1,4.688,4.19,1.68,1.68,0,0,1-.378,1.937c-2.012,2.038-3.765,4.372-6.421,5.683-10.589.294-21.913,13.422-12.281,27.643a12.329,12.329,0,0,1-6.406-1.882,4.273,4.273,0,0,0-4.389.006,20.22,20.22,0,0,1-6.291,2.091c-.517-.692-.017-1.036.237-1.408,5.239-7.686,4.015-16.8-3.088-22.962a4.733,4.733,0,0,1-.42-.473,1.557,1.557,0,0,1,.272-2.251c1.143-1.039,1.853-2.727,3.784-2.633,1.389-.024,1.582,1.186,2.091,2.056a6.853,6.853,0,0,0,6.737,3.362,6.52,6.52,0,0,0,5.395-5.478,6.367,6.367,0,0,0-2.511-6.117c-.746-.64-1.74-.922-2.4-1.694-.848-1.42-.336-2.512.841-3.424C-3295.106,3512.347-3294.243,3511.938-3293.537,3511.3Z" transform="translate(-82.164 -174.246)" fill="#b42218"/>
    <path id="Trazado_150197" data-name="Trazado 150197" d="M-3365.876,3398.531c-1.065-.3-1.514.574-2.082,1.139q-8.1,8.055-16.163,16.137c-.646.644-1.365,1.215-2.05,1.82-1.43-2.125-2.263-2.306-4.237-.8-5.068,3.872-8.006,9.1-9.591,15.183-.744.639-1.534,1.233-2.226,1.924q-18.755,18.728-37.493,37.472c-1.044,1.044-2.15,2.027-3.227,3.038a21.133,21.133,0,0,1,.021-8.532,4.478,4.478,0,0,0,2.211-1.555q35.372-35.369,70.765-70.716c1.287-1.283,1.51-2.164.333-3.695-2.359-3.07-4.481-6.323-6.688-9.509a6.224,6.224,0,0,0-1.755-1.8c.524-1.892,1.144-3.764,1.542-5.682.321-1.544,1.328-1.479,2.508-1.535,1.338-.064,1.62.705,1.875,1.751Q-3369.031,3385.856-3365.876,3398.531Z" transform="translate(-5.677 -102.165)" fill="#2e3c42"/>
    <path id="Trazado_150198" data-name="Trazado 150198" d="M-3092.62,3424.75c13.579-13.646,27.1-27.348,40.786-40.89,2.631-2.6,5.16-5.4,8.349-7.412q0,4.026,0,8.051a4.623,4.623,0,0,0-2.2,1.586q-27.327,27.322-54.649,54.651a4.613,4.613,0,0,0-1.585,2.2h-8.473c-.676-1.089-.029-1.91.644-2.616,3.826-4.011,7.809-7.867,11.722-11.792.574-.575,1.359-.7,1.976-1.157C-3094.849,3426.565-3093.765,3425.617-3092.62,3424.75Z" transform="translate(-197.092 -105.062)" fill="#b42218"/>
    <path id="Trazado_150199" data-name="Trazado 150199" d="M-3210.23,3560.227a3.931,3.931,0,0,0-1.9,1.286q-25.238,25.24-50.473,50.482c-.348.348-.645.747-.965,1.122h-8.065c.522-.572,1.023-1.166,1.57-1.713q28.338-28.351,56.689-56.69c.6-.6,1.256-1.127,1.887-1.689,1.286-.117,1.8.561,1.8,1.758-2.014.827-2.51,2.058-1.123,3.9A5.8,5.8,0,0,1-3210.23,3560.227Z" transform="translate(-104.484 -206.647)" fill="#2e3c42"/>
    <path id="Trazado_150200" data-name="Trazado 150200" d="M-3112.02,3354.451a7.842,7.842,0,0,1,2.221-3.293c19.049-19.049,38.049-38.146,57.2-57.09,2.626-2.6,5.113-5.453,8.34-7.417q0,3.819,0,7.637c-.53.463-1.089.9-1.584,1.392q-17.578,17.563-35.14,35.142c-.5.5-.923,1.06-1.382,1.593-.23.171-.526.4-.764.282-2.285-1.134-3.652.254-5.1,1.707q-9.836,9.886-19.72,19.725a10.931,10.931,0,0,1-1.873,1.7C-3111.07,3356.6-3111.823,3356.108-3112.02,3354.451Z" transform="translate(-196.316 -53.397)" fill="#b42218"/>
    <path id="Trazado_150201" data-name="Trazado 150201" d="M-3129.227,3489.636a7.747,7.747,0,0,0-1.6,1.006c-4.426,4.6-9.408,8.671-13.27,13.814-4.774.009-9.551.121-14.321,0a13.688,13.688,0,0,1-10.685-5.052,1.669,1.669,0,0,1,.391-1.947c3.68-3.8,7.343-7.615,11.274-11.159a3.923,3.923,0,0,1,.909-.536c1.2-.326,1.812.59,2.5,1.246,2.542,2.44,4.987,4.979,7.491,7.457a9.3,9.3,0,0,0,1.409,1.272c.362.235.776.429,1.178.141a.782.782,0,0,0,.166-1.134c-1.378-1.907-.154-3.105,1.1-4.34,2.005-1.981,3.951-4.023,6.008-5.95,1.527-1.43,2.277-1.412,3.8-.013,1.09,1,2.12,2.066,3.132,3.146C-3129.2,3488.17-3128.708,3488.777-3129.227,3489.636Z" transform="translate(-163.384 -166.587)" fill="#b42117"/>
    <path id="Trazado_150202" data-name="Trazado 150202" d="M-3344.49,3524.882c-4.846-.732-9.419-.14-13.521,2.768-.288.2-.659.406-.959.12-.435-.413-.156-.927-.043-1.394a20.775,20.775,0,0,1,8.761-12.555,5.014,5.014,0,0,0,2.547-5.2c-.38-5.05,1.374-9.621,4.609-14.1,1.385,8.261,5.527,13.59,13.417,15.568.726,1.123-.1,1.939-.706,2.605-3.641,3.992-7.542,7.731-11.444,11.464A2.518,2.518,0,0,1-3344.49,3524.882Z" transform="translate(-54.1 -172.993)" fill="#b42218"/>
    <path id="Trazado_150203" data-name="Trazado 150203" d="M-3154.948,3345.377c-1.624,2.406-3.882,4.227-5.877,6.282-4.783,4.925-9.676,9.742-14.548,14.58-.744.739-1.611,1.354-2.421,2.027q0-13.763,0-27.526a18.609,18.609,0,0,1,4.027-4.836,2.611,2.611,0,0,1,2.48-.826c1.085.262,1.48,1.238,2.04,2.02a16.083,16.083,0,0,0,10.931,6.886C-3157.115,3344.173-3155.719,3344.078-3154.948,3345.377Z" transform="translate(-158.474 -81.223)" fill="#b42218"/>
    <path id="Trazado_150204" data-name="Trazado 150204" d="M-3274.042,3289.049l-3.81.01c-1.519-1.906-1.083-6.191.849-8.338,1.879.42,2.347-.584,2.521-2.237q.535-5.039,1.364-10.046a12.571,12.571,0,0,1,11.312-10.6c2.225-.177,3.1.685,2.6,2.841-1.387,5.964-2.871,11.906-4.316,17.857-1.734,3.757-5.054,6.145-7.794,9.033A8.87,8.87,0,0,1-3274.042,3289.049Z" transform="translate(-100.381 -36.809)" fill="#2e3c42"/>
    <path id="Trazado_150205" data-name="Trazado 150205" d="M-3381.907,3584.49a4.554,4.554,0,0,0-2.2,1.572q-15.468,15.462-30.928,30.93a4.585,4.585,0,0,0-1.587,2.188,21.958,21.958,0,0,1-4.672-4.615,5.376,5.376,0,0,0,2.5-1.877q15.872-15.855,31.735-31.719c.7-.7,1.456-1.329,2.186-1.991Z" transform="translate(-18.379 -221.587)" fill="#2e3c42"/>
    <path id="Trazado_150206" data-name="Trazado 150206" d="M-3218.55,3509.343c-1.51-1.268-3-2.56-4.54-3.791a1.805,1.805,0,0,1-.755-1.623,25.229,25.229,0,0,0-1.712-10.153c-.338-.858-.363-1.423.633-1.829,4.832-1.97,9.646-3.986,14.471-5.972a2.66,2.66,0,0,1,.784-.009c-.047,4.172-.147,8.344,1.29,12.333a2.647,2.647,0,0,1-.74,3.233q-3.552,3.624-7.177,7.174C-3216.934,3509.331-3217.612,3509.79-3218.55,3509.343Z" transform="translate(-130.872 -168.058)" fill="#2e3c42"/>
    <path id="Trazado_150207" data-name="Trazado 150207" d="M-3160.711,3468.563q-5.147,5.26-10.291,10.524c-.83.852-1.615,1.749-2.42,2.625-1.76-1.618-2.559-3.778-3.351-5.942a5.021,5.021,0,0,0,2.337-1.736q8.669-8.653,17.317-17.327a29.98,29.98,0,0,1,4.5-3.812c.981-.657,1.568.088,2.189.636a20.6,20.6,0,0,1,1.8,1.8c1.28,1.445,1.314,2.2-.038,3.651-2.216,2.371-4.557,4.621-6.881,6.887a2.3,2.3,0,0,1-2.66.71c-1.96-.759-1.971-.722-2.2,1.436A1.132,1.132,0,0,1-3160.711,3468.563Z" transform="translate(-159.061 -148.897)" fill="#b42218"/>
    <path id="Trazado_150208" data-name="Trazado 150208" d="M-3362.669,3661.694a4.724,4.724,0,0,0,2.231-1.54c6.089-6.092,12.153-12.21,18.293-18.25,1.233-1.213,1.27-1.811-.488-2.189a30.408,30.408,0,0,0,12.25-1.728q-10.474,10.553-20.945,21.112c-.939.948-1.834,1.938-2.75,2.909C-3356.946,3662.026-3359.825,3662.359-3362.669,3661.694Z" transform="translate(-52.107 -255.536)" fill="#2e3c42"/>
    <path id="Trazado_150209" data-name="Trazado 150209" d="M-3323.111,3307.347c-.335-1.339-.681-2.675-1-4.018-.215-.906-.468-1.76-1.575-1.928.855-.8,2.54.042,3-1.526a3.241,3.241,0,0,1,.845-3.287c1.966-2.2,4.089-4.251,6.24-6.272.657-.617,1.368-1.044,2.2-.257.316,2.234.719,4.46.92,6.7.148,1.653.635,2.666,2.519,2.259,1.828,2.12,2.276,6.52.848,8.336Z" transform="translate(-73.385 -55.112)" fill="#2e3c42"/>
    <path id="Trazado_150210" data-name="Trazado 150210" d="M-3318.2,3349.959c-3.445.007-6.889.05-10.332.011-3-.033-4.822-1.614-4.885-4.127-.065-2.584,1.818-4.3,4.906-4.317,5.833-.034,11.667,0,17.5.008a1.282,1.282,0,0,1-.068,2.022C-3313.334,3345.815-3315.274,3348.435-3318.2,3349.959Z" transform="translate(-68.938 -84.961)" fill="#e9ecf0"/>
    <path id="Trazado_150211" data-name="Trazado 150211" d="M-3327.682,3273.41c-1.034-4.292-2.1-8.577-3.086-12.881-.449-1.974.275-2.793,2.231-2.788a12.157,12.157,0,0,1,10.545,7.172,3.593,3.593,0,0,1-.914,2.071c-2.1,2.158-4.187,4.326-6.4,6.374C-3326.038,3274.041-3326.861,3274.752-3327.682,3273.41Z" transform="translate(-70.387 -36.764)" fill="#2e3c42"/>
    <path id="Trazado_150212" data-name="Trazado 150212" d="M-3297.577,3349.961c1.262-2.436,3.556-3.948,5.321-5.934.693-.779,1.618-1.381,1.868-2.491l9.325-.02c2.14.621,2.7,2.23,2.7,4.233s-.56,3.613-2.7,4.238Z" transform="translate(-89.558 -84.964)" fill="#e9ecf0"/>
    <path id="Trazado_150213" data-name="Trazado 150213" d="M-3324.553,3545.922c2-.547,2.835-2.449,4.185-3.722,3.723-3.508,7.587-6.9,10.627-11.073a19.38,19.38,0,0,0,8.077-.038,5.4,5.4,0,0,1-1.828,2.456c-.591.614-1.2,1.2-.708,2.16-.343.874-1.1.671-1.786.71-3.9.219-6.036,2.063-6.844,5.884-.184.867-.074,1.873-1.1,2.341a8.8,8.8,0,0,0-4.258,4.249A27.709,27.709,0,0,0-3324.553,3545.922Z" transform="translate(-74.037 -194.034)" fill="#b42218"/>
    <path id="Trazado_150214" data-name="Trazado 150214" d="M-2978.645,3214.51c-1.638.521-2.569,1.924-3.646,3.08-2.039,2.188-4.625,3.882-6.065,6.616-1.892.455-5.435-1.287-5.944-2.922a108.016,108.016,0,0,1,10.032-9.835,2.789,2.789,0,0,0,.983-1.582A11.179,11.179,0,0,1-2978.645,3214.51Z" transform="translate(-264.046 -9.22)" fill="#b42218"/>
    <path id="Trazado_150215" data-name="Trazado 150215" d="M-3258.684,3349.967c2.307-3.146,2.306-5.343,0-8.472,2.525,0,5.051-.045,7.574.017,2.924.072,4.741,1.8,4.671,4.321-.068,2.452-1.821,4.043-4.668,4.113C-3253.634,3350.008-3256.159,3349.964-3258.684,3349.967Z" transform="translate(-111.932 -84.943)" fill="#e9ecf0"/>
    <path id="Trazado_150216" data-name="Trazado 150216" d="M-3338.293,3390.837q-7.955,7.849-15.916,15.693c-.749.736-1.567,1.4-2.354,2.1l13.23-21.584c2.429-.925,4.664.409,5.327,3.178A1.152,1.152,0,0,1-3338.293,3390.837Z" transform="translate(-55.62 -110.99)" fill="#2e3c42"/>
    <path id="Trazado_150217" data-name="Trazado 150217" d="M-3208.771,3526.086l9.342-9.155a2.818,2.818,0,0,0,.83-1.888,33.324,33.324,0,0,0,3.838,5.948c-1.9.657-2.907,2.381-4.282,3.654-1.65,1.528-3.189,3.174-4.788,4.757a3.132,3.132,0,0,0-1.131,2.184Z" transform="translate(-140.651 -184.801)" fill="#2e3c42"/>
    <path id="Trazado_150218" data-name="Trazado 150218" d="M-3323.327,3283.127c1.068.31,1.5-.59,2.086-1.138,2.576-2.41,4.855-5.125,7.6-7.357,1.36,2.071,1.306,4.475,1.6,6.8-3.536,2.856-7.161,5.628-9.29,9.815Q-3322.327,3287.186-3323.327,3283.127Z" transform="translate(-74.743 -46.482)" fill="#2e3c42"/>
    <path id="Trazado_150219" data-name="Trazado 150219" d="M-3320.372,3381.418a8.269,8.269,0,0,0-5.037-3.372c.233-.432.449-.875.7-1.3,3.565-5.882,3.565-5.854,10.391-5.514,1.234.062,1.683.365,1.221,1.619-.485,1.315-.871,2.667-1.3,4-1.465,1.008-2.166,2.731-3.58,3.8C-3318.707,3381.213-3319.324,3381.939-3320.372,3381.418Z" transform="translate(-73.545 -101.993)" fill="#2e3c42"/>
    <path id="Trazado_150220" data-name="Trazado 150220" d="M-3244.762,3394.857c-1.451.381-2.206,1.642-3.215,2.573-2.4,2.217-4.473,4.774-7.065,6.792a34.359,34.359,0,0,1-1.592-6.394,4.884,4.884,0,0,1,1.48-2.716c1.6-1.578,3.177-3.177,4.773-4.76a2.554,2.554,0,0,1,2.2-1A39.208,39.208,0,0,1-3244.762,3394.857Z" transform="translate(-113.114 -112.475)" fill="#2e3c42"/>
    <path id="Trazado_150221" data-name="Trazado 150221" d="M-3287.795,3306.236c.116-2.819-.836-5.53-.848-8.336,1.66-.067,2.119-.861,1.782-2.488-.411-1.993-.524-4.045-.855-6.056-.309-1.872.93-1.657,2.066-1.668,1.167-.011,2.347-.144,2.038,1.7-.338,2.011-.444,4.064-.856,6.057-.336,1.627.1,2.425,1.783,2.462-.135,2.794-1.018,5.513-.849,8.338Z" transform="translate(-94.698 -53.99)" fill="#2e3c42"/>
    <path id="Trazado_150222" data-name="Trazado 150222" d="M-3263.144,3382.44q-1.254-4.809-2.51-9.619c-.261-1,.047-1.437,1.129-1.406,1.764.051,3.531.045,5.3,0a1.938,1.938,0,0,1,1.9,1.06c1.024,1.769,2.077,3.521,3.119,5.28-.207.738-.817.919-1.458,1.018a9.741,9.741,0,0,0-5.663,3.033C-3261.811,3382.307-3262.31,3382.895-3263.144,3382.44Z" transform="translate(-107.874 -102.165)" fill="#2e3c42"/>
    <path id="Trazado_150223" data-name="Trazado 150223" d="M-3239.794,3460.344c5.228-4.737,10.035-9.9,15.034-14.87a5.039,5.039,0,0,0,.69-1.287c1.163,1,.681,1.876-.087,2.878-3.847,5.014-7.687,10.036-11.435,15.124-.979,1.329-1.619,1.515-2.557.06A17.317,17.317,0,0,0-3239.794,3460.344Z" transform="translate(-122.802 -144.035)" fill="#2e3c42"/>
    <path id="Trazado_150224" data-name="Trazado 150224" d="M-3232.716,3555.588c1.217-2.358,3.434-3.821,5.137-5.743l1.663-1.876a17.868,17.868,0,0,1,5.281,11.387A18.633,18.633,0,0,0-3232.716,3555.588Z" transform="translate(-126.875 -203.745)" fill="#b42218"/>
    <path id="Trazado_150225" data-name="Trazado 150225" d="M-3171.885,3660.474a3.361,3.361,0,0,1,1-1.588q8.067-8.064,16.14-16.123a9.424,9.424,0,0,1,1.188-.867A36.205,36.205,0,0,1-3171.885,3660.474Z" transform="translate(-161.874 -257.785)" fill="#2e3c42"/>
    <path id="Trazado_150226" data-name="Trazado 150226" d="M-3259.624,3391c2.2-3.036,5-4.95,8.932-4.682l.794,1.286a100.077,100.077,0,0,1-8.456,8.476A22.825,22.825,0,0,1-3259.624,3391Z" transform="translate(-111.394 -110.727)" fill="#2e3c42"/>
    <path id="Trazado_150227" data-name="Trazado 150227" d="M-3171.469,3326.755c-1.589.469-2.38,1.912-3.537,2.906-.9.769-1.542,1.853-2.784,2.178q0-4.034,0-8.069c1.865-1.18,2.873-3.378,5.02-4.224C-3171.273,3321.05-3170.538,3325.107-3171.469,3326.755Z" transform="translate(-158.473 -72.324)" fill="#b42218"/>
    <path id="Trazado_150228" data-name="Trazado 150228" d="M-3267.642,3317.123q5.079-5.437,10.521-10.509c-.7,3.068-1.418,6.132-2.085,9.206a1.484,1.484,0,0,1-1.717,1.386C-3263.16,3317.13-3265.4,3317.146-3267.642,3317.123Z" transform="translate(-106.78 -64.883)" fill="#2e3c42"/>
    <path id="Trazado_150229" data-name="Trazado 150229" d="M-3290.777,3516.3c-3.226.452-6.048-.467-8.967-2.6a18.462,18.462,0,0,1,11.922-1.129c.857,1.071.209,1.734-.623,2.372A18.013,18.013,0,0,1-3290.777,3516.3Z" transform="translate(-88.311 -183.08)" fill="#2e3c42"/>
    <path id="Trazado_150230" data-name="Trazado 150230" d="M-3313.547,3388.578c1.463-1.392,2.9-2.812,4.406-4.157.393-.351.748-1.49,1.571-.4-1.069,4.432-2.368,8.8-3.822,13.119-.127-2.868-.448-5.685-2.153-8.136C-3313.546,3388.86-3313.547,3388.719-3313.547,3388.578Z" transform="translate(-80.369 -109.153)" fill="#2e3c42"/>
    <path id="Trazado_150231" data-name="Trazado 150231" d="M-3259.725,3587.548c1.152-4.481,3.438-7.316,7.059-9.088.4-.2.911-.635,1.313-.067.272.384-.029.8-.235,1.173A19.535,19.535,0,0,1-3259.725,3587.548Z" transform="translate(-111.335 -221.088)" fill="#2e3c42"/>
    <path id="Trazado_150232" data-name="Trazado 150232" d="M-3315.15,3587.672a18.9,18.9,0,0,1-7.188-6.955,1.189,1.189,0,0,1-.078-1.382c.374-.508.841-.151,1.31,0C-3318.255,3580.28-3315.3,3584.311-3315.15,3587.672Z" transform="translate(-75.158 -221.639)" fill="#2e3c42"/>
    <path id="Trazado_150233" data-name="Trazado 150233" d="M-3278.628,3516.995c.82-1.375,2.461-2.1,2.955-3.731,1.107.309,2.99.253,3.024,1.26.04,1.183-1.788,1.467-2.92,1.913A6.047,6.047,0,0,1-3278.628,3516.995Z" transform="translate(-100.46 -183.777)" fill="#2e3c42"/>
    <path id="Trazado_150234" data-name="Trazado 150234" d="M-3261.666,3499.377a31.2,31.2,0,0,1,4.172-4.195,6.209,6.209,0,0,1-.44,2.694C-3258.784,3500.728-3258.962,3500.787-3261.666,3499.377Z" transform="translate(-110.218 -173.375)" fill="#2e3c42"/>
    <path id="Trazado_150235" data-name="Trazado 150235" d="M-3164.684,3278.7c-.538-2.384-1.428-4.7-1.306-7.208.486-7.313,3.934-12.636,10.864-15.222,14.87-5.547,29.8-10.935,44.726-16.333,3.77-1.364,7.422-3.062,11.427-3.787,2.024-.367,3.927.165,5.887.182a24.545,24.545,0,0,1,5.944,2.922c7.914,6.621,9.012,15.956,2.8,23.98a14.646,14.646,0,0,1-6.632,4.759q-26.426,9.722-52.9,19.3c-1.382.5-2.852.757-4.282,1.126C-3155.554,3288.382-3161.007,3285.049-3164.684,3278.7Z" transform="translate(-165.259 -24.267)" fill="#252525"/>
    <path id="Trazado_150236" data-name="Trazado 150236" d="M-3140.847,3417.414c-.52-1.038-2.382-1.717-.734-3.315,1-.972,1.84-1.549,2.939-.21.821,1,1.607.852,2.47-.035q3.245-3.333,6.579-6.58c.878-.856,1.024-1.6.057-2.479-1.095-.992-2.148-2.03-3.219-3.048-.471-.826-1.751-1.543-.51-2.638.831-.733,1.39-2.388,3-1.149l.85.842c1.063,1.718,1.833.478,2.6-.285q10.717-10.693,21.417-21.4c2.5-2.494,2.831-2.507,5.643-.348,2.962,3.632,2.962,3.632,6.2.393,4.19-4.191,8.406-8.357,12.554-12.59,1-1.022,1.7-1.17,2.758-.066,1.039,1.082,1.488,1.851.187,3.121-4.7,4.582-9.266,9.292-13.963,13.874-1.263,1.231-1.366,2.169.033,3.237a1.633,1.633,0,0,1,.15.149c4.331,4.4,4.331,4.4-.113,8.844l-19.157,19.159c-2.353,2.354-2.352,2.354.319,4.551-.012,1.944-1.535,2.586-2.9,3.361-1.468-1.516-2.949-3.02-4.4-4.553a1.386,1.386,0,0,0-2.322-.01c-2.22,2.261-4.454,4.509-6.727,6.718-.912.886-.952,1.668.02,2.467,1.368,1.125.686,1.962-.264,2.93-1.081,1.1-1.791.557-2.63-.277C-3133.605,3424.5-3137.232,3420.964-3140.847,3417.414Z" transform="translate(-178.925 -97.747)" fill="#252525"/>
    <path id="Trazado_150237" data-name="Trazado 150237" d="M-3299.549,3550.456c-.045-5.061,1.669-7.779,5.588-9a7.649,7.649,0,0,1,4.146.063,7.372,7.372,0,0,1,5.416,6.581,7.145,7.145,0,0,1-3.38,7.025c-2.764,1.822-5.557,1.59-8.346,0C-3297.97,3554.074-3298.663,3552.2-3299.549,3550.456Z" transform="translate(-88.422 -199.849)" fill="#252525"/>
    <path id="Trazado_150238" data-name="Trazado 150238" d="M-3141.8,3296.978c2.157,5.824,4.277,11.662,6.5,17.463.623,1.63.217,2.332-1.4,2.986-5.8,2.34-11.055,2.02-15.515-2.75a9.341,9.341,0,0,1-2.7-5.84,8.149,8.149,0,0,1,1.767-2.591c2.91-2.863,5.758-5.789,8.691-8.628C-3143.743,3296.924-3142.993,3295.891-3141.8,3296.978Z" transform="translate(-171.635 -59.067)" fill="#d2e1f1"/>
    <path id="Trazado_150239" data-name="Trazado 150239" d="M-3003.266,3250.6c7.493,4.287,7.936,15.411.8,20.23a22.9,22.9,0,0,1-5.919,2.734c-.891.285-1.511.117-1.821-.824-1.32-4-3.139-7.835-4.119-11.956a6.472,6.472,0,0,1,1.925-2.7c2.124-2.13,4.242-4.265,6.384-6.376A2.815,2.815,0,0,1-3003.266,3250.6Z" transform="translate(-252.523 -32.615)" fill="#d2e1f1"/>
    <path id="Trazado_150240" data-name="Trazado 150240" d="M-3079.293,3260.927c-.035.618-1.081.765-1.893,1.063q-9.939,3.65-19.9,7.237c-3.85,1.4-7.726,2.72-11.538,4.213-1.52.6-2.132.179-2.637-1.263-1.118-3.188-1.188-3.2,1.945-4.345q15.315-5.6,30.647-11.153C-3080.876,3256.026-3079.209,3257.83-3079.293,3260.927Z" transform="translate(-194.047 -36.076)" fill="#a6dad7"/>
    <path id="Trazado_150241" data-name="Trazado 150241" d="M-3086.516,3290.8c-6.216,2.658-12.655,4.717-18.986,7.064-1.893.7-1.841-.941-2.241-1.948-.434-1.092-1.069-2.2.754-2.85,7.161-2.55,14.282-5.211,21.438-7.775a25.44,25.44,0,0,1,5.392-1.8c.929,1.029.2,1.778-.441,2.525A23.215,23.215,0,0,1-3086.516,3290.8Z" transform="translate(-198.507 -51.58)" fill="#a6dad7"/>
    <path id="Trazado_150242" data-name="Trazado 150242" d="M-3084.238,3316.811c-4.508,2-9.2,3.489-13.837,5.155a1.137,1.137,0,0,1-1.629-.836c-.276-.8-.538-1.6-.833-2.393a1.253,1.253,0,0,1,.838-1.835q10.446-3.7,20.9-7.391c.915.785.434,1.5-.149,2.159a26.2,26.2,0,0,1-3.99,3.83C-3083.458,3315.878-3084.064,3316.113-3084.238,3316.811Z" transform="translate(-202.844 -66.549)" fill="#a6dad7"/>
    <path id="Trazado_150243" data-name="Trazado 150243" d="M-3062.21,3310.358c-.581-1.08.413-1.49.909-2.1,1.457-1.78,3.624-2.941,4.527-5.2,3.867-1.875,8.035-2.965,12-4.587a1.264,1.264,0,0,1,1.939.9,14.553,14.553,0,0,0,.627,1.79c.594,1.3.3,2.015-1.133,2.509C-3049.649,3305.85-3055.924,3308.121-3062.21,3310.358Z" transform="translate(-224.873 -60.097)" fill="#a6dad7"/>
    <path id="Trazado_150244" data-name="Trazado 150244" d="M-3007.9,3248.022q-4.356,4.249-8.712,8.5a4.9,4.9,0,0,1-2.349,1.685,63.934,63.934,0,0,1-3.317-8.623,1.229,1.229,0,0,1,.568-1.607A13.2,13.2,0,0,1-3007.9,3248.022Z" transform="translate(-247.885 -30.036)" fill="#d2e1f1"/>
    <path id="Trazado_150245" data-name="Trazado 150245" d="M-3142.235,3293.426a4.549,4.549,0,0,0-2.183,1.56q-4.38,4.369-8.751,8.746a4.536,4.536,0,0,1-2.187,1.553,11.857,11.857,0,0,1,4.232-11.854,18.825,18.825,0,0,1,4.306-2.241C-3143.244,3289.8-3143.234,3289.8-3142.235,3293.426Z" transform="translate(-171.197 -55.515)" fill="#d2e1f1"/>
    <path id="Trazado_150246" data-name="Trazado 150246" d="M-3057.12,3287.446a42.825,42.825,0,0,1,4.506-4.757,8.286,8.286,0,0,0,1.851-2.552,49.911,49.911,0,0,1,5.9-2.309c1.055-.432,1.5-.012,1.891.951,1.318,3.206,1.3,3.332-1.963,4.466Q-3051.024,3285.359-3057.12,3287.446Z" transform="translate(-227.902 -48.223)" fill="#a6dad7"/>
    <path id="Trazado_150247" data-name="Trazado 150247" d="M-3092.834,3434.693c-.227-.2-.545-.462-.834-.75-2.3-2.286-4.555-4.615-6.9-6.848-.825-.784-.805-1.322-.044-2.08q10.262-10.226,20.486-20.49a1.472,1.472,0,0,1,2.477.022q3.245,3.335,6.58,6.58c.933.905.821,1.6-.052,2.472q-10.195,10.144-20.349,20.328A1.783,1.783,0,0,1-3092.834,3434.693Z" transform="translate(-202.548 -120.833)" fill="#f9a825"/>
    <path id="Trazado_150248" data-name="Trazado 150248" d="M-3119.927,3482.732a6.661,6.661,0,0,1-2.378-2.258c-.544-.809.31-1.27.766-1.734,2.069-2.112,4.222-4.145,6.247-6.3,1.233-1.31,1.993-.6,2.94.321.973.941,1.289,1.708.151,2.79-2.193,2.085-4.294,4.268-6.438,6.4A1.993,1.993,0,0,1-3119.927,3482.732Z" transform="translate(-190.298 -159.879)" fill="#b42218"/>
    <path id="Trazado_150249" data-name="Trazado 150249" d="M-3282.824,3554.4a3.423,3.423,0,0,1-3.308,3.426,3.416,3.416,0,0,1-3.422-3.309,3.411,3.411,0,0,1,3.306-3.425A3.417,3.417,0,0,1-3282.824,3554.4Z" transform="translate(-94.173 -205.539)" fill="#2e3c42"/>
  </g>
</svg>
