<svg xmlns="http://www.w3.org/2000/svg" xmlns:xlink="http://www.w3.org/1999/xlink" width="215.427" height="221.397" viewBox="0 0 215.427 221.397">
  <defs>
    <linearGradient id="linear-gradient" x1="0.255" y1="0.183" x2="1.032" y2="1.188" gradientUnits="objectBoundingBox">
      <stop offset="0" stop-color="#f5f5f5"/>
      <stop offset="0.25" stop-color="#f5f5f5"/>
      <stop offset="1" stop-color="#a7b3cf"/>
    </linearGradient>
    <linearGradient id="linear-gradient-2" x1="-65.815" y1="0.5" x2="-64.815" y2="0.5" gradientUnits="objectBoundingBox">
      <stop offset="0" stop-color="#f9b776"/>
      <stop offset="1" stop-color="#f47960"/>
    </linearGradient>
    <linearGradient id="linear-gradient-3" x1="-84.732" y1="0.5" x2="-83.732" y2="0.5" xlink:href="#linear-gradient-2"/>
    <linearGradient id="linear-gradient-4" x1="0.5" x2="0.5" y2="1" gradientUnits="objectBoundingBox">
      <stop offset="0" stop-color="#f5f5f5"/>
      <stop offset="0.25" stop-color="#f5f5f5"/>
      <stop offset="1" stop-color="#eeeef2"/>
    </linearGradient>
    <linearGradient id="linear-gradient-5" x1="121.769" y1="1.605" x2="123.769" y2="4.278" xlink:href="#linear-gradient-2"/>
    <linearGradient id="linear-gradient-6" x1="-67.679" y1="0.706" x2="-65.66" y2="-1.072" xlink:href="#linear-gradient-2"/>
    <linearGradient id="linear-gradient-8" x1="-26.782" y1="0.5" x2="-25.782" y2="0.5" xlink:href="#linear-gradient-2"/>
    <linearGradient id="linear-gradient-12" x1="-47.904" y1="1.848" x2="-44.394" y2="-5.381" gradientUnits="objectBoundingBox">
      <stop offset="0" stop-color="#9cfffb"/>
      <stop offset="1" stop-color="#9bfffa"/>
    </linearGradient>
    <linearGradient id="linear-gradient-14" x1="-33.24" y1="0.5" x2="-32.24" y2="0.5" xlink:href="#linear-gradient-2"/>
    <linearGradient id="linear-gradient-15" x1="-30.176" y1="-18.859" x2="-31.385" y2="-17.565" xlink:href="#linear-gradient-2"/>
    <linearGradient id="linear-gradient-16" x1="-90.791" y1="-58.181" x2="-88.104" y2="-60.723" xlink:href="#linear-gradient-2"/>
  </defs>
  <g id="Grupo_91599" data-name="Grupo 91599" transform="translate(-505.549 -465.556)">
    <g id="Grupo_91584" data-name="Grupo 91584" transform="translate(505.549 465.556)">
      <ellipse id="Elipse_4243" data-name="Elipse 4243" cx="95.982" cy="103.604" rx="95.982" ry="103.604" transform="matrix(0.044, -0.999, 0.999, 0.044, 0, 191.78)" fill="url(#linear-gradient)"/>
      <path id="Trazado_150558" data-name="Trazado 150558" d="M767.2,793.21c-2.274,3.651-4.027,7.761-3.7,12.049.381,4.966,2.895,9.616,3.023,14.594.219,8.443-6.3,15.511-8.333,23.709-2.273,9.163,6.3,19.6,9.71,24.718s1.947-4.15,4.017-7.762,6.534,15.2,13.507,19.329c3.741,2.215,8.13,3.69,10.821,7.105,3.924,4.981,2.837,12.069,2.248,18.382s.293,14.008,5.979,16.815c3.348,1.653,7.6,1.093,10.625,3.287,5.306,3.853,2.771,12.252,4.874,18.463,2.286,6.754,6.82,6.843,13.835,8.275s-.884-13.978,2.4-19.364c1.727-2.831,4.364-5.084,5.726-8.107,1.889-4.193,1.357-9.8,5.022-12.574,2.747-2.083,6.57-1.519,10.017-1.55s7.64-1.526,8.031-4.952c.347-3.039-2.7-5.462-5.672-6.167s-6.148-.368-9.072-1.269c-8.362-2.575-12.262-14.276-20.994-14.823-7.464-.468-13.716,7.91-21.05,6.447-4.089-.816-6.887-4.437-9.922-7.3-3.9-3.672-8.737-6.428-11.833-10.8s-3.622-11.357.781-14.406c3.271-2.265,7.919-1.345,11.15.975s5.432,5.764,7.806,8.957a5.929,5.929,0,0,0,2.735,2.375c3.156.988,5.458-3.452,4.7-6.671s-3.029-6.051-3.136-9.356c-.188-5.825,6.084-9.52,11.586-11.439s11.988-4.207,13.606-9.806c.571-1.978.421-4.154,1.294-6.018,2.89-6.179,18.141-9.264,14.5-12.847s-15.216-4.362-17.469-11.578c-.807-2.583-1.637-6-4.332-6.248-4.39-.407-6.894,5.026-10.576,5.959-1.748.443-1.916,3.412-1.848,7.062a4.8,4.8,0,0,1-9.6.182,7.417,7.417,0,0,1,.558-2.969,13.43,13.43,0,0,1,3.412-4.423c5.663-5.407,22.561-11.348,19.023-13.65s-20.522-8.654-23.055-5.148,1.657.537,2.678,4.695-12.563,3.6-18.845,5.4a4.5,4.5,0,0,1-3.159.117c-1.085-.526-1.542-1.789-2.131-2.841-3.155-5.636-13.648-1.978-13.648-1.978A17.075,17.075,0,0,0,767.2,793.21Z" transform="translate(-737.647 -756.366)" fill="#008f85"/>
      <path id="Trazado_150559" data-name="Trazado 150559" d="M1465.167,535.006c-1.525,2.843,3.01,2.8,3.462,5.992,4.083.445,5.76-5.993,9.8-6.744,2.279-.424,4.488,1.209,5.727,3.168s1.816,4.26,2.866,6.327a15.579,15.579,0,0,0,12.384,8.312,4.281,4.281,0,0,0,3.215-.727c2.461-2.169-1.06-6.243-.145-9.393,1.045-3.6,6.235-3.054,9.744-4.374.968-.364,8.41-2.35,8.529-3.377.212-1.82-3.24-2.979-7.1-3.973-6.544-1.683-18.057-1.613-23.685-1.1-7.487.677-19.962.13-24.791,5.892Z" transform="translate(-1388.15 -523.739)" fill="#008f85"/>
      <g id="Grupo_91582" data-name="Grupo 91582" transform="translate(161.159 40.443)">
        <path id="Trazado_150560" data-name="Trazado 150560" d="M2561.782,1064.45a94.376,94.376,0,0,0-.415-32.106c-.526-2.821-1.757-6.183-4.6-6.589-3.285-.47-7.307,3.3-9.364.7-.908-1.15-.546-2.824-.031-4.2a27.806,27.806,0,0,1,6.189-9.7c1.683-1.711,3.609-3.228,4.9-5.248,2.772-4.321.826-10.635-3.1-13.945s-8.984,2.626-13.107.27-4.252-8.074-5.027-12.76c-.574-3.471-3.132-12.875-5.957-8.3s3.768,22.812,11.189,31.551c.9,1.054,1.883,2.235,1.808,3.616-.181,3.3-4.986,3.151-8.218,3.826-4,.836-10.134-1.307-6.75,5.665,1.785,3.677,10.312,8.711,8.021,11.172s-9.335,9.589-12.64,15.354-4.906,12.944-2.414,19.1,9.986,10.413,16.1,7.818c2.863-1.214,5.984-3.74,8.645-2.131,2.41,1.457,2.054,4.955,1.935,7.769s1.5,6.549,4.24,5.888a4.541,4.541,0,0,0,2.218-1.6C2559.27,1076.185,2560.856,1070.245,2561.782,1064.45Z" transform="translate(-2521.059 -971.347)" fill="#008f85"/>
      </g>
      <g id="Grupo_91583" data-name="Grupo 91583" transform="translate(16.063 8.176)" opacity="0.68">
        <path id="Trazado_150561" data-name="Trazado 150561" d="M1607.008,667.515a291.007,291.007,0,0,1-4.15,50.563c-.752,4.167-1.624,8.315-2.663,12.422a119.666,119.666,0,0,1-3.722,12.155c-.74,1.988-1.548,3.953-2.458,5.873a45.579,45.579,0,0,1-3.1,5.577,22.819,22.819,0,0,1-4.164,4.864,11.858,11.858,0,0,1-2.72,1.756,8.136,8.136,0,0,1-3.17.749,7.978,7.978,0,0,1-3.2-.591,11.128,11.128,0,0,1-2.783-1.659,21.67,21.67,0,0,1-4.254-4.788,44.07,44.07,0,0,1-3.146-5.55c-.922-1.915-1.742-3.875-2.489-5.86a116.976,116.976,0,0,1-3.761-12.143c-1.05-4.1-1.931-8.251-2.689-12.417-1.513-8.334-2.543-16.748-3.236-25.185s-1.03-16.9-1.066-25.37c-.018-4.233.088-8.465.236-12.695s.383-8.456.69-12.678c.617-8.442,1.543-16.865,2.925-25.218.693-4.176,1.5-8.334,2.476-12.456a119.716,119.716,0,0,1,3.521-12.206c.708-2,1.483-3.973,2.366-5.9a43.051,43.051,0,0,1,3.03-5.6,20.834,20.834,0,0,1,4.164-4.824,10.627,10.627,0,0,1,2.751-1.652,7.748,7.748,0,0,1,3.161-.564,8.365,8.365,0,0,1,3.124.735,12.22,12.22,0,0,1,2.717,1.7,23.229,23.229,0,0,1,4.255,4.742,45.371,45.371,0,0,1,3.233,5.482c.959,1.892,1.814,3.835,2.6,5.8a115.681,115.681,0,0,1,4,12.059c1.125,4.083,2.077,8.212,2.9,12.365A266.425,266.425,0,0,1,1607.008,667.515Zm-1.015,0c.012-8.438-.312-16.879-1.017-25.287a243.126,243.126,0,0,0-3.321-25.083c-.783-4.145-1.7-8.266-2.78-12.341a115.077,115.077,0,0,0-3.871-12.033c-.767-1.962-1.6-3.9-2.534-5.785a44.962,44.962,0,0,0-3.154-5.458,22.875,22.875,0,0,0-4.142-4.7,11.892,11.892,0,0,0-2.627-1.677,7.882,7.882,0,0,0-3-.729,7.38,7.38,0,0,0-3.029.567,10.3,10.3,0,0,0-2.648,1.624,20.476,20.476,0,0,0-4.043,4.773,42.67,42.67,0,0,0-2.95,5.568c-.859,1.921-1.611,3.891-2.3,5.882a119.092,119.092,0,0,0-3.4,12.177c-.934,4.113-1.7,8.263-2.357,12.431-1.3,8.338-2.152,16.744-2.693,25.166s-.745,16.865-.731,25.3q-.024,12.657.905,25.293c.638,8.413,1.613,16.805,3.068,25.115.729,4.154,1.581,8.287,2.6,12.377a116.326,116.326,0,0,0,3.663,12.09c.729,1.974,1.53,3.922,2.429,5.821a43.44,43.44,0,0,0,3.066,5.49,21.084,21.084,0,0,0,4.1,4.683,10.567,10.567,0,0,0,2.632,1.594,7.292,7.292,0,0,0,2.982.565,7.586,7.586,0,0,0,2.953-.719,11.285,11.285,0,0,0,2.577-1.69,22.233,22.233,0,0,0,4.02-4.763,44.958,44.958,0,0,0,3.016-5.518c.888-1.9,1.676-3.857,2.4-5.834a118.868,118.868,0,0,0,3.62-12.1c1.008-4.093,1.85-8.228,2.572-12.383,1.444-8.312,2.407-16.7,3.046-25.118S1606,675.955,1605.993,667.515Z" transform="translate(-1486.447 -573.61)" fill="#fff" style="mix-blend-mode: soft-light;isolation: isolate"/>
        <path id="Trazado_150562" data-name="Trazado 150562" d="M1095.659,661.711A125.562,125.562,0,0,1,1094.567,678a119.061,119.061,0,0,1-3.271,16,103.718,103.718,0,0,1-13.47,29.627,85.023,85.023,0,0,1-10.312,12.643,72.314,72.314,0,0,1-12.7,10.225,61.27,61.27,0,0,1-14.807,6.8,55.922,55.922,0,0,1-32.23.012,61.293,61.293,0,0,1-14.817-6.795,72.382,72.382,0,0,1-12.715-10.219,85.069,85.069,0,0,1-10.328-12.64,103.855,103.855,0,0,1-13.5-29.636,118.262,118.262,0,0,1-3.288-16,122.848,122.848,0,0,1,.008-32.606,118.144,118.144,0,0,1,3.3-16,103.813,103.813,0,0,1,13.513-29.619,85.029,85.029,0,0,1,10.329-12.629,72.178,72.178,0,0,1,12.712-10.2,61.486,61.486,0,0,1,14.807-6.774,55.6,55.6,0,0,1,32.189.011,61.45,61.45,0,0,1,14.8,6.784,72.132,72.132,0,0,1,12.7,10.211,84.969,84.969,0,0,1,10.313,12.631,103.679,103.679,0,0,1,13.484,29.61,119.054,119.054,0,0,1,3.279,15.993A125.526,125.526,0,0,1,1095.659,661.711Zm-1.163,0a124.459,124.459,0,0,0-1.03-16.146,118,118,0,0,0-3.19-15.859,103.349,103.349,0,0,0-13.122-29.463,84.254,84.254,0,0,0-10.122-12.612,70.764,70.764,0,0,0-12.517-10.228,60.5,60.5,0,0,0-14.654-6.794,54.481,54.481,0,0,0-31.929.011,60.465,60.465,0,0,0-14.645,6.8,70.729,70.729,0,0,0-12.5,10.234,84.229,84.229,0,0,0-10.106,12.615,103.217,103.217,0,0,0-13.093,29.454,123.27,123.27,0,0,0,.017,63.965,103.181,103.181,0,0,0,13.108,29.437,84.174,84.174,0,0,0,10.107,12.6,70.543,70.543,0,0,0,12.5,10.219,60.663,60.663,0,0,0,14.636,6.783,54.165,54.165,0,0,0,31.889.011,60.676,60.676,0,0,0,14.645-6.774A70.588,70.588,0,0,0,1067,735.758a84.231,84.231,0,0,0,10.123-12.6,103.311,103.311,0,0,0,13.137-29.446,117.96,117.96,0,0,0,3.2-15.856A124.439,124.439,0,0,0,1094.5,661.711Z" transform="translate(-932.409 -567.805)" fill="#fff" style="mix-blend-mode: soft-light;isolation: isolate"/>
        <path id="Trazado_150563" data-name="Trazado 150563" d="M800.363,1273.832l21.593-.141,21.593-.081,43.186-.065,43.186.071,21.593.088,21.593.152a.051.051,0,0,1,0,.1l-21.593.153-21.593.087-43.186.071-43.186-.065-21.593-.081-21.593-.141a.076.076,0,0,1,0-.153Z" transform="translate(-792.783 -1217.115)" fill="#fff" style="mix-blend-mode: soft-light;isolation: isolate"/>
        <path id="Trazado_150564" data-name="Trazado 150564" d="M1113.658,821.519l15.331-.141,15.331-.08c5.11-.034,10.22-.03,15.33-.041l15.33-.024,30.661.071,15.331.088,15.33.152a.051.051,0,0,1,0,.1l-15.33.153-15.331.087-30.661.071-15.33-.024c-5.11-.011-10.22-.007-15.33-.041l-15.331-.08-15.331-.141a.076.076,0,0,1,0-.153Z" transform="translate(-1081.027 -800.969)" fill="#fff" style="mix-blend-mode: soft-light;isolation: isolate"/>
        <path id="Trazado_150565" data-name="Trazado 150565" d="M706.516,1726.147l23.469-.141,23.469-.08,46.938-.065,46.938.071,23.469.087,23.469.152a.052.052,0,0,1,0,.1l-23.469.152-23.469.087-46.938.071-46.938-.064-23.469-.081-23.469-.141a.077.077,0,0,1,0-.153Z" transform="translate(-706.44 -1633.264)" fill="#fff" style="mix-blend-mode: soft-light;isolation: isolate"/>
        <path id="Trazado_150566" data-name="Trazado 150566" d="M800.363,2178.461l21.593-.141,21.593-.081,43.186-.064,43.186.071,21.593.088,21.593.152a.051.051,0,0,1,0,.1l-21.593.153-21.593.088-43.186.071-43.186-.065-21.593-.08-21.593-.141a.076.076,0,0,1,0-.153Z" transform="translate(-792.783 -2049.411)" fill="#fff" style="mix-blend-mode: soft-light;isolation: isolate"/>
        <path id="Trazado_150567" data-name="Trazado 150567" d="M1272.731,2632.2H1150.087a.268.268,0,0,1,0-.536h122.644a.268.268,0,1,1,0,.536Z" transform="translate(-1114.367 -2466.642)" fill="#fff" style="mix-blend-mode: soft-light;isolation: isolate"/>
      </g>
    </g>
    <g id="Grupo_91587" data-name="Grupo 91587" transform="translate(627.974 585.816)">
      <ellipse id="Elipse_4244" data-name="Elipse 4244" cx="29.104" cy="6.668" rx="29.104" ry="6.668" transform="translate(0.035)" fill="#2a383e"/>
      <ellipse id="Elipse_4245" data-name="Elipse 4245" cx="29.104" cy="6.668" rx="29.104" ry="6.668" transform="translate(0.035 82.013)" fill="#2a383e"/>
      <g id="Grupo_91585" data-name="Grupo 91585" transform="translate(0.537 1.384)">
        <rect id="Rectángulo_33294" data-name="Rectángulo 33294" width="57.203" height="80.482" transform="translate(0 6.311)" fill="#1d272b"/>
        <ellipse id="Elipse_4246" data-name="Elipse 4246" cx="28.601" cy="6.311" rx="28.601" ry="6.311" fill="#1d272b"/>
        <ellipse id="Elipse_4247" data-name="Elipse 4247" cx="28.601" cy="6.311" rx="28.601" ry="6.311" transform="translate(0 80.314)" fill="#1d272b"/>
      </g>
      <g id="Grupo_91586" data-name="Grupo 91586" transform="translate(0 22.228)">
        <path id="Trazado_150568" data-name="Trazado 150568" d="M2065.957,2811.6a234.307,234.307,0,0,1-28.839-1.791.537.537,0,1,1,.132-1.066,229.237,229.237,0,0,0,57.069,0,.537.537,0,0,1,.135,1.066A226.117,226.117,0,0,1,2065.957,2811.6Z" transform="translate(-2036.646 -2763.87)" fill="#2a383e"/>
        <path id="Trazado_150569" data-name="Trazado 150569" d="M2065.957,2247.559a234.354,234.354,0,0,0-28.839,1.791.537.537,0,1,0,.132,1.066,229.237,229.237,0,0,1,57.069,0,.537.537,0,0,0,.135-1.066A226.163,226.163,0,0,0,2065.957,2247.559Z" transform="translate(-2036.646 -2247.559)" fill="#2a383e"/>
      </g>
    </g>
    <g id="Grupo_91590" data-name="Grupo 91590" transform="translate(525.465 584.809)">
      <ellipse id="Elipse_4248" data-name="Elipse 4248" cx="29.104" cy="6.668" rx="29.104" ry="6.668" transform="translate(0.035)" fill="#2a383e"/>
      <ellipse id="Elipse_4249" data-name="Elipse 4249" cx="29.104" cy="6.668" rx="29.104" ry="6.668" transform="translate(0.035 82.013)" fill="#2a383e"/>
      <g id="Grupo_91588" data-name="Grupo 91588" transform="translate(0.537 1.384)">
        <rect id="Rectángulo_33295" data-name="Rectángulo 33295" width="57.203" height="80.482" transform="translate(0 6.311)" fill="#1d272b"/>
        <ellipse id="Elipse_4250" data-name="Elipse 4250" cx="28.601" cy="6.311" rx="28.601" ry="6.311" fill="#1d272b"/>
        <ellipse id="Elipse_4251" data-name="Elipse 4251" cx="28.601" cy="6.311" rx="28.601" ry="6.311" transform="translate(0 80.314)" fill="#1d272b"/>
      </g>
      <g id="Grupo_91589" data-name="Grupo 91589" transform="translate(0 22.228)">
        <path id="Trazado_150570" data-name="Trazado 150570" d="M783.946,2799.008a234.358,234.358,0,0,1-28.839-1.791.537.537,0,0,1,.132-1.066,229.238,229.238,0,0,0,57.069,0,.537.537,0,1,1,.135,1.066A226.121,226.121,0,0,1,783.946,2799.008Z" transform="translate(-754.636 -2751.275)" fill="#2a383e"/>
        <path id="Trazado_150571" data-name="Trazado 150571" d="M783.946,2234.964a234.31,234.31,0,0,0-28.839,1.791.537.537,0,1,0,.132,1.066,229.238,229.238,0,0,1,57.069,0,.537.537,0,1,0,.135-1.066A226.121,226.121,0,0,0,783.946,2234.964Z" transform="translate(-754.636 -2234.964)" fill="#2a383e"/>
      </g>
    </g>
    <g id="Grupo_91593" data-name="Grupo 91593" transform="translate(576.06 580.214)">
      <ellipse id="Elipse_4252" data-name="Elipse 4252" cx="32.141" cy="7.363" rx="32.141" ry="7.363" transform="translate(0.039)" fill="#2a383e"/>
      <ellipse id="Elipse_4253" data-name="Elipse 4253" cx="32.141" cy="7.363" rx="32.141" ry="7.363" transform="translate(0.039 90.573)" fill="#2a383e"/>
      <g id="Grupo_91591" data-name="Grupo 91591" transform="translate(0.593 1.529)">
        <rect id="Rectángulo_33296" data-name="Rectángulo 33296" width="63.174" height="88.882" transform="translate(0 6.97)" fill="#1d272b"/>
        <ellipse id="Elipse_4254" data-name="Elipse 4254" cx="31.587" cy="6.97" rx="31.587" ry="6.97" fill="#1d272b"/>
        <ellipse id="Elipse_4255" data-name="Elipse 4255" cx="31.587" cy="6.97" rx="31.587" ry="6.97" transform="translate(0 88.697)" fill="#1d272b"/>
      </g>
      <g id="Grupo_91592" data-name="Grupo 91592" transform="translate(0 24.548)">
        <path id="Trazado_150572" data-name="Trazado 150572" d="M1419.763,2829.441a258.836,258.836,0,0,1-31.849-1.978.593.593,0,0,1,.146-1.177,253.171,253.171,0,0,0,63.026,0,.593.593,0,0,1,.15,1.177A249.744,249.744,0,0,1,1419.763,2829.441Z" transform="translate(-1387.394 -2776.725)" fill="#2a383e"/>
        <path id="Trazado_150573" data-name="Trazado 150573" d="M1419.763,2206.523a258.836,258.836,0,0,0-31.849,1.978.593.593,0,0,0,.146,1.177,253.171,253.171,0,0,1,63.026,0,.593.593,0,0,0,.15-1.177A249.744,249.744,0,0,0,1419.763,2206.523Z" transform="translate(-1387.394 -2206.523)" fill="#2a383e"/>
      </g>
    </g>
    <g id="Grupo_91600" data-name="Grupo 91600" transform="translate(589.127 613.465)">
      <path id="Trazado_149840" data-name="Trazado 149840" d="M183.763,260.932c-.44-.255-.876-.478-1.273-.756a.574.574,0,0,1-.162-.487,2.466,2.466,0,0,0-1.688-2.854c-.122-.036-.292-.187-.3-.293-.032-.482-.014-.967-.014-1.442a8.155,8.155,0,0,0,1.544-16.049c2.108-.2,5.886,2.452,7.42,5.248a10.762,10.762,0,0,1,.619,9.167,10.745,10.745,0,0,1,8.637,13.852c.524-4.861-1.2-8.36-5.973-9.714C189,256.587,186.054,257.956,183.763,260.932Z" transform="translate(-160.838 -239.035)" fill="#f8f8f8"/>
      <path id="Trazado_149841" data-name="Trazado 149841" d="M169.287,307.1a10.7,10.7,0,0,1-16.461-.4,10.667,10.667,0,0,1-9.949,3.832,10,10,0,0,1-6.081-3.187c3.571,2.548,7.234,2.887,10.691,0,3.13-2.611,3.546-6.034,2.071-9.8.422-.248.847-.518,1.294-.742a.511.511,0,0,1,.41.111,2.428,2.428,0,0,0,3.234,0,.539.539,0,0,1,.459-.055c.435.216.847.48,1.272.729-1.645,4.24-.979,7.946,2.895,10.505C162.642,310.416,166.123,309.749,169.287,307.1Z" transform="translate(-133.756 -274.963)" fill="#f8f8f8"/>
      <path id="Trazado_149842" data-name="Trazado 149842" d="M144.116,260.861a8.239,8.239,0,0,0-9.906-3.1,8.028,8.028,0,0,0-4.2,3.9,8.387,8.387,0,0,0-.635,5.645c-1.982-4.628.719-12.692,8.423-13.963a10.669,10.669,0,0,1,8.112-14.319,8.441,8.441,0,0,0-4.589,3.112,7.931,7.931,0,0,0-1.571,5.352,8.23,8.23,0,0,0,7.621,7.6c0,.477.023.963-.015,1.444a.577.577,0,0,1-.318.358,2.464,2.464,0,0,0-1.546,2.8.581.581,0,0,1-.18.465C144.943,260.416,144.537,260.619,144.116,260.861Z" transform="translate(-128.748 -239.027)" fill="#f8f8f8"/>
      <path id="Trazado_149843" data-name="Trazado 149843" d="M158.657,299.763a10.119,10.119,0,0,1-6.17-10.047c.017-.316.1-.484.456-.391.591.155,1.195.27,1.769.47a.713.713,0,0,1,.377.533,7.562,7.562,0,0,0,3.886,6.7.585.585,0,0,1,.265.451C159.08,298.228,158.867,298.965,158.657,299.763Z" transform="translate(-143.508 -270.307)" fill="#f8f8f8"/>
      <path id="Trazado_149844" data-name="Trazado 149844" d="M194.97,289.375a9.973,9.973,0,0,1-6.077,10.52c-.2-.79-.414-1.56-.574-2.341-.022-.109.2-.314.348-.4a7.5,7.5,0,0,0,3.665-5.138,8.574,8.574,0,0,0,.147-1.508c.008-.3.076-.486.371-.564C193.542,289.757,194.233,289.571,194.97,289.375Z" transform="translate(-165.813 -270.354)" fill="#f8f8f8"/>
      <path id="Trazado_149845" data-name="Trazado 149845" d="M175.392,267.638c-.585.571-1.125,1.118-1.694,1.633a.517.517,0,0,1-.469.006,7.6,7.6,0,0,0-7.848-.007.561.561,0,0,1-.511-.025c-.559-.5-1.084-1.04-1.627-1.572A9.935,9.935,0,0,1,175.392,267.638Z" transform="translate(-150.211 -255.551)" fill="#f8f8f8"/>
    </g>
    <g id="Grupo_91601" data-name="Grupo 91601" transform="translate(538.769 616.54)">
      <path id="Trazado_149840-2" data-name="Trazado 149840" d="M183.172,257.171c-.364-.211-.726-.4-1.054-.626a.475.475,0,0,1-.134-.4,2.043,2.043,0,0,0-1.4-2.364c-.1-.03-.242-.155-.247-.243-.027-.4-.012-.8-.012-1.195a6.754,6.754,0,0,0,1.279-13.292c1.746-.167,4.875,2.03,6.145,4.347a8.913,8.913,0,0,1,.513,7.592,8.9,8.9,0,0,1,7.154,11.472c.434-4.026-1-6.924-4.947-8.045C187.506,253.573,185.069,254.706,183.172,257.171Z" transform="translate(-164.185 -239.036)" fill="#f8f8f8"/>
      <path id="Trazado_149841-2" data-name="Trazado 149841" d="M163.705,305.324a8.858,8.858,0,0,1-13.633-.335,8.835,8.835,0,0,1-8.24,3.173,8.281,8.281,0,0,1-5.036-2.64c2.957,2.11,5.991,2.391,8.854,0,2.592-2.162,2.937-5,1.716-8.116.35-.205.7-.429,1.072-.615a.424.424,0,0,1,.339.092,2.011,2.011,0,0,0,2.678,0,.446.446,0,0,1,.38-.046c.36.179.7.4,1.053.6-1.363,3.511-.811,6.581,2.4,8.7C158.2,308.074,161.085,307.522,163.705,305.324Z" transform="translate(-134.278 -278.711)" fill="#f8f8f8"/>
      <path id="Trazado_149842-2" data-name="Trazado 149842" d="M141.476,257.11a6.823,6.823,0,0,0-8.2-2.566,6.648,6.648,0,0,0-3.479,3.231,6.946,6.946,0,0,0-.526,4.675c-1.642-3.833.6-10.511,6.976-11.564a8.836,8.836,0,0,1,6.718-11.859,6.991,6.991,0,0,0-3.8,2.577,6.568,6.568,0,0,0-1.3,4.433,6.816,6.816,0,0,0,6.312,6.3c0,.395.019.8-.012,1.2a.478.478,0,0,1-.263.3,2.041,2.041,0,0,0-1.281,2.318.481.481,0,0,1-.149.385C142.161,256.742,141.825,256.91,141.476,257.11Z" transform="translate(-128.748 -239.027)" fill="#f8f8f8"/>
      <path id="Trazado_149843-2" data-name="Trazado 149843" d="M157.594,297.965a8.38,8.38,0,0,1-5.11-8.321c.014-.262.086-.4.377-.324.489.129.99.223,1.465.389a.591.591,0,0,1,.312.441,6.263,6.263,0,0,0,3.219,5.551.484.484,0,0,1,.22.373C157.944,296.694,157.768,297.3,157.594,297.965Z" transform="translate(-145.047 -273.569)" fill="#f8f8f8"/>
      <path id="Trazado_149844-2" data-name="Trazado 149844" d="M193.827,289.375a8.259,8.259,0,0,1-5.033,8.712c-.166-.655-.343-1.292-.475-1.939-.018-.09.164-.26.288-.334a6.21,6.21,0,0,0,3.035-4.256,7.1,7.1,0,0,0,.122-1.249c.006-.244.063-.4.308-.467Z" transform="translate(-169.679 -273.622)" fill="#f8f8f8"/>
      <path id="Trazado_149845-2" data-name="Trazado 149845" d="M173.3,267.285c-.484.473-.932.926-1.4,1.352a.428.428,0,0,1-.388,0,6.3,6.3,0,0,0-6.5-.006.464.464,0,0,1-.423-.02c-.463-.415-.9-.861-1.348-1.3A8.228,8.228,0,0,1,173.3,267.285Z" transform="translate(-152.45 -257.275)" fill="#f8f8f8"/>
    </g>
    <g id="Grupo_91602" data-name="Grupo 91602" transform="translate(648.455 616.54)">
      <path id="Trazado_149840-3" data-name="Trazado 149840" d="M183.172,257.171c-.364-.211-.726-.4-1.054-.626a.475.475,0,0,1-.134-.4,2.043,2.043,0,0,0-1.4-2.364c-.1-.03-.242-.155-.247-.243-.027-.4-.012-.8-.012-1.195a6.754,6.754,0,0,0,1.279-13.292c1.746-.167,4.875,2.03,6.145,4.347a8.913,8.913,0,0,1,.513,7.592,8.9,8.9,0,0,1,7.154,11.472c.434-4.026-1-6.924-4.947-8.045C187.506,253.573,185.069,254.706,183.172,257.171Z" transform="translate(-164.185 -239.036)" fill="#f8f8f8"/>
      <path id="Trazado_149841-3" data-name="Trazado 149841" d="M163.705,305.324a8.858,8.858,0,0,1-13.633-.335,8.835,8.835,0,0,1-8.24,3.173,8.281,8.281,0,0,1-5.036-2.64c2.957,2.11,5.991,2.391,8.854,0,2.592-2.162,2.937-5,1.716-8.116.35-.205.7-.429,1.072-.615a.424.424,0,0,1,.339.092,2.011,2.011,0,0,0,2.678,0,.446.446,0,0,1,.38-.046c.36.179.7.4,1.053.6-1.363,3.511-.811,6.581,2.4,8.7C158.2,308.074,161.085,307.522,163.705,305.324Z" transform="translate(-134.278 -278.711)" fill="#f8f8f8"/>
      <path id="Trazado_149842-3" data-name="Trazado 149842" d="M141.476,257.11a6.823,6.823,0,0,0-8.2-2.566,6.648,6.648,0,0,0-3.479,3.231,6.946,6.946,0,0,0-.526,4.675c-1.642-3.833.6-10.511,6.976-11.564a8.836,8.836,0,0,1,6.718-11.859,6.991,6.991,0,0,0-3.8,2.577,6.568,6.568,0,0,0-1.3,4.433,6.816,6.816,0,0,0,6.312,6.3c0,.395.019.8-.012,1.2a.478.478,0,0,1-.263.3,2.041,2.041,0,0,0-1.281,2.318.481.481,0,0,1-.149.385C142.161,256.742,141.825,256.91,141.476,257.11Z" transform="translate(-128.748 -239.027)" fill="#f8f8f8"/>
      <path id="Trazado_149843-3" data-name="Trazado 149843" d="M157.594,297.965a8.38,8.38,0,0,1-5.11-8.321c.014-.262.086-.4.377-.324.489.129.99.223,1.465.389a.591.591,0,0,1,.312.441,6.263,6.263,0,0,0,3.219,5.551.484.484,0,0,1,.22.373C157.944,296.694,157.768,297.3,157.594,297.965Z" transform="translate(-145.047 -273.569)" fill="#f8f8f8"/>
      <path id="Trazado_149844-3" data-name="Trazado 149844" d="M193.827,289.375a8.259,8.259,0,0,1-5.033,8.712c-.166-.655-.343-1.292-.475-1.939-.018-.09.164-.26.288-.334a6.21,6.21,0,0,0,3.035-4.256,7.1,7.1,0,0,0,.122-1.249c.006-.244.063-.4.308-.467Z" transform="translate(-169.679 -273.622)" fill="#f8f8f8"/>
      <path id="Trazado_149845-3" data-name="Trazado 149845" d="M173.3,267.285c-.484.473-.932.926-1.4,1.352a.428.428,0,0,1-.388,0,6.3,6.3,0,0,0-6.5-.006.464.464,0,0,1-.423-.02c-.463-.415-.9-.861-1.348-1.3A8.228,8.228,0,0,1,173.3,267.285Z" transform="translate(-152.45 -257.275)" fill="#f8f8f8"/>
    </g>
    <g id="Grupo_91598" data-name="Grupo 91598" transform="translate(648.455 588.761)">
      <path id="Trazado_150574" data-name="Trazado 150574" d="M2540.033,3162.981s.341,1.93.508,3.84a1.316,1.316,0,0,1-1.259,1.426c-2.544.106-7.985.312-9.937.225a.428.428,0,0,1-.377-.587.959.959,0,0,1,.49-.516l8.988-4.131Z" transform="translate(-2510.055 -3070.502)" fill="#db8804"/>
      <path id="Trazado_150575" data-name="Trazado 150575" d="M2637.558,3144.7l-.274,2.308a2.864,2.864,0,0,1-2.65-.092l.652-2.572Z" transform="translate(-2607.301 -3053.355)" fill="url(#linear-gradient-2)"/>
      <path id="Trazado_150576" data-name="Trazado 150576" d="M2639.531,2606.1c.118.6.635,30.078-2.516,43.287a.449.449,0,0,0,.263.522,7.824,7.824,0,0,0,2.566.521.773.773,0,0,0,.766-.554c.9-3.065,5.216-18.42,5.779-33.088.629-16.39,0-.558,0-.558l-.369-10.131Z" transform="translate(-2609.479 -2558.152)" fill="#868695"/>
      <path id="Trazado_150577" data-name="Trazado 150577" d="M2755.515,3175.57a13.881,13.881,0,0,1,1.068,3.563.8.8,0,0,1-.707.962c-.84.082-2.133.188-3.169.182a.8.8,0,0,1-.793-.893,6.751,6.751,0,0,1,1.576-3.7Z" transform="translate(-2715.198 -3082.085)" fill="#db8804"/>
      <path id="Trazado_150578" data-name="Trazado 150578" d="M2773.921,3136.883l-.64,3.49a2.257,2.257,0,0,1-1.884.13l.305-3.756Z" transform="translate(-2733.127 -3046.366)" fill="url(#linear-gradient-3)"/>
      <path id="Trazado_150579" data-name="Trazado 150579" d="M2678.1,2598.66c2.577,15.551-.559,38.437-1.617,42.916a.7.7,0,0,1-.564.53,4.69,4.69,0,0,1-2.015-.08.641.641,0,0,1-.46-.59c-.142-3.621.114-25.853-2.287-34.638a2,2,0,0,0-.77-1.1l-4.66-3.313-.357-5.355Z" transform="translate(-2635.573 -2549.802)" fill="#868695"/>
      <path id="Trazado_150580" data-name="Trazado 150580" d="M2528.193,2248.843a72.591,72.591,0,0,1,16.243,2.028c2.3,13.431.4,28.923.4,28.923-5.978,1.568-12.722-.958-12.722-.958-.993-5.614-5.63-21.414-5.63-21.414-3.773-.468-2.953-3.564-5.513-5,1.952-2.263-1.055-1.166-.655-2.868C2523.049,2250.4,2525.812,2248.882,2528.193,2248.843Z" transform="translate(-2502.091 -2229.453)" fill="#1d272b"/>
      <path id="Trazado_150581" data-name="Trazado 150581" d="M2333.958,2099.917a1.477,1.477,0,0,1,1.719-.483c1.136,4.8,7.095,8.692,13.217,10.595a16.56,16.56,0,0,1-3.273,6.845C2335.461,2111.162,2333.958,2099.917,2333.958,2099.917Z" transform="translate(-2330.666 -2091.901)" fill="url(#linear-gradient-4)"/>
      <g id="Grupo_91594" data-name="Grupo 91594">
        <path id="Trazado_150582" data-name="Trazado 150582" d="M2296.26,2014.655c-.079.252.84.636,1.381-.4.019-.495.32-2.614.024-3.017a39.467,39.467,0,0,0-4.626-4.836.727.727,0,0,0-.091,1.009l1.48,1.542a7.167,7.167,0,0,0-.864,1.709,2.074,2.074,0,0,0,.207,1.527c.26.468.614,1.077.95,1.553A2.048,2.048,0,0,0,2296.26,2014.655Z" transform="translate(-2292.784 -2006.406)" fill="url(#linear-gradient-5)"/>
        <path id="Trazado_150583" data-name="Trazado 150583" d="M2318.024,2050.829l1.349,1.144.423,1.139-1.2,1.334a15.521,15.521,0,0,0-.7-2.749C2317.588,2051.208,2317.744,2050.972,2318.024,2050.829Z" transform="translate(-2315.731 -2047.277)" fill="url(#linear-gradient-6)"/>
      </g>
      <path id="Trazado_150584" data-name="Trazado 150584" d="M2785.331,2281.741l2.962-7.478s7.213,4.9,8.4,11.115a17.072,17.072,0,0,0-6.27,1.681C2789.888,2284.125,2785.331,2281.741,2785.331,2281.741Z" transform="translate(-2745.947 -2252.846)" fill="url(#linear-gradient-4)"/>
      <path id="Trazado_150585" data-name="Trazado 150585" d="M2659.511,2170.5l2.457,7.106a.256.256,0,0,1-.117.308,5.776,5.776,0,0,1-5.991-.4,1.208,1.208,0,0,1-.555-.861l-.8-6.15Z" transform="translate(-2625.587 -2157.378)" fill="url(#linear-gradient-8)"/>
      <path id="Trazado_150586" data-name="Trazado 150586" d="M2691.175,2235.607l-2.932-2.49-4.386,10.709,3.2,42.552,9.987.3a.256.256,0,0,0,.263-.264l-1.394-40.938s-.038-8.846-.978-9.067S2691.175,2235.607,2691.175,2235.607Z" transform="translate(-2652.587 -2214.989)" fill="url(#linear-gradient-4)"/>
      <path id="Trazado_150587" data-name="Trazado 150587" d="M2604.762,2243.276l-1.7-10.159-1.454,1.278-3.065-.03-.656,8.593,4.374,43.972a.256.256,0,0,0,.291.228l5.408-.78Z" transform="translate(-2573.492 -2214.989)" fill="url(#linear-gradient-4)"/>
      <path id="Trazado_150588" data-name="Trazado 150588" d="M2473.307,2232.371a34.27,34.27,0,0,1-7.77-1.434c-3.34,5.936-4.208,6.11-4.208,6.11a18.748,18.748,0,0,0,10.919,3.906C2479.122,2241.27,2473.307,2232.371,2473.307,2232.371Z" transform="translate(-2447.852 -2212.984)" fill="url(#linear-gradient-4)"/>
      <path id="Trazado_150589" data-name="Trazado 150589" d="M2615.662,2361.961V2363l-3.973-.231v-1.157Z" transform="translate(-2586.19 -2333.211)" fill="url(#linear-gradient-12)"/>
      <path id="Trazado_150590" data-name="Trazado 150590" d="M2685.048,2286.226a.155.155,0,0,0,.073-.018l3.37-1.81a.155.155,0,0,0,.079-.113l.456-3.073,1.2-.212a.153.153,0,0,0,.12-.105l1.3-4.224a.154.154,0,0,0-.293-.091l-1.273,4.135-1.211.215a.154.154,0,0,0-.125.129l-.461,3.106-3.3,1.773a.153.153,0,0,0,.073.289Z" transform="translate(-2653.542 -2254.877)" fill="#1d272b"/>
      <path id="Trazado_150591" data-name="Trazado 150591" d="M2641.489,2258.66a.117.117,0,0,0,.057-.015.115.115,0,0,0,.043-.157l-1.762-3.089.29-1.739a.114.114,0,0,0-.059-.12l-1.4-.746.36-5.016a.115.115,0,0,0-.107-.123.108.108,0,0,0-.123.107l-.365,5.091a.115.115,0,0,0,.061.11l1.4.742-.283,1.7a.116.116,0,0,0,.013.075l1.782,3.125A.115.115,0,0,0,2641.489,2258.66Z" transform="translate(-2610.783 -2228.364)" fill="#1d272b"/>
      <g id="Grupo_91596" data-name="Grupo 91596" transform="translate(13.813 23.286)">
        <path id="Trazado_150592" data-name="Trazado 150592" d="M2694.054,2413.931s8.1,4.577,10.831.669a3.071,3.071,0,0,0,.563-2.387,17.067,17.067,0,0,1,6.27-1.681,8.575,8.575,0,0,1-.932,5.879c-4.787,8.756-17.8-.484-17.8-.484Z" transform="translate(-2674.795 -2401.504)" fill="url(#linear-gradient-4)"/>
        <g id="Grupo_91595" data-name="Grupo 91595">
          <path id="Trazado_150593" data-name="Trazado 150593" d="M2485.764,2333.093l-4.42-15.435a.45.45,0,0,0-.381-.324c-.8-.094-3.121-.356-5.8-.583a65.855,65.855,0,0,0-9.214-.306.452.452,0,0,0-.369.65c1.273,2.576,6.512,13.057,9.135,16.49a.453.453,0,0,0,.365.179l10.255-.1A.452.452,0,0,0,2485.764,2333.093Z" transform="translate(-2465.532 -2314.876)" fill="#f9a825"/>
          <path id="Trazado_150594" data-name="Trazado 150594" d="M2540.286,2298.162l-3.2-.534a.23.23,0,0,0-.256.3l.317.961a.23.23,0,0,0,.188.156l3.084.412a.23.23,0,0,0,.254-.28l-.2-.839A.229.229,0,0,0,2540.286,2298.162Z" transform="translate(-2531.114 -2297.625)" fill="#1d272b"/>
          <path id="Trazado_150595" data-name="Trazado 150595" d="M2525.49,2311.923l-.264-1.375a.317.317,0,0,0-.28-.256l-6.472-.657a.318.318,0,0,0-.341.39l.411,1.713a.319.319,0,0,0,.293.243l6.325.318A.318.318,0,0,0,2525.49,2311.923Z" transform="translate(-2513.919 -2308.673)" fill="#2a383e"/>
          <path id="Trazado_150596" data-name="Trazado 150596" d="M2642.352,2418.26a11.233,11.233,0,0,0,.367-3.43c-.248-.9-.729-2.053-2.333-1.8a23.482,23.482,0,0,0-3.5.932.918.918,0,0,0,1.314.792l-.756.585s.108.937,1.138.436l-.7.776a.819.819,0,0,0,1.2.276C2639.84,2416.338,2640.2,2418.565,2642.352,2418.26Z" transform="translate(-2623.188 -2403.772)" fill="url(#linear-gradient-14)"/>
        </g>
      </g>
      <path id="Trazado_150597" data-name="Trazado 150597" d="M2717.318,2451.127a4.193,4.193,0,0,0,1.991-.4.153.153,0,0,0-.147-.269c-2.137,1.173-7.444-.847-7.5-.867a2.775,2.775,0,0,1-1.394-1.063.153.153,0,1,0-.273.139,3.031,3.031,0,0,0,1.563,1.212A19.39,19.39,0,0,0,2717.318,2451.127Z" transform="translate(-2676.622 -2413.095)" fill="#1d272b"/>
      <path id="Trazado_150598" data-name="Trazado 150598" d="M2724.323,2494.106a.154.154,0,0,0,.006-.307,17.17,17.17,0,0,1-9.657-3.045.153.153,0,1,0-.195.237,17.481,17.481,0,0,0,9.841,3.115Z" transform="translate(-2680.707 -2451.995)" fill="#1d272b"/>
      <g id="Grupo_91597" data-name="Grupo 91597" transform="translate(24.733 1.304)">
        <path id="Trazado_150599" data-name="Trazado 150599" d="M2615.034,2065.564c-.08.111-2.572,8.8-2.572,8.8l4.99,1.317,3.585-7.883S2616.371,2063.707,2615.034,2065.564Z" transform="translate(-2611.634 -2061.693)" fill="url(#linear-gradient-15)"/>
        <path id="Trazado_150600" data-name="Trazado 150600" d="M2609.528,2029.405a.744.744,0,0,1,.069.65l-1.54,4.235a.727.727,0,0,1-.095.18,1.216,1.216,0,0,1-1.917.358,6.542,6.542,0,0,0-2.175-1.6.741.741,0,0,0-.919.514,27.684,27.684,0,0,0-.841,4,.738.738,0,0,0,.594.807,20.556,20.556,0,0,0,4.618.427.741.741,0,0,0,.631-.426c.512-1.09,1.959-4.141,2.5-4.939.5-.741,1.7-.731,2.245-.682a.745.745,0,0,0,.566-.189,1.633,1.633,0,0,0,.131-2.558.742.742,0,0,1,.034-1.033,1.64,1.64,0,0,0,.174-2.4,2.312,2.312,0,0,0-2.692-.727.77.77,0,0,1-.879-.287.49.49,0,0,0-.433-.223.72.72,0,0,1-.733-.719,1.9,1.9,0,0,0-1.455-1.934c-2.179-.7-3.562,1.4-3.711,2.972s2.256,2.2,3.675,2.106C2608.417,2027.867,2609.191,2028.869,2609.528,2029.405Z" transform="translate(-2602.105 -2022.718)" fill="#12263f"/>
        <path id="Trazado_150601" data-name="Trazado 150601" d="M2699.206,2145.5s.379-2.732,1.518-2.855,2.237.822,1.092,2.347C2700.391,2146.884,2699.206,2145.5,2699.206,2145.5Z" transform="translate(-2691.442 -2133.042)" fill="url(#linear-gradient-16)"/>
      </g>
    </g>
  </g>
</svg>
